<svg width="337" height="239" viewBox="0 0 337 239" fill="none" xmlns="http://www.w3.org/2000/svg">
<g opacity="0.8">
<path fill-rule="evenodd" clip-rule="evenodd" d="M176.03 90.0933C175.769 89.717 175.303 90.1644 175.498 90.4362C175.675 90.3221 175.853 90.2077 176.03 90.0933ZM183.224 92.184C182.932 92.0385 182.832 92.2676 182.717 92.5318C182.683 92.6092 182.648 92.6898 182.606 92.7649C182.869 92.9091 182.99 92.6557 183.113 92.3991C183.149 92.3247 183.185 92.2496 183.224 92.184ZM178.158 83.1551C177.57 82.406 177.528 82.6575 177.479 83.5111C177.592 83.4517 177.706 83.3924 177.819 83.3327C177.932 83.2737 178.045 83.2144 178.158 83.1551ZM258.427 42.6447C257.688 42.9909 257.609 43.2423 258.207 43.6658C258.278 43.3363 258.33 43.0948 258.427 42.6447ZM175.77 77.57C175.944 78.1423 176.66 78.2656 176.66 77.57H175.77ZM231.193 48.0764C231.619 48.2121 231.837 48.2816 232.029 48.2376C232.229 48.1921 232.401 48.0236 232.752 47.6794C232.579 47.7236 232.424 47.7633 232.275 47.801C232.156 47.8315 232.04 47.8607 231.924 47.8905C231.699 47.9475 231.47 48.0059 231.193 48.0764ZM211.409 106.742C211.156 106.386 210.904 106.03 210.652 105.674C210.567 105.936 210.482 106.198 210.397 106.459L210.396 106.461L210.333 106.654C210.692 106.683 211.05 106.713 211.409 106.742ZM262.528 33.8953C262.428 34.3707 262.379 34.6057 262.473 34.7401C262.564 34.8715 262.794 34.9066 263.247 34.9764L262.907 34.4647L262.864 34.4005C262.76 34.2444 262.652 34.0812 262.528 33.8953ZM258.526 35.3822C258.495 35.2275 258.463 35.0725 258.432 34.9178L258.427 34.8941C258.397 34.7473 258.367 34.6004 258.337 34.4533C258.284 34.6896 258.079 34.6768 257.88 34.664C257.708 34.6532 257.541 34.6427 257.478 34.7912C257.162 35.5262 258.165 35.4265 258.526 35.3822ZM182.306 90.2202C182.086 89.7852 182.038 89.7514 181.558 89.6603C181.682 90.0943 181.681 90.4332 181.681 90.8676V90.9577C182.464 90.8469 182.71 90.7899 182.724 89.9569L182.306 90.2202ZM180.021 91.7566C179.918 92.1418 179.625 92.0486 179.376 91.969C179.149 91.8969 178.958 91.8362 178.976 92.1526C178.966 91.9697 179.875 93.1714 179.823 93.1327C180.28 93.4772 180.547 93.4448 181.065 93.0494C180.326 93.0216 180.24 92.6525 180.126 92.1568C180.097 92.0306 180.066 91.8959 180.021 91.7566ZM264.23 35.0223C264.069 35.3927 263.908 35.7635 263.747 36.1339L263.711 36.2158C263.562 36.5591 263.413 36.9023 263.263 37.2451C263.196 37.4008 263.143 37.5382 263.098 37.6569C262.883 38.2187 262.825 38.3711 262.042 38.125C262.069 38.0791 262.133 37.9883 262.213 37.8745V37.8742C262.455 37.5316 262.844 36.9806 262.801 36.8138C262.761 36.6567 262.374 36.4627 262.025 36.287C261.809 36.1781 261.606 36.0765 261.508 35.9949C261.224 35.7589 261.121 35.5439 261.012 35.3164C260.948 35.1826 260.881 35.044 260.774 34.8945C260.889 34.5195 260.8 34.3441 260.507 34.3693C260.423 34.5958 260.339 34.822 260.255 35.0482L260.25 35.0626L260.184 35.2383C260.199 35.5868 260.372 35.7199 260.575 35.8762C260.731 35.9965 260.905 36.1303 261.039 36.3863L261.064 36.4351C261.258 36.8059 261.314 36.9128 261.283 36.9803C261.271 37.0075 261.244 37.0281 261.206 37.0573C261.128 37.118 261.003 37.2147 260.862 37.4812C260.731 37.7267 260.641 37.9958 260.553 38.2574C260.386 38.7553 260.228 39.227 259.821 39.4617C260.155 39.6083 260.488 39.7548 260.822 39.901C260.043 40.7559 261.663 40.3396 261.931 40.2567L261.93 40.2583L261.929 40.2599C261.655 40.8408 261.382 41.4213 261.109 42.0022C260.501 41.6623 260.121 41.0968 259.743 40.5343C259.611 40.3366 259.478 40.139 259.336 39.9518C258.919 40.7254 258.503 41.4994 258.087 42.2733C258.277 42.2559 258.466 42.2382 258.655 42.2208C258.88 42.2002 259.105 42.1795 259.329 42.1586C259.316 42.1835 259.279 42.2408 259.23 42.3166L259.229 42.3169C259.061 42.5768 258.751 43.0541 258.786 43.1829C258.87 43.4894 259.203 43.5796 259.528 43.6678C259.925 43.7753 260.311 43.8798 260.225 44.367C260.205 44.4807 258.942 45.7549 258.725 45.8778C258.858 45.9378 258.976 45.9797 259.078 46.0161C259.458 46.1515 259.599 46.202 259.42 46.7937C259.125 46.6157 258.83 46.4374 258.535 46.259C258.48 46.3584 258.423 46.457 258.365 46.556L258.365 46.5563C258.162 46.9064 257.958 47.2588 257.833 47.6437C257.864 47.9666 257.806 48.2724 257.66 48.5615C257.487 48.8201 257.291 49.0614 257.073 49.285C256.901 49.739 256.845 52.2172 257.053 52.6213C257.517 52.0224 258.553 53.0796 256.804 53.0796C256.658 53.0796 256.542 53.074 256.447 53.0691C256.045 53.0491 256.034 53.0485 255.797 53.5929C255.567 54.1223 255.442 54.5842 256.095 54.635C255.701 55.4119 255.691 56.0455 255.679 56.7988C255.677 56.9831 255.674 57.1745 255.665 57.3768C255.637 58.0229 255.491 58.6657 255.345 59.3029C255.303 59.4891 255.261 59.6746 255.221 59.8598C255.299 59.7484 255.377 59.6369 255.454 59.5252C255.532 59.4137 255.61 59.3023 255.688 59.1905C256.031 59.9231 255.878 60.561 255.702 61.294C255.664 61.4543 255.624 61.6195 255.588 61.7909C255.339 61.4615 255.215 61.6585 255.084 61.8663C254.988 62.0204 254.887 62.1804 254.729 62.1351C254.281 62.0073 254.296 61.8994 254.319 61.73C254.336 61.6126 254.356 61.4657 254.23 61.2622C254.172 61.1684 254.128 61.0891 254.089 61.0196C253.951 60.7711 253.883 60.6505 253.497 60.4446C253.028 60.1945 252.306 60.1168 251.661 60.0477C251.406 60.0201 251.164 59.9942 250.953 59.9592C249.724 59.7543 248.493 59.7009 247.25 59.6468L247.2 59.6445C242.483 59.4399 237.783 59.3875 233.066 59.6468C228.727 59.8854 224.283 60.4938 220.028 61.3179C219.725 61.3766 219.422 61.4353 219.12 61.4936C214.905 62.3066 210.774 63.1034 206.68 64.4881C206.303 64.6159 205.925 64.8054 205.548 64.9945V64.9949C205.077 65.2309 204.607 65.4669 204.136 65.5833C203.805 65.6655 203.474 65.7134 203.14 65.7619C202.663 65.8308 202.181 65.9002 201.688 66.0714C200.578 66.4569 199.447 66.7909 198.315 67.1249C197.4 67.3947 196.486 67.6648 195.582 67.9618C195.004 68.1522 194.412 68.3342 193.817 68.5174C192.17 69.0242 190.493 69.5402 188.969 70.2689C188.513 70.4875 188.077 70.7455 187.642 71.0035C187.218 71.2546 186.794 71.506 186.35 71.721C186.164 71.8115 185.95 71.9 185.725 71.9931C184.923 72.3248 183.977 72.7162 183.627 73.4577C183.452 73.8281 183.482 74.0966 183.591 74.4805C183.791 75.1911 183.953 75.1754 184.441 75.1279C184.482 75.1236 184.525 75.1197 184.571 75.1154C185.089 75.0698 185.703 74.7991 186.286 74.5421C186.629 74.3906 186.962 74.2441 187.258 74.1507C189.445 73.4616 191.658 72.91 193.882 72.3579C195.561 71.9413 197.243 71.3893 198.921 70.8386C201.236 70.0794 203.543 69.3222 205.828 68.9239C207.002 68.7193 208.145 68.3381 209.29 67.9565C210.425 67.5783 211.561 67.1993 212.73 66.9912C212.898 66.9613 213.17 66.8633 213.474 66.7535C214.105 66.5257 214.877 66.2467 215.162 66.4182C215.237 66.4634 215.385 66.8401 215.504 67.1423C215.562 67.2914 215.614 67.4226 215.646 67.4862C215.993 68.1798 216.391 68.8495 216.857 69.4707C217.888 70.8458 219.178 72.0246 220.457 73.1928L220.457 73.1932C220.92 73.616 221.381 74.0376 221.828 74.4664C223.238 75.8199 224.513 77.2759 225.793 78.7373V78.7376C226.257 79.267 226.721 79.7974 227.192 80.3235C227.276 80.2268 227.359 80.1298 227.443 80.0331L227.654 79.7879C227.504 80.9385 228.286 81.7937 229.007 82.584C229.038 82.6175 229.068 82.6506 229.099 82.684C229.13 82.7188 229.162 82.7535 229.193 82.7879C230.101 83.7962 230.832 84.7439 231.548 85.8935C231.956 86.5468 232.442 87.1441 232.923 87.7348C233.136 87.9964 233.348 88.257 233.552 88.5205C233.932 89.0122 234.238 89.5629 234.546 90.1166C234.767 90.5152 234.989 90.9151 235.241 91.296C235.766 92.0929 236.288 92.8954 236.81 93.6978C237.659 95.0022 238.507 96.3058 239.369 97.5833C240.024 98.5545 240.541 99.6474 241.059 100.753C241.183 101.018 241.382 101.366 241.6 101.746V101.747C242.105 102.627 242.708 103.682 242.708 104.276C242.678 104.416 242.76 104.79 242.846 105.182C243.015 105.96 243.2 106.806 242.557 106.02C242.514 106.087 242.47 106.155 242.426 106.222L242.362 106.321C242.32 106.387 242.277 106.453 242.235 106.518C242.188 106.591 242.141 106.663 242.094 106.735C242.358 106.625 242.622 106.514 242.887 106.403C242.381 106.861 242.79 107.068 243.169 107.26C243.392 107.372 243.604 107.479 243.616 107.629C243.555 107.688 243.494 107.747 243.433 107.806L243.216 108.016C242.988 108.486 242.691 108.547 242.326 108.199C242.159 108.209 242.047 108.176 241.941 108.145C241.793 108.101 241.657 108.061 241.395 108.148C241.581 108.439 241.791 108.524 241.986 108.602C242.239 108.704 242.469 108.796 242.592 109.318C242.745 109.973 242.384 110.214 241.904 110.534C241.775 110.62 241.637 110.711 241.499 110.818V110.817L241.482 110.814C241.518 110.301 241.267 109.924 240.816 109.685V110.693C240.94 110.715 241.064 110.738 241.188 110.761L241.191 110.761L241.482 110.814C241.482 110.82 241.481 110.826 241.481 110.832L241.499 110.818C241.393 111.224 241.082 111.149 240.711 111.06C240.646 111.044 240.579 111.028 240.511 111.014C239.71 110.849 238.844 110.569 238.025 110.304C237.768 110.221 237.516 110.139 237.271 110.063C235.056 109.372 232.824 108.79 230.534 108.317C226.646 107.515 222.782 107.338 218.886 107.16H218.885C217.546 107.098 216.202 107.036 214.853 106.949C214.86 106.92 214.866 106.893 214.873 106.867C214.939 106.592 214.966 106.48 214.95 106.375C214.938 106.302 214.906 106.234 214.853 106.118C214.845 106.101 214.837 106.083 214.828 106.064C214.912 106.246 214.762 106.262 214.611 106.278C214.38 106.302 214.146 106.326 214.725 106.938C213.212 107.186 211.623 107.165 210.044 107.145C209.067 107.132 208.094 107.12 207.144 107.171C207.17 107.114 207.203 107.055 207.236 106.996C207.353 106.788 207.471 106.576 207.277 106.43C206.434 107.649 204.177 107.62 202.25 107.595C201.488 107.586 200.778 107.577 200.227 107.645C199.562 107.729 198.901 107.857 198.241 107.985C197.768 108.077 197.296 108.169 196.822 108.244C196.742 108.256 196.663 108.269 196.583 108.281C196.104 108.356 195.623 108.431 195.154 108.557C194.983 108.604 194.773 108.698 194.552 108.798C194.124 108.992 193.652 109.205 193.338 109.12C193.82 108.149 193.585 108.43 193.358 108.701C193.256 108.823 193.156 108.942 193.122 108.947C193.056 108.957 192.981 108.969 192.898 108.983C192.568 109.036 192.126 109.107 191.745 109.107C191.969 108.21 192.258 107.342 192.548 106.474C192.96 105.236 193.372 104 193.592 102.683C193.621 102.513 193.655 102.33 193.691 102.139V102.139C193.952 100.756 194.3 98.9131 193.086 98.0428C192.484 97.6115 191.576 97.4485 190.789 97.3072H190.789C190.586 97.2709 190.39 97.2358 190.21 97.1978C189.911 97.1348 189.542 97.0922 189.151 97.047C188.285 96.9473 187.31 96.8346 186.734 96.4605C186.488 96.3009 186.316 96.1462 186.15 95.998C185.876 95.7518 185.621 95.524 185.088 95.3214C184.893 95.2473 184.718 95.1736 184.556 95.1051C183.9 94.8264 183.449 94.6353 182.649 94.8779C182.714 94.7969 182.783 94.7193 182.85 94.6439C183.201 94.2479 183.495 93.9168 182.827 93.4808C182.697 93.3962 182.517 93.391 182.341 93.3854C182.074 93.3772 181.816 93.3694 181.747 93.0901C181.314 93.3959 181.274 93.6588 181.221 94.0023C181.202 94.1276 181.181 94.2636 181.138 94.4164C181.153 94.6583 181.216 94.8891 181.33 95.108L180.929 95.2693L180.392 95.4856C180.511 95.167 180.351 95.1519 180.177 95.1356C180.06 95.1247 179.938 95.1133 179.891 95.0074C179.763 94.7173 179.786 94.3141 179.806 93.9512C179.814 93.8237 179.82 93.7011 179.82 93.5903C179.176 93.7939 178.502 94.0456 178.22 94.7163C177.595 94.3439 177.662 94.2462 177.918 93.8712C177.985 93.7726 178.065 93.6549 178.149 93.508C177.487 93.3513 177.346 93.6922 177.246 94.241C176.995 94.1633 176.743 94.0859 176.492 94.0086L176.485 94.006L176.197 93.9171C176.985 93.9116 177.174 93.2959 177.192 92.6272C177.061 92.6702 176.929 92.7131 176.797 92.756L176.793 92.7574C176.62 92.8137 176.446 92.8701 176.273 92.9265L176.084 93.8971C175.645 94.2692 174.566 93.6919 174.068 93.4254L174.068 93.4251C174.018 93.3985 173.974 93.3753 173.937 93.3559L173.81 93.29C172.486 92.6053 172.003 92.3555 172.197 90.7325C172.266 90.1549 172.37 89.576 172.473 88.9962C172.621 88.1685 172.769 87.3391 172.818 86.5095C172.898 85.1271 172.766 83.6602 172.639 82.2615C172.622 82.075 172.605 81.8898 172.589 81.7059C172.491 80.5881 172.37 79.4758 172.249 78.3649V78.3646C172.044 76.4725 171.839 74.5831 171.744 72.6713C171.722 72.2314 171.7 71.7915 171.678 71.3513L171.678 71.3509C171.617 70.1479 171.555 68.9449 171.508 67.7412C171.5 67.5255 171.48 67.3065 171.461 67.0902C171.365 65.996 171.275 64.9778 172.636 64.8808C172.437 64.2481 173.034 63.5165 173.65 63.17C173.865 62.6793 174.1 62.6353 174.356 63.0389C174.579 63.1087 174.785 63.0759 174.976 62.9399C175.525 62.8156 176.14 62.2915 176.72 61.7978C177.089 61.4838 177.443 61.1822 177.756 61.0035C177.97 60.8816 178.254 60.7443 178.563 60.5941H178.564C179.396 60.1909 180.422 59.6937 180.833 59.1413C181.138 58.7312 181.014 58.5765 180.875 58.4021C180.766 58.2644 180.647 58.115 180.72 57.8186C180.933 56.9585 181.674 58.0612 181.872 58.3552C181.885 58.3749 181.896 58.3913 181.904 58.4028C181.992 58.3139 182.16 58.2002 182.348 58.0733C182.747 57.8032 183.235 57.4735 183.226 57.1981L182.449 57.0594C182.532 57.0116 182.645 56.9355 182.771 56.8506C183.075 56.6458 183.457 56.3884 183.69 56.3429C183.81 56.3196 183.894 56.2947 183.957 56.276C184.035 56.253 184.081 56.2393 184.12 56.2498C184.177 56.2642 184.221 56.3275 184.327 56.4805C184.369 56.5415 184.422 56.6166 184.488 56.7084C184.532 56.6405 184.594 56.5287 184.665 56.3999V56.3996C184.847 56.0698 185.091 55.6263 185.262 55.5106C185.329 55.4653 185.589 55.429 185.821 55.3968C185.983 55.3739 186.132 55.3532 186.19 55.3326C186.598 55.1887 186.756 54.9484 186.909 54.717C187.031 54.5318 187.149 54.3518 187.389 54.2312C187.529 54.161 187.686 54.1859 187.836 54.2099C187.966 54.2308 188.09 54.2505 188.192 54.2059C188.376 54.1256 188.464 53.943 188.552 53.7604C188.631 53.5949 188.711 53.4294 188.862 53.3392C189.011 53.2504 189.283 53.2494 189.554 53.2484C189.784 53.2478 190.013 53.2468 190.165 53.1917C190.529 53.0586 190.639 52.9318 190.793 52.7538C190.87 52.6656 190.957 52.565 191.092 52.4443C191.418 52.1529 191.73 52.0526 192.056 51.9474C192.299 51.869 192.55 51.7881 192.822 51.6232C193.144 51.4275 193.285 51.1112 193.414 50.8194C193.549 50.5159 193.672 50.2389 193.976 50.151C194.32 50.0524 194.553 50.1363 194.742 50.2041C194.992 50.2939 195.165 50.3559 195.412 49.9311C195.451 49.8639 195.403 49.7832 195.35 49.6934C195.27 49.5593 195.178 49.4053 195.345 49.2443C195.641 48.9572 195.787 49.2165 195.923 49.4584C195.944 49.4951 195.965 49.5315 195.985 49.5656L195.986 49.5636L195.988 49.5616C196.168 49.2224 196.347 48.8831 196.527 48.5438C197.058 48.8346 197.128 48.7182 197.253 48.5094C197.333 48.3766 197.436 48.2065 197.693 48.0796C197.834 48.0101 197.963 48.04 198.095 48.0705C198.238 48.1032 198.384 48.137 198.551 48.0459C198.693 47.9692 198.765 47.838 198.836 47.7082C198.884 47.6207 198.931 47.5339 199 47.464C199.099 47.3631 199.184 47.2506 199.27 47.1385C199.466 46.8809 199.661 46.6252 200.014 46.5144C199.831 46.5714 201.332 46.5282 201.198 46.4639C201.053 46.2495 200.906 46.0351 200.76 45.8208C200.919 45.8208 201.074 45.824 201.226 45.8273H201.227C201.827 45.8394 202.386 45.8512 202.992 45.6628L203.005 45.6592C203.274 45.5756 203.685 45.4484 203.906 45.2799L203.924 45.2661C204.196 45.058 204.315 44.9672 204.364 44.8475C204.402 44.7544 204.398 44.644 204.391 44.4479C204.387 44.3453 204.382 44.2194 204.382 44.0601C205.231 44.6004 206.311 44.4115 207.149 43.7851C207.336 43.6451 207.495 43.4934 207.652 43.3423C207.863 43.1403 208.072 42.94 208.346 42.7709C208.552 42.6644 208.761 42.5647 208.974 42.4723C209.24 42.1969 209.507 42.1943 209.774 42.4647C210.04 42.3933 210.117 42.3375 210.241 42.2467C210.293 42.2087 210.354 42.1645 210.44 42.1104C210.524 41.9445 210.613 41.7816 210.709 41.622C211.023 41.5892 211.332 41.5325 211.638 41.4518C211.981 41.3597 212.285 41.2276 212.57 41.1037C213.27 40.7998 213.858 40.5448 214.64 41.0427L214.726 40.8674L214.729 40.8611C214.84 40.6346 214.951 40.4081 215.061 40.1816C215.393 40.6998 215.651 40.5005 215.994 40.2347C216.135 40.1252 216.29 40.0046 216.472 39.918C216.604 39.8548 216.758 39.8158 216.907 39.7777C217.051 39.741 217.191 39.7053 217.306 39.6496C217.438 39.6807 217.571 39.7122 217.704 39.7436C217.816 39.3962 217.928 39.0487 218.041 38.7012C218.1 38.7245 218.206 38.775 218.335 38.8363C218.696 39.0081 219.236 39.2651 219.435 39.246C219.647 39.2261 219.882 39.0202 220.113 38.8179C220.302 38.6514 220.489 38.4872 220.658 38.4315C220.984 38.3243 221.058 38.3587 221.165 38.4092C221.245 38.4475 221.345 38.4944 221.587 38.496C221.643 38.4964 221.696 38.498 221.745 38.4993C222.074 38.5078 222.271 38.5131 222.595 38.1977C221.549 37.926 222.466 37.7736 223.113 37.666C223.245 37.6441 223.366 37.6241 223.456 37.6051C223.686 37.5575 223.884 37.5369 224.064 37.5185C224.532 37.4703 224.87 37.4356 225.285 36.9629H224.688C225.125 36.5659 225.129 36.5669 225.354 36.6154C225.433 36.6322 225.539 36.6551 225.699 36.6685C225.743 36.6721 225.818 36.6977 225.909 36.7289C226.23 36.838 226.745 37.0134 226.746 36.5289C227.547 37.0013 227.556 37.0022 228.383 36.7892C228.532 36.7505 228.673 36.6761 228.815 36.6013C229.019 36.4935 229.225 36.3847 229.462 36.3804C229.649 36.3771 229.811 36.4158 229.967 36.4528C230.138 36.4938 230.303 36.5328 230.486 36.5128C230.674 36.4928 231.284 36.2693 231.586 36.1585C231.621 36.1457 231.651 36.1346 231.676 36.1254C231.868 36.0556 232.027 35.9474 232.184 35.8408C232.35 35.7287 232.512 35.6186 232.704 35.5579C232.925 35.4885 233.177 35.4999 233.43 35.5114C233.653 35.5216 233.876 35.5317 234.079 35.4871C234.501 35.3944 234.866 35.2495 235.215 35.1108C235.935 34.8247 236.587 34.5657 237.53 34.8479C237.675 33.6305 239.154 33.8596 240.008 33.992L240.08 34.0032C240.237 34.0274 240.373 34.0619 240.499 34.0943C240.846 34.1825 241.125 34.2536 241.568 34.0435C241.783 33.9422 241.957 33.815 242.131 33.6885C242.357 33.5236 242.581 33.3597 242.891 33.2545C243.245 33.1345 243.702 33.0421 244.099 32.9614C244.175 32.946 244.249 32.9313 244.319 32.9165C244.59 32.8306 244.868 32.8031 245.152 32.8342C245.455 32.8769 245.705 33.0142 245.904 33.246C245.899 33.2587 245.903 33.2656 245.919 33.2643C245.914 33.2581 245.909 33.2522 245.904 33.246C245.947 33.1437 246.609 32.6526 246.533 32.7133C246.689 32.589 246.818 32.5189 246.932 32.4569C247.18 32.3219 247.355 32.2268 247.563 31.6984C247.387 31.6614 247.21 31.624 247.034 31.5866C246.857 31.5496 246.681 31.5122 246.504 31.4749C246.566 31.4706 246.627 31.4663 246.687 31.4617C247.144 31.4273 247.515 31.3998 247.944 31.5873C248.086 31.6496 248.27 31.8253 248.46 32.0069C248.717 32.2534 248.986 32.5107 249.179 32.511C249.786 32.5117 249.999 31.6558 249.939 31.2103C250.448 32.3973 250.883 32.5949 252.028 31.9882C252.095 31.9525 252.162 31.9171 252.23 31.8813L252.238 31.8767C252.303 31.8426 252.367 31.8086 252.431 31.7741C252.704 31.4886 252.975 31.4939 253.244 31.7902C253.404 31.8774 253.564 31.9643 253.724 32.0515L253.845 31.8495C253.997 31.5968 254.149 31.3441 254.301 31.091C254.71 31.6535 255.098 31.681 255.764 31.5496C255.99 31.505 256.334 31.2801 256.665 31.0635C257.006 30.8406 257.333 30.6268 257.505 30.6268C257.598 30.6268 257.704 30.7357 257.825 30.8596C257.958 30.9956 258.108 31.15 258.279 31.1988C258.821 31.3542 259.663 30.9635 259.856 30.4449C259.959 30.6612 260.061 30.8779 260.164 31.0946C260.228 31.0353 260.291 30.9756 260.355 30.9163C260.548 30.7366 260.74 30.5567 260.931 30.3757C261 30.9661 261.45 30.9569 261.843 30.9491C262.133 30.9432 262.391 30.9379 262.441 31.1736C262.501 31.4496 261.695 32.0485 261.215 32.4052C261.088 32.4999 260.983 32.5779 260.924 32.6277C261.683 33.0853 262.616 32.2862 263.302 31.6984C263.441 31.5794 263.57 31.4689 263.686 31.3795C264.038 31.762 264.157 31.9629 263.833 32.4006C263.536 32.8024 263.401 32.7185 263.244 32.6208C263.098 32.5307 262.935 32.4291 262.609 32.6871C262.834 33.0653 263.038 32.9703 263.292 32.8513C263.357 32.8205 263.426 32.7884 263.5 32.7621C263.409 33.2955 263.49 33.321 263.628 33.3643C263.726 33.3954 263.854 33.4358 263.968 33.677C264.136 34.0327 264.162 34.3182 264.193 34.6631C264.204 34.7752 264.214 34.8935 264.23 35.0223ZM159.646 81.1391C159.952 81.1129 160.039 81.2542 160.116 81.3813C160.182 81.4889 160.242 81.5859 160.422 81.5623C160.575 81.5423 160.698 81.3803 160.824 81.2142C160.934 81.0699 161.046 80.9224 161.182 80.8631C161.801 80.5926 162.698 80.551 163.522 80.513C163.909 80.4953 164.279 80.4779 164.597 80.4382C165.12 80.373 165.613 80.2196 166.101 80.0678V80.0675C166.559 79.9252 167.012 79.784 167.482 79.7181C167.883 79.6623 168.174 79.7348 168.554 79.8456C168.581 79.8538 168.608 79.8613 168.633 79.8689C168.988 79.9721 169.162 80.0229 169.268 80.1373C169.37 80.2484 169.408 80.4199 169.481 80.7579L169.484 80.7716C169.871 82.5585 169.572 84.4587 169.273 86.3577C168.881 88.8454 168.49 91.3304 169.643 93.5552C163.698 93.507 157.741 93.6257 151.83 94.3223C151.83 93.7998 151.834 93.2776 151.838 92.7554C151.851 91.0321 151.865 89.3109 151.734 87.5886C151.675 86.8009 151.593 86.0155 151.51 85.2297V85.2294C151.486 84.9996 151.462 84.7695 151.438 84.5394C151.315 83.3275 151.344 83.3216 152.225 83.1406C152.281 83.1292 152.341 83.117 152.404 83.1036C152.718 83.0377 152.918 82.8961 153.128 82.747C153.289 82.6329 153.457 82.5142 153.686 82.4215C153.953 82.3136 154.121 82.367 154.32 82.4306C154.419 82.4618 154.525 82.4955 154.654 82.5136C155.159 82.585 155.305 82.5437 155.587 82.4641C155.697 82.4329 155.827 82.3962 156.006 82.3579C156.341 82.2864 156.664 82.2385 156.977 82.1923C157.95 82.0481 158.822 81.9186 159.646 81.1391ZM264.146 44.4214C264.06 44.3712 263.975 44.3214 263.889 44.2712C262.873 46.4233 262.207 48.6661 261.533 50.9384C261.435 51.2695 261.336 51.6012 261.236 51.9336C260.83 53.2891 260.425 54.6449 260.021 56.0013C259.947 56.2508 259.857 56.5094 259.765 56.7736C259.459 57.6511 259.131 58.5896 259.298 59.4481C260.581 57.4702 261.803 55.4519 262.963 53.3995C263.528 52.3988 264.08 51.3901 264.619 50.3749C264.689 50.2435 264.776 50.1035 264.865 49.9593C265.06 49.6459 265.268 49.3115 265.343 48.9929C265.44 48.5841 265.538 48.4632 265.51 48.3894C265.484 48.3209 265.35 48.2934 265.005 48.1144C265.28 47.8023 265.459 47.8885 265.608 47.9603C265.694 48.001 265.769 48.0374 265.847 47.9921C266.039 47.881 266.299 47.5361 266.506 47.2631C266.591 47.1507 266.667 47.05 266.725 46.9835C266.565 46.9379 266.3 46.8884 265.993 46.8307C265.203 46.6822 264.13 46.4813 263.836 46.1584C263.365 45.6421 263.868 45.192 264.362 44.7505C264.408 44.7092 264.454 44.6682 264.499 44.6269C264.382 44.5584 264.264 44.4899 264.146 44.4214Z" fill="#FF5678"/>
<path fill-rule="evenodd" clip-rule="evenodd" d="M130.007 131.683C129.868 132.398 129.52 132.735 129.885 133.393C130.194 133.951 131.08 134.316 131.675 134.175L130.007 131.683ZM113.887 106.23L110.953 107.236C111.755 108.023 112.519 108.851 113.404 109.55L113.887 106.23ZM162.297 108.807C160.897 108.101 159.329 108.022 157.795 107.931C158.028 109.191 158.262 110.451 158.495 111.711C159.762 110.743 161.03 109.775 162.297 108.807ZM128.686 206.326C128.407 205.832 126.502 202.01 126.106 202.206C125.896 202.31 125.879 204.438 125.849 204.74C125.739 205.817 125.63 206.893 125.521 207.969C126.648 207.571 127.851 207.241 128.686 206.326ZM115.375 175.43C115.663 176.274 115.952 177.119 116.24 177.963C116.377 178.365 116.457 178.957 116.7 179.312C117.015 179.771 116.777 180.042 117.198 179.539C117.649 178.998 117.784 177.556 117.98 176.894C118.278 175.888 118.576 174.883 118.874 173.877C117.47 173.865 116.62 175.021 115.375 175.43ZM85.8853 125.689C84.1598 126.868 82.4129 128.038 80.9116 129.504C82.2323 129.422 84.0713 130.331 85.3153 129.904C85.8896 130.026 86.0794 129.808 85.8853 129.249V128.087V125.689ZM111.471 134.032V140.918C113.082 139.545 114.778 138.27 116.328 136.827C114.709 135.895 113.09 134.964 111.471 134.032ZM169.066 151.875C168.558 154.94 168.529 158.095 168.39 161.197C168.365 161.748 168.153 162.577 168.52 163.059C168.888 163.543 169.937 163.811 170.47 164.069C171.97 164.796 173.459 165.544 174.955 166.28C172.992 161.478 171.029 156.676 169.066 151.875ZM207.14 133.022C210.84 131.203 214.54 129.385 218.24 127.566C214.612 126.03 210.985 124.494 207.357 122.959C207.285 126.313 207.213 129.668 207.14 133.022ZM169.058 141.584C169.734 141.633 169.841 139.057 169.953 138.376C170.166 137.083 170.384 135.791 170.608 134.5C171.056 131.919 171.527 129.342 172.023 126.77C173.014 121.626 174.107 116.501 175.319 111.405C174.017 111.17 172.821 111.001 171.549 110.623C170.522 110.316 169.299 110.483 168.382 109.846C168.263 112.234 168.859 114.773 169.08 117.161C169.336 119.924 169.473 122.673 169.45 125.448C169.406 130.827 169.202 136.207 169.058 141.584ZM83.9012 214.461C84.5423 214.29 83.6694 205.501 83.6304 204.233C83.5189 200.563 83.4973 196.891 83.5629 193.22C80.1085 195.386 76.5738 197.381 72.9247 199.181C73.8626 200.397 74.7414 201.709 75.7792 202.841C76.8485 204.007 78.0751 204.963 79.0661 206.219C81.0611 208.748 82.4277 211.619 83.9012 214.461ZM167.027 162.466C167.188 159.822 167.337 157.184 167.604 154.548C167.717 153.426 168.801 147.466 167.066 147.606C166.078 147.685 164.347 149.13 163.441 149.637C162.245 150.306 161.048 150.972 159.846 151.631C157.475 152.93 155.088 154.201 152.708 155.485C157.481 157.812 162.254 160.139 167.027 162.466ZM156.722 107.494C154.745 107.346 152.834 107.199 150.884 106.831C149.832 106.633 148.781 106.66 147.723 106.526C146.966 106.43 145.486 105.808 144.781 106.012C143.894 106.267 143.573 110.709 143.451 111.824C143.254 113.62 143.122 115.799 143.924 117.485C145.47 120.737 149.635 118.199 151.662 116.835C153.399 115.665 155.367 114.481 156.907 113.061C158.272 111.804 157.047 109.119 156.722 107.494ZM166.975 142.855C168.464 142.253 168.441 141.496 168.505 139.938C168.584 138.044 168.63 136.149 168.684 134.254C168.78 130.879 168.872 127.501 168.841 124.124C168.812 120.824 168.651 117.53 168.273 114.251C168.14 113.092 168.272 111.112 167.661 110.123C167.104 109.221 165.373 109.211 164.429 109.267C163.364 109.329 162.501 110.341 161.716 110.98C160.845 111.688 159.057 112.685 158.915 113.742C158.755 114.921 159.403 116.604 159.654 117.748C160.572 121.923 161.689 126.057 162.866 130.166C164.087 134.429 165.324 138.734 166.975 142.855ZM129.131 132.861C129.227 131.923 129.576 131.14 129.104 130.246C128.698 129.478 128.038 128.706 127.542 127.978C126.123 125.895 124.531 123.899 122.985 121.909C121.569 120.086 120.118 118.282 118.633 116.514C117.807 115.53 116.954 114.567 116.107 113.6C115.487 112.892 114.899 111.898 114.021 111.527C113.374 115.591 112.84 119.672 112.423 123.766C112.222 125.745 112.048 127.727 111.902 129.711C111.861 130.271 111.427 132.162 111.704 132.684C111.996 133.231 113.781 133.964 114.328 134.3C115.855 135.239 117.042 136.653 118.495 135.11C119.495 134.047 120.301 132.549 121.418 131.622C122.001 131.139 122.549 131.161 123.203 130.874C123.962 130.541 123.986 130.22 124.894 130.674C126.423 131.437 127.352 132.566 129.131 132.861ZM52.5728 153.77C52.5728 156.584 52.3804 158.897 54.2875 161.174C55.9541 163.165 57.6859 163.625 60.03 164.411C61.4104 164.873 61.5067 164.447 62.6252 163.666C63.6882 162.924 64.8457 162.329 65.894 161.564C68.1536 159.915 70.4115 158.215 72.6074 156.48C73.3456 155.897 73.2368 156.096 73.1247 155.396C73.0221 154.759 72.5645 153.947 72.3143 153.341C71.862 152.243 71.329 151.182 70.7956 150.122C70.1902 148.92 69.6628 147.614 68.9108 146.493C68.5987 146.027 68.2283 145.607 67.8641 145.182C67.0974 144.289 67.1246 144.322 66.2077 145.052C64.2721 146.594 62.4711 148.263 60.2925 149.468C57.715 150.895 55.1438 152.331 52.5728 153.77ZM110.938 131.976C111.217 127.937 111.533 123.92 112.017 119.899C112.265 117.835 112.555 115.776 112.837 113.716C112.951 112.877 113.394 111.469 113.147 110.654C112.905 109.852 111.836 109.088 111.249 108.508C111.091 108.352 110.606 107.698 110.398 107.668C110.175 107.637 109.335 108.252 109.092 108.391C108.235 108.882 107.394 109.399 106.565 109.936C105.004 110.95 103.491 112.037 102.01 113.165C98.905 115.53 95.9439 118.075 92.9049 120.523C95.6892 122.963 99.1164 124.858 102.23 126.835C104.07 128.003 105.92 129.159 107.794 130.273C108.745 130.838 109.847 131.701 110.938 131.976ZM72.8752 204.205C70.6268 205.691 68.4797 207.26 65.937 208.214C63.4057 209.164 60.9039 209.53 58.2877 210.094C56.9683 210.379 55.7282 210.691 54.3816 210.89C53.627 211.001 52.4591 210.958 51.771 211.277C51.1584 211.146 50.94 211.355 51.1167 211.904C51.1233 212.074 51.1298 212.245 51.1364 212.415C51.3098 214.786 52.8338 217.639 54.163 219.567C54.9389 220.692 55.9275 221.74 56.91 222.686C58.0192 223.754 58.6588 224.507 60.205 224.06C62.8114 223.305 65.1116 221.787 67.7533 221.117C69.843 220.587 71.5788 219.477 73.6167 218.902C76.13 218.194 78.617 217.386 81.165 216.794C80.0269 214.597 79.009 212.31 77.552 210.297C76.0575 208.232 74.4097 206.247 72.8752 204.205ZM86.6648 130.279C91.3668 131.215 96.4632 132.082 100.671 134.509C102.314 135.456 104.396 136.921 104.877 138.88C105.451 141.222 103.191 142.672 101.303 143.403C99.0357 144.281 96.5681 144.617 94.1659 144.894C92.8944 145.04 91.617 145.12 90.3395 145.193C89.3056 145.252 87.5522 145.025 86.6071 145.434C86.0151 145.316 85.8099 145.556 85.9915 146.155C85.9804 146.369 85.9696 146.584 85.9588 146.799L85.8607 148.73C85.7955 150.015 85.7303 151.301 85.6647 152.587C85.5228 155.388 85.3805 158.189 85.2386 160.99C87.7014 159.464 89.6862 157.279 92.0932 155.651C93.2376 154.877 94.3738 154.101 95.5135 153.33C95.9915 153.007 96.2835 152.554 96.7539 152.252C97.3777 151.853 97.9307 151.612 98.5159 151.089C100.906 148.952 103.563 147.104 106.098 145.142C107.249 144.251 108.509 143.431 109.605 142.475C110.752 141.473 110.593 140.649 110.565 139.208C110.536 137.684 111.095 135.791 110.836 134.321C111.054 133.822 110.886 133.511 110.334 133.389C109.965 133.153 109.596 132.917 109.227 132.681C108.491 132.211 107.755 131.74 107.019 131.269C104.091 129.397 101.164 127.525 98.2366 125.653C96.7743 124.718 95.3119 123.782 93.8493 122.847C93.4408 122.586 92.1087 121.406 91.6504 121.441C91.1829 121.476 90.372 122.389 90.0215 122.679C89.4839 123.125 88.9621 123.593 88.3812 123.983C88.0918 124.183 87.7895 124.362 87.4748 124.52C86.9717 124.569 86.797 124.845 86.95 125.349C86.5082 126.766 86.7511 128.791 86.6648 130.279ZM151.869 197.101C150.804 192.123 149.431 186.229 145.278 182.843C141.066 179.409 134.908 180.736 131.613 184.768C129.963 186.788 128.94 189.176 128.18 191.651C127.4 194.191 126.25 197.5 126.461 200.186C126.553 201.363 127.562 202.629 128.139 203.656C128.734 204.717 129.129 206.239 130.531 205.871C132.705 205.301 134.917 203.993 136.951 203.056C139.009 202.108 141.176 201.329 143.31 200.414C144.727 199.806 146.198 199.344 147.611 198.728C148.951 198.144 150.719 198.003 151.869 197.101ZM214.784 167.453C217.754 168.516 219.297 166.815 221.387 164.899C223.367 163.084 225.511 161.339 227.334 159.367C229.215 157.333 230.701 154.93 232.146 152.58C233.608 150.207 235.583 147.642 236.483 144.998C236.941 143.653 237.136 142.163 237.424 140.773C237.494 140.438 237.96 139.193 237.812 138.911C237.608 138.524 236.311 138.483 235.955 138.427C233.121 137.979 230.118 137.957 227.276 138.357C221.776 139.132 217.177 142.216 215.439 147.609C213.401 153.931 214.38 160.958 214.784 167.453ZM195.528 112.618C195.482 113.712 198.106 114.017 198.786 114.272C200.357 114.861 201.92 115.484 203.446 116.181C206.588 117.618 209.94 118.554 212.949 120.29C219.436 124.034 226.478 126.673 233.031 130.254C234.052 130.812 236.048 132.157 237.214 132.043C237.834 131.983 237.372 132.482 237.774 131.496C237.919 131.142 237.967 130.68 238.048 130.3C238.291 129.162 238.479 128.013 238.751 126.881C239.2 125.017 239.658 123.288 239.848 121.373C239.928 120.561 240.016 119.751 240.025 118.935C240.035 118.107 240.225 116.034 239.852 115.318C239.604 114.843 239.555 115.006 238.936 114.872C238.581 114.795 238.209 114.635 237.867 114.529C237.064 114.279 236.261 114.039 235.419 113.966C234.588 113.893 234.057 113.64 233.277 113.493C232.459 113.339 231.618 113.526 230.785 113.311C229.885 113.078 229.456 112.866 228.515 112.955C227.604 113.041 227.342 112.839 226.449 112.591C225.704 112.383 224.816 112.528 224.04 112.465C223.1 112.389 222.163 112.271 221.222 112.197C216.994 111.862 212.715 112.359 208.477 112.319C206.172 112.298 203.917 112.638 201.615 112.533C199.604 112.441 197.524 112.463 195.528 112.618ZM206.528 134.905C204.472 135.688 202.564 136.961 200.657 138.057C198.458 139.32 196.353 140.663 194.318 142.178C190.896 144.727 186.902 147.782 186.002 152.229C185.077 156.792 189.041 160.532 192.756 162.399C196.994 164.528 201.924 165.629 206.565 166.442C206.069 155.937 206.186 145.413 206.528 134.905ZM144.99 159.638C143.742 159.983 142.685 160.721 141.527 161.268C140.491 161.757 139.487 162.126 138.518 162.756C136.94 163.783 135.11 164.663 133.46 165.457C129.377 167.421 125.413 169.861 121.371 172.038C120.299 172.616 119.948 172.98 119.585 174.168C119.191 175.458 118.82 176.757 118.44 178.052C118.086 179.26 117.521 180.551 117.67 181.826C117.8 182.935 118.373 183.981 118.806 184.993C119.895 187.538 121.075 190.043 122.295 192.528C123.389 194.759 124.388 197.126 125.793 199.177C126.885 193.482 127.865 187.101 132.098 182.761C136.327 178.424 143.075 178.363 147.151 182.84C149.087 184.966 150.266 187.644 151.192 190.335C151.679 191.749 152.006 193.19 152.319 194.65C152.653 196.209 152.571 197.037 154.292 196.564C155.658 196.189 157.107 195.889 158.447 195.461C159.142 195.239 159.82 194.99 159.851 194.441C159.891 193.747 158.958 192.328 158.682 191.675C157.258 188.309 155.834 184.941 154.41 181.575C152.864 177.919 151.317 174.263 149.771 170.607C148.999 168.783 148.227 166.959 147.455 165.135C146.751 163.472 146.164 161.003 144.99 159.638ZM206.644 131.207C206.667 129.545 206.695 127.882 206.716 126.22C206.729 125.229 207.171 123.313 206.308 122.606C205.773 122.167 204.186 121.831 203.51 121.53C202.175 120.938 200.729 120.674 199.386 120.086C194.126 117.782 188.652 115.863 183.237 114.006C182.069 113.606 180.875 113.278 179.7 112.883C179.065 112.671 176.715 111.42 176.127 111.748C175.613 112.034 175.225 115.443 175.061 116.151C174.671 117.826 174.298 119.506 173.94 121.189C172.55 127.723 171.384 134.303 170.3 140.893C173.181 139.799 175.942 137.904 178.663 136.439C181.491 134.917 184.308 133.399 187.155 131.912C187.958 131.492 190.785 129.562 191.446 130.319C192.507 131.535 189.979 132.96 189.315 133.48C186.748 135.494 184.036 137.25 181.29 139.006C178.445 140.826 175.484 142.435 172.625 144.222C171.592 144.867 169.944 145.652 169.539 146.742C169.017 148.144 169.393 149.847 169.869 151.186C171.036 154.477 172.314 157.727 173.665 160.946C174.28 162.41 174.91 163.867 175.553 165.319C176.317 167.047 177.321 167.413 178.987 168.208C186.085 171.598 193.458 174.815 200.276 178.737C199.135 180.052 196.354 177.892 195.228 177.346C193.142 176.333 191.055 175.323 188.971 174.307C185.089 172.415 181.226 170.485 177.322 168.638C179.824 174.329 182.777 179.812 186.051 185.094C185.225 185.374 185.426 185.389 184.907 184.892C184.47 184.473 184.177 183.653 183.881 183.127C183.269 182.041 182.665 180.951 182.049 179.868C180.769 177.619 179.444 175.405 178.276 173.095C177.397 171.359 176.717 168.322 174.911 167.447C172.662 166.355 170.382 165.293 168.132 164.186C168.132 172.838 168.754 181.299 169.667 189.897C169.713 190.331 170.129 191.611 169.291 191.486C168.913 191.429 168.785 189.056 168.719 188.561C168.414 186.29 168.155 184.013 167.944 181.731C167.523 177.178 167.294 172.607 167.264 168.035C166.724 172.48 166.184 176.926 165.644 181.371L164.877 187.69C164.743 188.796 164.608 189.903 164.474 191.009C164.412 191.517 164.451 192.182 164.273 192.667C163.992 193.429 164.086 193.371 163.205 193.719C164.047 187.93 164.825 182.132 165.513 176.323C165.849 173.488 166.164 170.652 166.454 167.812C166.532 167.049 166.608 166.285 166.683 165.521C166.721 165.131 167.057 163.879 166.87 163.556C166.686 163.235 165.462 162.901 165.11 162.737C164.338 162.379 163.567 162.021 162.796 161.662C160.295 160.492 157.795 159.314 155.321 158.087C154.238 157.551 153.103 156.722 151.926 156.435C150.754 156.151 149.902 156.966 148.9 157.485C148.12 157.888 146.282 158.426 145.762 159.111C145.277 159.749 146.782 162.302 147.178 163.243C148.294 165.898 149.409 168.554 150.525 171.209C152.787 176.593 155.05 181.976 157.312 187.361C157.865 188.676 158.418 189.992 158.971 191.309C159.326 192.152 159.917 194.555 160.777 194.65C161.158 194.691 161.783 194.277 162.15 194.158C162.699 193.981 163.206 193.983 163.757 193.89C164.766 193.719 165.813 193.198 166.804 192.833C169.351 191.894 171.991 191.288 174.558 190.411C177.137 189.531 179.675 188.541 182.244 187.66C184.577 186.86 186.931 185.948 189.173 184.907C191.54 183.806 193.967 182.836 196.274 181.616C200.475 179.394 204.63 177.318 208.343 174.593C209.215 173.952 210.145 173.309 211.008 172.623C211.765 172.02 213.209 171.277 213.725 170.485C213.921 170.183 214.09 169.591 213.86 169.233C213.614 168.848 212.524 168.883 212.015 168.815C210.408 168.599 208.802 168.383 207.196 168.167C207.319 169.224 207.443 170.279 207.533 171.34C207.595 172.088 208.038 174.066 207.441 174.653C206.621 173.873 206.885 171.542 206.811 170.504C206.772 169.949 206.913 168.862 206.665 168.37C206.392 167.83 205.64 167.838 204.958 167.69C202.065 167.064 199.199 166.539 196.4 165.548C191.671 163.873 186.019 161.045 184.963 155.59C183.862 149.904 188.7 144.977 192.774 141.806C195.213 139.907 197.808 138.263 200.491 136.737C201.746 136.024 202.999 135.311 204.262 134.613C204.721 134.359 206.229 133.836 206.471 133.392C206.719 132.938 206.592 131.724 206.644 131.207ZM105.478 218.535C105.249 218.647 105.019 218.759 104.79 218.871C107.342 211.599 109.87 204.359 112.004 196.95C113.034 193.374 114.077 189.802 115.142 186.236C115.602 184.698 116.731 182.58 116.418 180.986C116.078 179.262 115.264 177.428 114.634 175.788C110.601 178.323 106.483 180.728 102.383 183.148C98.7076 185.318 94.9697 187.248 91.2682 189.396C89.3715 190.496 87.4149 191.239 85.4353 192.138C83.8267 192.869 84.4512 195.102 84.4745 196.594C84.5558 201.861 84.5518 207.147 84.8714 212.406C84.9878 214.322 84.8377 216.522 86.0574 218.117C87.6174 220.156 89.0644 222.234 90.487 224.381C91.02 225.185 93.2592 229.538 94.0941 229.443C94.6393 229.381 95.1411 227.618 95.4139 227.2C96.0016 226.299 96.8608 225.524 97.6429 224.798C101.021 221.665 104.769 219.457 108.664 217.167C112.621 214.84 116.671 212.674 120.704 210.468C121.615 209.969 122.596 209.61 123.501 209.1C123.859 208.899 124.568 208.579 124.793 208.22C125.129 207.682 125.015 206.19 125.085 205.547C125.229 204.232 125.487 202.867 125.501 201.543C125.514 200.235 124.728 199.111 124.158 197.97C121.655 192.962 119.224 187.942 117.047 182.782C115.33 188.773 113.528 194.737 111.844 200.737C110.965 203.87 109.905 206.952 108.873 210.037C108.346 211.613 107.816 213.187 107.29 214.763C106.88 215.991 106.668 217.788 105.478 218.535ZM141.419 105.618C140.092 105.633 138.89 105.438 137.592 105.161C137.116 105.059 136.698 105.016 136.216 104.974C135.669 104.926 135.172 104.629 134.692 104.571C134.329 104.528 133.697 104.68 133.35 104.796C132.548 105.065 132.573 104.929 132.54 105.861C132.488 107.3 132.448 108.74 132.369 110.178C132.058 115.839 131.457 121.444 130.633 127.05C130.466 128.184 130 129.67 130.256 130.795C130.488 131.81 131.364 132.893 131.943 133.744C133.134 135.494 135.939 136.359 137.912 136.856C139.992 137.379 142.152 137.572 144.129 138.039C144.677 138.168 145.306 137.94 145.889 138.07C146.429 138.19 146.849 138.486 147.347 138.7C148.57 139.225 149.935 139.322 151.198 139.727C153.701 140.531 156.381 140.482 158.886 141.254C159.527 141.451 160.08 141.948 160.697 142.118C161.26 142.273 161.84 142.091 162.43 142.177C163.68 142.361 164.845 142.788 165.133 144.13C165.897 143.525 166.003 143.684 165.871 142.748C165.786 142.149 165.452 141.418 165.269 140.84C164.803 139.365 164.334 137.892 163.869 136.418C162.947 133.5 162.031 130.58 161.182 127.64C160.422 125.011 159.731 122.362 159.127 119.692C158.82 118.335 158.563 116.971 158.3 115.607C158.223 115.211 158.299 114.581 157.901 114.318C157.54 114.079 156.698 114.936 156.317 115.213C153.654 117.142 147.547 122.846 144.218 119.481C142.425 117.669 142.53 114.483 142.724 112.142C142.844 110.703 143.097 109.282 143.379 107.868C143.45 107.515 143.881 106.38 143.723 106.129C143.553 105.859 141.775 105.697 141.419 105.618ZM234.98 137.105C235.689 137.184 236.397 137.264 237.106 137.344C237.041 136.771 237.099 135.91 236.883 135.376C236.583 134.639 235.849 134.557 235.041 134.251C233.764 133.769 232.462 133.349 231.199 132.829C228.458 131.701 225.729 130.557 222.987 129.429C221.785 128.934 220.372 128.125 219.067 128.529C217.659 128.965 216.27 129.852 214.954 130.502C213.464 131.239 211.975 131.977 210.486 132.714C209.788 133.061 209.09 133.406 208.391 133.753C207.294 134.296 207.148 134.351 207.062 135.592C206.621 141.943 206.654 148.539 206.846 154.898C206.944 158.143 206.834 161.406 207.067 164.645C207.085 164.894 207.066 166.3 207.222 166.492C207.442 166.762 208.988 166.853 209.357 166.921C210.798 167.184 212.248 167.272 213.704 167.402C213.361 160.016 212.101 151.284 215.894 144.528C219.704 137.741 227.848 136.27 234.98 137.105ZM168.745 64.4412C169.173 63.4683 169.908 62.6468 170.537 61.7932C170.877 61.3317 171.465 60.78 171.682 60.2401C171.992 59.4717 171.991 59.6363 171.528 58.9633C171.09 58.3274 171.099 58.2795 170.422 58.1658C169.853 58.07 169.246 58.2326 168.664 58.1284C168.076 58.0228 166.459 57.5272 166.829 56.591C166.813 56.632 167.749 56.1708 167.822 56.0908C168.057 55.8348 168.131 55.289 168.247 54.9795C168.621 53.9876 168.752 53.3454 168.336 52.2893C167.713 50.7122 165.254 50.2454 163.723 50.7761C162.958 51.041 162.522 51.6028 162.178 52.3089C161.959 52.7574 161.908 53.4054 161.626 53.7958C161.2 54.3836 161.173 54.3184 160.29 54.2144C159.165 54.0823 158.243 53.6503 157.177 53.349C156.017 53.0206 155.262 53.6886 154.247 54.2272C152.416 55.2001 150.648 55.5378 148.597 55.6922C146.313 55.8643 144.196 55.3136 141.934 55.1716C142.521 57.8743 144.038 60.0686 145.251 62.516C145.464 62.9464 145.809 63.3863 145.817 63.8843C145.826 64.3533 145.146 64.9916 145.223 65.3797C145.386 66.2077 147.208 66.8705 147.899 67.1036C149.852 67.7621 152.075 69.0514 154.224 68.5335C155.403 68.2496 156.037 66.389 157.145 66.2523C158.633 66.0681 157.52 67.9837 157.244 68.6426C159.355 68.9635 162.031 68.6915 164.052 67.9755C165.065 67.6169 165.923 67.0816 166.848 66.5509C167.999 65.8901 168.238 65.7085 168.745 64.4412ZM131.797 104.666C128.033 104.728 124.214 104.186 120.441 104.684C119.567 104.799 118.705 104.985 117.846 105.182C117.229 105.324 115.268 105.444 114.856 105.903C114.481 106.322 114.479 108.249 114.401 108.792C114.229 110.002 114.275 110.419 115.047 111.355C117.584 114.432 120.227 117.418 122.728 120.529C125.13 123.518 127.102 126.858 129.53 129.804C130.827 126.03 130.905 121.5 131.261 117.542C131.45 115.431 131.623 113.319 131.785 111.207C131.94 109.195 132.465 106.584 131.797 104.666ZM83.0764 144.447C83.5117 144.447 84.206 144.583 84.6292 144.447C85.211 144.632 85.4054 144.414 85.213 143.792C85.2222 143.575 85.2314 143.357 85.2409 143.139C85.3015 141.737 85.3684 140.336 85.4333 138.934C85.493 137.652 85.551 136.37 85.6015 135.088C85.6362 134.213 86.0784 132.043 85.7247 131.253C85.4871 130.721 84.9242 130.842 84.2394 130.764C83.5881 130.691 82.9348 130.622 82.2871 130.521C81.4649 130.393 80.5536 130.099 79.7171 130.283C78.8766 130.468 78.2656 131.244 77.606 131.738C76.5623 132.518 75.496 133.27 74.4434 134.038C72.5304 135.435 70.6367 136.858 68.7397 138.277C67.9562 138.862 67.8058 138.659 68.1877 139.501C68.424 140.02 68.9613 140.609 69.2884 141.079C69.9398 142.014 70.5885 143.432 71.424 144.191C72.6399 145.296 76.0133 144.595 77.6283 144.587C79.4699 144.578 81.2453 144.606 83.0764 144.447ZM87.8433 144.355C89.4403 144.199 91.0538 144.266 92.641 144.052C94.3665 143.818 96.0796 143.472 97.8019 143.213C99.5189 142.955 104.742 141.911 104.227 139.348C103.682 136.639 99.6832 135.017 97.4705 134.106C94.0148 132.684 90.407 131.922 86.772 131.118C86.3161 133.546 86.3816 136.153 86.2984 138.614C86.2531 139.951 86.2135 141.289 86.2141 142.626C86.2141 142.948 86.1037 143.616 86.2351 143.916C86.5439 144.62 86.9032 144.355 87.8433 144.355ZM82.5913 145.519H72.3979C73.9065 148.642 75.3324 151.823 76.9586 154.886C78.5783 157.938 80.6638 160.814 82.5014 163.743C82.9669 163.236 83.7094 162.687 84.0257 162.084C84.3761 161.417 84.3663 160.436 84.4237 159.664C84.5725 157.661 84.6403 155.64 84.6908 153.631C84.7351 151.873 84.8124 150.126 84.9475 148.372C84.977 147.987 85.4015 145.988 85.1586 145.66C84.9419 145.367 83.0371 145.522 82.5913 145.519ZM124.571 84.2076C126.291 84.2073 128.012 84.1857 129.732 84.2145C131.292 84.2411 133.325 83.9693 134.754 84.7728C137.666 86.4091 131.845 90.6119 130.665 91.6697C132.573 92.3614 135.552 90.9885 137.421 90.3595C139.731 89.5819 142.087 89.0597 144.443 88.4507C145.032 88.2986 147.56 88.0006 147.879 87.5496C148.195 87.1021 147.486 84.4027 147.415 83.8333C147.348 83.298 147.405 82.4634 147.182 81.9599C147.318 81.3551 147.106 81.143 146.544 81.3246C146.35 81.324 146.157 81.323 145.963 81.3223C144.529 81.3338 143.094 81.4003 141.661 81.4479C136.736 81.6118 131.931 81.8304 127.048 82.5991C124.778 82.9564 122.488 83.396 120.23 83.8346C118.329 84.2037 118.649 84.5135 120.424 84.5181C121.813 84.5217 123.189 84.3155 124.571 84.2076ZM265.847 47.9921C266.139 47.6561 266.432 47.3198 266.725 46.9835C266.012 46.7799 265.299 46.576 264.586 46.3724C263.828 46.1561 263.419 46.2056 263.757 45.3585C264.179 44.2975 266.108 44.1758 267.035 44.1358C270.227 43.9978 273.579 45.0134 276.611 45.9079C278.091 46.3446 279.251 47.0202 280.502 47.9187C281.049 48.3111 281.68 48.6795 282.158 49.1509C282.655 49.6406 282.862 50.268 283.348 50.7591C284.145 51.5642 285.164 51.9651 285.555 53.1271C286.004 54.4609 285.468 55.9878 284.805 57.1509C284.131 58.3313 283.131 59.2239 282.319 60.2965C281.674 61.1474 280.328 63.4725 282.432 63.2031C283.544 63.0605 284.987 61.1632 285.788 60.4073C286.936 59.3232 288.065 58.2143 289.28 57.2046C290.358 56.3094 291.6 55.3916 293.041 55.2342C294.56 55.0684 295.319 56.0406 296.059 57.223C296.757 58.3382 296.87 59.4268 297.361 60.5682C297.598 61.1186 297.899 61.4254 298.039 62.0253C298.253 62.9481 298.275 63.9547 298.384 64.8955C298.556 66.3729 298.717 67.5347 298.431 68.9822C298.163 70.337 298.09 71.7761 297.864 73.1545C297.608 74.7155 297.396 76.2837 297.144 77.8453C296.93 79.1683 296.118 81.0525 296.915 82.2828C298.829 85.2392 301.124 80.887 301.729 79.2611C302.792 76.404 303.333 73.2807 304.27 70.3649C304.773 68.8055 305.211 67.2314 305.499 65.617C305.737 64.2819 305.62 62.6553 306.351 61.4661C306.92 60.5423 307.932 59.8408 309.042 60.1227C310.431 60.4758 310.965 62.4839 311.373 63.7046C312.452 66.9243 312.055 69.824 311.616 73.1076C311.413 74.628 311.219 76.1506 310.87 77.6457C310.634 78.6543 309.658 80.6959 311.109 81.2443C313.166 82.0225 315.346 76.1214 315.932 74.7889C317.467 71.2988 318.055 67.8375 318.687 64.098C318.833 63.2382 318.944 62.36 319.161 61.5149C319.35 60.7793 319.915 60.0359 319.966 59.3003C320.017 58.564 319.53 58.0504 320.029 57.3276C320.445 56.7261 321.196 56.6897 321.874 56.6844C323.468 56.672 324.993 57.3718 326.475 57.8796C327.854 58.352 329.896 59.3885 331.384 59.0548C326.716 54.3157 322.061 49.6305 316.493 45.9397C313.908 44.2257 311.321 42.5785 308.527 41.1807C305.697 39.7649 302.454 38.8087 299.423 37.9522C297.774 37.4861 296.135 36.958 294.507 36.4233C293.058 35.9474 291.599 35.8572 290.18 35.3173C287.097 34.1448 283.652 33.6905 280.46 32.8591C279.05 32.4923 277.625 32.1776 276.213 31.8377C274.728 31.4804 272.641 30.8599 271.129 30.9202C269.836 30.9717 269.4 32.4523 268.779 33.4823C267.877 34.9774 267.107 36.5309 266.398 38.1256C264.944 41.3931 263.41 44.7688 262.37 48.1826C261.799 50.0569 261.235 51.9333 260.674 53.8106C260.189 55.4358 258.975 57.7803 259.298 59.4481C261.689 55.764 263.915 51.9379 265.847 47.9921ZM154.547 81.2587C153.279 81.3164 152.01 81.3738 150.742 81.4315C152.007 85.588 151.831 90.014 151.831 94.3223C157.74 93.6257 163.698 93.507 169.643 93.5552C168.551 91.4481 168.974 88.7146 169.285 86.4583C169.468 85.1376 169.569 83.8654 169.543 82.5329C169.518 81.283 169.878 80.2321 168.554 79.8456C167.503 79.5391 166.839 80.0498 165.838 80.2829C164.639 80.5618 163.334 80.5956 162.113 80.7474C159.573 81.063 157.124 81.2482 154.547 81.2587ZM120.492 89.3535C124.301 88.297 128.348 88.6864 132.176 87.8833C131.306 87.0887 129.665 87.5594 128.509 87.6256C127.195 87.7003 125.881 87.7551 124.567 87.819C123.285 87.8816 119.729 87.7846 119.266 89.4157C119.674 89.3951 120.084 89.3741 120.492 89.3535ZM259.854 30.4541C254.87 30.8914 249.65 30.8235 244.703 31.6932C239.036 32.689 233.129 33.3138 227.635 35.0689C222.245 36.7908 216.749 37.9961 211.436 40.018C206.271 41.9835 201.296 44.0746 196.432 46.7035C194.052 47.9901 191.735 49.3541 189.466 50.8319C187.25 52.2745 184.822 53.4572 182.676 54.9864C180.765 56.3478 179.116 57.5964 177.449 59.2642C175.668 61.0475 173.935 62.8789 172.152 64.6592C170.664 66.1445 171.606 69.7758 171.701 71.7525C171.831 74.4929 172.057 77.1946 172.393 79.917C172.713 82.5113 173.042 85.2995 172.619 87.8882C172.442 88.9765 171.83 90.8564 172.122 91.9428C172.356 92.8127 173.908 93.4506 174.699 93.7342C175.668 94.081 176.657 93.9348 177.65 94.376C178.76 94.8694 179.695 95.4843 180.874 95.7436C182.326 96.0632 183.959 96.332 185.452 96.3419C186.832 96.3507 188.217 96.7978 189.594 97.0732C191.833 97.5216 194.018 97.6613 193.879 100.361C193.718 103.477 192.482 106.15 191.746 109.107C192.741 109.107 193.435 109.171 194.346 108.818C195.41 108.406 196.546 108.297 197.664 108.119C200.134 107.726 202.542 107.6 205.029 107.349C209.584 106.89 214.218 106.945 218.777 106.993C221.085 107.018 223.589 107.196 225.865 107.555C228.2 107.924 230.619 108.155 232.882 108.862C234.791 109.458 236.763 109.865 238.71 110.392C239.588 110.629 240.639 110.822 241.469 111.087C242.67 111.473 243.312 112.294 244.7 112.275C244.31 109.705 243.392 107.321 242.839 104.772C242.261 102.111 241.109 99.7556 239.837 97.2446C239.27 96.1245 238.85 94.9359 238.303 93.8063C237.694 92.5499 236.839 91.5091 236.104 90.3342C234.601 87.9311 232.997 85.6195 231.521 83.1993C230.232 81.0863 228.759 79.0608 227.348 77.0212C225.797 74.7787 223.641 73.0863 221.881 71.029C221.138 70.16 220.43 69.3526 219.598 68.5551C218.831 67.8208 217.743 66.1956 216.569 66.1195C215.895 66.0756 214.726 66.4552 214.082 66.6588C212.891 67.0361 211.627 67.2819 210.397 67.614C209.051 67.9775 207.728 68.4505 206.379 68.796C205.839 68.934 205.199 68.8685 204.687 69.0248C204.152 69.1887 203.725 69.5497 203.14 69.7152C200.253 70.534 197.384 71.4637 194.476 72.2091C191.482 72.9768 188.442 73.6305 185.541 74.7178C184.988 74.9253 184.372 75.4157 183.947 75.0934C183.63 74.8528 183.425 74.1733 183.509 73.7767C183.787 72.4563 185.899 71.9793 186.916 71.4493C189.641 70.0286 192.348 69.0268 195.277 68.0621C196.72 67.5874 198.157 67.0807 199.62 66.6706C200.842 66.328 202.115 65.7485 203.365 65.5731C204.477 65.4171 205.267 64.9791 206.37 64.5913C207.996 64.02 209.668 63.5509 211.321 63.0628C214.145 62.2282 217.138 61.8775 220.028 61.3179C226.722 60.0214 233.673 59.3724 240.504 59.4527C243.948 59.4934 247.55 59.3927 250.954 59.9592C251.775 60.0955 253.5 60.0693 254.066 60.8059C254.369 61.2012 254.205 61.7896 254.283 62.218C254.415 62.9412 254.809 63.2782 255.151 63.937C255.878 60.3719 256.713 56.8824 257.651 53.3694C258.499 50.19 259.284 46.953 260.418 43.8182C261.617 40.5015 263.071 36.9849 264.864 33.9494C265.233 33.3246 266.153 32.332 266.232 31.6332C266.314 30.912 265.304 30.3534 264.609 30.2731C263.052 30.0932 261.384 30.4013 259.854 30.4541ZM293.335 81.3961C293.842 76.4505 295.324 71.2775 294.496 66.3123C294.146 64.2104 293.872 62.2039 292.821 60.3066C292.289 59.3472 292.076 58.6424 291.061 59.2082C290.034 59.7808 289.088 61.1953 288.236 62.0151C286.671 63.522 285.032 65.0738 283.157 66.193C281.681 67.0741 278.748 67.9093 277.638 66.0032C276.581 64.1865 277.992 61.6513 279.004 60.1526C280.163 58.4378 282.358 56.8496 281.126 54.734C280.596 53.8234 279.833 53.5847 279.031 52.9871C278.337 52.4699 277.756 51.7999 277.062 51.2734C275.05 49.7475 272.844 49.0938 270.522 48.2219C269.449 47.819 269.308 47.4401 268.689 48.3609C268.016 49.361 267.648 50.7627 267.161 51.8687C266.187 54.0843 265.148 56.1835 263.892 58.2494C262.624 60.3342 261.501 62.5121 260.303 64.6382C259.851 65.4403 259.425 66.2556 258.891 67.0085C258.6 67.4183 258.24 67.7835 258.003 68.2319C257.654 68.895 257.809 69.4995 257.592 70.1597C256.652 73.0083 255.282 69.0317 255.02 68.1021C254.723 67.0446 254.004 66.2202 253.539 65.2338C253.154 64.4192 252.892 63.2087 251.964 62.8251C251.203 62.5111 250.223 62.9422 249.447 62.9841C248.021 63.0615 246.585 62.9461 245.153 63.0353C243.814 63.1185 242.477 63.247 241.139 63.329C239.799 63.4112 238.46 63.1847 237.138 63.3257C234.765 63.5787 232.339 63.5381 229.971 63.8888C227.193 64.2999 224.443 64.7385 221.656 65.0807C222.304 66.3051 223.646 66.8361 224.707 67.7097C225.655 68.4905 226.406 69.3917 227.362 70.1344C228.331 70.8884 228.907 72.0036 229.709 72.9096C230.495 73.797 231.223 74.5411 231.911 75.534C235.235 80.3284 238.663 84.9458 241.405 90.1277C242.792 92.7505 244.117 95.5564 245.065 98.3703C246.082 101.388 246.581 104.625 247.185 107.746C247.486 109.301 247.644 110.614 247.314 112.178C247.227 112.551 247.137 112.922 247.044 113.293C246.755 113.737 246.861 114.025 247.365 114.157C247.659 114.586 248.061 114.747 248.087 115.334C248.106 115.78 247.858 116.296 247.474 116.548C246.733 117.033 246.733 116.377 245.969 116.523C245.683 116.678 245.396 116.832 245.11 116.987C244.959 116.757 244.803 116.53 244.644 116.305C244.156 115.842 243.769 115.884 243.132 115.772C243.456 119.498 242.94 122.825 242.12 126.459C241.725 128.207 241.049 129.918 240.708 131.669C240.327 133.625 241.159 134.516 242.446 135.82C242.12 135.991 241.548 136.176 241.278 136.431C240.849 136.837 240.959 136.887 240.959 137.522C240.96 138.686 240.737 139.833 240.554 140.977C240.215 143.097 239.906 145.29 239.177 147.319C237.851 151.004 235.709 154.831 233.527 158.078C232.305 159.894 231.081 161.958 229.55 163.526C228.014 165.099 226.491 166.686 224.958 168.264C221.941 171.369 218.644 173.515 215.03 175.84C213.599 176.761 212.092 177.77 210.861 178.916C209.61 180.081 207.946 180.897 206.451 181.743C205.784 182.121 205.309 182.663 204.589 182.973C203.913 183.264 203.44 183.359 202.872 183.741C201.465 184.687 199.944 185.497 198.394 186.211C196.503 187.081 194.642 188.094 192.7 188.837C191.816 189.176 190.983 189.545 190.127 189.941C189.199 190.369 188.199 190.651 187.247 191.107C186.444 191.493 185.63 191.717 184.812 192.033C184.144 192.29 183.619 192.707 182.938 192.977C181.522 193.536 180.234 193.837 178.86 194.495C177.033 195.371 174.868 195.779 172.944 196.41C170.795 197.113 168.567 197.813 166.362 198.312C165.424 198.525 164.625 198.802 163.719 199.124C163.128 199.333 162.451 199.448 161.797 199.647C159.99 200.198 158.184 200.729 156.367 201.198C152.818 202.113 149.192 203.212 145.749 204.455C143.945 205.107 142.114 205.891 140.382 206.721C138.425 207.658 136.316 208.199 134.351 209.128C130.556 210.92 126.774 212.766 123.023 214.648C121.054 215.637 119.111 216.655 117.188 217.73C116.49 218.12 115.727 218.281 115.034 218.664C114.127 219.165 113.383 219.899 112.454 220.395C108.875 222.307 105.221 224.108 101.934 226.527C100.213 227.793 98.3641 229.089 96.8772 230.63C96.3865 231.139 95.5361 231.926 95.4473 232.664C95.3165 233.756 95.4391 232.751 95.8171 233.425C96.3406 233.488 96.4589 233.689 96.1734 234.028C96.0416 234.186 95.8728 234.267 95.6673 234.271C95.0061 234.404 93.7693 233.704 93.2379 233.411C92.3171 232.903 91.8284 232.262 91.237 231.41C89.9527 229.562 88.6995 227.697 87.3768 225.875C86.1872 224.236 85.0229 222.432 83.6694 220.927C82.7515 219.907 82.6827 220.352 81.6619 220.927C80.9024 221.355 80.0203 221.538 79.2333 221.941C76.2342 223.477 72.9375 224.612 69.8614 225.682C69.1609 225.926 68.7875 226.313 68.1719 226.65C67.3878 227.079 66.3946 227.288 65.5561 227.593C63.246 228.433 60.9475 229.305 58.6539 230.189C56.8831 230.872 55.1815 231.41 53.7952 232.669C53.2435 233.171 52.5758 233.53 52.0061 234.037C51.3426 234.627 50.4454 235.587 49.6101 235.92L49.1014 236.318C48.7572 236.078 48.4127 235.839 48.0675 235.601C47.7253 235.364 47.3827 235.128 47.0412 234.89C46.1833 234.294 45.3317 233.689 44.4791 233.086C42.5454 231.715 40.5992 230.358 38.8006 228.811C35.6055 226.063 32.29 223.463 28.949 220.89C25.4426 218.189 22.0239 215.363 18.3971 212.824C15.1099 210.524 11.5234 208.58 8.33622 206.152C6.73196 204.93 5.13163 203.699 3.49361 202.515C3.40445 202.451 2.07162 201.633 2.05916 201.543C2.03556 201.375 2.47416 200.939 2.60364 200.799C3.21663 200.132 3.89582 199.539 4.50652 198.865C7.35282 195.727 11.0691 195.836 14.9972 195.688C16.7784 195.621 18.7102 196.442 20.4019 197.002C22.4707 197.685 24.4664 198.689 26.4646 199.556C30.5828 201.342 34.8332 202.868 38.993 204.523C40.6287 205.173 42.2582 205.49 43.9212 205.937C45.6083 206.391 47.3464 205.959 49.1509 205.991C50.0874 206.008 50.9728 206.063 51.9159 206.01C52.4758 205.978 53.1209 205.872 53.6739 205.881C54.122 205.889 54.5872 206.074 54.9995 206.027C56.8047 205.823 58.7116 205.536 60.5735 205.301C62.422 205.068 64.3294 204.952 66.1536 204.588C67.0721 204.404 67.9785 204.144 68.8623 203.833C69.6293 203.562 71.0238 203.255 71.6532 202.708C72.2163 202.217 71.9702 202.211 71.6561 201.411C71.5319 201.095 71.4034 200.616 71.2192 200.312C70.7212 199.489 70.24 199.23 70.5298 198.201C71.0402 196.386 72.7798 195.227 74.269 194.334C77.6237 192.321 80.692 189.739 84.2244 188.032C91.5029 184.514 98.1363 179.944 105.234 176.08C113.037 171.834 120.418 166.85 128.328 162.783C135.692 158.997 143.022 155.189 150.447 151.522C154.072 149.733 158.173 148.095 161.462 145.748C159.64 145.522 157.812 145.23 155.983 145.068C155.135 144.993 154.276 145.062 153.433 144.927C152.489 144.777 151.597 144.395 150.656 144.236C149.037 143.963 147.581 143.408 145.961 143.203C144.224 142.984 142.522 142.473 140.776 142.33C137.125 142.031 133.83 140.684 130.629 138.987C129.836 138.567 129.185 138.807 128.426 138.521C128.008 138.364 127.564 137.736 127.094 137.399C125.8 136.47 124.69 135.373 123.46 134.358C120.875 140.16 115.799 144.105 110.955 147.997C108.501 149.968 105.838 151.639 103.359 153.572C101.438 155.072 99.6927 156.414 97.6413 157.606C95.6715 158.75 93.8211 160.295 91.9431 161.67C90.6703 162.601 89.1784 163.305 87.8249 164.114C86.7189 164.774 84.5597 165.76 84.2581 166.959C84.0113 167.938 84.4928 169.104 82.9981 168.654C81.6596 168.251 80.6893 166.765 79.9098 165.718C77.8939 163.01 76.0133 160.21 74.1415 157.402C73.1361 159.364 71.4021 160.777 69.7991 162.232C68.8252 163.116 67.8143 163.936 66.7624 164.725C66.2523 165.108 65.7364 165.483 65.2253 165.865C65.024 166.016 64.5677 166.248 64.4373 166.46C64.1324 166.957 64.3176 166.732 64.3652 167.333C64.4392 168.274 64.7533 169.014 64.2206 169.916C63.7204 170.763 62.6298 171.125 61.8653 171.703C60.0467 173.079 58.1343 174.542 56.1167 175.617C55.6587 175.861 55.2257 176.072 54.7993 176.371C54.0873 176.869 54.2174 177.05 53.4998 176.572C52.3778 175.825 51.4085 174.585 50.3959 173.684C48.2744 171.797 46.1292 169.933 43.9566 168.105C39.8161 164.621 35.5534 161.31 31.4643 157.763C27.5785 154.392 23.4128 151.491 19.4012 148.287C18.3007 147.408 17.2137 146.511 16.1277 145.614C15.1607 144.816 13.5915 143.936 12.8763 142.915C11.8375 141.431 15.9009 139.404 17.1269 139.102C19.2409 138.581 21.9744 138.879 24.0917 139.305C26.3142 139.753 28.5773 141.25 30.6526 142.182C32.9919 143.233 35.3744 144.141 37.7309 145.133C38.7819 145.575 39.8961 145.928 40.8716 146.524C41.9068 147.156 42.8309 147.877 43.9316 148.408C45.2002 149.018 46.5183 149.588 47.8525 150.039C48.4569 150.244 49.1076 150.449 49.7429 150.532C50.6424 150.649 50.5205 150.235 51.2675 150.003C51.9025 149.807 52.0533 150.326 52.6243 150.471C53.1619 150.607 53.5638 150.469 54.0292 150.18C55.0671 149.536 55.9908 148.648 57.029 147.977C57.992 147.354 59.0538 146.773 59.9566 146.068C60.3591 145.754 60.6567 145.324 61.0534 145.005C61.689 144.493 61.9411 144.696 62.6832 144.344C63.29 144.056 63.8404 143.52 64.4176 143.164C64.7759 142.944 65.6449 142.665 65.876 142.308C66.4831 141.371 65.4469 140.72 64.5189 140.996C64.3799 140.187 63.6663 138.265 63.9744 137.507C64.2472 136.835 64.9631 136.961 65.5652 136.605C67.8284 135.269 69.4985 132.842 71.6158 131.272C73.6118 129.792 75.3727 128.025 77.35 126.518C79.0438 125.226 80.8949 123.966 82.4372 122.573C84.2607 120.927 86.5953 119.646 88.5779 118.177C90.626 116.659 92.5292 114.97 94.5554 113.435C96.5048 111.958 98.4195 110.416 100.423 109.01C102.223 107.746 104.11 106.592 105.873 105.311C106.839 104.61 107.895 103.993 108.997 103.533C110.093 103.075 111.052 102.537 112.122 102.044C114.249 101.064 117.019 100.386 119.332 100.105C121.875 99.7962 124.429 99.5192 126.996 99.5169C128.364 99.516 129.692 99.7762 131.051 99.8588C132.3 99.9342 133.651 100.25 134.891 100.209C135.453 100.19 135.941 99.9523 136.484 100.029C136.938 100.093 137.333 100.367 137.821 100.415C138.905 100.522 139.996 100.415 141.093 100.555C143.613 100.877 146.136 101.336 148.661 101.592C151.351 101.864 154.018 101.916 156.694 102.375C159.309 102.823 161.941 103.287 164.541 103.806C170.067 104.907 175.65 105.983 181.088 107.618C182.36 108 183.638 108.364 184.86 108.888C185.453 109.142 186.023 109.45 186.642 109.64C187.527 109.912 187.702 110.015 188.158 109.272C188.944 107.993 189.376 106.301 189.946 104.91C190.51 103.533 191.194 102.145 191.521 100.707C190.571 100.556 189.372 100.849 188.392 100.882C187.193 100.924 186.007 100.898 184.81 100.89C182.396 100.876 180.509 100.163 178.225 99.4147C176.3 98.7837 173.737 98.4218 172.269 96.9768C171.482 96.2022 171.22 96.0658 170.037 96.2048C168.843 96.3448 167.664 96.5861 166.458 96.6261C161.916 96.7768 157.394 97.5695 152.83 97.7262C151.596 97.7685 148.508 98.3536 148.71 96.2599C148.752 95.8252 149.085 95.4483 149.15 95.0008C149.22 94.5213 149.1 94.0345 149.025 93.5657C148.846 92.4567 148.66 91.3485 148.482 90.2392C144.321 91.5746 140.107 92.6567 135.867 93.7145C134.108 94.1531 131.283 95.1618 129.466 94.6088C127.71 94.0741 128.727 91.5992 129.274 90.4146C125.784 91.2111 122.062 92.5138 118.503 92.8127C117.42 92.9039 116.366 93.1435 116.114 91.8346C115.913 90.7915 116.667 89.516 117.051 88.5998C114.32 88.356 111.491 88.3792 112.005 84.8783C112.476 81.6662 115.145 81.0266 117.986 80.4399C121.492 79.7151 125.073 79.4735 128.603 78.8871C131.674 78.3767 135.024 77.8076 138.16 78.0653C139.82 78.2013 141.491 78.2325 143.15 78.3862C143.933 78.4586 144.686 78.5799 145.444 78.7937C146.143 78.9903 147.121 79.6004 147.838 79.6112C148.92 79.6282 150.224 78.1656 151.387 77.8276C152.828 77.4087 154.381 77.3326 155.87 77.23C157.557 77.1143 159.247 77.0498 160.934 76.9131C161.318 76.8819 162.771 76.977 163.075 76.7518C163.517 76.4237 163.223 74.7407 163.192 74.0494C163.163 73.4098 163.286 72.2121 162.843 71.9613C162.427 71.7259 161.213 72.0488 160.803 72.1144C159.105 72.3864 157.491 72.3553 155.799 72.2861C155.018 72.2543 154.267 72.4625 153.493 72.3599C152.663 72.2501 151.827 71.9708 151 71.8154C149.208 71.4788 147.576 71.0598 146.033 70.0561C144.678 69.1753 143.074 68.579 142.317 67.0364C141.762 65.9068 141.537 63.7269 143.167 63.4057C142.057 61.8037 141.29 60.0041 140.702 58.153C140.595 57.8173 140.524 57.3118 140.364 57.0191C139.801 55.9839 140.324 56.9021 139.519 56.4881C138.724 56.0793 138.151 55.7558 137.53 55.0448C136.54 53.9109 136.123 52.5154 135.998 51.038C135.828 49.0316 135.511 46.7691 135.804 44.7728C136.311 41.3148 138.838 38.7166 141.406 36.6253C142.8 35.4898 144.636 35.0669 146.271 34.3779C147.849 33.7124 149.612 33.0149 151.275 32.8588C152.776 32.7179 154.24 32.2278 155.742 32.0301C157.807 31.7581 159.875 31.8597 161.95 31.7771C162.905 31.7391 163.858 31.6043 164.809 31.5017C165.346 31.4437 166.254 31.5057 166.746 31.2929C167.551 30.9441 167.116 31.6764 167.403 30.6098C167.95 28.5807 168.397 26.6778 169.225 24.7061C169.997 22.8691 170.934 21.1127 172.173 19.5422C173.334 18.0691 174.841 16.9916 176.209 15.7332C177.224 14.8009 178.374 13.9588 179.531 13.2049C180.192 12.7738 180.929 12.5407 181.575 12.1601C182.378 11.6881 183.086 11.3302 183.988 11.041C185.926 10.4208 187.848 9.76228 189.906 9.79473C192.124 9.82948 194.348 9.31319 196.508 9.96781C200.518 11.1836 202.482 15.5296 202.415 19.5206C203.787 19.1784 204.985 18.5195 206.438 18.4631C207.776 18.4113 209.366 18.5274 210.681 18.7758C213.232 19.258 215.855 20.6761 217.376 22.8252C218.827 24.8749 219.044 27.5963 218.153 29.9217C217.726 31.0349 217.049 32.0252 216.328 32.9657C215.799 33.6554 214.62 34.4188 214.564 35.3429C224.438 32.3583 234.352 30.2544 244.566 28.8927C249.744 28.2027 254.93 28.5482 260.113 28.1539C262.327 27.9854 264.733 28.2211 267.021 28.2299C267.988 28.2339 268.74 28.0995 269.44 27.474C270.149 26.8414 270.716 26.0665 271.543 26.9797C271.754 27.2128 271.798 27.7766 272.082 27.952C272.426 28.1644 273.427 28.0185 273.839 28.0437C275.278 28.1316 276.683 28.3758 278.096 28.6571C280.689 29.1733 283.265 29.6952 285.827 30.3505C290.706 31.5984 295.519 32.8054 300.327 34.2867C305.233 35.7982 310.191 37.6631 314.714 40.1098C316.905 41.2948 319.094 42.7742 321.108 44.2401C322.044 44.9219 322.884 45.6595 323.698 46.4816C324.569 47.3604 325.634 47.9534 326.497 48.8388C328.372 50.7647 330.24 52.8075 331.942 54.894C332.83 55.9833 333.646 57.1322 334.436 58.2933C334.994 59.1079 336.456 60.5994 336.118 61.6516C335.941 62.2135 335.312 62.6065 334.738 62.4688C334.544 62.4229 334.387 62.1738 334.223 62.1502C333.666 62.0715 334.171 61.8761 333.525 62.1387C332.237 62.6609 331.827 63.7082 330.191 63.4699C327.413 63.0644 324.798 61.7519 322.271 60.6076C321.549 63.3676 321.447 66.229 320.815 69.0222C320.198 71.7472 319.171 74.346 317.93 76.8455C316.842 79.0385 315.444 81.3758 313.518 82.943C312.048 84.1388 308.42 85.6244 307.34 83.0784C306.882 81.9969 307.564 80.3166 307.757 79.2037C308.016 77.7103 308.302 76.2125 308.458 74.704C308.585 73.4784 308.649 72.2455 308.767 71.0185C308.868 69.963 309.15 67.6969 308.557 66.7646C308.199 66.2028 308.168 66.7542 307.96 67.315C307.707 67.9952 307.498 68.6698 307.313 69.3703C306.92 70.8589 306.566 72.3576 306.195 73.8514C305.531 76.5204 304.801 79.131 303.418 81.5308C302.19 83.6618 300.462 85.9997 297.836 86.3488C296.606 86.5121 295.003 85.9499 294.065 85.1215C293.011 84.1922 293.326 82.6594 293.335 81.3961Z" fill="black"/>
<path fill-rule="evenodd" clip-rule="evenodd" d="M233.364 190.384C234.807 190.099 236.022 188.947 237.201 188.081C238.704 186.978 240.13 185.775 241.59 184.616C244.341 182.431 246.837 180.035 249.21 177.429C253.892 172.287 257.418 165.669 259.02 158.908C259.831 155.486 260.834 151.478 260.373 147.942C260.214 146.714 259.97 146.489 258.765 146.349C258.221 146.286 256.841 146.13 256.351 146.343C255.082 146.898 254.397 149.258 254.021 150.444C252.909 153.945 252.254 157.572 251.25 161.102C250.265 164.563 248.678 168.074 247.108 171.309C243.616 178.509 238.762 184.533 233.364 190.384ZM261.995 150.633C261.132 160.438 258.41 169.779 252.307 177.674C249.406 181.427 245.994 184.692 242.296 187.658C238.478 190.721 234.578 193.605 230.246 195.889C229.093 196.497 227.938 197.103 226.771 197.683C226.124 198.005 224.49 199.189 223.744 199.001C223.146 198.851 222.99 198.389 222.897 197.787C222.687 196.436 223.565 195.762 224.452 194.894C228.017 191.409 231.593 187.911 234.926 184.204C241.509 176.882 246.454 168.114 249.202 158.654C250.049 155.741 250.805 152.796 251.719 149.904C252.275 148.142 253.064 145.005 254.915 144.127C255.907 143.656 257.063 144.114 258.106 143.832C259.084 143.567 259.733 143.027 260.567 143.933C262.03 145.523 262.095 148.641 261.995 150.633Z" fill="black"/>
<path fill-rule="evenodd" clip-rule="evenodd" d="M1.21619 207.203C0.48552 207.462 0.455034 207.718 0.120351 206.967C-0.0481393 206.588 -0.00257502 206.069 0.0370891 205.675C0.132152 204.733 0.628441 203.862 1.03623 203.026C4.87411 206.192 8.8592 209.045 12.9744 211.842C17.3755 214.833 21.5776 218.159 25.74 221.472C29.4674 224.44 33.2397 227.32 36.9282 230.324C38.7071 231.774 40.7352 232.897 42.4264 234.39C43.793 235.597 46.0594 236.138 47.2244 237.558C45.3782 238.661 42.9135 239.549 40.8677 238.595C38.6108 237.542 36.8796 236.169 34.8712 234.742C33.8363 234.007 32.7602 233.34 31.7089 232.628C30.7849 232.003 30.1322 231.089 29.1967 230.503C27.2305 229.269 25.2135 227.91 23.348 226.501C21.4317 225.055 19.3134 223.904 17.4646 222.367C15.5693 220.79 13.4478 219.746 11.4688 218.311C7.27493 215.27 3.58192 211.849 1.21619 207.203Z" fill="black"/>
<path fill-rule="evenodd" clip-rule="evenodd" d="M114.368 45.7195C114.316 45.9994 114.263 46.2793 114.211 46.5596C114.243 46.5668 116.753 41.7186 117.168 41.1332C118.579 39.1483 120.414 37.4969 122.183 35.8392C125.93 32.3278 130.316 29.4936 133.989 25.9196C135.197 24.7438 137.362 22.9622 136.884 20.974C136.409 18.9981 132.399 19.3996 131.026 19.9713C128.873 20.8678 127.125 22.7429 125.52 24.3766C123.771 26.1589 122.007 27.9211 120.524 29.9381C118.925 32.1131 117.407 34.4686 116.427 36.9927C115.329 39.8203 114.9 42.7466 114.368 45.7195ZM115.192 54.3944C113.489 54.9195 115.624 55.2742 114.957 56.1842C114.225 57.182 112.995 54.1076 112.811 53.527C111.727 50.0972 112.212 45.9306 112.804 42.4483C113.103 40.6916 113.296 38.9061 113.699 37.1684C114.093 35.474 114.949 33.8639 115.741 32.3225C117.325 29.2386 119.423 26.3654 121.804 23.8508C124.192 21.3281 126.853 18.804 130.004 17.2509C132.608 15.9682 136.735 16.8582 137.954 19.6599C139.199 22.5229 137.515 25.6416 135.523 27.6546C132.925 30.28 130.094 32.8877 127.176 35.1515C125.676 36.3152 124.419 37.7224 122.962 38.9366C121.411 40.2291 120.069 41.5292 118.923 43.2006C117.812 44.8203 116.669 46.4387 115.947 48.2773C115.157 50.2906 115.192 52.2643 115.192 54.3944Z" fill="black"/>
<path fill-rule="evenodd" clip-rule="evenodd" d="M47.0759 177.859C43.1626 175.339 39.2362 173.127 35.8284 169.913C32.4637 166.74 29.524 163.162 25.7792 160.41C23.9107 159.036 21.9822 157.747 20.1469 156.328C18.4049 154.982 16.4027 153.829 14.8283 152.293C12.7297 150.246 8.80069 146.442 11.4818 143.389C14.8096 147.347 19.3756 150.467 23.5383 153.472C27.9276 156.64 31.9563 160.336 36.1198 163.788C40.1305 167.112 44.1277 170.468 48.0413 173.881C49.069 174.778 50.0602 175.719 51.1 176.602C51.2272 176.709 52.305 177.392 52.305 177.574C52.3053 178.01 51.4698 178.282 51.1721 178.403C50.7024 178.595 49.4318 179.071 48.8992 178.91C48.6199 178.825 48.6149 178.598 48.4137 178.463C48.298 178.244 48.1629 178.039 48.0095 177.845C47.6981 177.85 47.387 177.855 47.0759 177.859Z" fill="black"/>
<path fill-rule="evenodd" clip-rule="evenodd" d="M277.449 133.925C274.659 133.853 270.413 133.845 270.569 137.654C270.647 139.54 271.67 140.925 272.51 142.539C273.392 144.234 274.046 145.986 274.305 147.886C275.352 155.579 272.542 163.094 270.001 170.205C275.459 165.8 279.401 159.67 281.47 152.951C282.474 149.693 282.864 145.505 282.54 142.112C282.378 140.414 281.752 138.892 280.998 137.38C280.619 136.62 280.241 135.752 279.637 135.137C279.032 134.521 278.193 134.316 277.449 133.925ZM267.718 174.611C265.916 171.648 268.753 167.284 269.681 164.394C270.79 160.939 271.813 157.342 272.287 153.738C272.784 149.964 272.143 147.029 270.393 143.695C268.829 140.714 267.9 136.744 269.639 133.59C270.34 132.321 271.374 132.165 272.604 131.659C274.113 131.038 274.529 129.987 276.381 130.153C279.685 130.45 281.214 133.584 282.443 136.254C285.31 142.479 284.53 150.513 282.086 156.763C280.679 160.36 279.075 164.095 276.686 167.157C275.515 168.659 274.138 169.961 272.709 171.214C271.164 172.568 269.779 174.201 267.718 174.611Z" fill="black"/>
<path fill-rule="evenodd" clip-rule="evenodd" d="M79.01 66.535C74.6535 67.4105 70.678 69.3741 69.9801 74.2701C69.3458 78.7197 72.3766 82.8362 76.0985 84.9191C80.1239 87.1724 85.1678 87.5467 89.1788 85.0495C93.4012 82.4206 94.359 77.1521 91.789 73.0189C88.9214 68.4064 84.1175 67.045 79.01 66.535ZM81.8098 64.4003C86.9976 65.1605 91.8133 68.8525 93.5608 73.825C95.3624 78.9508 93.707 84.5864 88.9375 87.395C79.2985 93.0715 66.4156 83.6115 68.742 72.7383C69.3327 69.9776 71.01 67.8396 73.2889 66.2232C75.8048 64.4384 78.8471 64.3898 81.8098 64.4003Z" fill="black"/>
<path fill-rule="evenodd" clip-rule="evenodd" d="M266.258 12.3466C260.007 9.52034 253.756 6.69404 247.505 3.86773C247.249 6.70125 246.992 9.53444 246.736 12.368C246.666 13.1347 246.382 14.1777 246.503 14.9343C246.633 15.7417 246.356 15.6555 247.409 15.5407C248.755 15.3936 250.105 15.0612 251.438 14.8235C253.833 14.3961 256.38 14.2741 258.724 13.6454C259.92 13.3245 261.065 13.2842 262.28 13.0901C263.613 12.877 264.911 12.4824 266.258 12.3466ZM245.113 17.8242C245.113 14.6324 245.467 11.4835 245.759 8.30649C246.022 5.44806 246.124 2.72338 247.057 0C247.928 1.58295 250.342 2.21561 251.835 3.0302C253.893 4.15259 256.085 4.97898 258.191 6.00139C260.26 7.00545 262.253 8.15833 264.325 9.16009C265.375 9.66818 266.441 10.1422 267.49 10.6542C268.146 10.9748 269.702 11.4908 270.11 12.086C271.35 13.8929 267.108 14.0676 266.289 14.2269C263.833 14.7058 261.349 14.9756 258.898 15.468C256.613 15.9276 254.324 16.354 252.031 16.7707C249.761 17.183 247.422 17.8242 245.113 17.8242Z" fill="black"/>
<path fill-rule="evenodd" clip-rule="evenodd" d="M52.3716 96.8405C54.8327 96.5845 57.2837 96.216 59.7422 95.9728C62.0702 95.7423 64.1295 95.4971 66.2562 94.4305C63.3516 93.5546 60.4404 92.7252 57.5112 91.9339C56.0583 91.5416 54.6085 91.1262 53.1491 90.7597C52.0201 90.4759 51.0361 90.3126 50.6021 89.0804C50.0969 87.646 51.5016 87.8633 52.3771 88.2278C53.5847 88.7303 54.9002 89.0427 56.1518 89.4607C58.9453 90.3933 61.7559 91.2511 64.5756 92.0991C65.4521 92.3627 70.5311 93.3376 68.701 95.032C67.9179 95.7574 66.1704 96.1557 65.2129 96.6766C63.9846 97.3446 62.6475 97.6108 61.2812 97.8766C58.4336 98.4306 55.4785 98.6434 52.5958 99.1239C51.1236 99.3695 49.6518 99.615 48.18 99.8605C47.3175 100.004 46.9854 99.99 46.7602 99.0282C46.5963 98.3293 46.8101 97.6301 46.9674 96.9532C47.3667 95.2333 47.8108 93.5221 48.2504 91.8123C48.4176 91.16 48.7136 88.2924 49.2955 87.9787C50.6155 87.267 49.597 91.237 49.499 91.7232C49.1286 93.5569 48.6887 95.3778 48.4907 97.2388C49.7872 97.1214 51.08 96.9998 52.3716 96.8405Z" fill="black"/>
<path fill-rule="evenodd" clip-rule="evenodd" d="M87.2687 111.439C87.7571 112.666 86.9461 112.94 85.962 113.365C84.6856 113.916 83.4301 114.498 82.1304 114.994C79.3962 116.037 76.6423 117.006 73.9733 118.213C68.8829 120.516 63.7236 122.726 58.7122 125.191C57.4669 125.804 56.2206 126.414 54.9641 127.004C53.6647 127.615 52.1745 128.642 50.7843 128.991C49.5718 129.295 49.4453 128.431 50.1638 127.636C51.0902 126.61 52.5223 125.845 53.6857 125.132C58.4736 122.197 63.6991 119.808 68.9285 117.789C74.9728 115.455 81.0335 113.216 87.2687 111.439Z" fill="black"/>
<path fill-rule="evenodd" clip-rule="evenodd" d="M100.559 41.8712C100.384 38.1428 100.883 34.4042 100.586 30.6856C95.4732 35.2178 97.992 42.2219 100.933 47.1396L100.559 41.8712ZM102.772 41.6581C102.805 43.4794 102.908 45.2997 102.731 47.1117C102.545 49.014 103.437 49.9938 104.601 51.3948C103.613 52.3972 101.346 50.06 100.721 49.371C99.4321 47.9522 98.4732 46.0674 97.62 44.3638C95.8026 40.7347 94.5511 36.8493 96.0056 32.8648C96.5448 31.3881 97.2043 29.3803 98.6319 28.5205C100.199 27.5764 101.399 28.9079 102.049 30.2775C103.637 33.6191 102.426 38.0713 102.772 41.6581Z" fill="black"/>
<path fill-rule="evenodd" clip-rule="evenodd" d="M156.932 226.99C159.289 227.177 161.611 227.361 163.969 227.511C163.562 224.279 163.155 221.047 162.748 217.815C161.384 218.131 160.02 218.447 158.656 218.762C158.011 218.912 157.022 218.951 156.452 219.273C156.238 219.322 156.024 219.372 155.811 219.421C155.805 219.84 155.801 220.26 155.797 220.679C155.781 221.921 155.745 223.16 155.694 224.4C155.672 224.92 155.491 225.681 155.615 226.195C155.394 226.716 155.535 226.937 156.037 226.859C156.335 226.903 156.633 226.947 156.932 226.99ZM155.309 229.327C153.461 228.406 153.966 225.595 153.969 223.806C153.971 222.667 154.052 221.536 154.082 220.4C154.102 219.618 153.924 218.651 154.192 217.896C154.671 216.553 157.011 216.589 158.214 216.684C159.106 216.753 159.853 216.708 160.768 216.649C161.218 216.621 161.721 216.707 162.164 216.573C162.26 216.545 163.161 215.916 163.121 215.915C164.737 215.977 164.759 219.852 164.864 220.835C165.123 223.26 165.358 225.688 165.569 228.117C165.625 228.76 165.864 229.487 165.253 229.853C164.703 230.184 163.243 229.857 162.634 229.839C160.179 229.764 157.737 229.382 155.309 229.327Z" fill="black"/>
<path fill-rule="evenodd" clip-rule="evenodd" d="M270.657 85.3179C271.725 86.2793 271.212 87.2712 270.862 88.4723C270.651 89.1931 269.496 91.5599 269.814 92.2342C270.183 93.0137 271.915 93.2054 272.655 93.4516C273.945 93.8804 275.24 94.3111 276.461 94.9156C277.002 95.184 278.956 95.801 279.322 96.3018C279.532 96.589 279.608 96.8139 279.45 97.184C279.173 97.8337 278.778 97.4898 278.103 97.3505C275.019 96.7132 271.961 95.8983 269.101 94.5543C268.303 96.4054 267.628 98.2959 266.953 100.195C266.755 100.752 266.567 102.016 265.816 102.107C264.9 102.216 264.887 100.989 264.948 100.328C265.037 99.3612 265.538 98.3309 265.84 97.416C266.089 96.6608 266.964 95.0883 266.856 94.3101C266.783 93.7745 266.456 93.8119 265.874 93.6014C265.325 93.4028 264.775 93.2051 264.225 93.0042C263.344 92.6819 262.467 92.3587 261.61 91.9765C261.14 91.7667 260.155 91.5215 259.815 91.0862C259.617 90.8338 259.397 89.9241 259.646 89.6724C260.229 89.0827 264.108 90.6699 264.905 90.8866C265.434 91.0305 265.966 91.1403 266.479 91.3288C266.674 91.4005 266.904 91.6916 267.114 91.7025C268.006 91.7477 268.077 91.0616 268.354 90.3257C268.997 88.6155 269.694 86.871 270.657 85.3179Z" fill="black"/>
<path fill-rule="evenodd" clip-rule="evenodd" d="M48.2822 119.342C47.8066 118.176 52.8551 116.768 53.7922 116.375C56.0796 115.418 58.5303 114.838 60.8987 114.107C63.2277 113.388 65.5466 112.614 67.8372 111.781C68.5456 111.524 73.6469 109.04 73.9137 109.403C74.7978 110.605 64.0931 114.38 63.05 114.755C58.2064 116.499 53.2051 117.838 48.2822 119.342Z" fill="black"/>
<path fill-rule="evenodd" clip-rule="evenodd" d="M265.417 28.1593C264.109 28.1724 262.221 28.5435 261.021 28.0125C262.486 28.0613 263.952 28.1105 265.417 28.1593Z" fill="black"/>
<path fill-rule="evenodd" clip-rule="evenodd" d="M81.8098 64.4002L78.8999 64.3897C79.8708 64.1645 80.8411 64.0285 81.8098 64.4002Z" fill="black"/>
<path fill-rule="evenodd" clip-rule="evenodd" d="M233.344 63.623C234.03 63.6194 234.716 63.6158 235.398 63.6118C234.71 63.6158 234.027 63.6194 233.344 63.623Z" fill="black"/>
<path fill-rule="evenodd" clip-rule="evenodd" d="M293.335 81.3965C293.329 82.1304 293.325 82.8644 293.319 83.5954C293.323 82.8604 293.329 82.1285 293.335 81.3965Z" fill="black"/>
<path fill-rule="evenodd" clip-rule="evenodd" d="M158.214 216.684C157.486 216.736 156.757 216.789 156.029 216.841C156.758 216.789 157.486 216.736 158.214 216.684Z" fill="black"/>
<path fill-rule="evenodd" clip-rule="evenodd" d="M162.321 76.8003C161.581 76.8603 160.84 76.9206 160.101 76.9806C160.841 76.9203 161.581 76.8603 162.321 76.8003Z" fill="black"/>
<path fill-rule="evenodd" clip-rule="evenodd" d="M238.904 63.3814C239.428 63.3804 239.951 63.3794 240.471 63.3784C239.946 63.3797 239.425 63.3807 238.904 63.3814Z" fill="black"/>
<path fill-rule="evenodd" clip-rule="evenodd" d="M133.529 78.2324C132.878 78.2911 132.227 78.3498 131.577 78.4085C132.227 78.3498 132.878 78.2911 133.529 78.2324Z" fill="black"/>
<path fill-rule="evenodd" clip-rule="evenodd" d="M162.276 31.7753C161.625 31.7792 160.974 31.7831 160.323 31.7871C160.972 31.4429 161.623 31.5317 162.276 31.7753Z" fill="black"/>
<path fill-rule="evenodd" clip-rule="evenodd" d="M43.4573 144.358C42.9158 144.33 42.4746 144.592 42.1691 144.076C42.6689 143.686 42.9574 144.135 43.4573 144.358Z" fill="black"/>
<path fill-rule="evenodd" clip-rule="evenodd" d="M143.891 100.887L142.201 100.697L143.891 100.887Z" fill="black"/>
<path fill-rule="evenodd" clip-rule="evenodd" d="M155.309 229.326C155.682 229.335 156.055 229.343 156.424 229.352C156.05 229.343 155.679 229.335 155.309 229.326Z" fill="black"/>
<path fill-rule="evenodd" clip-rule="evenodd" d="M242.038 29.2219C241.456 29.274 240.874 29.3262 240.293 29.3783C240.875 29.3258 241.456 29.274 242.038 29.2219Z" fill="black"/>
<path fill-rule="evenodd" clip-rule="evenodd" d="M57.6501 205.724C57.0912 205.726 56.5327 205.729 55.9741 205.731C56.533 205.728 57.0916 205.726 57.6501 205.724Z" fill="black"/>
<path fill-rule="evenodd" clip-rule="evenodd" d="M12.7283 195.817C12.1642 195.818 11.6003 195.819 11.0365 195.82C11.6007 195.819 12.1642 195.818 12.7283 195.817Z" fill="black"/>
<path fill-rule="evenodd" clip-rule="evenodd" d="M155.265 77.2659C154.692 77.3223 154.12 77.3783 153.547 77.4347C154.12 77.3783 154.692 77.3223 155.265 77.2659Z" fill="black"/>
<path fill-rule="evenodd" clip-rule="evenodd" d="M139.287 78.1951C138.723 78.1302 138.16 78.0653 137.597 78.0004C138.155 78.1096 138.775 77.6785 139.287 78.1951Z" fill="black"/>
<path fill-rule="evenodd" clip-rule="evenodd" d="M190.316 100.813C190.667 100.773 191.159 100.65 191.521 100.707C191.474 100.914 190.451 100.812 190.316 100.813Z" fill="black"/>
<path fill-rule="evenodd" clip-rule="evenodd" d="M154.575 145.012C154.953 145.019 155.331 145.027 155.705 145.033C155.326 145.026 154.951 145.019 154.575 145.012Z" fill="black"/>
<path fill-rule="evenodd" clip-rule="evenodd" d="M120.436 99.9983C119.884 100.052 119.332 100.105 118.78 100.158C119.333 100.105 119.884 100.052 120.436 99.9983Z" fill="black"/>
<path fill-rule="evenodd" clip-rule="evenodd" d="M58.6335 98.1169C58.9345 98.1251 59.2354 98.1333 59.5324 98.1415C59.2301 98.1333 58.9318 98.1251 58.6335 98.1169Z" fill="black"/>
<path fill-rule="evenodd" clip-rule="evenodd" d="M139.984 100.414C139.512 100.404 139.04 100.395 138.568 100.386C139.04 100.395 139.512 100.404 139.984 100.414Z" fill="black"/>
<path fill-rule="evenodd" clip-rule="evenodd" d="M52.3716 96.8406C51.8943 96.8996 51.417 96.9583 50.9404 97.0169C51.418 96.9579 51.8946 96.8993 52.3716 96.8406Z" fill="black"/>
<path fill-rule="evenodd" clip-rule="evenodd" d="M117.842 92.7859C118.136 92.7977 118.431 92.8095 118.722 92.8223C118.426 92.8111 118.134 92.7987 117.842 92.7859Z" fill="black"/>
<path fill-rule="evenodd" clip-rule="evenodd" d="M140.328 142.359C140.628 142.34 140.927 142.32 141.222 142.3C140.922 142.32 140.625 142.34 140.328 142.359Z" fill="black"/>
<path fill-rule="evenodd" clip-rule="evenodd" d="M163.223 103.541C162.741 103.481 162.26 103.421 161.779 103.361C162.26 103.421 162.741 103.481 163.223 103.541Z" fill="black"/>
<path fill-rule="evenodd" clip-rule="evenodd" d="M47.0759 177.859C47.3883 177.855 47.7007 177.851 48.0095 177.845C47.6961 177.85 47.3857 177.854 47.0759 177.859Z" fill="black"/>
<path fill-rule="evenodd" clip-rule="evenodd" d="M21.4265 139.041C20.9289 138.991 20.4313 138.94 19.9334 138.89C20.431 138.94 20.9286 138.991 21.4265 139.041Z" fill="black"/>
<path fill-rule="evenodd" clip-rule="evenodd" d="M10.8089 195.885C10.3198 195.942 9.8307 195.999 9.34129 196.055C9.83103 195.998 10.3198 195.942 10.8089 195.885Z" fill="black"/>
<path fill-rule="evenodd" clip-rule="evenodd" d="M277.424 63.5437C277.386 63.9666 277.347 64.3894 277.308 64.8107C277.346 64.3871 277.385 63.9656 277.424 63.5437Z" fill="black"/>
<path fill-rule="evenodd" clip-rule="evenodd" d="M60.5731 205.301C60.0811 205.358 59.5891 205.414 59.0974 205.471C59.5894 205.414 60.0814 205.358 60.5731 205.301Z" fill="black"/>
<path fill-rule="evenodd" clip-rule="evenodd" d="M55.7459 205.789C55.248 206.137 54.7504 206.157 54.2522 205.79C54.7501 205.79 55.248 205.789 55.7459 205.789Z" fill="black"/>
<path fill-rule="evenodd" clip-rule="evenodd" d="M46.3053 206.205C45.8224 206.205 45.3399 206.206 44.8574 206.206C45.3402 206.206 45.8227 206.205 46.3053 206.205Z" fill="black"/>
<path fill-rule="evenodd" clip-rule="evenodd" d="M102.772 41.6581C102.731 41.2297 102.69 40.8016 102.648 40.3748C102.69 40.8038 102.731 41.231 102.772 41.6581Z" fill="black"/>
<path fill-rule="evenodd" clip-rule="evenodd" d="M155.502 32.0913C155.016 32.1513 154.531 32.211 154.046 32.2706C154.532 32.211 155.017 32.1513 155.502 32.0913Z" fill="black"/>
<path fill-rule="evenodd" clip-rule="evenodd" d="M157.221 31.8643C156.728 31.9193 156.235 31.9747 155.742 32.0301C156.235 31.9747 156.728 31.9193 157.221 31.8643Z" fill="black"/>
<path fill-rule="evenodd" clip-rule="evenodd" d="M80.6467 88.9522C80.9503 88.9477 81.2538 88.9431 81.5531 88.9385C81.2482 88.9431 80.9477 88.9477 80.6467 88.9522Z" fill="black"/>
<path fill-rule="evenodd" clip-rule="evenodd" d="M124.571 84.208C126.181 83.9425 127.791 83.854 129.401 84.207L124.571 84.208Z" fill="black"/>
<path fill-rule="evenodd" clip-rule="evenodd" d="M167.509 66.0976C167.844 65.2224 167.927 64.8939 168.745 64.4409C168.405 65.2916 168.351 65.7466 167.509 66.0976Z" fill="black"/>
<path fill-rule="evenodd" clip-rule="evenodd" d="M206.769 152.716C206.801 153.626 206.833 154.536 206.865 155.445C206.833 154.534 206.801 153.625 206.769 152.716Z" fill="black"/>
<path fill-rule="evenodd" clip-rule="evenodd" d="M265.154 30.261C264.425 30.2774 263.697 30.2941 262.972 30.3105C263.702 30.2941 264.428 30.2774 265.154 30.261Z" fill="black"/>
<path fill-rule="evenodd" clip-rule="evenodd" d="M168.132 168.889C168.158 169.648 168.183 170.407 168.208 171.165C168.183 170.405 168.157 169.648 168.132 168.889Z" fill="black"/>
<path fill-rule="evenodd" clip-rule="evenodd" d="M78.8848 144.585C79.6204 144.59 80.3563 144.595 81.0919 144.601C80.356 144.595 79.6204 144.59 78.8848 144.585Z" fill="black"/>
<path fill-rule="evenodd" clip-rule="evenodd" d="M141.419 105.618C140.975 105.622 140.532 105.626 140.094 105.632C140.538 105.628 140.978 105.623 141.419 105.618Z" fill="black"/>
<path fill-rule="evenodd" clip-rule="evenodd" d="M139.975 81.5041C139.61 81.4916 139.246 81.4792 138.885 81.468C139.251 81.4808 139.613 81.4923 139.975 81.5041Z" fill="black"/>
<path fill-rule="evenodd" clip-rule="evenodd" d="M87.8433 144.355C88.4186 144.299 88.9935 144.243 89.5688 144.187C88.9935 144.243 88.4186 144.299 87.8433 144.355Z" fill="black"/>
<path fill-rule="evenodd" clip-rule="evenodd" d="M75.3098 144.614C75.8733 144.606 76.4368 144.597 76.9999 144.588C76.4368 144.597 75.8733 144.606 75.3098 144.614Z" fill="black"/>
<path fill-rule="evenodd" clip-rule="evenodd" d="M81.3256 144.599C81.9091 144.548 82.4926 144.498 83.0764 144.447C82.4929 144.497 81.9091 144.548 81.3256 144.599Z" fill="black"/>
<path fill-rule="evenodd" clip-rule="evenodd" d="M83.4534 145.524C83.1633 145.523 82.8732 145.521 82.587 145.519C82.8784 145.521 83.1659 145.523 83.4534 145.524Z" fill="black"/>
<path fill-rule="evenodd" clip-rule="evenodd" d="M206.514 132.487C206.557 132.059 206.601 131.632 206.644 131.206C206.601 131.634 206.557 132.06 206.514 132.487Z" fill="black"/>
<path fill-rule="evenodd" clip-rule="evenodd" d="M119.394 89.2598C119.76 89.2909 120.126 89.3221 120.492 89.3535C120.084 89.3745 119.674 89.3951 119.266 89.4161C119.268 89.3322 119.311 89.2801 119.394 89.2598Z" fill="black"/>
<path fill-rule="evenodd" clip-rule="evenodd" d="M213.415 161.185C213.392 160.796 213.368 160.406 213.346 160.019C213.369 160.409 213.392 160.797 213.415 161.185Z" fill="black"/>
<path fill-rule="evenodd" clip-rule="evenodd" d="M125.963 87.7739C125.669 87.7798 125.375 87.7854 125.085 87.791C125.38 87.7851 125.671 87.7795 125.963 87.7739Z" fill="black"/>
<path fill-rule="evenodd" clip-rule="evenodd" d="M233.511 136.933C234.001 136.991 234.49 137.048 234.98 137.105C234.49 137.048 234.001 136.991 233.511 136.933Z" fill="black"/>
<path fill-rule="evenodd" clip-rule="evenodd" d="M131.797 104.666C131.496 104.67 131.194 104.675 130.897 104.68C131.199 104.676 131.498 104.671 131.797 104.666Z" fill="black"/>
<path fill-rule="evenodd" clip-rule="evenodd" d="M114.368 45.7195C114.684 45.8883 114.52 46.6304 114.211 46.5596C114.263 46.2794 114.316 45.9994 114.368 45.7195Z" fill="black"/>
<path fill-rule="evenodd" clip-rule="evenodd" d="M277.449 133.924C277.158 133.917 276.868 133.909 276.581 133.902C276.873 133.91 277.161 133.917 277.449 133.924Z" fill="black"/>
<path fill-rule="evenodd" clip-rule="evenodd" d="M100.559 41.8712C100.529 41.2173 100.498 40.5636 100.468 39.9116C100.498 40.5662 100.529 41.2186 100.559 41.8712Z" fill="black"/>
<path fill-rule="evenodd" clip-rule="evenodd" d="M155.59 226.793C156.037 226.859 156.485 226.925 156.932 226.99C156.484 226.925 156.037 226.859 155.59 226.793Z" fill="black"/>
<path fill-rule="evenodd" clip-rule="evenodd" d="M152.631 58.44C151.052 58.7648 149.431 58.9346 147.89 59.4129C147.505 59.5322 146.243 60.2652 145.783 60.0721C145.083 59.7781 145.437 59.0238 145.732 58.6213C146.52 57.5448 147.931 56.9416 149.225 56.9551C150.516 56.9688 152.289 56.9216 152.631 58.44Z" fill="black"/>
<path fill-rule="evenodd" clip-rule="evenodd" d="M148.245 61.3279C149.983 62.5444 151.311 63.1436 151.458 60.4094C153.342 60.6661 152.498 63.6996 151.072 63.9284C149.521 64.1772 148.486 62.6277 148.245 61.3279Z" fill="black"/>
</g>
</svg>
