<svg width="396" height="247" viewBox="0 0 396 247" fill="none" xmlns="http://www.w3.org/2000/svg">
<path fill-rule="evenodd" clip-rule="evenodd" d="M85.0206 150.938L86.2829 166.771L110.27 172.47L128.576 180.703L143.094 193.369L150.038 187.669L158.875 168.037L168.975 166.137L205.586 169.937L218.212 173.737L213.793 195.269L209.374 211.101L282.597 206.668L280.072 169.937L264.923 136.372L204.956 107.241L160.137 112.94L128.576 147.771L114.689 155.371L90.0707 154.104" fill="#FF5678"/>
<path fill-rule="evenodd" clip-rule="evenodd" d="M50.092 182.472C50.092 185.055 51.6915 184.892 53.6286 184.694C54.289 184.626 54.9889 184.554 55.6783 184.586C56.0986 184.606 56.8077 184.73 57.6487 184.877L57.6492 184.878C60.1105 185.309 63.7031 185.939 64.5026 184.721C65.2673 183.556 64.2016 183.397 63.1147 183.235C62.3819 183.127 61.6399 183.016 61.4433 182.594C60.9211 181.472 61.9452 180.694 62.9408 179.937C63.8238 179.266 64.6852 178.611 64.4253 177.749C64.1634 176.879 62.9939 177.373 61.7312 177.906C60.3298 178.498 58.8134 179.138 58.2956 178.018C57.8019 176.949 58.9376 175.96 59.9684 175.061C60.8404 174.3 61.6379 173.605 61.3119 172.983C60.7075 171.832 54.5822 174.746 53.8001 175.247C51.5871 176.663 49.9915 179.847 50.092 182.472ZM323.647 121.066C324.587 122.08 325.303 123.274 326.013 124.458C326.724 125.644 327.429 126.821 328.348 127.797C329.139 128.638 330.046 128.964 330.986 129.302V129.303C331.412 129.455 331.845 129.611 332.276 129.818C333.108 130.217 333.971 130.65 334.856 131.094C338.261 132.802 341.985 134.671 345.526 135.407C342.914 132.351 341.257 129.587 339.706 125.874C339.548 125.495 339.379 125.11 339.207 124.721C338.778 123.747 338.338 122.749 338.042 121.763C337.729 120.726 337.669 119.656 337.609 118.592C337.555 117.631 337.502 116.675 337.262 115.749C337.127 115.228 337.072 114.825 337.031 114.526L337.031 114.525V114.524C336.982 114.171 336.954 113.965 336.837 113.881C336.673 113.762 336.333 113.886 335.515 114.185L335.449 114.209L335.349 114.246L335.242 114.284C334.532 114.542 333.873 115.092 333.231 115.627C332.829 115.963 332.433 116.292 332.035 116.542C330.805 117.313 329.524 117.922 328.247 118.529C326.671 119.278 325.102 120.024 323.647 121.066ZM443.186 66.2094C443.277 67.1688 456.203 62.5554 457.479 61.7091C459.865 60.126 462.661 52.8413 460.122 50.682C457.837 48.7386 452.815 51.1066 449.18 52.821C447.941 53.4051 446.863 53.9132 446.11 54.149C441.119 55.7088 435.369 56.5871 430.167 56.0557C427.809 55.8141 425.486 55.6137 423.105 55.4663C422.704 55.4417 422.242 55.3789 421.748 55.3113C420.043 55.0794 417.964 54.7958 416.775 55.861C415.324 57.1595 415.499 59.7444 416.238 61.3588C416.493 61.9158 416.801 62.2235 417.098 62.5206C417.358 62.7805 417.61 63.0322 417.811 63.4351C417.865 63.5428 417.836 63.681 417.801 63.8476C417.746 64.1119 417.676 64.4481 417.896 64.8491C418.882 66.6509 422.239 69.6619 424.047 70.5793C425.78 71.4589 426.412 70.9174 427.374 70.0923C427.7 69.8131 428.065 69.501 428.522 69.2011C431.669 67.1369 436.586 66.748 440.715 66.4215C441.581 66.3529 442.413 66.2872 443.186 66.2094ZM413.258 66.7673C409.517 71.3358 405.116 74.512 400.501 77.8423L400.499 77.8432C399.588 78.5017 398.667 79.1654 397.742 79.848C396.491 80.7702 395.254 81.7117 394.019 82.6522L394.019 82.6527H394.018L394.018 82.6532L394.017 82.6537L394.016 82.6542V82.6546C390.348 85.4473 386.688 88.2341 382.665 90.5084C382.231 90.7538 381.721 90.9712 381.204 91.1915C379.838 91.7731 378.421 92.377 378.213 93.5803C378.034 94.6271 379.277 96.8565 380.317 98.7216C380.828 99.6371 381.289 100.465 381.509 101.022C383.492 106.027 385.019 111.148 386.557 116.305C386.771 117.024 386.986 117.744 387.202 118.465L387.576 117.882C392.718 109.866 397.928 101.743 404.227 94.5006C409.921 87.9535 415.762 81.103 420.739 74.0482C417.726 72.213 415.23 69.6822 413.258 66.7673ZM369.603 6.71896C364.329 6.50737 362.72 10.813 361.181 14.9355C360.576 16.5548 359.982 18.146 359.18 19.4238C357.609 21.9275 355.52 24.6158 353.199 26.4892C351.441 27.908 349.331 28.7447 347.228 29.5789C346.196 29.9881 345.165 30.3973 344.18 30.8736C341.465 32.1841 339.052 33.4976 337.359 36.0265C337.197 36.2671 337.017 36.5217 336.83 36.7869C335.654 38.4477 334.173 40.5408 335.017 42.4852C335.604 43.8344 337.199 44.9484 338.765 46.0421C339.875 46.8169 340.971 47.5816 341.682 48.413C343.713 50.7868 343.999 50.7182 346.291 50.167C346.663 50.0772 347.089 49.9752 347.583 49.8685C349.35 49.4873 351.028 49.3685 352.834 49.4318C353.053 49.439 353.428 49.5091 353.864 49.5897C354.881 49.7786 356.224 50.0284 356.678 49.6922C357.226 49.2854 357.055 48.0304 356.907 46.9396C356.831 46.3802 356.761 45.8638 356.796 45.5266C356.957 44.0141 357.494 42.4533 358.004 41.0273C359.729 36.1917 362.784 32.7629 365.965 29.1905L365.968 29.1876L365.971 29.1843L365.974 29.1804L365.977 29.177C366.517 28.5712 367.061 27.9606 367.602 27.3389C369.58 25.0661 371.918 23.1275 374.254 21.1909C376.653 19.2025 379.049 17.2161 381.05 14.8718C383.23 12.3168 382.237 10.5106 379.245 9.31451C378.401 8.97732 377.476 8.82805 376.554 8.67927C375.815 8.55995 375.077 8.44063 374.383 8.22518C373.835 8.05513 373.308 7.82954 372.782 7.60442C371.76 7.16628 370.745 6.732 369.603 6.71896ZM83.9506 187.114C84.9791 187.114 86.0008 186.694 87.0099 186.279C88.0992 185.831 89.1741 185.389 90.2286 185.487C90.7378 185.535 91.3102 186.017 91.8517 186.473C92.2005 186.767 92.5367 187.05 92.8348 187.2C93.9159 187.741 95.083 188.01 96.2748 188.158C97.0612 188.255 97.753 188.256 98.3935 188.257C99.8678 188.258 101.068 188.259 102.511 189.438C104.021 190.672 105.581 192.227 107.031 193.673C107.364 194.006 107.692 194.333 108.012 194.649C110.665 197.268 112.976 200.398 115.243 203.468C116.099 204.627 116.948 205.776 117.806 206.886C121.675 211.891 125.693 215.863 130.841 219.611C134.907 222.571 139.027 224.519 143.606 226.684L144.024 226.882C148.681 229.086 154.538 231.641 159.822 231.762C164.036 231.859 169.304 230.507 173.139 228.708C174.978 227.846 175.852 227.695 177.354 227.436C177.674 227.381 178.021 227.321 178.413 227.249C181.755 226.629 185.606 224.876 188.753 223.443L189.094 223.287C199.165 218.705 205.547 208.719 210.088 198.944C212.673 193.381 214.287 187.945 215.364 181.926C215.42 181.613 215.476 181.322 215.528 181.052C216.015 178.494 216.157 177.748 213.268 176.521C210.713 175.437 207.994 174.68 205.305 173.932C204.599 173.735 203.895 173.539 203.196 173.338C193.345 170.501 182.117 169.875 171.945 170.309C171.338 170.334 170.73 170.376 170.122 170.418H170.121H170.121H170.12H170.119H170.118C169.123 170.487 168.126 170.556 167.131 170.555C166.806 170.555 166.336 170.495 165.821 170.431C164.797 170.302 163.597 170.151 163.012 170.398C161.626 170.985 160.449 173.642 159.61 175.533L159.61 175.534L159.609 175.535L159.609 175.536C159.386 176.039 159.187 176.489 159.014 176.83C157.609 179.611 156.361 182.464 155.114 185.316V185.317C154.002 187.858 152.891 190.398 151.669 192.886C150.32 195.632 148.306 197.439 145.123 197.483C141.966 197.526 140.288 195.741 138.375 193.704C138.127 193.44 137.874 193.171 137.614 192.902C133.101 188.224 127.026 184.204 121.423 180.95C115.372 177.437 108.156 174.033 101.266 172.792C100.553 172.664 99.6973 172.469 98.7495 172.255C93.5976 171.085 85.7322 169.298 83.3748 174.159C83.4226 174.153 83.4757 174.145 83.5327 174.138L83.5448 174.136H83.5453C85.1892 173.912 90.2542 173.223 90.4769 175.549C90.5571 176.386 89.1673 176.903 87.5683 177.496C85.7099 178.187 83.5695 178.982 83.125 180.508C83.4704 180.481 83.9839 180.393 84.5878 180.29C87.0442 179.872 91.0054 179.198 91.3464 181.287C91.5276 182.395 89.9446 183.062 88.8499 183.524C88.5775 183.639 88.335 183.741 88.1577 183.834C86.3969 184.76 85.3365 185.722 83.9506 187.114ZM275.203 104.429C273.833 103.463 271.384 103.324 269.286 103.205C268.51 103.161 267.782 103.12 267.174 103.04L267.158 103.038H267.157V103.038C264.288 102.663 261.498 102.297 258.6 102.456C257.552 102.513 256.486 102.548 255.414 102.582C252.333 102.682 249.194 102.784 246.239 103.434C241.247 104.532 236.52 106.217 232.01 108.581C231.922 108.627 231.833 108.673 231.742 108.72L231.738 108.722C230.261 109.487 228.386 110.459 228.4 112.529C228.41 114.207 228.954 114.3 230.234 114.52C230.532 114.571 230.869 114.629 231.249 114.716C235.466 115.676 239.44 118.063 243.27 120.366C244.364 121.023 245.446 121.673 246.519 122.282C251.655 125.192 256.771 128.462 261.537 131.95C270.674 138.636 275.889 148.255 279.946 158.713C282.045 164.121 283.567 170.436 284.198 176.2C284.58 179.678 284.582 183.166 284.584 186.652V186.653C284.586 189.596 284.587 192.537 284.817 195.469C284.833 195.671 284.85 195.952 284.871 196.29V196.291C285.006 198.5 285.29 203.149 286.28 203.965C286.885 204.464 289.161 203.992 290.895 203.634C291.645 203.479 292.293 203.345 292.659 203.319C295.407 203.131 298.163 203.054 300.903 202.978H300.903C303.218 202.914 305.521 202.85 307.796 202.719C313.016 202.418 318.301 202.475 323.598 202.532C328.963 202.59 334.341 202.649 339.677 202.335C345.01 202.021 350.174 201.271 355.404 200.194C356.874 199.892 358.453 199.67 360.064 199.444H360.064C363.781 198.922 367.664 198.377 370.757 196.765C379.294 192.317 384.498 181.594 384.872 172.515C385.278 162.673 384.606 151.964 382.539 142.159C382.282 140.936 382.032 139.728 381.784 138.528C380.99 134.681 380.213 130.917 379.241 127.045C377.975 122 376.572 116.976 375.177 111.985L375.165 111.942C374.991 111.32 374.817 110.698 374.645 110.077C373.541 106.123 372.187 102.281 370.834 98.4419V98.4415V98.441H370.833V98.4405V98.44C368.877 92.8895 366.923 87.3462 365.735 81.488C364.629 76.0365 363.061 70.3368 361.425 65.0157C360.822 63.0549 359.633 59.3295 358.23 57.8397C357.114 56.6556 356.134 56.8812 354.772 57.1948C354.334 57.2957 353.857 57.4054 353.323 57.4803C352.401 57.6102 351.278 57.5938 350.113 57.5774C346.634 57.5281 342.781 57.4735 342.783 61.2685C342.784 62.8936 343.099 64.5655 343.414 66.2292V66.2297V66.2302V66.2306L343.414 66.2311V66.2316V66.2326V66.2331V66.2335C343.638 67.4132 343.86 68.589 343.968 69.7421C344.098 71.1275 344.136 72.5169 344.173 73.9057V73.9062V73.9067V73.9072V73.9076V73.9081V73.9086V73.9091V73.9096C344.224 75.808 344.274 77.7065 344.563 79.5934C344.733 80.7045 344.919 81.7977 345.105 82.8822L345.105 82.886C345.801 86.9632 346.476 90.9128 346.162 95.2054C346 97.414 345.726 99.5897 345.453 101.762C344.996 105.402 344.54 109.031 344.612 112.785C344.625 113.472 344.632 114.156 344.639 114.836C344.69 119.809 344.74 124.618 347.123 129.221C347.589 130.12 348.018 131.083 348.448 132.047V132.048C349.076 133.456 349.706 134.868 350.453 136.095C351.928 138.518 353.205 139.228 355.84 140.204C356.225 140.346 356.742 140.499 357.322 140.67C359.225 141.233 361.804 141.995 362.624 143.258C364.168 145.635 362.106 146.597 360.076 146.515C354.942 146.312 349.695 144.399 344.735 142.59L344.733 142.589L344.732 142.589L344.731 142.589L344.728 142.588L344.718 142.584C343.626 142.186 342.549 141.793 341.489 141.425C339.794 140.835 338.139 140.152 336.485 139.47L336.485 139.47C335.439 139.038 334.395 138.608 333.342 138.201C332.736 137.967 332.161 137.775 331.604 137.59C330.165 137.111 328.847 136.673 327.424 135.641C324.936 133.839 322.742 131.681 320.548 129.523C318.495 127.504 316.441 125.483 314.146 123.754C305.165 116.986 294.397 112.945 283.116 111.746C280.213 111.437 277.967 111.576 275.06 111.822C274.631 111.858 274.202 111.888 273.775 111.918C272.601 112 271.434 112.081 270.266 112.297C269.945 112.357 269.312 112.597 268.595 112.87C267.262 113.376 265.637 113.993 265.17 113.77C260.503 111.552 273.717 104.799 275.203 104.429ZM85.008 151.272C85.0095 151.25 85.0109 151.227 85.0129 151.205C85.0216 151.236 85.0303 151.266 85.0385 151.296L85.008 151.272ZM85.196 151.824C85.1423 151.654 85.0902 151.478 85.0385 151.296C85.9901 152.052 86.8519 152.879 87.7103 153.703H87.7108L87.7113 153.704C88.861 154.807 90.005 155.905 91.3518 156.82C94.1531 158.723 97.4844 159.729 100.804 160.441C106.91 161.752 115.256 161.424 121.078 158.849C126.46 156.469 129.862 152.174 132.856 147.187C133.303 146.442 133.566 145.632 133.819 144.85C134.364 143.167 134.866 141.618 137.07 141.15C138.571 140.831 140.365 141.423 142.186 142.024C143.664 142.512 145.159 143.005 146.528 143.021C149.491 143.055 153.333 141.704 155.753 139.88C156.569 139.265 157.148 138.061 157.7 136.914V136.914C158.268 135.734 158.806 134.615 159.541 134.265C160.12 133.989 161.071 134.397 161.894 134.75C162.282 134.916 162.642 135.071 162.921 135.135C164.446 135.489 165.963 135.599 167.493 135.198C169.474 134.678 172.694 133.248 174.239 131.895C175.068 131.169 175.556 129.71 176.026 128.305C176.507 126.866 176.969 125.485 177.759 125.01C178.419 124.614 179.557 124.918 180.715 125.227C181.6 125.464 182.496 125.703 183.2 125.636C188.436 125.136 192.006 122.138 194.019 117.334C194.169 116.974 194.33 116.194 194.514 115.298V115.297C194.88 113.515 195.34 111.274 196.009 110.973C196.404 110.796 198.496 111.557 200.014 112.109C200.688 112.354 201.248 112.558 201.496 112.62C206.592 113.898 212.98 116.619 217.397 119.378C220.782 121.494 224.654 122.892 228.5 124.281L228.501 124.281H228.501L228.501 124.282C230.685 125.069 232.86 125.855 234.934 126.767C239.705 128.865 244.359 131.385 248.763 134.067C253.945 137.224 258.643 140.42 262.867 144.821L263.044 145.005L263.276 145.247C267.296 149.431 271.986 154.314 273.729 159.911C274.382 162.007 274.604 164.26 274.823 166.497V166.497V166.498V166.498C274.946 167.741 275.068 168.979 275.263 170.182C275.613 172.343 276.16 174.438 276.708 176.537C277.015 177.709 277.321 178.882 277.594 180.069C279.037 186.352 279.612 193.788 279.569 200.25C279.566 200.791 279.594 201.294 279.621 201.759C279.726 203.588 279.795 204.803 277.7 205.279C276.01 205.663 273.702 205.186 271.563 204.743C270.454 204.513 269.391 204.293 268.483 204.207C266.192 203.99 263.96 204.052 261.717 204.115H261.716H261.715H261.714H261.713H261.712C260.528 204.148 259.34 204.182 258.139 204.174C257.137 204.167 256.115 204.107 255.086 204.046C252.875 203.915 250.63 203.782 248.475 204.179C244.632 204.887 240.644 205.045 236.631 205.205C235.114 205.265 233.594 205.325 232.077 205.416C230.392 205.516 228.705 205.526 227.018 205.535C224.962 205.547 222.905 205.559 220.851 205.735C220.596 205.757 219.998 205.865 219.234 206.003C216.857 206.432 212.864 207.153 212.525 206.482C212.139 205.718 213.935 202.487 215.309 200.013C215.926 198.904 216.457 197.947 216.67 197.433C217.97 194.286 219.129 191.062 219.761 187.706C220.83 182.024 221.209 176.53 221.256 170.815C221.309 164.206 220.162 157.979 218.379 151.658C218.335 151.504 218.28 151.263 218.21 150.962C217.721 148.845 216.547 143.759 214.153 145.295C212.709 146.222 213.538 150.264 214.003 152.529C214.113 153.067 214.203 153.505 214.237 153.776C214.4 155.077 214.622 156.368 214.844 157.657C215.186 159.646 215.528 161.633 215.651 163.652C215.674 164.028 215.723 164.473 215.775 164.95C215.926 166.34 216.108 168.004 215.774 169.048C215.658 169.413 215.606 169.675 215.569 169.863C215.528 170.07 215.505 170.184 215.435 170.241C215.348 170.313 215.188 170.294 214.826 170.253C214.65 170.233 214.426 170.207 214.139 170.184C212.662 170.065 210.965 169.071 209.346 168.124C208.286 167.503 207.261 166.903 206.353 166.581C203.434 165.545 200.552 164.924 197.524 164.375C190.988 163.19 184.437 162.756 177.788 162.777C176.186 162.782 174.509 163.065 172.836 163.349H172.835C170.884 163.678 168.939 164.007 167.128 163.893C166.996 163.884 166.866 163.876 166.738 163.867C164.475 163.722 162.796 163.615 160.203 164.098C160.619 161.823 161.632 159.652 162.645 157.479C163.797 155.009 164.951 152.536 165.231 149.904C165.943 143.203 160.368 147.736 158.506 150.398C155.822 154.234 153.681 158.279 153.002 163.022C152.874 163.918 152.988 164.821 153.099 165.711C153.221 166.685 153.341 167.642 153.14 168.556C152.891 169.685 152.077 170.93 151.299 172.122C150.82 172.855 150.354 173.568 150.041 174.222C148.118 178.226 146.78 182.423 145.518 186.671C145.419 187.005 145.34 187.317 145.269 187.601V187.601C144.898 189.081 144.716 189.808 142.765 188.92C141.862 188.508 141.154 187.709 140.457 186.922C140.053 186.467 139.654 186.015 139.222 185.645C133.491 180.736 127.445 176.18 120.825 172.415C113.908 168.482 107.166 166.647 99.3263 165.82C98.8911 165.775 98.3863 165.733 97.836 165.687H97.8351H97.8346C94.6869 165.426 90.0629 165.043 88.5736 163.093C87.2601 161.374 86.6317 158.299 86.0626 155.513C85.7839 154.149 85.5196 152.856 85.196 151.824ZM89.6542 149.928C87.6012 148.939 85.2655 147.814 85.0129 151.205C84.7395 150.23 84.4912 149.121 84.2313 147.963C83.5129 144.757 82.7115 141.181 81.0768 139.07C80.6188 138.48 80.057 138.299 79.5377 138.132C79.129 138 78.7465 137.877 78.4614 137.569C77.7856 136.837 77.7001 135.276 77.632 134.039V134.038V134.038C77.6079 133.593 77.5856 133.191 77.5393 132.883C77.4291 132.149 77.3137 131.427 77.1992 130.713L77.1987 130.71V130.71V130.709C76.6306 127.161 76.0915 123.798 76.4031 120.075C76.4127 119.959 76.42 119.759 76.4296 119.505C76.475 118.315 76.5649 115.95 77.118 115.617C77.6547 115.294 79.1735 115.723 80.4285 116.077V116.077C81.0715 116.259 81.6454 116.421 81.9826 116.452C83.9902 116.639 86.0119 116.898 88.0379 117.156H88.0384C93.7787 117.889 99.5553 118.627 105.153 117.767C111.951 116.723 118.471 114.517 124.739 111.694C124.874 112.439 125.224 113.037 125.79 113.488C125.988 113.197 126.161 112.923 126.324 112.666C127.185 111.308 127.751 110.413 129.979 110.064C131.67 109.798 134.01 110.324 135.412 111.38C140.84 115.463 134.652 119.489 131.083 121.321C135.494 126.173 136.883 136.444 131.806 141.401C131.082 142.108 130.356 142.756 129.636 143.399L129.635 143.399C128.351 144.544 127.087 145.672 125.891 147.084C123.936 149.393 122.373 151.186 119.541 152.015C119.205 152.113 118.859 152.216 118.505 152.321C115.711 153.149 112.429 154.123 109.703 154.265C107.699 154.37 105.55 153.954 103.479 153.554H103.478C102.527 153.37 101.592 153.189 100.695 153.063C97.151 152.566 93.7174 151.777 90.4412 150.299C90.1871 150.185 89.9233 150.058 89.6542 149.928ZM81.1662 191.714C81.372 191.966 81.7603 192.393 82.2603 192.945C85.253 196.242 92.2648 203.967 88.4321 205.09C86.7911 205.572 84.1902 202.878 82.354 200.976C81.7734 200.374 81.2691 199.852 80.8952 199.534C78.4856 197.484 75.9615 196.138 73.023 195.007C65.8513 192.247 59.3627 189.767 51.5528 190.913C50.4336 191.077 49.2336 191.352 48.0071 191.633C45.5637 192.193 43.0126 192.778 40.7735 192.56C37.3887 192.232 38.2654 189.213 40.3823 187.527C41.0996 186.956 41.9242 186.663 42.7165 186.381C44.0135 185.918 45.2241 185.487 45.74 183.919C46.1062 182.804 46.1405 181.56 46.1753 180.3C46.2202 178.676 46.2661 177.025 47.0231 175.585C48.1718 173.401 50.8794 171.135 52.9697 169.87C53.2731 169.686 53.6489 169.521 54.0329 169.352C54.8015 169.015 55.6019 168.663 55.9193 168.121C56.2135 167.619 55.3725 165.325 54.8445 163.885V163.885C54.6716 163.414 54.5324 163.035 54.4774 162.839C54.1933 161.826 53.902 160.813 53.6112 159.799C52.7832 156.917 51.9538 154.028 51.2693 151.118C50.4113 147.472 50.1881 145.583 54.0286 144.259C57.1845 143.172 60.423 142.395 63.6553 141.621C66.4257 140.957 69.1918 140.294 71.8979 139.437C71.1975 137.612 69.4932 138.052 67.7425 138.504C66.8952 138.723 66.0373 138.945 65.2765 138.914C62.4181 138.799 59.1105 137.858 56.3884 136.98C50.2089 134.985 46.0043 130.013 45.0492 123.601C44.9608 123.011 45.0265 122.17 45.0946 121.301C45.1879 120.103 45.2854 118.852 44.9888 118.131C44.6507 117.308 43.8797 116.781 43.1049 116.252C42.773 116.025 42.4406 115.798 42.1411 115.547C39.5678 113.39 37.2887 110.429 35.9003 107.365C34.5091 104.293 34.412 100.843 35.2206 97.6019C35.2858 97.3396 35.3472 97.1106 35.4018 96.9053C35.7206 95.7126 35.8249 95.3223 35.2878 93.8817C34.9487 92.9726 34.5095 92.1098 34.0695 91.2446C33.5642 90.251 33.0569 89.2544 32.6975 88.1815C31.5966 84.8932 30.9961 81.3484 31.056 77.8761C31.101 75.3081 31.7952 73.6738 32.5599 71.8739C32.955 70.9435 33.3685 69.9691 33.7212 68.7987C34.21 67.177 34.0071 65.1843 33.8057 63.2008C33.6704 61.869 33.5352 60.541 33.6105 59.3328C33.8492 55.4837 34.8346 52.3911 36.5355 48.9651C39.149 43.7011 43.2875 38.0583 48.6747 35.298C49.165 35.0463 49.8017 34.9038 50.4384 34.7613C51.1833 34.5942 51.9291 34.4275 52.4422 34.085C53.3837 33.4575 53.6344 32.5928 53.931 31.5692C54.0073 31.3069 54.0861 31.0344 54.1803 30.7528C55.2846 27.4587 56.6633 24.7902 59.0511 22.2715C66.7957 14.1042 80.3662 11.2115 91.2493 11.9009C91.9508 11.9453 92.6401 12.0931 93.3212 12.239C94.5391 12.4999 95.7313 12.755 96.9197 12.4067C97.6187 12.2014 98.3409 11.7105 99.0674 11.2173C99.6741 10.8048 100.284 10.3908 100.886 10.1386C102.56 9.43817 104.238 9.02804 106.04 8.84882C109.598 8.49425 112.492 8.86912 115.772 10.0705C116.744 10.427 117.683 10.8087 118.632 11.1946L118.633 11.1951C118.893 11.3009 119.154 11.4067 119.416 11.5125C120.888 12.1072 121.171 12.0313 122.031 11.8014C122.297 11.7304 122.618 11.6444 123.045 11.5593C126.657 10.8401 128.731 11.3724 131.931 12.9134C132.243 13.0636 132.622 13.1999 133.012 13.34H133.012C133.689 13.5834 134.401 13.8395 134.866 14.2037C135.337 14.5737 135.681 15.2863 136.025 15.9973C136.439 16.8524 136.851 17.7055 137.482 17.9576C137.894 18.1229 138.857 17.7924 139.713 17.4992C140.19 17.3354 140.635 17.1833 140.931 17.135C141.901 16.977 142.857 17.0166 143.815 17.0562C144.298 17.076 144.782 17.0963 145.268 17.091C147.837 17.063 150.552 17.1586 152.897 18.3731C154.368 19.1344 156.087 20.4841 157.5 21.5928C157.784 21.8159 158.056 22.0295 158.311 22.2261C159.125 22.8546 159.821 23.6995 160.52 24.5487C161.629 25.8955 162.747 27.2529 164.359 27.7751C164.893 27.9481 165.45 27.9403 166.009 27.9326C166.527 27.9259 167.047 27.9186 167.553 28.0553C168.923 28.4254 170.238 29.4176 171.348 30.2939C172.144 30.9233 172.89 31.9001 173.629 32.8696C174.662 34.2222 175.682 35.5599 176.815 35.9168C177.458 36.1193 178.277 36.1168 179.121 36.1144C179.98 36.1115 180.865 36.1091 181.613 36.3226C183.477 36.854 185.021 37.6245 186.402 39.0341C189.037 41.7234 189.781 45.6991 189.894 49.3458C189.903 49.6496 189.852 50.124 189.794 50.6607C189.664 51.8607 189.5 53.3698 189.907 53.9727C190.184 54.3823 190.865 54.7002 191.565 55.0262C192.188 55.3166 192.825 55.6132 193.202 55.9871C195.71 58.4701 196.843 62.6081 197.096 66.0099C197.312 68.9011 196.811 71.1565 196.256 73.6545C196.067 74.51 195.87 75.3936 195.695 76.3409C195.557 77.0795 195.408 77.4312 195.33 77.6123C195.288 77.7109 195.268 77.7587 195.282 77.7911C195.296 77.822 195.342 77.8384 195.433 77.8703C195.619 77.9365 195.994 78.0693 196.663 78.5364C198.004 79.4726 198.931 80.1277 199.8 81.5972C201.619 84.67 202.076 88.2926 201.776 91.7944C201.554 94.3851 200.684 96.584 199.806 98.8071C199.202 100.334 198.594 101.871 198.189 103.554C201.891 103.554 205.823 104.343 209.559 105.092C210.457 105.273 211.343 105.45 212.212 105.614C213.435 105.846 214.456 106.403 215.498 106.973H215.499H215.499C215.866 107.174 216.235 107.376 216.617 107.566C217.415 107.962 218.085 108.138 218.77 108.318C219.174 108.424 219.583 108.531 220.027 108.686L220.109 108.715C221.466 109.188 222.042 109.389 222.501 109.238C222.839 109.126 223.115 108.824 223.592 108.299C223.806 108.065 224.059 107.787 224.376 107.461C232.397 99.2327 243.816 94.2648 255.33 94.4266C261.753 94.516 267.966 95.3638 273.97 97.6758L274.3 97.8028C276.701 98.7255 279.322 99.7327 281.433 101.169C283.949 102.882 284.358 102.89 287.588 102.957L287.752 102.961C299.995 103.215 311.876 109.791 320.786 117.761C321.451 113.293 327.627 110.319 332.092 108.17C332.968 107.747 333.779 107.357 334.47 106.993C334.739 106.851 335.005 106.722 335.263 106.596C336.38 106.052 337.359 105.575 337.933 104.423C338.319 103.648 338.467 102.397 338.611 101.178V101.177C338.713 100.306 338.814 99.4521 338.998 98.8004C339.81 95.9285 340.748 92.4146 340.674 89.3858C340.568 84.9401 339.994 80.505 339.42 76.067C338.861 71.7517 338.302 67.4335 338.173 63.1003C338.157 62.5617 338.13 62.0071 338.102 61.4444C338.017 59.7014 337.928 57.8827 338.149 56.2305C338.21 55.7755 338.309 55.3649 338.402 54.9784C338.67 53.8669 338.891 52.9505 338.034 51.7413C337.132 50.4694 335.917 49.5897 334.705 48.7115C332.968 47.4541 331.237 46.2 330.436 43.8016C328.244 37.2376 332.009 30.5253 337.149 26.6211C338.243 25.7902 339.329 25.2013 340.381 24.6298C342.176 23.656 343.878 22.7323 345.373 20.7464C346.165 19.6938 346.911 18.5697 347.661 17.4408C348.934 15.5244 350.217 13.5931 351.75 11.969C352.489 11.1854 353.205 10.3053 353.928 9.41595H353.928V9.41547C355.202 7.84935 356.499 6.25424 357.992 5.10597C360.391 3.25967 363.915 2.01189 366.78 1.13463C373.658 -0.971564 382.104 -0.468684 386.944 5.41369C391.878 11.411 384.609 19.8914 380.488 24.0762C379.411 25.1704 378.432 26.3564 377.454 27.5433C376.615 28.5596 375.776 29.577 374.874 30.5378C373.96 31.5117 372.935 32.3875 371.926 33.2503H371.925C370.802 34.2106 369.697 35.1546 368.783 36.2009C368.52 36.5018 368.252 36.8072 367.98 37.1163H367.979C366.367 38.9472 364.64 40.9084 363.337 42.9161C363.09 43.2972 362.813 43.689 362.528 44.0909C361.703 45.2575 360.82 46.5053 360.464 47.7888C360.036 49.3347 360.097 49.3612 360.425 49.5009C360.623 49.5849 360.918 49.711 361.261 50.2395C361.441 50.5168 361.598 50.7438 361.736 50.9433C362.311 51.7757 362.564 52.1413 362.818 53.7519C363.124 55.6929 363.559 57.1136 364.608 58.772C364.962 59.3324 365.323 59.886 365.682 60.4381L365.683 60.4386L365.684 60.4405L365.685 60.4434L365.687 60.4468C367.078 62.5825 368.453 64.695 369.42 67.0924C370.705 70.2807 371.692 73.5081 372.69 76.7703L372.691 76.7708V76.7713V76.7718L372.691 76.7723V76.7727C372.95 77.62 373.21 78.4693 373.476 79.3205C373.619 79.7799 373.749 80.2581 373.88 80.7417L373.881 80.7431L373.881 80.7451L373.882 80.747C374.211 81.9585 374.549 83.2029 375.129 84.2633C376.262 86.3366 376.439 86.2014 378.074 84.9463L378.16 84.8802C379.45 83.8918 380.742 82.8894 382.04 81.8832L382.044 81.8807C385.904 78.8886 389.81 75.8597 393.806 73.0598C396.865 70.916 400.043 68.8165 403.271 66.9383C403.625 66.7326 404.043 66.5016 404.501 66.2485C406.914 64.9148 410.426 62.9733 411.359 60.9623C411.96 59.6642 411.932 58.4102 411.905 57.1812C411.867 55.4055 411.829 53.6823 413.691 51.9558C415.743 50.053 419.088 48.998 421.762 48.5357C424.552 48.0536 427.558 48.4362 430.46 48.8048C431.488 48.9357 432.503 49.0646 433.49 49.153C437.306 49.4941 441.038 49.1226 444.781 48.342C446.093 48.0681 447.683 47.5101 449.398 46.9077H449.398C455.17 44.8807 462.367 42.3538 465.228 48.4782C466.498 51.1897 466.107 54.1297 465.73 56.9827C465.624 57.7875 465.518 58.5855 465.45 59.3696C465.184 62.4748 464.271 65.7717 462.339 68.3262C460.497 70.7565 457.958 71.2691 455.226 71.8203H455.225C454.677 71.9309 454.121 72.043 453.561 72.1729C451.546 72.6391 449.503 72.954 447.461 73.2695C445.496 73.5729 443.532 73.8758 441.591 74.3134C439.641 74.753 437.717 74.967 435.715 75.0593C434.892 75.0974 433.902 74.9641 432.92 74.8318C431.775 74.6777 430.641 74.525 429.799 74.6477C428.937 74.7733 428.747 75.1428 428.535 75.5573C428.382 75.8559 428.217 76.1771 427.782 76.4486C427.56 76.5868 427.217 76.6008 426.903 76.6128C426.62 76.6244 426.36 76.6346 426.234 76.7355C425.575 77.2655 425.343 77.7336 424.907 78.6099L424.901 78.6229L424.897 78.6311L424.89 78.6442L424.823 78.7789L424.773 78.8785C423.442 81.5373 421.569 84.142 419.775 86.6381C419.309 87.2868 418.848 87.9279 418.403 88.5607C418.267 88.7554 418.128 88.9534 417.988 89.1544L417.871 89.3215C417.762 89.479 417.651 89.6379 417.539 89.7983C415.935 92.1055 414.153 94.6677 412.347 96.6164C409.436 99.7598 406.58 103.108 403.723 106.457L403.721 106.459C402.134 108.319 400.546 110.18 398.95 112.005C396.676 114.605 393.948 117.371 391.305 119.606C391.025 119.844 390.645 120.073 390.25 120.311V120.312C389.5 120.765 388.698 121.249 388.424 121.883C387.994 122.88 388.724 124.745 389.303 126.223C389.523 126.786 389.721 127.292 389.825 127.674C390.257 129.256 390.509 130.864 390.76 132.467C391.032 134.197 391.302 135.921 391.797 137.603C392.708 140.702 393.039 144.082 393.241 147.312C393.383 149.589 393.579 151.829 393.773 154.055V154.058V154.058C394.201 158.972 394.623 163.819 394.462 168.846C394.26 175.147 394.029 181.189 391.841 187.376C389.849 193.007 383.883 199.137 378.334 201.212C375.031 202.447 371.963 203.57 368.639 204.239L368.021 204.364C364.924 204.987 361.693 205.637 358.638 206.51C352.591 208.237 346.217 209.443 339.937 210.035C331.898 210.792 323.513 210.865 315.495 210.586C311.839 210.459 308.081 210.452 304.473 210.463C301.973 210.47 299.57 210.802 297.135 211.139C295.928 211.305 294.712 211.473 293.474 211.603C286.839 212.298 280.014 212.363 273.191 212.427C266.451 212.491 259.712 212.555 253.161 213.227C250.974 213.451 248.789 213.746 246.599 214.04H246.598H246.597C242.263 214.624 237.915 215.209 233.511 215.26C230.187 215.298 226.836 215.192 223.512 215.087C220.902 215.005 218.308 214.922 215.756 214.911C215.356 214.909 214.968 214.915 214.587 214.92C213.208 214.94 211.912 214.958 210.472 214.627C210.192 214.563 209.879 214.445 209.553 214.322L209.552 214.321C208.747 214.018 207.856 213.681 207.159 214.037C206.572 214.336 206.084 215.297 205.664 216.124C205.472 216.502 205.295 216.851 205.128 217.097C203.97 218.811 202.558 220.187 201.067 221.609C195.148 227.249 189.283 229.149 181.516 231.216C177.95 232.166 176.19 232.662 173.195 234.834C170.757 236.603 168.289 237.874 165.482 238.917C159.976 240.962 153.483 239.38 148.308 237.605C147.524 237.336 146.729 237.076 145.927 236.813C144.163 236.234 142.369 235.646 140.609 234.944C138.823 234.233 137.198 233.281 135.575 232.331C134.028 231.425 132.484 230.521 130.807 229.829C131.056 232.142 129.565 233.486 128.127 234.782C127.286 235.54 126.463 236.281 126.018 237.191C125.633 237.977 125.553 238.983 125.471 240.018C125.387 241.08 125.301 242.172 124.879 243.083C124.108 244.753 122.917 246.331 121.058 246.768C118.525 247.363 113.997 244.545 112.218 242.901C111.825 242.538 111.449 241.934 111.062 241.313C110.477 240.374 109.867 239.396 109.139 239.153C108.071 238.795 106.402 239.748 104.972 240.565C104.288 240.956 103.659 241.315 103.177 241.485C96.0322 244.007 88.7915 245.197 81.1198 244.192C74.0674 243.268 67.5483 240.91 60.9563 238.526H60.9558C60.282 238.283 59.6076 238.039 58.9313 237.796C44.655 232.67 32.2285 224.232 21.0494 214.071C20.853 213.892 20.6287 213.72 20.4001 213.544C19.9047 213.164 19.3896 212.767 19.0962 212.261C18.891 211.906 18.808 211.287 18.7347 210.741C18.6742 210.29 18.6203 209.888 18.5096 209.725C17.9129 208.844 17.073 208.812 16.0379 208.773H16.0374C15.8089 208.764 15.571 208.755 15.324 208.737C11.1033 208.418 7.75058 207.399 4.47916 204.57C-0.669813 200.118 -2.57452 189.738 5.31865 186.981C7.33625 186.276 9.55689 186.136 11.6426 186.57C11.9901 186.643 12.7195 187.003 13.5193 187.397H13.5194C14.6996 187.979 16.0332 188.636 16.5204 188.559C17.4032 188.419 17.5349 187.569 17.6566 186.783C17.7058 186.466 17.7533 186.16 17.848 185.914C18.6831 183.755 19.858 181.853 21.2746 180.02C23.6289 176.974 26.498 173.911 29.4421 171.432C32.312 169.014 35.4428 167.803 38.807 166.501C39.1915 166.352 39.5789 166.203 39.9697 166.049C42.5348 165.045 47.5419 163.319 50.2587 164.218C53.7972 165.389 52.0649 169.256 49.8355 170.609C48.2472 171.572 46.4999 172.253 44.7473 172.935C42.9865 173.621 41.2199 174.308 39.6031 175.288C36.9631 176.888 34.4931 178.926 32.0637 180.93C31.2164 181.629 30.374 182.324 29.531 182.995C28.3127 183.964 27.1703 185.039 26.0289 186.113C24.713 187.351 23.3987 188.587 21.9721 189.659C21.2658 190.189 20.1122 191.117 19.8927 191.41C19.8686 191.442 19.8615 191.547 19.852 191.686C19.8315 191.988 19.7999 192.453 19.561 192.704C19.5105 192.757 19.462 192.808 19.4154 192.857L19.2947 192.985C18.7356 193.576 18.4637 193.864 18.1375 193.954C17.8285 194.038 17.4709 193.945 16.7747 193.763C16.5637 193.708 16.3216 193.645 16.0404 193.576C13.2893 192.903 6.72193 191.381 4.86707 194.792C3.23259 197.797 9.74794 200.511 12.127 201.503L12.2739 201.564C15.0133 202.706 16.0065 203.854 17.6172 205.714C17.943 206.09 18.2941 206.495 18.69 206.936C20.3869 208.825 22.8735 210.288 25.2505 211.687C26.2502 212.275 27.2305 212.852 28.1248 213.444C33.0531 216.709 38.4432 219.258 43.7976 221.789L43.799 221.79L43.8014 221.791C45.5366 222.611 47.268 223.43 48.9785 224.27C55.7406 227.593 63.0065 229.99 70.0555 232.316L70.1806 232.357C74.4597 233.769 79.588 235.283 84.0791 235.718C88.6045 236.157 92.8483 235.419 97.2882 234.555C99.0635 234.21 100.404 233.945 102.261 233.291C102.565 233.184 102.94 233.11 103.325 233.034C103.987 232.904 104.678 232.769 105.093 232.446C105.811 231.888 105.812 231.409 105.814 230.701C105.814 230.406 105.815 230.07 105.868 229.672C106.519 224.781 109.434 228.435 111.454 230.969C111.881 231.504 112.268 231.99 112.585 232.334C112.875 232.647 113.162 232.976 113.454 233.308L113.455 233.31C114.578 234.589 115.751 235.926 117.218 236.692C119.533 237.899 119.935 237.33 120.694 235.338C120.894 234.813 121.076 234.277 121.257 233.746C122.36 230.508 123.404 227.445 128.015 227.916C127.214 227.23 126.419 226.563 125.633 225.904C122.265 223.079 119.053 220.385 116.112 216.853C113.728 213.99 111.448 210.984 109.176 207.991L109.176 207.99L109.173 207.987C108.036 206.488 106.901 204.992 105.756 203.518C104.835 202.334 103.954 201.001 103.056 199.645C101.211 196.856 99.2988 193.967 96.8424 192.046C95.6883 191.143 92.1797 189.062 90.844 189.106C89.8344 189.139 88.8818 189.988 87.9089 190.856C86.9558 191.706 85.9829 192.574 84.9172 192.708C82.5391 193.009 81.4439 192.178 80.7647 190.248C80.3899 189.181 80.6913 188.03 80.9696 186.966C81.2145 186.031 81.4415 185.164 81.1753 184.482C81.1 184.289 80.8319 184.079 80.5377 183.847C80.2131 183.592 79.8561 183.312 79.6918 183.003C79.2213 182.119 79.1875 180.956 79.3281 179.977C79.4097 179.411 79.5372 178.974 79.6566 178.566V178.566C79.8445 177.922 80.0116 177.35 79.9445 176.451C79.902 175.886 79.7913 175.371 79.6841 174.87C79.4672 173.858 79.2629 172.903 79.6575 171.708C80.0701 170.457 81.0546 169.583 82.0169 168.729C82.4975 168.302 82.9724 167.88 83.3685 167.418C84.8868 165.648 84.4685 164.245 83.867 162.229V162.228C83.7559 161.857 83.639 161.465 83.5265 161.045C82.7192 158.033 81.8425 155.04 80.9647 152.046C80.1628 149.308 79.3604 146.57 78.6117 143.818C77.1509 144.28 75.7031 144.768 74.2568 145.254L74.2553 145.255L74.2544 145.255H74.2539L74.2505 145.257C72.1288 145.971 70.0096 146.684 67.8556 147.315C66.9841 147.571 66.061 147.821 65.1161 148.076C62.2799 148.841 59.2462 149.66 56.8198 150.871C56.3628 151.099 56.043 151.224 55.8232 151.31C55.5773 151.406 55.4565 151.453 55.4082 151.541C55.3609 151.625 55.3822 151.748 55.4242 151.99C55.4643 152.224 55.5242 152.57 55.5599 153.103C55.6179 153.981 55.873 154.925 56.1227 155.846C56.2691 156.387 56.4135 156.921 56.5145 157.429C56.6377 158.048 56.7439 158.904 56.8628 159.863V159.864C57.2318 162.843 57.7241 166.816 59.2284 167.733C59.7264 168.037 60.3501 168.033 61.0042 168.028C61.9307 168.022 62.9176 168.015 63.6939 168.884C64.3509 169.619 64.5045 170.551 64.6576 171.477C64.7639 172.122 64.8702 172.764 65.1455 173.334C65.3731 173.804 65.716 174.116 66.0629 174.43C66.3518 174.692 66.6431 174.957 66.8711 175.317C67.7232 176.664 67.8092 177.836 67.9106 179.225C67.9338 179.545 67.958 179.875 67.9928 180.223C68.0266 180.566 68.0353 181.109 68.0449 181.728C68.0686 183.222 68.0995 185.159 68.5106 185.801C69.0623 186.663 69.999 186.806 70.9603 186.952C71.3506 187.011 71.7448 187.071 72.1192 187.18C75.3847 188.131 78.3928 189.785 81.1662 191.714ZM94.2768 139.238C93.672 141.131 90.8962 143.272 88.6692 142.133C85.8998 140.718 85.6418 135.135 86.4012 132.753C87.6876 128.715 88.7692 134.011 88.9963 135.606C89.0258 135.812 89.0436 136.004 89.0605 136.181C89.1301 136.921 89.1765 137.409 89.9248 137.69C90.2523 137.812 90.7151 137.762 91.2035 137.708C91.772 137.646 92.3764 137.58 92.8449 137.778C93.5932 138.096 93.7183 138.306 94.0787 138.91C94.1372 139.008 94.2019 139.117 94.2768 139.238ZM78.2948 127.223C78.1687 129.88 82.3159 138.067 83.555 132.134C83.455 130.363 82.5526 127.239 81.3782 125.852C79.6986 123.871 78.4122 124.772 78.2948 127.223ZM89.1011 124.02C89.1011 121.45 90.6643 120.942 92.6145 122.606C94.627 124.322 95.2845 127.189 95.4931 129.558C95.7202 132.126 95.1337 133.217 92.5763 131.567C90.3373 130.122 89.2171 126.274 89.1011 124.02ZM102.399 142.695C98.9452 142.434 94.9308 148.924 99.1751 148.416C100.776 148.314 103.979 147.16 104.447 145.318C104.817 143.859 103.806 142.802 102.399 142.695ZM128.64 116.494C128.446 113.816 132.569 112.418 133.102 115.256C133.605 117.936 127.672 120.69 128.64 116.494ZM63.4103 157.195C63.435 153.831 59.3255 148.407 57.8569 153.891C58.0666 155.557 58.7612 159.958 61.0539 160.334C62.8901 160.636 63.3987 158.671 63.4103 157.195Z" fill="black"/>
</svg>
