<svg width="114" height="88" viewBox="0 0 114 88" fill="none" xmlns="http://www.w3.org/2000/svg">
<path d="M22.0981 4.76625C21.6903 5.4478 20.8369 5.73615 20.1029 5.88324C19.1651 6.07547 18.1952 6.12644 17.2457 6.21091L16.6937 6.34634C16.5893 6.37853 16.4922 6.4311 16.4081 6.50086C16.324 6.57076 16.2545 6.65654 16.2037 6.75323C16.1527 6.84993 16.1215 6.95581 16.1116 7.06474C16.1017 7.17353 16.1135 7.28333 16.1461 7.3876C16.4876 8.56284 16.9574 9.69672 17.5471 10.7691L16.6733 11.6429C16.4258 11.308 16.4141 10.7211 16.0821 10.7779C15.7631 10.459 15.3845 10.3031 14.9927 10.7298C14.2267 11.5672 14.3505 13.3075 15.4762 13.7881L15.2243 15.042C15.1374 15.4803 14.9013 15.8751 14.5561 16.1589C14.2109 16.4428 13.778 16.5982 13.3311 16.5987L13.5248 15.1148C12.2141 15.7774 10.7272 14.3444 10.8306 13.1633C10.8976 12.3536 10.7141 11.7944 10.1156 11.2075C10.0762 11.1682 10.3165 11.0225 10.2801 10.9832C10.1112 10.4721 10.0879 9.87497 10.2554 9.53711C10.5466 8.9342 11.4044 8.58177 11.0097 7.92352C10.8366 7.63663 10.7102 7.32396 10.6355 6.99731C10.5562 6.5642 10.5707 6.11916 10.678 5.69202C10.7853 5.26503 10.9828 4.86586 11.2573 4.52159C11.8398 3.82256 12.7864 4.01043 13.5597 3.76285C14.502 3.47159 14.9374 2.46237 15.9233 2.15072C16.4141 1.99489 16.8685 2.06625 17.3592 2.17839C17.7743 2.27451 18.185 2.38227 18.5927 2.51043C19.0005 2.63858 19.3588 2.74489 19.7578 2.62548C20.285 2.47985 20.6913 1.98761 21.2665 1.98325C21.5536 1.97669 21.8345 2.0664 22.0646 2.2381C22.4898 3.00266 22.4927 4.11236 22.0981 4.76625Z" fill="#FF5678"/>
<path d="M70.631 0.00511066V0" stroke="#CCDDE2" stroke-width="0.598542" stroke-miterlimit="10"/>
<path d="M29.0302 31.4919V31.4868" stroke="black" stroke-width="0.598542" stroke-miterlimit="10"/>
<path d="M16.6341 11.5268C16.4788 11.2585 16.2942 11.0083 16.0836 10.7812C15.7647 10.4622 15.386 10.3064 14.9943 10.7331C14.2283 11.5705 14.3521 13.3108 15.4778 13.7913L15.2258 15.0452C15.1389 15.4836 14.9028 15.8782 14.5577 16.1621C14.2124 16.4459 13.7796 16.6014 13.3326 16.602" stroke="black" stroke-width="0.598542" stroke-linecap="round" stroke-linejoin="round"/>
<path d="M12.6277 22.1504C12.6918 21.664 12.8505 20.3868 13.0034 19.1693C13.149 18.0407 13.2787 16.9543 13.3296 16.5961L13.5248 15.115" stroke="black" stroke-width="0.598542" stroke-linecap="round" stroke-linejoin="round"/>
<path d="M21.619 7.55688C21.619 7.55688 19.7593 7.64863 19.3996 9.18795" stroke="black" stroke-width="0.598542" stroke-miterlimit="10"/>
<path d="M22.2948 11.6243C22.8016 11.6112 23.4598 11.5369 23.6986 11.0228L22.4171 9.60876C22.1044 9.2623 21.9195 8.81944 21.8928 8.35342C21.8419 7.57138 21.9336 6.33061 21.1851 5.50488" stroke="black" stroke-width="0.598542" stroke-miterlimit="10"/>
<path d="M21.1989 9.66679C21.4087 9.43465 21.4191 9.10232 21.2222 8.92436C21.0253 8.74626 20.6956 8.79024 20.4859 9.02237C20.276 9.25436 20.2655 9.58684 20.4624 9.7648C20.6593 9.94276 20.989 9.89892 21.1989 9.66679Z" fill="black"/>
<path d="M21.0728 20.9125L20.1073 16.2319" stroke="black" stroke-width="0.598542" stroke-miterlimit="10"/>
<path d="M45.549 41.978L39.3262 47.0663C46.813 58.4838 41.1466 60.5794 41.1466 60.5794C40.0473 60.7898 38.9375 60.9391 37.8218 61.0265C32.4102 61.4168 26.8587 60.0202 22.398 56.892C13.3689 50.5571 5.50486 37.8785 9.69904 26.8397C10.0519 25.906 10.4831 25.0037 10.9879 24.1426C11.4229 23.394 11.9767 22.7212 12.6277 22.1504C13.7671 21.1529 15.1702 20.5056 16.6686 20.2863C18.1669 20.067 19.6967 20.285 21.0743 20.9139C21.6016 21.1547 22.1004 21.4537 22.5612 21.8052C24.9189 23.6096 27.0626 26.1741 28.9107 28.8654C30.5515 31.2992 32.0282 33.8398 33.3305 36.4702C33.6903 37.1882 34.0165 37.8668 34.3048 38.4887C36.9189 37.4314 39.1106 35.6358 41.1495 33.696C38.6839 38.2979 45.549 41.978 45.549 41.978Z" fill="#353642"/>
<path d="M41.1946 45.7002C41.0752 45.7919 40.9514 45.8881 40.8276 45.9798" stroke="black" stroke-width="0.598542" stroke-miterlimit="10"/>
<path d="M22.7971 26.3562C24.4476 29.5164 26.0981 32.6824 27.7486 35.8542C28.9937 38.2484 31.0981 39.7266 34.0617 38.5921C37.2859 37.3572 39.8869 34.9965 42.2927 32.5907C44.6985 30.1848 47.1364 27.8839 50.6097 27.2635C55.0995 26.4611 59.3475 28.9077 62.4058 31.9994C62.6411 32.2352 62.7899 32.5435 62.8282 32.8743C62.8665 33.2052 62.7921 33.5394 62.6169 33.8227C62.5045 34.0039 62.3544 34.1588 62.1768 34.2768C61.9992 34.3947 61.7982 34.4731 61.5876 34.5063C61.3769 34.5396 61.1616 34.5271 60.9563 34.4697C60.751 34.4124 60.5603 34.3114 60.3975 34.1737C58.9485 32.9373 56.5907 31.1489 54.9509 31.1256" stroke="black" stroke-width="0.598542" stroke-miterlimit="10"/>
<path d="M50.4771 35.3677C50.981 35.7041 51.68 36.0769 52.2625 36.0769" stroke="black" stroke-width="0.598542" stroke-miterlimit="10"/>
<path d="M56.9344 31.739C58.0091 32.2706 58.4009 33.8259 57.6421 34.755C56.6801 35.9488 55.4747 36.9238 54.1062 37.6152C52.6091 38.3623 51.648 37.9065 50.1742 36.9948" stroke="black" stroke-width="0.598542" stroke-miterlimit="10"/>
<path d="M54.4471 33.1326C54.4471 33.1326 56.5762 33.6598 56.5194 35.7263C56.5156 35.8144 56.4999 35.9016 56.4728 35.9855" stroke="black" stroke-width="0.598542" stroke-miterlimit="10"/>
<path d="M52.9427 34.4343C52.9427 34.4343 55.7985 36.2795 54.4398 37.4401" stroke="black" stroke-width="0.598542" stroke-miterlimit="10"/>
<path d="M108.109 41.6664C104.745 50.9125 95.3271 51.1731 94.2494 51.1731C94.7009 50.2222 94.8232 48.5518 93.8344 45.6246C94.4969 44.6573 94.8455 43.5096 94.8333 42.3371C94.821 41.1648 94.4485 40.0247 93.7659 39.0712C93.779 39.0596 93.7863 39.0436 93.798 39.0319C94.2689 39.0032 94.7363 38.9326 95.1946 38.8207C96.8198 38.4334 100.024 37.5829 102.566 36.3858C104.291 35.5717 106.302 36.8766 106.155 38.78C106.155 38.8047 106.155 38.828 106.146 38.8557C106.483 38.8556 106.814 38.9365 107.113 39.0921C107.412 39.2476 107.668 39.4729 107.861 39.749C108.054 40.025 108.177 40.3433 108.22 40.6772C108.263 41.011 108.225 41.3505 108.109 41.6664Z" fill="#FF5678"/>
<path d="M64.9398 63.3524C63.8068 65.2966 62.0432 66.9524 60.3393 68.397C54.3408 73.4737 46.5044 76.0514 38.6403 76.1519C30.7501 76.0514 22.8845 73.465 16.8583 68.4334C-2.18289 52.5335 1.25836 33.7602 4.33845 25.0675C4.44693 24.7669 4.59379 24.4816 4.77535 24.2185C5.01618 23.8662 5.32883 23.5688 5.69278 23.346C6.05672 23.1231 6.46366 22.9798 6.88701 22.9253C8.50351 23.1481 9.97147 24.4894 9.71224 26.5661C9.71224 26.6462 9.68021 26.7568 9.67292 26.8369C5.48166 37.8757 13.3486 50.5544 22.3719 56.8893C26.4656 59.7626 31.4782 61.1752 36.4588 61.0835H36.5156C36.9427 61.0747 37.3694 61.0549 37.7957 61.0238C40.5932 60.8199 43.3122 60.15 46.0049 59.3388C49.1651 58.3937 52.2903 57.2475 55.4476 56.4451C56.5573 56.1626 57.6699 55.8903 58.7884 55.6354C59.4338 55.503 60.0939 55.4574 60.7515 55.5C64.6296 55.7621 67.3544 59.2106 64.9398 63.3524Z" fill="#FF5678" fill-opacity="0.5"/>
<path d="M65.898 63.3524C64.765 65.2966 63 66.9524 61.2961 68.397C55.0587 73.6805 46.8291 76.2611 38.6359 76.1519C30.7457 76.0514 22.8801 73.465 16.8539 68.4334C-2.18289 52.5335 1.25837 33.7602 4.33846 25.0675C4.44695 24.7669 4.59379 24.4816 4.77535 24.2185C5.01618 23.8662 5.32883 23.5688 5.69278 23.346C6.05672 23.1231 6.46378 22.9798 6.88698 22.9253C8.50348 23.1481 9.97144 24.4894 9.71222 26.5661C9.71222 26.6462 9.68018 26.7568 9.6729 26.8369C5.48166 37.8757 13.3486 50.5544 22.3719 56.8893C26.4656 59.7626 31.4782 61.1752 36.4588 61.0835H36.5156C37.266 61.0951 38.0122 61.0753 38.7539 61.0238C41.5515 60.8199 44.2689 60.15 46.9631 59.3388C50.1233 58.3937 53.2485 57.2475 56.4058 56.4451C57.5141 56.1626 58.6281 55.8903 59.7451 55.6354C60.0772 55.5676 60.4133 55.5223 60.7514 55.5C65.1116 55.2073 68.5077 58.8757 65.898 63.3524Z" fill="#FF5678" fill-opacity="0.5"/>
<path d="M39.9509 76.1252L41.8674 78.8368C41.8674 78.8368 53.464 79.2883 59.8106 84.6155C60.9844 85.6014 60.2824 87.5164 58.7504 87.5164C58.3662 87.5177 57.9941 87.3826 57.7004 87.1349C56.2019 85.8766 50.4771 81.9213 37.5276 81.8019C24.9102 81.6839 20.0709 85.5883 18.7325 87.0111C18.5799 87.1719 18.396 87.2996 18.1921 87.3865C17.9882 87.4733 17.7687 87.5176 17.5471 87.5164H17.2981C15.7252 87.5164 15.0597 85.53 16.3019 84.5659C21.6 80.4461 33.4762 79.1325 33.4762 79.1325L35.5034 76.0742" fill="#353642"/>
<path d="M91.2727 61.0891C91.2727 61.0891 94.8246 64.4634 93.7164 74.924C93.6356 75.671 93.3759 76.3873 92.9591 77.0124L92.5732 77.5949C91.9403 78.5427 90.9859 79.2296 89.8863 79.5289C87.5664 80.1624 83.3577 81.6303 80.7581 84.4119C79.6601 85.59 80.4771 87.5094 82.0878 87.5094C82.388 87.5103 82.684 87.4368 82.949 87.2955C83.2139 87.1542 83.4399 86.9495 83.6067 86.6997C84.6654 85.1065 87.8708 81.7235 95.6023 81.7949C104.323 81.875 107.835 85.3425 108.961 86.8366C109.117 87.045 109.318 87.2142 109.551 87.331C109.783 87.4478 110.039 87.5089 110.299 87.5094C110.625 87.5087 110.944 87.413 111.216 87.2339C111.488 87.0549 111.703 86.8002 111.832 86.5012C111.962 86.2023 112.002 85.8718 111.946 85.5507C111.891 85.2294 111.743 84.9313 111.521 84.6929C108.121 80.9983 103.961 79.6206 101.666 79.1095C100.513 78.8609 99.4946 78.1904 98.8105 77.2294C98.2869 76.4881 97.9889 75.611 97.9528 74.7041C97.8246 71.4609 97.7576 63.5881 99.9552 61.092" fill="#353642"/>
<path d="M46.0339 59.343C52.28 56.311 59.0591 54.3217 65.7247 52.4489C72.4324 50.5644 79.2057 48.9202 85.9994 47.3751C88.7139 46.7591 91.4532 46.21 94.1547 45.5154" stroke="black" stroke-width="0.598542" stroke-miterlimit="10"/>
<path d="M51.8942 36.0349H51.8992H51.9025" stroke="black" stroke-width="0.598542" stroke-miterlimit="10"/>
<path d="M51.1937 35.6404C50.8019 36.0278 49.4039 38.0972 49.0529 38.4686C47.1247 40.5349 45.0766 42.4859 42.9189 44.3113C42.3757 44.7627 41.8005 45.2287 41.1947 45.7006C41.0752 45.7923 40.9515 45.8884 40.8277 45.9802C36.7209 49.0967 31.3617 52.0967 26.4102 50.1744C26.2792 50.1263 26.151 50.0709 26.0243 50.0142C18.4297 46.6137 13.1214 38.0972 12.6583 29.8763C12.6423 29.6084 12.6336 29.3419 12.6306 29.0783C12.5899 26.8312 12.9219 24.5841 15.0772 23.3987" stroke="black" stroke-width="0.598542" stroke-miterlimit="10"/>
<path d="M9.71074 26.8077L9.74132 26.5688C10.2248 22.6921 4.71999 21.3844 3.41368 25.0674C0.335048 33.7586 -3.10766 52.5275 15.9379 68.4304C28.2306 78.6988 48.1325 78.7702 60.3786 68.3969C62.0825 66.9537 63.8461 65.295 64.9805 63.3508C67.8509 58.4343 63.4674 54.4921 58.5233 55.7023" stroke="black" stroke-width="0.598542" stroke-miterlimit="10"/>
<path d="M39.9509 76.1252L41.8674 78.8368C41.8674 78.8368 53.464 79.2883 59.8106 84.6155C60.9844 85.6014 60.2824 87.5164 58.7504 87.5164C58.3662 87.5177 57.9941 87.3826 57.7004 87.1349C56.2019 85.8766 50.4771 81.9213 37.5276 81.8019C24.9102 81.6839 20.0709 85.5883 18.7325 87.0111C18.5799 87.1719 18.396 87.2996 18.1921 87.3865C17.9882 87.4733 17.7687 87.5176 17.5471 87.5164H17.2981C15.7252 87.5164 15.0597 85.53 16.3019 84.5659C21.6 80.4461 33.4762 79.1325 33.4762 79.1325L35.5034 76.0742" stroke="black" stroke-width="0.598542" stroke-miterlimit="10"/>
<path d="M33.4762 36.2376C38.3374 34.9269 40.3398 28.0692 41.1466 23.4585" stroke="black" stroke-width="0.598542" stroke-miterlimit="10"/>
<path d="M28.9064 28.8696C30.2568 28.6928 31.5394 28.1726 32.6313 27.3587C33.7234 26.5449 34.5884 25.4646 35.1437 24.2211C35.26 23.9736 35.3165 23.7026 35.3089 23.4294C35.3013 23.1562 35.2298 22.8887 35.1 22.6482C34.57 21.6667 33.7792 20.5293 33.967 19.3526C34.1025 18.5225 34.7855 17.9385 35.569 17.7507C35.9661 17.6466 36.3844 17.6537 36.7777 17.7711C37.0135 17.8379 37.2315 17.9563 37.4159 18.1177C37.6002 18.2792 37.7463 18.4796 37.8437 18.7046C38.0345 19.1517 37.8073 19.5944 37.4564 19.8856C37.1054 20.1769 36.6947 20.2803 36.2666 20.3968C36.2112 20.4128 36.0598 20.4448 35.8923 20.4769" stroke="black" stroke-width="0.598542" stroke-miterlimit="10"/>
<path d="M94.1489 45.5126C94.1489 45.5126 103.731 43.5058 105.531 40.615C105.869 40.088 106.079 39.4897 106.146 38.8674" stroke="black" stroke-width="0.598542" stroke-miterlimit="10"/>
<path d="M46.9966 40.5755C63.7106 38.8003 82.5756 39.0624 82.5756 39.0624H93.163C93.8471 39.0635 94.5291 38.9832 95.1945 38.8236C96.8197 38.4362 100.024 37.5872 102.566 36.3887C104.291 35.5746 106.302 36.8794 106.155 38.7843C106.155 38.8076 106.155 38.8323 106.146 38.86C106.482 38.8601 106.813 38.9413 107.111 39.0964C107.409 39.2516 107.665 39.4763 107.858 39.7516C108.05 40.0268 108.174 40.3444 108.217 40.6775C108.261 41.0105 108.224 41.3493 108.109 41.6649C104.538 51.4789 94.1489 51.1716 94.1489 51.1716C92.8207 51.211 91.4955 51.2634 90.1659 51.3318C78.4528 51.9012 66.8431 53.5454 55.4781 56.4478C52.3208 57.2503 49.1956 58.3949 46.0354 59.3415C43.3412 60.1556 40.6194 60.8211 37.8218 61.025C32.4102 61.4167 26.8587 60.0187 22.3981 56.8905C12.6277 50.0342 4.21898 35.7391 10.9879 24.1353C13.3777 20.0401 18.7893 18.9188 22.5612 21.8052C27.8811 25.8756 32.1306 33.8052 34.3107 38.4828" stroke="black" stroke-width="0.598542" stroke-miterlimit="10"/>
<path d="M107.888 61.0891H84.6276" stroke="black" stroke-width="0.598542" stroke-miterlimit="10"/>
<path d="M79.9324 56.3909C79.9359 55.1458 80.4319 53.9528 81.3121 53.0721C82.1925 52.1917 83.3855 51.6952 84.6305 51.6914H107.894C109.139 51.6948 110.332 52.1911 111.213 53.0717C112.093 53.9522 112.59 55.1456 112.593 56.3909" stroke="black" stroke-width="0.598542" stroke-miterlimit="10"/>
<path d="M113.05 58.0571C113.051 58.4557 112.974 58.8506 112.822 59.2191C112.67 59.5877 112.446 59.9223 112.164 60.2041C111.882 60.4859 111.548 60.7092 111.179 60.8611C110.81 61.013 110.415 61.0904 110.017 61.0891H82.4926C81.8037 61.0239 81.1678 60.691 80.7218 60.1619C80.2757 59.6327 80.0551 58.9497 80.1073 58.2597C80.1596 57.5695 80.4806 56.9274 81.0012 56.4716C81.522 56.0156 82.2008 55.7823 82.8917 55.8217H110.416C110.904 55.8209 111.386 55.9385 111.819 56.1645C112.252 56.3905 112.624 56.718 112.903 57.1192C113.001 57.4223 113.05 57.7387 113.05 58.0571Z" fill="#FF5678" fill-opacity="0.5"/>
<path d="M113.05 58.0569C113.052 58.4555 112.974 58.8505 112.822 59.2189C112.67 59.5874 112.446 59.9222 112.164 60.204C111.882 60.4858 111.547 60.709 111.179 60.8609C110.81 61.0128 110.415 61.0903 110.017 61.089H82.4927C82.0888 61.0978 81.6872 61.0259 81.3115 60.8775C80.9359 60.729 80.5935 60.507 80.3049 60.2245C80.0161 59.942 79.7866 59.6047 79.63 59.2323C79.4733 58.8601 79.3926 58.4602 79.3926 58.0562C79.3926 57.6522 79.4733 57.2523 79.63 56.8799C79.7866 56.5076 80.0161 56.1703 80.3049 55.8878C80.5935 55.6052 80.9359 55.3833 81.3115 55.2349C81.6872 55.0865 82.0888 55.0146 82.4927 55.0234H110.017C110.658 55.0231 111.282 55.2257 111.801 55.6022C112.319 55.9786 112.705 56.5096 112.903 57.1191C113.001 57.4221 113.05 57.7386 113.05 58.0569Z" stroke="black" stroke-width="0.598542" stroke-miterlimit="10"/>
<path d="M41.0942 23.3506L41.0388 23.818C41.0135 24.0302 40.9114 24.2257 40.7518 24.3676C40.592 24.5096 40.386 24.5881 40.1723 24.5884H37.1476C36.9339 24.5881 36.7279 24.5096 36.5681 24.3676C36.4085 24.2257 36.3064 24.0302 36.2811 23.818L35.8908 20.4685C36.0582 20.4365 36.2097 20.4045 36.265 20.3884C36.6932 20.2719 37.1082 20.1729 37.4548 19.8773C37.8014 19.5816 38.0374 19.1491 37.8422 18.6962C37.7448 18.4714 37.5987 18.2708 37.4144 18.1095C37.23 17.948 37.012 17.8296 36.7762 17.7627C36.3827 17.6453 35.9646 17.6382 35.5675 17.7423L35.4757 16.9443C35.4622 16.8224 35.4746 16.6989 35.512 16.5821C35.5493 16.4651 35.6109 16.3575 35.6926 16.2661C35.7743 16.1745 35.8745 16.1012 35.9863 16.051C36.0983 16.0007 36.2196 15.9747 36.3422 15.9744H40.9835C41.1061 15.9748 41.2271 16.0012 41.339 16.0514C41.4507 16.1018 41.5506 16.175 41.6321 16.2665C41.7137 16.358 41.7751 16.4656 41.8124 16.5824C41.8497 16.6992 41.8621 16.8224 41.8485 16.9443L41.7408 17.8545" stroke="black" stroke-width="0.598542" stroke-miterlimit="10"/>
<path d="M41.4974 19.9353L41.4932 19.9661" stroke="black" stroke-width="0.598542" stroke-miterlimit="10"/>
<path d="M41.2703 21.8594V21.8462" stroke="black" stroke-width="0.598542" stroke-miterlimit="10"/>
<path d="M41.3141 21.8589C41.3011 21.8567 41.2877 21.8567 41.2747 21.8589C41.2564 21.8569 41.2378 21.8569 41.2194 21.8589C41.0307 21.8596 40.8491 21.9311 40.7106 22.0593C40.5721 22.1874 40.4867 22.3631 40.4714 22.5512C40.4563 22.7392 40.5124 22.9262 40.6284 23.075C40.7445 23.2239 40.9123 23.3236 41.0985 23.3545C41.1788 23.3705 41.2615 23.3705 41.3417 23.3545C41.7052 23.2966 42.0371 23.1131 42.2796 22.8361C42.6028 22.3045 42.8273 21.7189 42.9422 21.1074C42.9443 21.1013 42.9443 21.0946 42.9422 21.0885C43.0311 20.6379 43.0648 20.1783 43.0427 19.7196C43.0427 19.523 43.0179 19.3278 42.9946 19.1371C42.9502 18.8178 42.8043 18.5215 42.5786 18.2915C42.3527 18.0616 42.0591 17.9103 41.7408 17.8599C41.7247 17.8599 41.7058 17.8599 41.6898 17.8511C41.0781 17.7754 40.2204 18.007 40.0616 18.6972C39.916 19.3205 40.5917 19.855 41.1466 19.9031C41.1466 19.9031 41.2922 19.922 41.4976 19.9351C41.9082 19.9628 42.5912 19.9584 43.0427 19.7196C43.1091 19.6852 43.1716 19.6437 43.2291 19.5958" stroke="black" stroke-width="0.598542" stroke-miterlimit="10"/>
<path d="M41.952 19.969H41.8515H41.0753H40.7331C40.5016 19.9697 40.2794 20.059 40.1118 20.2186C39.944 20.3781 39.8438 20.5956 39.8316 20.8268C39.8202 21.0513 39.8926 21.272 40.0348 21.4463C40.1767 21.6206 40.3783 21.7361 40.6005 21.7704C41.6054 21.9321 42.753 21.9656 42.9496 21.0656" stroke="black" stroke-width="0.598542" stroke-miterlimit="10"/>
<path d="M91.2727 61.0891C91.2727 61.0891 94.8246 64.4634 93.7164 74.924C93.6356 75.671 93.3759 76.3873 92.9591 77.0124L92.5732 77.5949C91.9403 78.5427 90.9859 79.2296 89.8863 79.5289C87.5664 80.1624 83.3577 81.6303 80.7581 84.4119C79.6601 85.59 80.4771 87.5094 82.0878 87.5094C82.388 87.5103 82.684 87.4368 82.949 87.2955C83.2139 87.1542 83.4399 86.9495 83.6067 86.6997C84.6654 85.1065 87.8708 81.7235 95.6023 81.7949C104.323 81.875 107.835 85.3425 108.961 86.8366C109.117 87.045 109.318 87.2142 109.551 87.331C109.783 87.4478 110.039 87.5089 110.299 87.5094C110.625 87.5087 110.944 87.413 111.216 87.2339C111.488 87.0549 111.703 86.8002 111.832 86.5012C111.962 86.2023 112.002 85.8718 111.946 85.5507C111.891 85.2294 111.743 84.9313 111.521 84.6929C108.121 80.9983 103.961 79.6206 101.666 79.1095C100.513 78.8609 99.4946 78.1904 98.8105 77.2294C98.2869 76.4881 97.9889 75.611 97.9528 74.7041C97.8246 71.4609 97.7576 63.5881 99.9552 61.092" stroke="black" stroke-width="0.598542" stroke-miterlimit="10"/>
<path d="M83.8893 36.639V36.875C83.8893 38.49 82.5873 38.7682 81.4631 38.7958L59.7044 39.3026C58.7505 39.3259 57.9481 38.4929 57.9277 37.4502V37.4065C57.9277 36.3871 58.6791 35.5352 59.6199 35.5133C59.6199 35.5133 71.7932 35.1696 81.2184 34.9104C81.399 35.4813 81.8359 35.9211 82.3834 36.2662C82.8371 36.5375 83.3614 36.6673 83.8893 36.639Z" stroke="black" stroke-width="0.598542" stroke-miterlimit="10"/>
<path d="M95.4552 13.6147C95.4563 13.8805 95.3954 14.1427 95.2775 14.3808L85.5464 34.3293C85.4323 34.5608 85.2689 34.7647 85.0676 34.9265C84.8664 35.0881 84.6322 35.2039 84.3814 35.2657C83.9796 35.3686 83.5542 35.3252 83.1814 35.1433C82.8826 34.9962 82.6311 34.7679 82.4557 34.4846C82.2804 34.2014 82.1882 33.8746 82.1897 33.5414C82.1904 33.4596 82.1962 33.3779 82.2071 33.2967C82.2331 33.1162 82.2871 32.9408 82.3673 32.7768L92.0969 12.8254C92.2727 12.4675 92.5645 12.1794 92.9248 12.0084C93.2851 11.8376 93.6927 11.7936 94.0813 11.8841C94.4698 11.9744 94.8161 12.1937 95.0641 12.5061C95.312 12.8186 95.4467 13.2057 95.4464 13.6045L95.4552 13.6147Z" stroke="black" stroke-width="0.598542" stroke-miterlimit="10"/>
<path d="M16.6748 11.646C16.6631 11.6052 16.6471 11.5659 16.634 11.5266C16.6209 11.4873 16.602 11.4421 16.5903 11.3984" stroke="black" stroke-width="0.598542" stroke-linecap="round" stroke-linejoin="round"/>
<path d="M16.6748 11.6474L16.9733 11.3474L17.5442 10.7693" stroke="black" stroke-width="0.598542" stroke-linecap="round" stroke-linejoin="round"/>
<path d="M20.0345 12.4373C20.0345 12.4373 20.4175 13.5805 21.8811 13.6576" stroke="black" stroke-width="0.598542" stroke-miterlimit="10"/>
<path d="M13.5248 15.1148C12.2142 15.7774 10.7273 14.3444 10.8307 13.1633C10.8977 12.3536 10.7142 11.7945 10.1156 11.2075C10.0763 11.1682 10.0399 11.1274 10.005 11.0881C9.77704 10.8402 9.62893 10.5296 9.57956 10.1964C9.53019 9.86333 9.58204 9.52299 9.72825 9.21964C10.0006 8.58615 10.5875 8.21479 10.1797 7.53178C10.0007 7.23644 9.8701 6.91445 9.79233 6.5779C9.71092 6.13169 9.72621 5.67324 9.83704 5.23329C9.94786 4.79348 10.1516 4.38251 10.4346 4.0279C11.0346 3.29975 12.0117 3.50072 12.8142 3.24587C13.7797 2.93859 14.2312 1.90024 15.2447 1.58131C15.7515 1.42257 16.2219 1.49393 16.7287 1.60898C17.1554 1.70946 17.5836 1.8216 17.9986 1.95266C18.4137 2.08373 18.7923 2.19587 19.2074 2.07208C19.7506 1.91335 20.1685 1.41383 20.7598 1.40946C21.351 1.4051 21.8054 1.75315 22.0705 2.23956C22.4899 3.00266 22.4928 4.11237 22.0981 4.77062C21.6904 5.45217 20.837 5.74052 20.103 5.88761C19.1651 6.07984 18.1952 6.13081 17.2457 6.21528L16.6938 6.35071C16.4838 6.41596 16.3083 6.56159 16.2056 6.756C16.1029 6.95042 16.0815 7.17761 16.1462 7.3876C16.4877 8.56284 16.9575 9.69687 17.5472 10.7692" stroke="black" stroke-width="0.598542" stroke-miterlimit="10"/>
<path d="M17.5443 15.2822C17.5443 15.2822 20.4336 17.3982 22.0806 16.2317C23.7277 15.0652 22.7972 11.6458 22.7972 11.6458" stroke="black" stroke-width="0.598542" stroke-linecap="round" stroke-linejoin="round"/>
<path d="M37.9602 14.5136C37.9602 14.5136 36.7326 13.6835 37.5131 12.8359C38.2937 11.9883 37.2539 10.8699 37.2539 10.8699" stroke="black" stroke-width="0.598542" stroke-miterlimit="10"/>
<path d="M39.0932 14.6577C39.0932 14.6577 39.9058 14.1087 39.3845 13.5465C38.8631 12.9844 39.5578 12.2358 39.5578 12.2358" stroke="black" stroke-width="0.598542" stroke-miterlimit="10"/>
</svg>
