<svg width="412" height="352" viewBox="0 0 412 352" fill="none" xmlns="http://www.w3.org/2000/svg">
<path fill-rule="evenodd" clip-rule="evenodd" d="M93.6989 210.892C96.0151 209.314 100.751 203.663 103.233 202.358C108.751 199.454 133.333 193.746 134.132 193.409C135.35 192.895 143.258 191.1 147.866 189.967C158.685 187.304 197.458 170.105 207.677 165.695C208.982 169.128 219.752 184.283 217.905 185.836C211.822 190.949 200.918 197.316 193.872 200.981C188.172 203.944 182.136 206.397 176.042 208.399C169.123 210.673 164.374 213.111 157.479 215.437C150.695 217.725 158.802 224.882 162.286 226.361C166.194 228.02 172.247 228.862 176.24 230.3C169.21 241.226 163.306 254.487 162.125 267.576C161.84 270.725 159.439 273.613 155.533 272.67C153.518 272.183 134.923 269.707 131.891 269.015C111.649 264.399 75.3101 240.225 84.668 215.437C86.8116 216.427 91.706 212.251 93.6989 210.892Z" fill="#FF5678"/>
<path fill-rule="evenodd" clip-rule="evenodd" d="M105.023 79.375C106.535 79.2475 110.445 76.2268 108.394 74.6988C106.324 73.1575 104.837 78.3233 105.023 79.375ZM26.2504 90.9603C26.6458 90.8903 26.4732 88.7274 25.8511 88.4511C23.8866 87.5789 23.7209 90.8566 23.6727 91.7337C23.6132 92.8405 23.4743 95.9584 25.863 95.1037C27.2188 94.6185 26.3774 91.7898 26.2504 90.9603ZM142.215 101.066C142.162 102.997 146.063 106.709 147.517 104.482C148.74 102.611 142.315 97.222 142.215 101.066ZM4.30078 57.5191C5.43088 60.4024 11.0204 56.4733 11.2282 54.3585C11.6544 50.0276 4.24224 54.6378 4.30078 57.5191ZM50.9331 69.9492C53.5361 69.7354 56.9611 66.426 59.4714 65.1897C61.17 64.3533 65.7921 63.3562 66.2946 61.4566C66.7322 59.8061 58.8899 63.3388 58.2202 63.6528C55.1439 65.094 52.3703 66.737 50.9331 69.9492ZM246.343 47.1289C248.418 45.5246 250.94 44.4897 253.6 44.5577C254.928 44.5914 257.699 45.4224 257.803 43.1255C257.972 39.3909 246.243 43.9455 244.41 44.6782C245.055 45.4958 245.699 46.3124 246.343 47.1289ZM116.914 192.676C115.392 190.149 112.654 188.687 110.595 186.531C111.35 190.072 109.649 193.221 108.48 196.453C111.292 195.194 114.102 193.935 116.914 192.676ZM381.235 246.559C382.074 243.751 382.914 240.96 383.895 238.195C384.992 235.1 385.538 234.832 382.911 232.668C380.731 236.788 378.551 240.909 376.371 245.03C377.923 245.689 379.543 246.331 381.235 246.559ZM155.609 43.3413C152.723 40.0879 139.195 39.8835 140.869 47.0639C141.453 49.5712 144.779 46.9077 146.862 46.3233C148.93 45.7428 154.785 45.6659 155.609 43.3413ZM155.113 89.4036C154.763 88.5731 154.065 85.5762 153.028 85.3401C152.018 85.1099 148.032 88.2531 147.283 88.7328C143.546 91.1275 139.903 93.7037 136.261 96.2422C137.656 96.2422 138.922 95.7456 140.308 95.7352C141.955 95.7208 143.136 96.3975 144.742 96.0115C148.192 95.1831 152.197 91.3597 155.113 89.4036ZM158.852 15.1657C159.176 13.6776 176.089 18.1448 178.121 18.9628C179.228 19.4077 184.942 22.3778 183.715 17.9014C183.016 15.3519 176.413 13.4084 174.297 12.7096C168.918 10.9342 163.247 9.67127 157.519 9.96417C156.407 10.0206 147.984 10.5067 151.501 13.8923C152.713 15.0583 157.057 14.6908 158.852 15.1657ZM162.554 219.627C165.705 221.177 168.923 222.363 172.216 223.576C173.679 224.114 175.959 225.524 177.572 225.17C178.895 224.879 179.318 222.866 180.013 221.519C182.552 216.589 185.584 212.611 189.343 208.546C187.597 207.273 178.736 212.889 176.544 213.718C174.348 214.548 172.278 215.384 170.129 216.376C168.106 217.309 164.115 218.144 162.554 219.627ZM218.347 177.602C222.939 175.523 227.292 171.838 231.058 168.539C235.383 164.751 239.26 160.781 242.425 155.878C240.52 155.975 236.314 162.103 236.267 155.432C236.243 152.028 240.907 148.676 242.354 145.52C238.754 143.487 235.453 155.634 231.322 152.69C227.342 149.853 233.622 140.098 234.832 137.02C232.497 135.467 219.196 152.853 217.27 155.077C216.066 156.47 213.219 158.324 212.539 159.948C212.134 160.915 212.076 163.984 212.272 164.873C212.68 166.733 214.743 168.961 215.662 170.692C216.824 172.885 217.837 175.164 218.347 177.602ZM408.198 240.284C404.227 234.679 408.329 232.234 411.558 227.582C414.141 223.86 416.516 219.758 418.154 215.601C422.248 205.207 425.942 195.543 427.964 184.547C425.182 185.817 423.442 190.652 422.05 193.199C420.178 196.624 418.531 200.219 416.45 203.537C412.557 209.746 408.735 216.37 403.782 221.752C401.538 224.192 399.639 226.936 397.05 229.133C395.867 230.137 393.604 230.961 392.733 232.217C391.91 233.402 392.83 234.16 392.518 235.576C392.197 237.028 390.728 238.577 390.098 239.975C389.27 241.812 388.498 243.654 387.574 245.45C386.566 247.409 386.29 248.434 386.019 250.348C385.721 252.442 386.632 252.659 384.804 254.588C388.117 256.049 391.43 257.509 394.742 258.97C395.86 259.464 396.978 259.956 398.097 260.449C398.332 260.007 398.568 259.566 398.803 259.124C399.714 258.24 400.551 256.059 401.072 254.891C403.248 250.017 405.707 245.124 408.198 240.284ZM88.2994 216.753C78.8929 241.517 111.947 262.369 132.294 266.981C135.113 267.619 137.863 268.455 140.669 269.141C143.727 269.889 146.444 269.74 149.497 270.053C151.926 270.302 153.084 272.178 155.373 272.696C159.198 273.56 158.964 270.685 159.238 267.605C160.399 254.546 167.064 241.945 174.118 231.048C170.896 229.895 167.703 228.637 164.522 227.375C161.8 226.295 157.632 223.258 154.706 223.097C152.542 222.979 149.244 224.827 147.142 225.638C143.642 226.989 140.131 228.139 136.482 229.06C130.103 230.671 123.004 232.867 116.402 233.033C114.499 233.081 109.278 233.968 107.908 232.792C105.297 230.549 108.921 228.679 111.108 227.879C124.138 223.107 137.972 221.079 151.039 216.187C157.763 213.669 164.418 210.858 171.184 208.377C177.016 206.24 183.125 204.347 188.762 201.717C196.206 198.246 203.681 193.921 210.127 188.825C211.417 187.806 214.121 186.291 215.005 184.814C215.784 183.513 215.686 184.81 215.525 183.233C215.409 182.101 214.022 180.565 213.452 179.495C211.328 175.505 209.408 171.406 207.794 167.184C197.512 171.594 187.73 177.597 177.6 182.31C167.403 187.054 155.901 190.4 144.992 193.069C140.35 194.205 135.012 194.565 130.754 196.809C128.945 197.763 127.156 198.866 125.219 199.418C124.646 200.516 124.083 200.731 123.528 200.063C123.18 199.673 122.731 199.508 122.179 199.569C120.994 199.77 119.785 200.329 118.677 200.759C113.066 202.934 107.694 205.658 102.368 208.437C99.8435 209.753 97.2539 211.05 94.8379 212.553C93.5431 213.36 92.3827 214.172 91.3231 215.279C90.0526 216.606 90.3552 217.697 88.2994 216.753ZM299.962 69.7161C302.34 69.7548 304.506 68.4669 306.985 68.5388C310.883 68.6515 313.968 71.6737 316.231 74.5882C320.707 80.3548 319.566 87.3115 317.317 93.7652C316.241 96.8494 314.764 99.8101 312.918 102.51C311.284 104.9 308.363 107.161 307.222 109.822C305.341 114.211 309.136 112.344 311.46 111.407C314.381 110.228 317.12 108.762 319.599 106.787C330.651 97.985 339.057 85.7508 341.874 71.7005C343.247 64.8454 343.142 56.8315 338.366 51.2366C334.001 46.1204 326.465 44.449 320.022 45.3976C313.059 46.4235 306.747 49.3733 301.077 53.1699C299.43 54.2732 297.922 55.4777 296.375 56.7115C294.346 58.3302 293.131 58.3724 293.639 60.9094C294.016 62.7956 295.042 64.7502 295.704 66.5599C296.944 69.9497 296.492 70.8268 299.962 69.7161ZM307.541 128.156L307.06 128.978C310.376 129.136 313.464 126.211 316.289 124.783C319.959 122.928 323.218 120.396 326.434 117.84C332.106 113.331 337.851 108.249 342.073 102.33C351.537 89.0608 360.133 72.2377 357.55 55.4142C354.767 37.2825 338.908 30.3028 322.01 32.7031C314.394 33.7847 307.595 37.1847 300.78 40.6366C297.344 42.3764 294.445 44.6341 291.298 46.8189C289.665 47.9534 288.175 48.1008 288.068 50.0842C287.988 51.5789 290.572 54.9593 291.27 56.3136C299.827 47.5843 309.049 40.3627 321.972 39.9162C337.346 39.3854 346.437 53.9626 346.369 67.9217C346.303 81.6114 340.399 94.7797 330.986 104.618C326.709 109.09 322.631 112.677 317.378 115.941C314.76 117.567 312.828 119.028 309.901 120.108C307.83 120.872 308.046 120.469 307.518 122.386C307.069 124.013 307.527 126.467 307.541 128.156ZM224.003 314.147C223.803 316.614 223.302 319.043 222.744 321.449C222.543 322.313 221.415 325.041 221.613 326.013C221.94 327.618 221.505 326.586 222.911 327.423C224.379 328.298 226.087 328.245 227.694 328.511C228.686 328.675 232.32 330.385 232.931 330.115C234 329.643 233.966 327.978 235.138 327.318C236.736 326.418 239.09 327.189 240.596 327.893C244.625 329.772 247.393 333.662 251.29 335.791C258.213 339.572 266.427 341.665 274.15 342.528C278.334 342.996 282.615 343.817 286.747 342.837C290.003 342.065 294.234 342.136 296.003 338.643C280.277 334.318 256.273 329.025 250.055 310.977C246.674 314.042 241.025 312.391 236.94 311.968C232.446 311.503 228.43 311.611 224.32 309.563C224.02 311.173 223.928 312.509 224.003 314.147ZM84.7592 202.368C92.1625 202.815 99.1812 199.312 103.737 193.401C104.858 191.945 106.008 190.459 106.682 188.734C106.828 188.297 106.973 187.859 107.119 187.422C107.826 186.215 107.517 185.646 106.191 185.714C105.445 184.69 103.552 184.345 104.091 182.49C104.496 181.09 105.993 181.067 107.293 180.626C106.645 179.538 106.258 178.992 105.331 178.024C102.921 180.191 98.5482 184.446 96.855 179.466C96.0414 177.075 97.4731 174.79 97.1184 172.484C96.9726 171.53 95.7636 169.094 95.0626 168.524C91.3305 165.485 85.9553 166.743 81.9955 168.532C79.2665 169.764 78.6791 170.343 78.2341 173.168C77.7822 176.042 77.3625 178.914 76.8609 181.779C78.4985 180.926 78.7967 179.082 79.8648 177.755C80.2646 178.483 80.665 179.212 81.0663 179.941C81.6299 179.625 82.1562 179.641 82.6444 179.991C83.4347 181.206 82.9376 183.008 82.6945 184.281C85.3298 184.036 86.4435 186.976 83.7869 188.166C81.0351 189.4 79.7938 186.037 79.7006 183.859C78.6737 185.086 77.619 184.429 76.9031 185.059C76.1882 185.689 75.9065 187.003 75.652 188.441C75.2338 190.804 74.1637 194.213 75.1539 196.583C76.6238 200.104 81.3104 201.936 84.7592 202.368ZM299.283 89.2845C296.834 92.6912 292.657 97.1506 291.784 101.266C294.482 99.6831 300.186 92.0646 301.656 98.1333C302.5 101.617 298.173 105.768 297.11 109.141C301.365 107.741 304.395 103.356 307.05 99.9723C310.436 95.6578 313.892 89.9706 314.756 84.4843C315.455 80.0447 312.375 75.9068 307.8 75.4718C305.462 75.2495 303.021 75.6206 300.763 76.1628C299.733 76.4094 298.197 76.716 297.278 77.2676C296.124 77.9607 295.966 79.5829 294.879 78.2335C293.435 80.9556 291.991 83.6776 290.546 86.3987C291.984 85.8773 294.916 83.6638 296.487 83.8925C298.781 84.2273 299.252 87.5591 299.283 89.2845ZM69.9241 22.6439C63.5021 22.8332 56.7895 24.2008 50.7099 26.2337C49.2002 26.7389 42.8309 28.5359 44.1723 31.1408C45.0589 32.8626 49.8387 30.4296 51.2838 30.0238C57.4771 28.2846 63.8539 27.1377 70.1974 26.091C71.7333 25.8376 76.9438 25.8627 77.2127 23.8493C77.5421 21.3926 71.7378 22.6411 69.9241 22.6439ZM244.704 302.848C241.223 303.274 237.881 303.115 234.397 302.688C231.465 302.329 228.479 301.129 225.561 301.129C225.561 304.252 225.349 304.272 228.644 304.94C230.944 305.407 233.277 305.669 235.601 305.994C239.693 306.566 244.236 308.172 248.378 307.347C248.278 306.805 247.961 303.145 247.532 302.783C247.29 302.58 245.056 302.852 244.704 302.848ZM188.446 71.7734C189.419 72.3935 191.657 74.8665 192.816 74.9102C192.402 72.0472 189.208 67.0625 185.54 68.8315C184.641 69.2656 182.753 71.4256 183.607 72.3786C184.063 72.8881 187.253 71.7769 188.446 71.7734ZM154.509 97.2428C154.544 96.7438 154.58 96.2447 154.617 95.7461C153.271 96.5374 151.604 96.9119 150.648 98.1869C151.796 98.6959 152.944 99.2054 154.093 99.7149C154.231 98.8909 154.37 98.0668 154.509 97.2428ZM260.512 173.253C266.871 175.48 272.701 178.455 277.383 183.504C281.429 187.87 283.33 195.562 284.318 201.285C286.762 215.447 282.046 228.573 278.936 242.12C277.359 248.992 275.004 255.606 272.799 262.301C270.873 268.147 269.222 274.269 266.565 279.828C264.311 284.541 261.433 289.188 259.45 294.077C258.384 296.709 256.655 305.739 252.606 302.903C251.501 305.792 251.232 305.546 252.414 307.552C253.268 309.005 256.168 311.022 257.537 312.205C261.183 315.358 265.802 317.956 270.08 320.164C277.915 324.208 286.314 327.233 294.383 330.92C297.95 332.551 301.819 334.477 301.018 339.144C300.347 343.056 298.084 346.023 294.553 347.763C291.238 349.398 286.497 350.66 282.85 351.172C280.687 351.477 280.191 350.577 278.427 350.265C276.464 349.919 274.173 350.589 272.147 350.571C263.056 350.492 255.096 348.204 247.749 342.932C245.124 341.048 241.259 335.937 237.823 335.938C236.067 335.938 236.437 337.005 234.893 337.631C232.986 338.403 229.701 336.945 227.827 336.603C223.834 335.874 219.773 335.134 217.114 331.695C214.239 327.978 215.261 323.374 216.496 319.246C217.889 314.593 220.232 309.873 221.228 305.15C221.47 304.001 221.694 301.859 221.447 300.69C221.064 298.877 219.233 297.795 219.178 295.831C219.161 295.233 220.016 294.446 220.166 293.829C220.496 292.475 220.445 291.07 220.581 289.691C220.823 287.233 221.384 284.877 221.771 282.448C222.65 276.919 224.384 271.986 226.062 266.659C227.69 261.489 229.24 257.641 232.388 253.165C234.018 250.846 239.47 242.586 236.808 240.209C233.164 247.366 228.903 252.948 223.326 258.646C219.061 263.005 214.891 268.864 209.552 271.968C203.683 275.381 196.51 277.389 190.029 279.194C186.946 280.051 184.388 281.954 181.065 282.307C177.463 282.687 173.798 282.238 170.27 281.435C169.277 281.209 166.413 279.683 165.515 279.781C164.191 279.924 162.287 282.284 160.835 282.717C157.299 283.772 154.885 281.757 152.203 279.895C149.292 277.874 148.412 277.372 145.053 277.128C140.939 276.831 136.939 275.381 132.893 274.493C125.779 272.932 119.732 269.769 113.266 266.458C105.854 262.663 99.5136 257.43 93.9266 251.248C85.7137 242.159 74.2758 216.974 87.6922 208.156C79.7938 207.083 72.5603 203.634 71.5974 194.694C71.0943 190.017 72.0414 184.835 73.2176 180.326C73.7544 178.267 74.3944 176.221 75.0075 174.184C75.4694 173.496 75.714 172.743 75.7393 171.925C76.0225 170.865 75.6143 170.336 74.5134 170.341C72.4333 167.909 70.8691 165.762 70.4489 162.308C70.3165 161.214 70.1979 159.536 70.9768 158.605C71.3369 158.231 71.772 157.981 72.2795 157.856C73.4989 157.926 73.8432 157.325 73.3134 156.054C73.9052 154.254 73.0271 152.852 75.2581 152.101C75.9729 152.253 76.6848 152.419 77.3937 152.599C78.2986 153.012 78.887 152.713 79.1608 151.705C81.2623 150.883 80.2929 149.667 83.1484 150.725C84.8763 151.366 86.5204 152.468 87.779 153.812C89.3575 152.798 85.7673 146.535 85.6478 144.537C85.3635 139.827 87.3112 135.932 89.8447 132.063C94.7694 124.544 101.643 118.079 108.422 112.262C121.406 101.122 135.046 90.5163 149.706 81.6407C143.658 77.4403 136.593 76.3017 129.396 78.2539C122.762 80.0537 117.384 83.3224 111.277 86.1814C105.62 88.8291 99.6148 89.917 97.811 82.6914C95.7899 74.5976 102.238 71.5928 108.022 67.9634C106.578 66.8864 101.823 67.6563 100.025 67.7838C96.0196 68.0671 92.1887 68.9714 88.2964 69.7711C86.4296 70.1541 84.7146 70.0678 82.8652 70.4434C80.1158 71.0015 77.2449 71.6265 74.4633 72.4218C67.8454 74.3144 61.2767 77.1868 55.5582 81.0573C50.6156 84.401 47.1866 89.1223 43.2044 93.4705C38.6632 98.4285 34.3115 103.307 27.579 105.122C24.4263 105.972 20.7279 106.744 18.493 103.928C16.4134 101.309 16.2973 98.1537 16.3658 94.9524C16.5161 87.8805 19.9322 80.2392 23.9059 74.4607C28.2194 68.1881 33.997 64.5959 39.4555 59.5471C31.5656 60.1112 23.9406 64.27 16.6848 67.1448C15.1578 67.7501 13.6164 68.4302 12.081 68.9898C10.4439 69.5871 9.35945 69.2215 7.7908 69.4948C4.21148 70.1194 1.13664 71.628 -2.34519 69.223C-8.93262 64.6733 -2.33279 55.4177 2.2028 52.5775C8.52006 48.6222 14.9469 45.2919 21.9066 42.4706C18.1388 38.3838 21.3565 32.5515 24.8296 29.6523C29.2235 25.9836 34.819 23.8814 40.1138 21.9175C44.3008 20.3643 48.4134 18.873 52.7632 17.9382C57.3362 16.956 62.6831 15.455 67.323 15.599C71.6748 15.734 75.5334 14.9674 79.9407 14.8447C83.6078 14.7428 87.2834 14.831 90.95 14.7359C100.815 14.4811 110.717 15.1465 120.358 15.8559C112.72 -6.48243 163.037 0.416098 173.772 3.33392C183.528 5.98589 194.706 9.06212 202.9 15.3545C206.372 18.0195 209.669 21.0496 212.749 24.1589C217.293 28.7465 219.809 34.7544 222.212 40.6842C228.309 37.6977 234.139 34.443 240.81 32.962C247.157 31.5534 253.659 29.644 260.044 28.5798C264.898 27.7704 271.944 27.2214 276.03 30.649C280.467 34.372 282.779 40.1658 285.427 45.1272C298.147 33.0578 312.335 24.2526 330.471 24.8381C348.217 25.4112 359.886 40.7363 362.038 57.3425C364.408 75.6414 356.256 94.7619 345.207 108.932C340.253 115.287 335.126 121.425 328.458 126.166C325.151 128.516 321.662 131.091 318.036 132.926C316.228 133.841 314.251 134.667 312.353 135.371C311.496 135.689 310.614 136.008 309.723 136.223C307.179 136.841 307.674 136.017 306.727 138.243C305.96 140.052 306.054 143.163 305.725 145.147C305.35 147.415 305.127 149.715 304.578 151.952C303.628 155.83 302.639 159.613 301.449 163.4C299.195 170.567 296.163 177.791 292.449 184.329C295.599 185.696 300.01 185.834 303.376 186.249C307.019 186.697 310.667 187.64 314.451 188.698C322.033 190.818 328.809 192.607 336.019 195.781C343.505 199.076 350.176 203.997 357.384 207.913C364.012 211.514 370.712 216.025 376.867 220.348C378.332 221.376 379.239 222.27 380.404 223.573C381.597 224.903 381.976 225.164 383.402 226.317C384.045 226.836 385.913 229.458 386.647 229.554C387.961 229.728 387.759 228.747 388.791 227.378C390.945 224.52 393.949 222.305 396.088 219.374C397.872 216.93 399.733 214.455 401.639 212.353C406.254 207.268 410.077 201.63 413.358 195.533C415.065 192.358 416.863 189.338 418.718 186.342C420.564 183.359 423.845 179.423 427.522 179.599C427.226 178.08 426.287 177.827 427.908 176.899C428.952 176.3 430.984 177.265 431.788 177.872C433.92 179.481 434.012 182.603 433.878 184.948C433.532 190.991 432.267 196.956 430.505 202.67C428.387 209.539 425.731 215.598 422.834 222.154C420.527 227.377 417.662 234.283 411.922 236.666C415.777 242.171 413.926 246.656 411.349 252.5C409.466 256.772 406.979 261.186 403.19 264.014C398.92 267.201 394.288 264.497 389.821 262.39C387.123 261.118 378.874 258.115 380.552 254.199C378.491 253.925 377.195 252.427 375.319 251.967C373.333 251.479 373.674 252.286 371.573 252.588C369.962 252.82 367.553 251.377 366.036 250.861C363.502 249.999 360.976 249.115 358.446 248.244C351.324 245.791 344.323 243.376 337.131 241.411C323.75 237.754 310.204 235.68 296.87 232.415C294.197 231.761 291.539 231.13 288.756 230.605C288.182 230.497 285.199 230.331 284.837 229.716C284.203 228.638 286.153 222.605 286.321 221.376C287.42 213.305 287.061 204.471 285.513 196.492C284.87 193.175 281.998 188.881 282.023 185.643C282.04 183.471 283.964 181.1 285.094 179.133C287.889 174.268 290.818 169.013 292.888 163.951C296.058 156.207 298 147.465 299.4 139.172C300.129 134.848 300.978 130.161 301.176 125.787C301.328 122.452 301.054 118.955 301.538 115.541C299.693 115.716 297.082 116.672 295.42 115.648C293.321 114.357 292.757 110.67 293.025 108.467C285.839 109.722 286.078 102.907 286.523 97.5772C273.534 97.5772 290.168 78.2772 292.246 74.1328C293.201 72.2273 293.173 74.3675 292.751 71.4207C292.566 70.1254 291.68 68.6897 291.179 67.4985C290.088 64.8985 288.908 62.3382 287.647 59.8155C284.984 54.4875 281.967 49.3395 278.675 44.3756C275.711 46.4408 273.04 48.8856 270.565 51.5084C272.152 47.3561 277.004 42.2121 274.928 37.4973C273.006 33.1267 266.583 33.4297 262.789 34.2288C252.482 36.4019 242.597 39.567 232.778 43.2316C235.819 44.9759 240.476 43.6285 243.498 42.295C247.24 40.643 251.265 38.9101 255.298 38.035C258.815 37.272 263.435 37.5325 262.418 42.2702C261.594 46.109 257.84 49.8059 255.362 52.6763C249.904 59 243.059 63.8954 236.336 68.7869C229.109 74.045 222.145 79.758 214.827 84.8638C201.598 94.0941 187.373 102.116 173.705 110.732C166.602 115.208 158.554 118.811 150.851 122.129C142.378 125.779 134.254 129.686 125.463 132.569C120.581 134.171 115.742 135.488 110.945 137.31C107.938 138.452 102.702 140.739 100.715 137.35C96.6804 130.465 111.282 121.411 115.283 117.201C118.044 119.882 104.431 129.872 105.497 133.775C106.334 136.843 109.572 132.882 111.136 132.046C113.662 130.694 116.655 130.015 119.194 128.473C124.403 125.311 130.578 121.665 131.767 115.128C130.94 114.254 130.95 113.448 131.798 112.709C132.176 112.26 132.476 111.767 132.696 111.229C133.067 110.202 133.216 108.915 133.414 107.826C134.001 104.607 132.529 101.593 133.904 98.4419C125.877 104.524 118.161 111.394 110.541 117.979C103.707 123.885 96.5747 131.618 94.063 140.431C93.7415 141.56 93.2067 142.841 93.2653 144.032C93.3794 146.372 93.613 145.867 95.4977 146.62C97.3828 147.372 100.128 147.307 102.155 147.387C103.31 147.432 108.471 146.208 107.445 148.744C106.853 150.206 103.276 150.151 101.995 150.286C98.7803 150.625 97.0371 150.277 98.5601 153.761C99.2427 155.323 100.626 156.381 101.711 157.59C104.73 160.953 106.371 166.111 108.746 170.061C111.452 174.563 114.427 178.843 117.588 183.035C118.892 184.764 120.635 188.015 122.444 189.249C124.132 190.402 122.145 190.307 124.95 189.838C126.172 189.635 127.28 188.84 128.449 188.555C135.441 186.852 142.627 184.932 149.857 182.829C159.105 180.14 168.81 177.847 177.634 173.975C185.538 170.504 193.384 166.373 201.371 162.859C203.704 161.834 206.033 161.154 207.846 159.266C210.034 156.988 211.846 154.005 213.864 151.557C217.297 147.391 220.46 143.154 224.155 139.207C226.905 136.27 231.779 130.81 235.659 129.637C243.031 127.41 239.085 138.639 238.132 141.477C239.865 141.87 240.776 139.647 242.81 140.287C245.245 141.053 245.497 144.291 245.802 146.321C245.883 146.862 245.151 147.872 245.373 148.354C245.449 148.519 247.038 149.458 247.345 149.894C248.457 151.476 248.239 153.4 247.817 155.106C245.635 163.944 237.88 170.397 232.177 176.916C234.728 176.433 236.62 174.979 239.029 174.258C241.289 173.582 243.562 173.617 245.84 173.423C248.226 173.221 250.518 172.328 252.958 172.282C255.52 172.235 257.972 172.964 260.512 173.253Z" fill="black"/>
<path fill-rule="evenodd" clip-rule="evenodd" d="M-9.22441 93.7618C-10.6308 94.681 -11.0273 95.5829 -11.0758 97.7037C-11.0953 98.5734 -11.0353 101.818 -9.81968 101.696C-8.67891 101.581 -9.22441 94.8775 -9.22441 93.7618ZM-16.4896 99.0466C-15.8343 92.2497 -13.3475 85.3386 -7.49766 81.1034C-6.05095 80.0562 -4.41439 80.0934 -2.82882 79.4326C-1.87593 79.0357 -0.370431 77.1902 0.7114 77.4085C4.69369 78.2142 0.0929177 83.5055 -0.580827 84.8975C-2.66874 89.2101 -2.52775 92.9993 -2.46539 97.6516C-2.41791 101.187 -1.68325 107.148 -3.46576 110.348C-5.36585 113.756 -9.48705 111.543 -11.7875 109.526C-14.6908 106.98 -16.8835 102.925 -16.4896 99.0466Z" fill="black"/>
<path fill-rule="evenodd" clip-rule="evenodd" d="M53.419 119.133C53.419 122.926 56.4973 120.358 56.3877 117.66C56.2264 113.688 53.2752 116.134 53.419 119.133ZM69.7847 98.1651C66.4157 101.195 63.8167 102.895 63.1673 107.555C62.6756 111.084 63.1643 114.579 63.1851 118.134C63.2204 124.093 58.4082 130.358 53.23 123.527C49.4528 118.545 50.8076 110.711 53.8878 105.703C55.5041 103.076 57.8114 100.477 60.477 98.8402C62.4817 97.608 68.1213 95.1835 69.7847 98.1651Z" fill="black"/>
<path fill-rule="evenodd" clip-rule="evenodd" d="M22.7312 190.004C22.3407 190.928 21.4235 194.701 23.2947 193.848C24.9462 193.094 23.8761 190.593 22.7312 190.004ZM12.8455 178.354C12.5568 176.935 12.6743 168.04 15.1246 168.708C17.0489 169.23 17.3669 173.784 18.1507 175.368C21.0702 181.269 27.771 184.944 30.0818 191.034C32.661 197.836 24.8629 198.047 20.725 195.293C15.8255 192.031 12.9909 184.046 12.8455 178.354Z" fill="black"/>
<path fill-rule="evenodd" clip-rule="evenodd" d="M6.83929 141.883C7.90242 140.447 8.01007 139.68 7.40384 138.41C6.62894 139.253 6.76636 140.458 6.83929 141.883ZM7.60873 148.305C2.06538 148.925 1.78791 138.71 2.73709 135.203C3.49314 132.409 5.11834 129.408 6.79167 127.132C7.12951 126.673 10.3343 122.546 10.9623 122.536C13.3733 122.497 12.7111 125.222 12.4506 126.236C11.6316 129.43 11.3071 132.1 11.5274 135.642C11.764 139.433 13.5589 148.431 7.60873 148.305Z" fill="black"/>
<path fill-rule="evenodd" clip-rule="evenodd" d="M259.293 59.8379C251.367 66.485 243.842 73.6814 235.223 79.4956C231.006 82.3412 226.597 84.8584 222.389 87.7501C220.246 89.223 218.059 90.5416 215.681 91.6241C213.581 92.5805 212.208 92.7051 213.95 90.4349C215.115 88.9184 217.726 87.8617 219.313 86.7837C221.755 85.1233 224.061 83.2818 226.63 81.8089C231.158 79.2108 235.66 77.1133 239.834 73.9274C243.539 71.1002 247.361 68.3399 250.898 65.3351C252.414 64.0467 257.442 58.1313 259.293 59.8379Z" fill="black"/>
<path fill-rule="evenodd" clip-rule="evenodd" d="M259.453 83.8399C263.018 86.8889 254.099 95.2421 252.065 97.1352C249.921 99.132 247.559 100.913 245.226 102.682C244.405 103.305 239.925 107.473 238.788 107.137C236.545 106.473 239.49 103.768 240.256 103.063C242.733 100.779 245.263 98.5625 247.685 96.2169C249.87 94.1036 252.235 92.1465 254.347 89.9646C256.058 88.1971 257.496 85.2021 259.453 83.8399Z" fill="black"/>
<path fill-rule="evenodd" clip-rule="evenodd" d="M-4.62921 206.75C-5.55988 204.594 -7.22666 206.988 -6.38166 208.065C-5.5825 209.084 -4.74822 207.164 -4.62921 206.75ZM-10.0862 202.492C-9.58732 199.321 -8.4343 197.558 -5.45947 200.265C-3.41532 202.125 0.695909 207.414 0.305781 210.297C-0.206287 214.079 -4.37159 213.006 -6.53079 211.028C-8.74401 209.001 -9.72107 205.303 -10.0862 202.492Z" fill="black"/>
<path fill-rule="evenodd" clip-rule="evenodd" d="M-3.56732 264.902C-7.21153 264.624 -10.3205 261.826 -11.8681 258.548C-13.1702 255.79 -14.4027 251.346 -9.82812 252.795C-6.8467 253.74 4.64655 265.346 -3.56732 264.902Z" fill="black"/>
<path fill-rule="evenodd" clip-rule="evenodd" d="M40.597 246.926C37.7807 247.567 34.9951 245.712 33.2632 243.621C32.1857 242.318 29.678 237.751 30.9415 235.872C32.7027 233.25 35.3617 238.52 36.279 239.563C37.7177 241.197 42.4226 244.321 40.597 246.926Z" fill="black"/>
<path fill-rule="evenodd" clip-rule="evenodd" d="M43.1335 175.617C40.9259 174.593 38.8765 173.359 37.9885 170.913C37.424 169.355 36.9497 164.682 39.457 164.703C42.3571 164.729 48.9978 175.149 43.1335 175.617Z" fill="black"/>
<path fill-rule="evenodd" clip-rule="evenodd" d="M27.6564 127.002C30.6121 126.948 31.3121 128.578 31.7229 130.92C32.0022 132.51 33.356 137.906 31.9501 139.011C29.9409 140.591 26.7446 136.972 26.0986 135.551C24.7671 132.626 26.6081 129.749 27.6564 127.002Z" fill="black"/>
<path fill-rule="evenodd" clip-rule="evenodd" d="M78.446 288.795C79.8851 289.45 83.1593 290.902 81.9082 293.155C80.6 295.512 76.8441 293.222 75.4411 292.192C74.8537 291.761 71.1221 288.939 71.2784 287.993C71.6073 285.982 76.7513 288.606 78.446 288.795Z" fill="black"/>
<path fill-rule="evenodd" clip-rule="evenodd" d="M258.072 110.133C256.925 107.79 259.756 106.279 261.269 104.769C262.257 103.782 266.41 98.433 267.772 98.7351C270.574 99.3567 259.449 109.088 258.072 110.133Z" fill="black"/>
<path fill-rule="evenodd" clip-rule="evenodd" d="M27.6192 279.84C30.3214 279.406 30.9519 282.407 32.6927 283.716C33.4393 284.277 36.0022 284.77 35.4867 285.962C34.1324 289.09 27.4867 281.943 27.6192 279.84Z" fill="black"/>
<path fill-rule="evenodd" clip-rule="evenodd" d="M50.4375 208.951C52.2949 208.173 57.6557 212.349 56.1163 214.154C53.8154 216.853 50.5685 210.428 50.4375 208.951Z" fill="black"/>
<path fill-rule="evenodd" clip-rule="evenodd" d="M89.5877 269.372C88.2339 269.506 82.5204 267.711 84.6372 265.306C86.1235 263.617 90.0734 267.843 89.5877 269.372Z" fill="black"/>
<path fill-rule="evenodd" clip-rule="evenodd" d="M21.168 257.834C19.8241 258.371 14.9762 257.266 16.5002 255.16C17.9523 253.156 21.17 256.17 21.168 257.834Z" fill="black"/>
<path fill-rule="evenodd" clip-rule="evenodd" d="M60.8555 266.917C62.4271 266.754 63.5622 267.701 63.832 269.306C61.8665 269.586 61.2603 269.118 60.8555 266.917Z" fill="black"/>
<path fill-rule="evenodd" clip-rule="evenodd" d="M265.246 33.9778C265.91 33.9807 266.573 33.9842 267.23 33.9872C266.566 33.9837 265.906 33.9807 265.246 33.9778Z" fill="black"/>
<path fill-rule="evenodd" clip-rule="evenodd" d="M254.828 172.143C253.835 172.144 252.843 172.146 251.852 172.147C252.844 172.145 253.836 172.144 254.828 172.143Z" fill="black"/>
<path fill-rule="evenodd" clip-rule="evenodd" d="M119.463 10.418C119.418 11.4113 119.372 12.4047 119.326 13.3946C119.37 12.4004 119.417 11.4087 119.463 10.418Z" fill="black"/>
<path fill-rule="evenodd" clip-rule="evenodd" d="M398.695 265.654C399.193 265.657 399.691 265.66 400.184 265.663C399.684 265.66 399.19 265.657 398.695 265.654Z" fill="black"/>
<path fill-rule="evenodd" clip-rule="evenodd" d="M304.438 185.8C303.606 186.434 302.778 186.523 301.957 185.766C302.784 185.778 303.611 185.789 304.438 185.8Z" fill="black"/>
<path fill-rule="evenodd" clip-rule="evenodd" d="M285.866 101.203C285.845 102.031 285.824 102.859 285.802 103.684C285.823 102.855 285.844 102.029 285.866 101.203Z" fill="black"/>
<path fill-rule="evenodd" clip-rule="evenodd" d="M328.746 24.6557C327.919 24.6552 327.092 24.6542 326.266 24.6533C327.093 24.3437 327.92 24.4454 328.746 24.6557Z" fill="black"/>
<path fill-rule="evenodd" clip-rule="evenodd" d="M86.1562 14.5619C85.3298 14.6105 84.5023 14.6591 83.6758 14.7077C84.5023 14.6591 85.3298 14.6105 86.1562 14.5619Z" fill="black"/>
<path fill-rule="evenodd" clip-rule="evenodd" d="M106.496 14.7191C105.835 14.6631 105.173 14.6065 104.512 14.5505C105.173 14.6065 105.834 14.6631 106.496 14.7191Z" fill="black"/>
<path fill-rule="evenodd" clip-rule="evenodd" d="M117.41 15.5053C116.749 15.7519 116.088 15.8978 115.426 15.5088C116.088 15.5078 116.749 15.5063 117.41 15.5053Z" fill="black"/>
<path fill-rule="evenodd" clip-rule="evenodd" d="M58.375 16.8637C57.5475 17.0319 56.721 17.2001 55.8945 17.3668C56.722 17.2001 57.5485 17.0319 58.375 16.8637Z" fill="black"/>
<path fill-rule="evenodd" clip-rule="evenodd" d="M286.364 218.777C286.341 219.274 286.318 219.771 286.296 220.266C286.32 219.768 286.341 219.272 286.364 218.777Z" fill="black"/>
<path fill-rule="evenodd" clip-rule="evenodd" d="M12.9685 178.594C12.9785 178.925 12.9879 179.257 12.9968 179.586C12.9859 179.254 12.978 178.924 12.9685 178.594Z" fill="black"/>
<path fill-rule="evenodd" clip-rule="evenodd" d="M260.285 173.3C259.623 173.191 258.962 173.082 258.301 172.973C258.962 173.082 259.624 173.191 260.285 173.3Z" fill="black"/>
<path fill-rule="evenodd" clip-rule="evenodd" d="M78.7148 288.72C77.8879 288.559 77.0614 288.398 76.2344 288.237L78.7148 288.72Z" fill="black"/>
<path fill-rule="evenodd" clip-rule="evenodd" d="M245.673 146.348C245.658 145.851 245.642 145.355 245.628 144.859C245.642 145.356 245.658 145.852 245.673 146.348Z" fill="black"/>
<path fill-rule="evenodd" clip-rule="evenodd" d="M88.6367 14.7263C88.1406 14.6653 87.644 14.6043 87.1484 14.5433C87.644 14.6043 88.1406 14.6653 88.6367 14.7263Z" fill="black"/>
<path fill-rule="evenodd" clip-rule="evenodd" d="M169.996 2.45794C169.5 2.30762 169.003 2.1573 168.508 2.00699C169.004 2.1573 169.5 2.30762 169.996 2.45794Z" fill="black"/>
<path fill-rule="evenodd" clip-rule="evenodd" d="M229.031 337.065C229.363 337.086 229.696 337.106 230.023 337.126C229.69 337.106 229.36 337.085 229.031 337.065Z" fill="black"/>
<path fill-rule="evenodd" clip-rule="evenodd" d="M1.32422 70.6736C1.8223 70.6865 2.32038 70.6998 2.8125 70.7132C2.31194 70.6998 1.81808 70.6865 1.32422 70.6736Z" fill="black"/>
<path fill-rule="evenodd" clip-rule="evenodd" d="M334.203 25.1401C333.376 25.082 332.55 25.024 331.723 24.9655C332.55 25.024 333.376 25.082 334.203 25.1401Z" fill="black"/>
<path fill-rule="evenodd" clip-rule="evenodd" d="M72.7617 22.8174C71.6014 22.8194 70.4425 22.8213 69.2891 22.8233C70.4519 22.8213 71.6068 22.8194 72.7617 22.8174Z" fill="black"/>
<path fill-rule="evenodd" clip-rule="evenodd" d="M307.142 125.016C307.157 125.844 307.173 126.672 307.19 127.496C307.175 126.668 307.16 125.841 307.142 125.016Z" fill="black"/>
<path fill-rule="evenodd" clip-rule="evenodd" d="M246.395 302.633C245.731 302.623 245.068 302.612 244.41 302.601C245.075 302.61 245.735 302.622 246.395 302.633Z" fill="black"/>
<path fill-rule="evenodd" clip-rule="evenodd" d="M316.84 39.7838C317.832 39.6736 318.824 39.5635 319.816 39.4534C318.864 40.2957 317.836 39.7352 316.84 39.7838Z" fill="black"/>
<path fill-rule="evenodd" clip-rule="evenodd" d="M240.938 302.893C240.44 302.874 239.943 302.855 239.449 302.837C239.949 302.856 240.443 302.874 240.938 302.893Z" fill="black"/>
<path fill-rule="evenodd" clip-rule="evenodd" d="M223.785 311.547C223.809 312.375 223.835 313.203 223.86 314.027C223.836 313.197 223.81 312.372 223.785 311.547Z" fill="black"/>
<path fill-rule="evenodd" clip-rule="evenodd" d="M299.477 70.2459C300.138 70.1844 300.8 70.1229 301.461 70.0619C300.857 70.5272 300.148 70.2548 299.477 70.2459Z" fill="black"/>
<path fill-rule="evenodd" clip-rule="evenodd" d="M82.6836 202.224C83.3449 202.346 84.0072 202.467 84.668 202.588C84.0067 202.467 83.3449 202.346 82.6836 202.224Z" fill="black"/>
<path fill-rule="evenodd" clip-rule="evenodd" d="M185.871 71.6876C186.697 70.9841 187.524 71.0605 188.352 71.6796C187.525 71.6816 186.698 71.6846 185.871 71.6876Z" fill="black"/>
<path fill-rule="evenodd" clip-rule="evenodd" d="M154.829 96.7383C154.853 96.4074 154.876 96.0765 154.901 95.7461C154.879 96.0775 154.854 96.4079 154.829 96.7383Z" fill="black"/>
<path fill-rule="evenodd" clip-rule="evenodd" d="M299.218 87.3125C299.225 87.9753 299.231 88.6376 299.239 89.2969C299.232 88.6326 299.226 87.9728 299.218 87.3125Z" fill="black"/>
<path fill-rule="evenodd" clip-rule="evenodd" d="M80.344 191.012C81.4324 191.381 83.6217 192.495 84.8902 192.347C85.9057 192.229 86.7426 190.995 87.7219 190.996C90.3587 191 89.8695 194.048 88.5955 195.684C85.1502 200.11 77.4513 195.311 80.344 191.012Z" fill="black"/>
<path fill-rule="evenodd" clip-rule="evenodd" d="M91.1058 175.121C94.7015 176.049 92.9106 183.959 89.8879 184.502C86.3289 185.143 85.7088 178.712 86.4117 176.387C88.2433 177.476 87.1092 181.358 89.4176 180.285C90.8855 179.602 90.6623 176.444 91.1058 175.121Z" fill="black"/>
</svg>
