<svg width="412" height="365" viewBox="0 0 412 365" fill="none" xmlns="http://www.w3.org/2000/svg">
<path fill-rule="evenodd" clip-rule="evenodd" d="M257.688 96.4623C263.316 93.3223 266.601 87.6933 269.853 82.1213C270.343 81.2834 270.831 80.4469 271.326 79.6204C271.658 79.0669 272.02 78.4963 272.39 77.9149V77.9144C273.366 76.3778 274.391 74.7635 275.031 73.1829C275.311 72.4916 275.553 71.4774 275.797 70.4524C276.085 69.2433 276.377 68.0193 276.739 67.2943C277.529 65.7106 283.53 64.9897 287.617 64.499C288.966 64.3368 290.108 64.1999 290.783 64.0647C297.967 62.6323 306.552 61.7731 312.423 67.3617C313.818 68.6899 315.381 69.915 316.949 71.1442C318.829 72.6175 320.717 74.0971 322.333 75.7673C324.927 78.4497 328.42 82.9619 329.653 86.5455C323.329 87.7566 312.822 91.4666 310.304 98.061C301.035 89.6056 297.122 103.689 295.069 111.079C294.944 111.53 294.825 111.956 294.713 112.351C289.665 110.18 289.927 103.574 290.119 98.7368V98.7363C290.146 98.0584 290.172 97.4158 290.181 96.8245C290.195 95.9477 290.328 95.0341 290.459 94.1427C290.897 91.1546 291.298 88.4194 287.004 88.1784C282.836 87.9457 278.789 89.632 275.031 91.2111C270.342 93.1819 265.422 96.1296 261.634 99.5157L257.688 96.4623ZM248.579 83.29C248.579 83.4506 248.577 83.6107 248.575 83.7709C248.561 85.1955 248.547 86.6154 248.982 87.9887C249.234 88.7827 249.238 89.9435 249.242 91.0582C249.244 91.8661 249.247 92.6502 249.344 93.2529C245.273 92.0216 237.71 90.1948 233.554 91.8558C229.581 93.4431 229.081 100.785 228.94 104.356C228.905 105.258 229.032 106.342 229.165 107.466C229.389 109.375 229.627 111.403 229.108 112.869C228.708 113.999 228.721 114.333 228.748 114.415C228.679 114.375 228.367 114.363 227.225 115.182C226.716 115.547 226.162 115.837 225.606 116.128C224.942 116.475 224.275 116.825 223.676 117.304C222.082 118.582 221.538 119.995 220.886 121.691C220.717 122.128 220.541 122.585 220.338 123.062C219.377 125.325 216.817 127.336 213.96 127.254C214.323 126.599 214.709 125.951 215.094 125.305C217.14 121.868 219.156 118.483 217.616 114.393C216.262 110.795 218.563 106.586 220.449 103.139L220.56 102.937C220.675 102.725 221.004 102.255 221.446 101.624C223.414 98.8166 227.611 92.828 225.082 92.3191C223.284 91.9568 219.406 99.4157 217.972 102.174C217.802 102.501 217.666 102.763 217.573 102.937C215.11 101.282 214.004 99.2421 215.899 96.7499C216.569 95.8684 217.31 95.046 218.052 94.2215C218.923 93.2555 219.795 92.2869 220.56 91.2178C221.234 90.2752 221.903 89.2786 222.581 88.2696C224.217 85.835 225.904 83.3247 227.835 81.3051C232.635 76.2887 241.013 72.8735 247.923 72.843C247.769 74.7972 247.993 76.6748 248.221 78.5777C248.404 80.1142 248.59 81.6669 248.579 83.29ZM228.765 114.437C228.767 114.434 228.763 114.424 228.748 114.415C228.755 114.436 228.763 114.44 228.765 114.437ZM268.072 163.441C269.434 160.597 270.624 158.112 271.326 156.856C275.574 149.261 279.78 141.73 283.762 133.994C280.604 135.191 277.929 137.025 275.219 138.884C274.81 139.164 274.401 139.445 273.988 139.724C272.561 140.692 271.003 141.565 269.438 142.443C267.087 143.761 264.718 145.09 262.742 146.762C262.295 147.14 261.933 147.559 261.588 147.959C260.799 148.872 260.1 149.682 258.677 149.668C257.704 149.659 256.327 148.66 255.096 147.768C254.379 147.248 253.711 146.764 253.201 146.532C252.198 146.075 251.37 145.478 250.552 144.887C249.629 144.221 248.718 143.564 247.579 143.125C246.871 142.852 246.292 142.761 245.758 142.677C244.857 142.535 244.085 142.413 243.04 141.468C242.366 145.426 233.004 143.562 226.931 142.352C224.915 141.95 223.26 141.621 222.407 141.601C222.083 141.594 221.747 141.584 221.401 141.574C218.366 141.486 214.595 141.377 211.951 142.505C209.926 143.369 207.532 145.321 205.455 147.014C204.653 147.669 203.898 148.284 203.23 148.783C199.935 151.245 197.586 154.384 195.16 157.793C192.047 162.165 196.695 161.744 200.05 161.439C200.281 161.418 200.506 161.398 200.722 161.38C208.367 160.735 215.795 162.014 223.165 163.75C229.747 165.299 235.734 167.679 242.035 170.193C243.202 170.658 245.323 171.753 247.716 172.987C252.594 175.503 258.599 178.602 259.953 178.143C261.241 177.706 265.072 169.704 268.072 163.441Z" fill="#FF5678"/>
<path fill-rule="evenodd" clip-rule="evenodd" d="M310.786 114.174C313.439 114.039 316.081 114.628 318.734 114.371C316.43 112.377 314.127 110.384 311.823 108.39C310.806 110.166 310.731 112.186 310.786 114.174ZM247.834 73.183C240.966 73.2131 232.588 76.6411 227.817 81.6478C225.289 84.3011 223.2 87.8644 221.062 90.8453C219.629 92.8457 218.229 94.7761 216.488 96.5339C213.95 99.0955 214.677 99.6811 217.536 101.61C218.441 99.9247 223.24 90.9137 225.251 91.3189C228.307 91.9356 222.405 101.453 221.761 102.639C219.851 106.148 216.768 111.048 218.154 114.748C219.981 119.632 217.331 122.416 215.029 126.578C217.446 126.647 217.684 125.711 218.517 123.662C219.587 121.03 220.754 118.83 223.016 117.01C224.768 115.601 227.634 115.007 228.456 113.305C229.474 111.202 228.836 107.048 228.918 104.708C229.043 101.152 229.053 92.7461 232.995 91.1661C237.127 89.5108 244.555 91.0707 248.593 92.2968C248.089 89.1631 246.498 87.1166 246.52 83.6341C246.544 79.9889 247.554 76.737 247.834 73.183ZM195.072 131.337C198.665 130.206 202.07 129.015 205.767 128.245C209.635 127.439 209.893 126.517 212.074 123.22C213.727 120.721 215.732 118.774 215.263 115.714C214.963 113.75 213.882 112.794 214.207 110.587C214.409 109.219 215.051 107.725 215.515 106.424C216.085 104.828 217.264 103.017 214.521 102.939C213.006 102.895 212.932 103.689 211.907 105.022C210.015 107.486 207.837 109.722 205.824 112.085C202.327 116.187 198.619 120.551 194.716 124.348C190.419 128.525 186.71 133.563 183.933 138.912C183.419 139.899 180.3 145.716 181.631 146.857C182.853 147.905 189.65 145.461 190.889 145.176C196.238 143.942 202.31 143.502 207.363 141.26C209.939 140.118 215.621 138.755 217.654 136.988C219.545 135.346 219.46 131.367 218.363 129.052C215.292 130.951 193.093 138.113 195.072 131.337ZM261.906 98.6902C265.491 95.4726 269.728 92.8913 274.154 90.9785C278.113 89.2678 283.031 87.3607 287.436 87.6577C292.924 88.0272 290.631 92.4202 290.611 96.1608C290.586 101.125 288.396 108.275 294.361 110.851C296.307 103.978 300.411 87.725 310.242 96.7308C312.754 90.1224 321.715 87.8857 328.025 86.672C326.881 83.333 323.407 80.3107 321 77.8046C317.987 74.6698 315.61 70.9956 312.592 67.9199C306.631 61.8457 295.831 63.7963 288.283 65.3106C285.764 65.8153 278.461 66.4496 277.241 68.2883C276.475 69.4414 276.903 72.2585 276.335 73.6686C275.554 75.6109 274.218 77.4118 273.147 79.2059C269.238 85.7526 265.26 92.3419 258.57 96.0908L261.906 98.6902ZM283.783 133.96C280.243 135.309 277.64 137.566 274.5 139.467C270.694 141.771 266.23 143.93 262.814 146.776C261.564 147.817 260.861 149.615 259.136 149.732C257.636 149.833 255.349 148.101 254.018 147.495C251.786 146.477 249.654 144.934 247.411 144.026C245.568 143.281 244.752 143.433 243.157 141.983C242.262 147.274 225.987 142.328 222.573 142.247C219.414 142.173 215.081 142.545 212.141 143.806C209.34 145.009 207.15 147.654 204.752 149.456C201.466 151.928 198.33 154.428 195.91 157.85C192.59 162.541 197.599 161.214 200.939 160.93C208.563 160.282 215.979 162.087 223.329 163.829C229.898 165.385 236.387 167.252 242.676 169.776C246.212 171.196 249.935 172.501 253.261 174.345C255.015 175.319 257.859 177.7 259.872 177.014C261.717 176.385 263.556 171.128 264.675 169.028C266.848 164.952 269.133 160.945 271.377 156.909C275.614 149.285 279.811 141.726 283.783 133.96ZM240.227 234.86C242.409 233.615 245.965 233.951 248.377 233.429C251.102 232.84 253.843 231.879 256.442 230.878C259.074 229.864 261.561 228.827 263.966 227.558C265.066 226.978 266.532 226.407 267.548 225.602C268.367 224.954 268.665 223.748 269.421 223.16C271.391 221.625 271.97 222.588 272.235 219.626C272.521 216.408 270.704 214.586 268.443 212.178C266.418 210.023 263.789 208.16 261.245 206.644C260.119 205.974 258.917 205.219 257.769 204.579C256.031 203.61 253.703 201.999 252.792 204.079C254.69 204.561 255.109 206.971 253.395 207.837C252.454 208.312 251.029 207.614 249.968 208.119C248.33 208.9 246.754 211.078 245.352 212.25C240.749 216.101 236.348 217.545 230.323 217.854C217.735 218.5 204.553 217.072 192.207 215.219C189.029 214.741 185.857 215.258 182.65 215.144C179.529 215.034 176.276 214.355 173.208 213.831C167.3 212.823 161.072 211.993 155.256 210.509C148.221 208.714 141.163 206.392 134.558 203.385C128.223 200.5 121.062 195.734 113.947 195.367C116.983 198.321 121.533 199.46 125.186 201.406C128.171 202.995 132.839 204.016 134.725 206.636C135.953 208.341 136.569 211.472 137.497 213.472C138.522 215.684 139.468 217.932 140.418 220.178C141.372 222.437 142.365 224.698 143.14 227.025C143.619 228.468 143.826 231.462 144.958 232.449C146.765 234.024 152.813 234.723 155.248 235.247C159.794 236.226 164.98 236.096 169.617 236.164C171.533 236.192 173.465 236.452 175.296 236.487C177.867 236.536 177.622 236.094 177.586 233.875C177.564 232.543 177.591 230.12 179.384 231.217C180.606 231.965 179.765 235.276 179.539 236.453C189.775 237.466 200.454 237.976 210.642 237.637C220.66 237.303 230.331 236.019 240.227 234.86ZM286.452 211.511C288.259 198.622 290.459 185.519 292.923 172.798C295.412 159.942 298.406 147.204 301.772 134.397C299.549 133.868 297.325 133.34 295.101 132.812C295.018 135.51 294.1 137.854 293.708 140.54C293.168 144.248 292.135 147.848 291.517 151.543C290.342 158.567 288.165 165.441 286.248 172.291C284.293 179.274 283.64 186.468 281.844 193.487C280.364 199.269 279.608 205.638 278.782 211.582C276.777 226.003 273.92 240.451 271.746 254.879C269.707 268.406 269.502 282.208 269.62 295.861C269.692 304.197 270.971 312.508 270.905 320.856C270.888 322.919 271.063 324.976 271.171 327.035C271.247 328.489 270.461 332.518 271.127 333.735C271.549 334.506 273.361 335.217 274.003 336.287C275.017 337.98 275.231 340.005 276.861 341.286C278.182 335.992 277.557 329.004 277.269 323.6C276.989 318.394 277.532 313.013 277.639 307.727C277.847 297.358 278.4 287.14 278.935 276.765C279.522 265.387 281.189 253.732 282.819 242.44C284.3 232.173 285.288 221.723 286.452 211.511ZM238.111 49.8808C237.395 49.814 236.679 49.7482 235.962 49.6818C236.069 51.1816 235.75 53.6105 236.814 54.3931C237.621 54.9859 239.253 54.7911 240.23 54.9802C243.433 55.6026 247.145 56.1234 250.324 54.9895C251.56 54.549 250.767 53.8593 252.468 54.1459C254.517 54.492 253.769 54.8144 254.361 56.0846C254.816 57.065 255.051 58.7337 255.568 59.9112C256.261 61.4861 257.665 64.3052 257.065 66.1242C256.482 67.8924 254.305 68.4267 253.381 70.4291C252.693 71.918 252.855 74.0821 252.498 75.7218C252.021 77.9087 251.418 80.0874 251.152 82.3147C250.817 85.1209 250.932 88.4138 254.431 88.8485C257.678 89.2533 259.999 88.2163 262.177 85.8661C266.335 81.3798 271.084 75.0471 273.527 69.4036C273.812 68.7444 274.514 67.6442 274.416 66.9383C274.223 65.5422 274.138 66.9554 273.693 65.9858C273.268 65.0587 272.601 64.2176 272.209 63.189C270.798 59.4935 269.798 55.6197 269.233 51.7076C268.976 49.9352 268.89 48.1847 268.935 46.3952C268.949 45.7842 269.318 43.9497 269.098 43.531C268.874 43.1071 267.703 42.9117 267.339 42.4909C266.662 41.711 265.501 39.509 264.752 38.925C263.831 38.2077 261.769 38.7762 261.395 37.349C260.796 35.0657 274.966 31.3464 268.346 28.2994C263.404 26.0244 255.823 37.5247 254.095 28.4753C253.795 26.9078 254.366 24.7801 253.674 23.3436C252.909 21.7559 250.828 21.1623 249.374 20.3897C247.518 19.4047 245.644 18.3922 243.841 17.3133C242.604 16.5739 240.822 14.6104 239.506 14.4305C240.024 17.0958 239.031 19.7376 239.014 22.3976C241.865 21.6308 243.828 21.6145 246.642 22.9781C247.982 23.6269 253.032 27.3098 250.474 29.0812C248.401 27.8636 246.184 26.8075 243.873 26.0915C242.962 25.8088 241.824 25.4244 240.854 25.4049C238.604 25.3599 238.921 25.5938 238.076 27.2798C237.262 28.904 237.437 33.14 235.649 34.1771C233.8 35.2497 235.226 33.7485 233.647 34.0951C232.747 34.2931 231.766 34.9584 230.941 35.3341C232.071 36.5525 234.35 37.6646 235.099 39.0177C236.192 40.9906 235.813 45.0706 235.984 47.2291C237.415 46.7202 238.92 46.6994 240.37 46.3216C241.733 45.9656 243.623 44.4265 243.766 46.6896C243.924 49.2113 239.912 49.8808 238.111 49.8808ZM256.728 116.279C256.839 114.1 256.961 111.921 257.205 109.751C257.37 108.294 258.763 104.067 257.976 102.787C257.12 101.394 254.251 101.306 252.87 100.971C250.224 100.33 247.686 99.8055 244.996 99.3821C242.522 98.9929 240.192 98.911 237.699 98.798C234.984 98.6762 234.312 97.9606 233.711 100.933C233.24 103.271 232.607 105.706 232.519 108.099C232.436 110.345 233.12 112.295 230.879 113.809C235.798 113.809 242.205 109.456 246.694 113.348C253.116 118.914 241.941 120.518 238.994 121.746C241.444 122.929 245.08 123.859 246.233 126.561C247.527 129.59 245.65 130.877 242.776 131.12C243.047 132.288 244.081 133.046 244.389 134.45C244.84 136.507 243.377 135.826 245.245 137.419C247.704 139.514 252.767 140.916 255.783 142.251C256.489 142.565 257.204 142.859 257.927 143.135C259.057 144.134 259.891 143.944 260.43 142.563C261.977 141.59 263.355 139.418 264.727 138.155C267.781 135.345 271.151 132.878 274.78 130.849C273.275 130.23 271.476 131.629 270.033 130.948C268.866 130.398 269.306 129.396 268.607 128.646C268.887 127.668 268.591 127.31 267.72 127.573C267.284 127.619 266.879 127.546 266.504 127.353C265.774 126.454 265.446 126.16 265.397 124.772C265.346 123.299 266.205 122.779 266.534 121.6C267.605 120.875 267.581 120.162 266.461 119.463C266.001 118.716 265.75 117.905 265.708 117.029C265.495 113.781 268.479 112.471 270.755 110.753C266.68 110.307 266.836 105.558 269.655 103.482C272.578 101.329 278.765 102.211 282.299 102.696C283.034 102.796 285.019 103.738 285.762 103.138C286.218 102.77 285.896 99.6578 285.917 99.1084C285.965 97.8616 286.27 96.3748 286.07 95.1342C285.652 92.5368 286.538 93.8448 284.657 93.7728C280.179 93.6002 274.476 97.4848 270.537 99.3163C266.127 101.366 263.293 101.681 263.247 106.765C263.203 111.578 261.845 116.373 261.252 121.11C260.993 123.178 260.808 133.925 256.998 129.959C255.521 128.421 256.467 126.055 256.577 124.158C256.727 121.548 256.638 118.897 256.728 116.279ZM10.3826 277.393C12.563 277.778 16.1132 276.534 18.4917 276.403C22.65 276.176 26.9325 275.783 31.0068 274.923C34.1941 274.25 37.8263 273.658 39.5451 270.592C41.0819 267.852 41.6248 264.42 42.4524 261.43C42.892 259.842 44.0262 257.54 44.0257 255.898C44.0252 253.762 43.7357 254.183 41.4949 253.014C38.6586 251.535 35.8989 249.474 32.8393 248.635C31.9137 248.455 30.9875 248.28 30.0608 248.107C28.862 247.416 28.1856 247.756 28.0286 249.125C26.8584 250.352 26.1727 252.612 25.1907 254.045C22.9525 257.314 20.2945 259.542 16.8219 261.428C10.573 264.819 4.7506 267.437 -1.94213 269.655C-5.63059 270.877 -9.03171 272.592 -12.6369 273.939C-15.5252 275.019 -19.5114 275.347 -21.7301 277.75C-24.2334 280.461 -20.3856 281.446 -18.247 283.279C-16.4946 284.781 -16.4605 285.125 -14.0634 284.396C-12.2776 283.853 -10.6944 282.814 -8.97956 282.11C-3.10504 279.699 4.00488 278.094 10.3826 277.393ZM144.635 320.391C142.446 319.921 140.256 319.45 138.067 318.98C140.22 322.975 144.748 328.819 141.498 333.442C140.283 335.169 138.263 335.662 136.458 336.538C134.274 337.599 132.257 338.957 130.192 340.221C121.676 345.432 113.021 350.715 104.048 355.187C106.857 356.088 111.176 356.711 114.069 355.926C117.438 355.012 120.558 352.912 124.016 351.994C130.221 350.349 136.752 348.947 143.057 348.103C148.209 347.413 161.108 348.972 160.481 341.271C159.886 333.96 155.492 326.984 154.184 319.755C150.975 320.464 147.914 320.34 144.635 320.391ZM275.131 203.365C277.626 191.194 279.117 178.816 282.06 166.732C283.529 160.704 284.563 154.593 285.998 148.564C286.666 145.758 287.17 142.925 287.82 140.125C288.478 137.291 289.895 134.675 290.219 131.744C287.834 132.331 287.282 137.758 286.56 139.8C285.234 143.546 283.787 147.145 282.084 150.732C279.375 156.432 276.501 161.932 273.446 167.459C270.224 173.288 266.822 178.894 262.797 184.217C261.474 185.967 259.68 187.337 258.827 189.256C257.487 192.275 256.923 195.872 255.644 199.013C256.545 199.468 258.874 199.581 259.98 199.798C262.036 200.201 263.477 200.56 265.453 201.531C268.932 203.243 271.856 205.273 274.181 208.353C274.765 206.772 274.918 205.038 275.131 203.365ZM178.136 296.227C178.095 284.505 177.928 272.684 178.121 261.049C178.174 257.818 178.439 254.333 178.911 251.127C179.206 249.111 180.949 244.828 179.804 243.862C178.825 243.036 173.659 243.58 172.392 243.55C169.933 243.494 167.482 243.385 165.019 243.201C165.019 247.545 166.727 252.478 167.52 256.776C168.26 260.784 168.868 264.815 169.479 268.842C170.8 277.562 171.176 286.403 172.611 295.146C173.911 303.074 175.626 310.969 176.571 318.896C177.09 323.247 178.14 327.352 178.956 331.701C179.382 333.968 180.936 343.308 182.893 344.227C183.307 340.876 181.617 336.831 181.314 333.443C181.002 329.945 180.759 326.423 180.189 322.907C179.519 318.78 179.18 314.55 178.923 310.371C178.766 307.814 178.719 305.265 178.496 302.709C178.336 300.855 177.629 298.045 178.136 296.227ZM239.606 139.483C239.688 138.207 236.363 138.258 235.744 136.791C234.488 133.812 237.351 134.348 239.111 134.04C238.484 132.383 226.731 132.986 229.47 128.514C231.369 125.411 238.571 130.16 240.496 127.211C241.761 125.275 238.318 125.008 236.952 124.814C234.898 124.521 230.057 125.467 230.216 122.817C230.417 119.488 239.828 117.19 242.468 116.213C242.175 113.933 230.849 117.173 229.21 118.097C225.5 120.189 222.658 123.942 222.113 128.113C221.479 132.965 223.956 136.787 228.833 137.978C230.867 138.475 232.37 138.53 234.251 139.276C235.49 139.767 239.497 140.991 240.345 139.753C240.099 139.663 239.853 139.573 239.606 139.483ZM306.096 109.299C306.283 107.227 308.039 103.325 306.016 101.964C303.186 100.058 302.013 103.198 301.372 105.085C300.588 107.388 297.291 113.025 300.174 114.46C300.844 114.794 304.022 114.406 304.583 114.185C306.145 114.59 306.648 114.009 306.096 112.44V109.299ZM237.021 276.654C236.843 270.99 239.395 264.18 240.841 258.633C242.481 252.347 243.344 245.937 245.081 239.72C243.149 239.952 241.199 240.14 239.29 240.525C236.686 241.051 236.639 240.968 236.826 243.507C237.105 247.32 236.74 251.058 236.542 254.869C236.145 262.5 237.112 270.257 236.469 277.839C237.042 277.984 237.226 277.589 237.021 276.654ZM309.13 128.212C315.387 129.164 321.384 131.135 327.078 133.784C330.217 135.244 333.674 136.813 337.181 137.396C341.078 138.044 345.211 137.74 349.19 137.99C350.593 138.078 354.281 138.755 355.649 137.935C357.003 137.123 356.898 135.746 356.961 134.105C357.125 129.884 355.203 125.751 353.474 121.964C351.991 118.715 350.87 116.234 348.568 113.439C345.613 109.849 343.04 105.976 340.272 102.229C338.185 99.4049 336.077 96.621 333.95 93.8002C332.428 91.7802 332.5 91.0852 330.207 91.3112C327.949 91.534 325.675 92.8607 323.548 93.5634C320.391 94.6071 316.568 95.1798 313.689 96.8485C311.828 97.9274 311.745 98.1259 311.766 100.009C311.787 101.762 312.356 103.902 313.411 105.273C315.604 108.121 319.24 109.629 322.359 111.05C324.164 111.871 325.724 113.037 327.33 114.171C329.061 115.393 332.554 116.113 333.878 117.506C337.735 121.562 330.714 120.761 328.753 120.638C324.52 120.373 320.31 120.414 316.046 120.411C311.392 120.408 306.775 120.193 302.186 120.343C299.498 120.431 296.415 119.076 294.673 116.818C293.83 115.724 293.502 114.691 292.399 113.556C290.955 112.07 289.698 110.504 287.941 109.354C285.065 107.473 279.839 106.408 276.415 107.11C277.641 107.28 283.407 109.231 280.869 111.683C280.56 111.981 276.851 112.177 276.045 112.545C274.59 113.208 272.757 114.173 271.903 115.575C274.388 115.162 283.601 114.683 278.901 119.42C277.748 120.583 274.435 121.743 277.254 122.98C277.901 123.264 279.197 122.861 280.03 123.117C281.269 123.499 282.282 124.518 283.443 125.062C286.735 126.605 291.273 127.557 294.708 127.219C299.46 126.75 304.411 127.593 309.13 128.212ZM183.139 270.945C183.301 277.75 183.054 284.595 183.2 291.431C183.356 298.731 184.299 305.886 184.748 313.113C185.151 319.59 186.031 325.944 186.746 332.39C187.158 336.103 187.632 339.654 188.264 343.339C188.856 346.787 188.957 349.826 184.809 350.753C176.878 352.526 175.645 341.188 174.113 336.41C171.825 329.28 170.357 321.796 169.224 314.404C167.113 300.639 164.307 287.065 163.211 273.183C162.537 264.635 161.559 256.174 161.005 247.634C160.896 245.96 161.325 243.382 159.846 242.636C158.957 242.189 156.507 242.185 155.384 241.86C152.256 240.956 149.37 239.625 146.318 238.243C148.484 249.499 149.2 260.7 150.825 272.054C151.687 278.079 153.337 284.323 154.767 290.253C156.248 296.398 156.577 303.015 158.286 309.025C159.039 311.675 159.676 312.755 158.584 315.474C157.244 318.812 158.133 319.611 159.813 322.889C162.905 328.921 165.266 336.039 164.741 342.838C164.314 348.392 160.092 351.299 154.861 352.797C148.319 354.671 141.468 354.449 134.886 356.577C129.152 358.43 123.325 359.8 117.756 362.247C115.511 363.233 113.377 364.404 110.884 364.585C107.464 364.832 105.158 362.86 101.929 362.449C99.91 362.193 96.9543 363.15 95.7913 361.047C94.8694 359.38 95.9123 355.742 97.07 354.4C100.321 350.628 106.832 347.342 111.216 345.117C116.269 342.552 121.158 339.341 125.84 336.031C128.678 334.024 131.572 332.098 134.408 330.087C136.284 328.757 136.996 328.748 136.805 326.634C136.652 324.948 135.888 323.313 135.754 321.586C135.652 320.264 136.118 318.461 135.489 317.598C135.026 316.962 133.29 316.512 132.607 316.03C130.11 314.271 129.543 312.095 128.409 309.42C125.834 303.343 122.875 297.436 120.388 291.31C115.048 278.158 111.789 264.327 107.363 250.906C102.84 237.194 98.7961 222.799 96.3055 208.573C92.9727 209.581 89.8271 214.041 87.1728 216.248C83.587 219.23 79.9127 222.114 76.3963 225.179C70.6323 230.201 64.7959 235.086 60.0326 241.102C57.7376 243.999 55.8587 247.117 53.7811 250.16C52.5812 251.919 51.462 253.909 50.1625 255.582C49.9539 255.85 49.9476 256.402 49.7229 256.63C49.228 257.133 48.2826 256.464 47.9655 256.795C46.0068 258.83 46.0323 264.609 45.4222 267.294C44.5811 270.995 43.6366 275.25 40.7288 277.801C36.2368 281.741 27.953 282.351 22.2683 282.556C14.9727 282.818 7.89567 284.839 0.974011 287.008C-2.2545 288.02 -5.39853 289.204 -8.63903 290.186C-10.5029 290.753 -12.6291 291.88 -14.6195 291.663C-17.0199 291.402 -18.9152 289.395 -20.6735 287.903C-23.4864 285.516 -26.0907 283.164 -25.9976 279.249C-25.8985 275.104 -23.6392 271.976 -20.08 269.917C-13.199 265.936 -5.50282 263.385 1.91425 260.634C4.75634 259.58 7.18958 258.413 9.90704 256.993C13.7472 254.987 18.1674 253.349 21.5747 250.7C22.5791 249.918 26.2712 247.523 26.5857 246.288C26.6269 246.127 25.7044 244.241 25.7002 243.942C25.6913 243.173 26.1497 242.339 26.4318 241.681C28.2064 237.535 31.1831 233.542 33.4588 229.633C37.6265 222.471 41.8104 215.273 46.6425 208.538C56.2779 195.11 67.1019 181.962 78.7842 170.241C84.4793 164.526 89.4006 158.045 95.176 152.409C97.4643 150.177 99.8798 148.359 102.699 146.91C105.842 145.296 109.37 144.979 112.972 144.486C121.702 143.292 128.992 145.858 137.188 148.091C144.936 150.202 152.693 151.982 160.484 154.181C169.041 156.596 177.51 158.912 186.039 161.543C190.597 162.949 195.285 163.812 199.864 165.161C202.069 165.81 210.405 169.878 212.243 168.542C206.452 165.841 200.519 163.38 194.324 161.75C192.499 161.271 191.334 161.802 191.401 159.719C191.438 158.584 192.723 157.051 193.185 156.116C194.292 153.879 195.546 151.691 196.629 149.447C192.701 150.555 182.143 154.391 179.183 150.426C176.086 146.275 178.672 138.137 180.613 134.073C185.681 123.464 194.3 114.611 202.698 106.614C204.515 104.885 208.43 102.627 209.399 100.425C209.693 99.7552 209.052 98.7716 209.716 97.902C210.112 97.3843 211.698 97.0309 212.332 96.4733C214.641 94.4418 216.484 90.1674 218.079 87.5043C219.75 84.7152 221.256 81.6949 223.356 79.1924C226.791 75.1004 230.337 70.7629 235.899 69.8057C238.626 69.3367 241.524 69.587 244.138 68.6506C247.3 67.5182 250.304 65.7345 253.497 64.5617C252.704 62.9438 252.062 60.3703 250.526 60.1936C249.046 60.0231 246.876 61.2871 245.183 61.2777C242.71 61.2643 240.599 60.8714 238.212 60.403C235.57 59.8837 234.7 59.978 233.737 57.1303C232.727 54.1474 232.982 50.6825 232.99 47.584C232.994 46.0703 233.296 44.1907 233.167 42.7044C232.972 40.4651 232.534 40.3791 230.768 38.955C228.561 37.1759 225.84 34.8216 228.544 31.7302C230.004 30.0597 233.006 31.3588 234.3 29.564C235.617 27.7359 235.554 23.1435 235.955 20.9962C231.893 22.9806 233.382 15.5621 233.382 13.7771C233.381 11.1796 231.629 6.50842 234.151 4.34746C235.323 3.34417 236.193 4.17416 237.533 3.59758C239.062 2.93958 240.025 1.21378 241.651 0.544693C244.884 -0.785601 248.185 0.816401 251.503 0.551897C255.311 0.24894 259.05 -0.336089 262.879 0.271068C264.692 0.557752 265.456 1.24244 266.99 2.00993C268.466 2.74805 269.963 2.95 271.566 3.42496C272.993 3.84778 274.243 4.06145 275.207 5.29665C275.969 6.27392 275.659 7.91759 276.428 8.75997C277.187 9.58997 278.688 9.46943 279.592 10.4552C280.46 11.4011 280.98 12.9647 281.431 14.1419C282.041 15.7277 282.112 16.3231 283.186 17.5922C284.122 18.6997 285.47 19.5903 286.251 20.8536C288.091 23.8315 288.138 28.1379 287.551 31.4878C287.351 32.6286 285.688 35.5772 285.948 36.5478C286.196 37.4718 287.756 37.2288 288.463 37.8133C289.073 38.3181 289.61 40.5677 290.092 40.7051C291.132 41.0015 292.414 38.9602 293.203 38.6539C294.572 38.1217 295.145 37.576 295.904 39.5821C296.466 41.0704 295.683 43.091 295.271 44.5115C294.746 46.3201 294.166 48.4982 292.776 49.8658C291.141 51.4734 289.833 50.5944 288.03 51.4604C285.327 52.758 286.124 56.8158 282.799 57.9756C279.63 59.0804 276.138 55.6042 273.741 54.0059C274.238 57.8854 276.107 61.6239 275.21 65.5998C282.498 62.7619 289.707 58.7343 297.651 57.8471C301.701 57.3941 305.793 56.8583 309.616 58.529C314.092 60.4848 316.834 64.7991 319.863 68.3837C325.556 75.1207 331.398 81.6685 336.862 88.6226C341.874 95.0015 346.1 102.392 351.616 108.366C357.21 114.422 361.432 124.249 360.819 132.636C360.764 133.393 360.174 135.113 360.266 135.93C360.338 136.555 360.91 137.348 360.901 137.852C360.87 139.549 360.306 140.527 358.678 141.468C355.856 143.101 351.651 143.928 348.461 144.333C344.224 144.872 339.035 144.93 334.795 144.355C330.423 143.761 326.579 141.329 322.558 139.859C319.031 138.569 315.49 137.764 311.783 136.941C309.739 136.487 307.476 135.23 306.212 136.446C305.053 137.564 304.812 143.3 304.542 144.825C301.609 161.356 298.125 177.327 295.039 193.773C291.541 212.415 289.149 231.05 286.717 249.849C284.506 266.939 283.783 284.221 283.288 301.295C283.053 309.439 283.018 317.496 283.068 325.648C283.097 330.212 285.393 345.448 278.584 346.032C274.582 346.375 271.381 340.674 270.309 337.565C268.698 332.894 267.859 327.864 267.602 322.957C267.083 313.023 266.402 303.082 265.998 293.144C265.562 282.378 266.117 271.412 267.008 260.681C267.904 249.878 270.163 239.233 270.855 228.414C268.777 231.361 268.112 231.915 264.651 233.198C261.028 234.542 257.544 236.132 253.889 237.385C252.646 237.811 250.705 238.078 249.686 238.776C247.805 240.063 249.04 238.602 248.44 241.108C247.798 243.785 247.677 246.999 247.507 249.749C246.706 262.658 243.108 275.476 241.448 288.317C241.047 291.417 241.619 304.579 236.25 300.431C232.115 297.236 232.197 287.203 231.608 282.503C230.825 276.238 231.262 269.797 231.385 263.494C231.526 256.316 231.648 248.788 233.371 241.779C230.287 241.255 225.998 242.683 222.894 242.924C220.207 243.132 217.528 243.264 214.856 243.41C208.483 243.758 201.918 244.035 195.437 243.91C194.256 243.888 186.549 242.815 185.564 243.68C185.244 243.961 185.146 247.823 185.086 248.295C184.859 250.069 184.552 251.842 184.322 253.607C183.59 259.248 182.929 265.306 183.139 270.945Z" fill="black"/>
<path fill-rule="evenodd" clip-rule="evenodd" d="M297.605 324.556C302.47 326.445 307.632 327.131 312.537 328.852C316.922 330.39 320.995 332.459 325.313 334.022C325.565 332.032 325.7 328.661 324.96 326.785C323.913 324.128 321.157 324.063 318.443 323.117C311.838 320.814 304.89 320.329 298.333 317.638C299.455 319.786 298.954 322.629 297.605 324.556ZM381.57 317.609C371.065 317.916 361.026 320.345 350.673 321.847C345.634 322.578 340.592 323.231 335.549 323.913C333.609 324.175 330.072 323.866 328.661 325.535C327.492 326.918 328.773 331.638 328.254 333.665C330.377 333.821 334.147 331.85 336.452 331.523C340.041 331.016 343.582 330.306 347.208 330.08C352.95 329.72 358.592 329.415 364.325 328.779C370.155 328.134 375.796 326.933 381.672 326.495C384.528 326.281 385.678 326.814 385.846 323.817C385.912 322.645 386.074 320.684 385.743 319.528C386.271 318.108 385.802 317.419 384.336 317.459C383.406 317.355 382.484 317.405 381.57 317.609ZM361.252 308.045C364.093 307.781 366.945 307.401 369.793 307.242C370.371 307.209 373.3 307.385 373.778 306.851C374.456 306.096 373.701 303.335 373.577 302.481C373.155 299.577 372.688 297.887 369.5 297.881C366.808 297.874 364.023 298.44 361.342 298.701C349.174 299.886 337.068 300.386 325.034 302.637C325.767 305.737 326.598 308.935 325.722 312.105C331.495 312.401 337.833 311.297 343.474 310.165C349.241 309.007 355.359 308.433 361.252 308.045ZM341.993 278.86C337.646 278.879 333.051 280.782 328.761 280.358C328.697 281.151 330.07 280.493 330.449 281.235C331.259 281.237 331.541 281.499 331.294 282.024C331.309 282.382 331.125 282.592 330.741 282.652C330.552 282.669 330.363 282.685 330.175 282.701C329.345 282.728 329.209 283.283 329.767 284.37C329.527 285.717 329.887 287.427 329.939 288.778C337.648 287.736 345.138 286.651 352.902 286.186C356.567 285.966 360.229 285.967 363.89 285.667C367.918 285.337 372.314 286.045 376.251 285.295C378.357 284.894 378.136 284.922 377.983 282.202C377.889 280.549 377.924 278.587 376.57 277.382C374.308 275.369 369.159 276.532 366.455 276.603C358.311 276.817 350.029 277.569 341.993 278.86ZM346.443 317.707C358.09 316.656 369.648 314.353 381.36 314.353C380.532 313.531 378.728 313.319 377.698 312.871C376.523 312.36 375.413 311.271 374.265 310.824C371.961 309.927 369.615 311.173 367.248 311.711C361.539 313.011 355.68 313.055 349.961 314.33C344.049 315.646 338.06 316.861 332.038 317.531C329.171 317.849 326.095 318.496 323.262 317.743C323.032 317.58 322.801 317.416 322.571 317.253C322.324 316.205 321.636 315.926 320.509 316.414C319.077 316.143 317.254 316.493 315.812 316.528C315.753 317.1 321.079 318.895 322.095 319.34C324.541 320.41 326.2 321.194 328.813 320.735C334.697 319.702 340.485 318.47 346.443 317.707ZM305.475 283.87C305.93 285.633 307.841 284.831 309.487 285.025C311.695 285.285 313.892 286.042 316.031 286.613C319.916 287.651 323.802 288.674 327.669 289.77C327.517 288.218 327.863 284.684 327.037 283.306C326.171 281.862 322.064 281.23 320.152 280.789C315.331 279.681 310.181 280.311 305.284 280.545C305.371 281.652 305.435 282.76 305.475 283.87ZM351.781 294.901C356.355 294.516 360.934 294.216 365.521 294.056C370.766 293.873 366.954 293.041 366.843 289.862C359.95 290.955 352.997 291.17 346.125 292.104C340.433 292.879 333.651 294.901 327.845 293.815C325.106 293.303 322.31 293.105 319.396 292.816C316.647 292.543 314.054 291.27 311.339 290.954C308.291 290.599 305.177 292.302 302.145 292.751C300.86 292.942 300.562 293.808 299.955 292.271C299.326 290.676 301.128 289.374 301.838 288.42C302.666 287.306 302.322 289.115 302.783 287.375C302.911 286.888 302.562 285.664 302.498 285.139C302.335 283.812 301.915 282.371 301.85 281.047C301.79 279.83 301.779 277.973 303.108 277.263C303.919 276.829 304.495 277.461 305.202 277.339C310.722 276.385 317.214 276.307 322.812 277.227C328.881 278.225 334.104 275.584 340.085 274.512C347.102 273.256 354.193 273.068 361.27 272.536C367.322 272.083 378.379 269.729 380.684 277.41C381.337 279.587 382.288 285.579 380.532 287.43C378.227 289.862 372.89 289.086 369.91 289.718C370.356 290.978 371.683 291.835 371.224 293.336C375.4 293.532 376.139 297.452 376.793 301.112C377.47 304.899 376.15 306.404 379.791 308.376C384.866 311.124 390.243 313.899 390.143 320.444C390.094 323.734 389.723 328.697 386.323 330.404C382.997 332.074 377.581 331.792 373.916 332.398C366.817 333.573 359.694 334.951 352.552 335.656C344.948 336.407 337.217 337.024 329.599 337.359C325.449 337.543 321.864 338.166 317.856 336.778C313.915 335.414 310.06 334.417 305.994 333.404C301.98 332.405 289.693 331.059 293.273 324.237C293.846 323.146 295.805 322.278 296.121 321.246C296.631 319.581 294.908 318.282 294.98 316.777C295.111 314.024 298.236 313.679 300.394 313.679C296.695 311.38 301.648 308.659 301.619 306.707C301.567 303.268 297.264 301.036 297.02 298.154C296.428 291.139 318.82 298.443 322.267 299.961C319.614 303.87 307.307 300.487 303.641 299.894C304.142 301.2 304.62 302.373 304.764 303.709C304.882 304.798 304.463 306.043 304.846 307.139C305.451 308.872 305.43 308.54 307.572 309.013C309.156 309.362 310.723 309.766 312.302 310.137C314.728 310.705 318.543 312.231 320.947 312.148C323.055 312.075 322.639 312.725 323.025 310.398C323.233 309.147 322.878 307.818 322.666 306.593C322.223 304.026 321.576 301.596 323.832 299.754C325.983 297.997 330.518 297.161 333.157 296.541C339.013 295.166 345.773 294.83 351.781 294.901Z" fill="black"/>
<path fill-rule="evenodd" clip-rule="evenodd" d="M379.65 251.081C373.289 250.021 366.827 249.761 360.392 250.081C360.74 251.664 361.089 253.246 361.439 254.828C367.467 253.285 373.583 252.381 379.65 251.081ZM327.931 263.356C325.38 263.171 327.155 264.304 327.785 265.964C328.559 268.002 328.393 270.579 328.57 272.724C336.033 269.897 344.717 268.241 352.652 267.289C356.415 266.838 360.232 266.709 364.016 266.516C365.135 266.459 369.174 266.924 369.993 266.177C370.6 265.621 370.174 262.553 369.59 261.875C366.414 258.196 354.137 261.373 349.696 261.703C342.413 262.243 335.264 263.536 327.931 263.356ZM338.53 253.498C345.139 254.128 351.519 254.068 358.128 255.052C357.627 250.878 358.226 249.813 353.46 249.591C349.214 249.394 344.981 249.234 340.754 249.236C331.249 249.241 321.767 249.061 312.251 249.061V253.303C321.052 252.408 329.713 254.025 338.53 253.498ZM306.754 269.098C310.924 269.08 314.866 270.644 319.037 271.049C321.533 271.292 320.749 271.599 322.481 272.845C325.178 274.785 325.955 273.752 325.617 271.115C324.471 262.197 313.108 264.197 306.56 263.701C306.99 265.828 306.001 267.631 304.544 269.098H306.754ZM351.832 257.648C345.833 257.744 339.828 258.083 333.871 257.959C331.204 257.904 327.75 257.379 325.137 257.831C323.223 258.161 321.622 259.13 319.522 259.49C322.606 261.141 324.17 260.026 327.412 259.65C330.652 259.275 333.939 259.283 337.192 259.087C342.534 258.765 348.228 257.494 353.491 257.84C353.587 257.103 353.034 257.039 351.832 257.648ZM304.254 276.963C301.501 276.957 305.288 273.846 305.785 273.538C302.738 273.538 302 271.722 302.883 268.804C303.715 266.056 304.33 266.897 302.238 264.608C300.662 262.885 300.424 261.616 302.281 259.689C304.171 257.729 307.998 258.284 309.673 256.666C312.524 253.912 308.845 248.427 312.795 246.318C315.466 244.892 319.77 245.069 322.718 244.768C325.567 244.476 328.517 244.42 331.385 244.381C337.638 244.297 344.133 245.339 350.358 245.912C352.628 246.121 355.179 247.032 357.415 247.034C359.696 247.036 362.084 246.531 364.439 246.59C367.176 246.658 369.813 246.458 372.635 246.904C374.798 247.246 379.848 247.426 381.501 249.024C387.009 254.348 373.947 256.793 371.699 257.391C373.987 259.881 373.892 263.173 373.547 266.308C374.636 266.308 376.513 265.837 377.076 267.05C377.776 268.557 375.185 268.949 374.573 269.124C371.049 270.136 366.924 269.859 363.292 270.226C356.032 270.96 348.859 271.384 341.674 272.751C338.172 273.417 334.691 274.241 331.192 274.89C330.588 275.002 329.981 275.092 329.37 275.16C328.434 275.08 328.131 275.664 328.461 276.914C327.49 277.386 323.869 276.211 322.749 276.031C316.339 274.998 310.604 275.427 304.254 276.963Z" fill="black"/>
<path fill-rule="evenodd" clip-rule="evenodd" d="M433.696 338.822C429.562 342.055 425.718 345.106 421.241 347.915C424.406 347.817 434.932 342.801 433.696 338.822ZM432.082 333.552C429.825 331.625 427.583 331.822 424.79 331.238C422.218 330.7 419.719 329.774 417.152 329.157C415.137 328.674 413.144 328.02 411.137 327.562C408.302 326.917 408.023 327.628 405.416 329.103C396.172 334.339 385.827 337.94 376.091 342.189C378.95 344.69 385.38 344.798 388.953 345.596C391.562 346.177 394.044 346.973 396.543 347.894C398.87 348.753 402.618 350.727 405.072 350.793C407.143 350.848 408.826 348.823 410.609 347.732C412.955 346.296 415.29 344.886 417.654 343.486C422.657 340.524 427.334 336.894 432.082 333.552ZM390.305 354.758C389.238 353.738 386.026 353.782 384.688 353.471C382.052 352.859 379.455 352.223 376.784 351.763C372.45 351.018 365.604 350.685 365.133 345.097C364.741 340.453 370.387 339.351 373.689 337.778C378.655 335.411 383.722 333.227 388.814 331.14C393.589 329.184 398.433 327.529 403.294 325.839C404.242 325.509 405.012 325.555 405.786 324.8C406.396 324.205 406.208 323.05 406.877 322.428C408.409 321.004 410.398 321.754 412.239 322.119C416.421 322.948 420.763 324.036 424.749 325.574C428.893 327.171 432.598 327.505 433.593 332.173C435.712 331.185 437.305 331.041 437.052 333.943C436.978 334.796 436.355 335.724 436.205 336.603C435.985 337.9 436.37 339.267 436.152 340.567C435.36 345.294 428.946 348.795 424.972 350.651C420.072 352.939 413.749 356.321 408.277 356.767C402.447 357.244 396.093 354.968 390.305 354.758Z" fill="black"/>
<path fill-rule="evenodd" clip-rule="evenodd" d="M316.094 276.34C314.356 276.351 312.617 276.362 310.879 276.373C312.614 276.048 314.353 276.045 316.094 276.34Z" fill="black"/>
<path fill-rule="evenodd" clip-rule="evenodd" d="M214.405 93.5721C213.883 94.4355 213.362 95.2989 212.84 96.1633C213.018 95.0501 213.415 94.0961 214.405 93.5721Z" fill="black"/>
<path fill-rule="evenodd" clip-rule="evenodd" d="M316.094 301.109C317.139 301.119 318.184 301.127 319.223 301.136C318.176 301.129 317.135 301.119 316.094 301.109Z" fill="black"/>
<path fill-rule="evenodd" clip-rule="evenodd" d="M340.082 244.734C338.865 244.669 337.649 244.603 336.432 244.537C337.649 244.603 338.865 244.669 340.082 244.734Z" fill="black"/>
<path fill-rule="evenodd" clip-rule="evenodd" d="M319.223 276.366C318.179 276.356 317.136 276.346 316.094 276.337C317.141 276.052 318.184 276.062 319.223 276.366Z" fill="black"/>
<path fill-rule="evenodd" clip-rule="evenodd" d="M360.725 129.33C360.696 128.293 360.666 127.256 360.637 126.221C360.667 127.258 360.696 128.293 360.725 129.33Z" fill="black"/>
<path fill-rule="evenodd" clip-rule="evenodd" d="M183.409 285.835C183.387 284.971 183.365 284.107 183.344 283.244C183.366 284.109 183.387 284.972 183.409 285.835Z" fill="black"/>
<path fill-rule="evenodd" clip-rule="evenodd" d="M211.797 243.598C212.495 243.598 213.191 243.6 213.883 243.601C213.185 243.601 212.491 243.599 211.797 243.598Z" fill="black"/>
<path fill-rule="evenodd" clip-rule="evenodd" d="M305.143 57.4614C304.274 57.5243 303.404 57.5866 302.535 57.6495C303.405 57.5866 304.274 57.5243 305.143 57.4614Z" fill="black"/>
<path fill-rule="evenodd" clip-rule="evenodd" d="M370.85 246.719C369.807 246.713 368.763 246.706 367.721 246.699C368.763 246.706 369.807 246.713 370.85 246.719Z" fill="black"/>
<path fill-rule="evenodd" clip-rule="evenodd" d="M283.019 310.71C282.993 310.018 282.966 309.325 282.941 308.637C282.967 309.33 282.993 310.02 283.019 310.71Z" fill="black"/>
<path fill-rule="evenodd" clip-rule="evenodd" d="M284.051 284.28C284.032 283.589 284.013 282.897 283.995 282.208C284.014 282.899 284.033 283.59 284.051 284.28Z" fill="black"/>
<path fill-rule="evenodd" clip-rule="evenodd" d="M266.255 296.2C266.28 296.892 266.305 297.584 266.33 298.273C266.305 297.58 266.28 296.891 266.255 296.2Z" fill="black"/>
<path fill-rule="evenodd" clip-rule="evenodd" d="M215.969 243.092C216.493 243.085 217.015 243.078 217.533 243.07C217.009 243.078 216.489 243.085 215.969 243.092Z" fill="black"/>
<path fill-rule="evenodd" clip-rule="evenodd" d="M367.199 270.063C367.723 270.041 368.245 270.018 368.764 269.995C368.239 270.018 367.719 270.041 367.199 270.063Z" fill="black"/>
<path fill-rule="evenodd" clip-rule="evenodd" d="M267.29 312.783C267.321 313.475 267.35 314.167 267.38 314.856C267.35 314.162 267.321 313.473 267.29 312.783Z" fill="black"/>
<path fill-rule="evenodd" clip-rule="evenodd" d="M323.187 309.155C323.152 309.848 323.116 310.54 323.081 311.228C323.116 310.536 323.152 309.846 323.187 309.155Z" fill="black"/>
<path fill-rule="evenodd" clip-rule="evenodd" d="M263.082 0.367895C262.346 0.27438 261.608 0.181642 260.871 0.0881267C261.602 0.256455 262.402 -0.367761 263.082 0.367895Z" fill="black"/>
<path fill-rule="evenodd" clip-rule="evenodd" d="M231.383 266.142C231.363 266.834 231.343 267.526 231.323 268.215C231.342 267.522 231.363 266.832 231.383 266.142Z" fill="black"/>
<path fill-rule="evenodd" clip-rule="evenodd" d="M186.559 329.366C186.523 328.675 186.487 327.984 186.451 327.294C186.487 327.985 186.523 328.676 186.559 329.366Z" fill="black"/>
<path fill-rule="evenodd" clip-rule="evenodd" d="M355.205 271.082C355.729 271.071 356.252 271.059 356.77 271.05C356.245 271.061 355.725 271.071 355.205 271.082Z" fill="black"/>
<path fill-rule="evenodd" clip-rule="evenodd" d="M178.156 145.395C178.16 146.087 178.164 146.779 178.167 147.468C178.162 146.775 178.159 146.085 178.156 145.395Z" fill="black"/>
<path fill-rule="evenodd" clip-rule="evenodd" d="M167.214 300.864C167.212 301.556 167.21 302.249 167.206 302.937C167.208 302.244 167.211 301.554 167.214 300.864Z" fill="black"/>
<path fill-rule="evenodd" clip-rule="evenodd" d="M297.186 296.718C297.168 297.41 297.149 298.102 297.13 298.791C296.844 298.08 296.876 297.392 297.186 296.718Z" fill="black"/>
<path fill-rule="evenodd" clip-rule="evenodd" d="M283.51 293.609C283.504 292.917 283.499 292.225 283.493 291.536C283.499 292.229 283.504 292.918 283.51 293.609Z" fill="black"/>
<path fill-rule="evenodd" clip-rule="evenodd" d="M390.145 354.997C390.668 355.012 391.192 355.026 391.709 355.04C391.184 355.026 390.664 355.012 390.145 354.997Z" fill="black"/>
<path fill-rule="evenodd" clip-rule="evenodd" d="M371.371 289.213C371.72 289.206 372.07 289.201 372.414 289.194C372.063 289.201 371.718 289.206 371.371 289.213Z" fill="black"/>
<path fill-rule="evenodd" clip-rule="evenodd" d="M358.334 290.759C358.684 290.758 359.032 290.758 359.377 290.757C359.027 290.758 358.68 290.759 358.334 290.759Z" fill="black"/>
<path fill-rule="evenodd" clip-rule="evenodd" d="M155.247 294.127C155.226 293.609 155.205 293.089 155.185 292.572C155.206 293.091 155.227 293.61 155.247 294.127Z" fill="black"/>
<path fill-rule="evenodd" clip-rule="evenodd" d="M368.764 293.734C368.311 294.19 367.728 293.921 367.199 293.95C367.721 293.877 368.243 293.806 368.764 293.734Z" fill="black"/>
<path fill-rule="evenodd" clip-rule="evenodd" d="M306.707 277.153C306.019 277.477 305.323 277.522 304.621 277.176C305.317 277.168 306.012 277.161 306.707 277.153Z" fill="black"/>
<path fill-rule="evenodd" clip-rule="evenodd" d="M352.076 294.913C351.381 294.907 350.685 294.902 349.99 294.895C350.686 294.902 351.382 294.907 352.076 294.913Z" fill="black"/>
<path fill-rule="evenodd" clip-rule="evenodd" d="M322.873 276.861C322.178 276.798 321.482 276.735 320.787 276.672C321.482 276.735 322.178 276.798 322.873 276.861Z" fill="black"/>
<path fill-rule="evenodd" clip-rule="evenodd" d="M163.58 274.434C163.568 274.954 163.554 275.473 163.539 275.989C163.552 275.469 163.566 274.951 163.58 274.434Z" fill="black"/>
<path fill-rule="evenodd" clip-rule="evenodd" d="M283.461 302.419C283.488 301.899 283.515 301.38 283.541 300.864C283.515 301.384 283.488 301.901 283.461 302.419Z" fill="black"/>
<path fill-rule="evenodd" clip-rule="evenodd" d="M355.205 272.533C354.51 272.591 353.815 272.65 353.119 272.708C353.815 272.65 354.51 272.591 355.205 272.533Z" fill="black"/>
<path fill-rule="evenodd" clip-rule="evenodd" d="M183.398 270.807C183.384 270.287 183.369 269.768 183.354 269.252C183.369 269.772 183.384 270.289 183.398 270.807Z" fill="black"/>
<path fill-rule="evenodd" clip-rule="evenodd" d="M270.526 230.903C270.484 231.422 270.443 231.941 270.403 232.458C270.444 231.938 270.485 231.421 270.526 230.903Z" fill="black"/>
<path fill-rule="evenodd" clip-rule="evenodd" d="M365.635 246.585C364.938 246.944 364.244 246.899 363.549 246.581C364.244 246.582 364.94 246.583 365.635 246.585Z" fill="black"/>
<path fill-rule="evenodd" clip-rule="evenodd" d="M283.026 318.484C282.995 317.964 282.964 317.446 282.934 316.929C282.964 317.449 282.995 317.966 283.026 318.484Z" fill="black"/>
<path fill-rule="evenodd" clip-rule="evenodd" d="M283.013 322.629C282.991 322.111 282.968 321.592 282.947 321.075C282.969 321.594 282.991 322.111 283.013 322.629Z" fill="black"/>
<path fill-rule="evenodd" clip-rule="evenodd" d="M184.408 254.223C184.416 253.704 184.423 253.185 184.43 252.669C184.422 253.189 184.416 253.705 184.408 254.223Z" fill="black"/>
<path fill-rule="evenodd" clip-rule="evenodd" d="M332.781 336.895C333.13 336.885 333.48 336.875 333.824 336.866C333.474 336.877 333.128 336.885 332.781 336.895Z" fill="black"/>
<path fill-rule="evenodd" clip-rule="evenodd" d="M164.645 341.286C164.617 340.767 164.589 340.248 164.561 339.731C164.589 340.25 164.617 340.768 164.645 341.286Z" fill="black"/>
<path fill-rule="evenodd" clip-rule="evenodd" d="M277.504 345.68C277.854 345.687 278.203 345.694 278.547 345.702C278.197 345.694 277.85 345.687 277.504 345.68Z" fill="black"/>
<path fill-rule="evenodd" clip-rule="evenodd" d="M353.119 246.269C352.424 246.217 351.729 246.165 351.033 246.112C351.729 246.165 352.424 246.217 353.119 246.269Z" fill="black"/>
<path fill-rule="evenodd" clip-rule="evenodd" d="M356.77 246.817L355.205 246.601L356.77 246.817Z" fill="black"/>
<path fill-rule="evenodd" clip-rule="evenodd" d="M277.721 301.382C277.751 299.827 277.779 298.272 277.809 296.718C277.779 298.273 277.75 299.827 277.721 301.382Z" fill="black"/>
<path fill-rule="evenodd" clip-rule="evenodd" d="M237.062 244.377C237.08 245.587 237.097 246.797 237.116 248.004C237.098 246.793 237.08 245.585 237.062 244.377Z" fill="black"/>
<path fill-rule="evenodd" clip-rule="evenodd" d="M147.133 320.281C146.263 320.292 145.391 320.302 144.526 320.314C145.399 320.303 146.266 320.292 147.133 320.281Z" fill="black"/>
<path fill-rule="evenodd" clip-rule="evenodd" d="M218.576 217.19C217.705 217.176 216.834 217.162 215.969 217.15C216.842 217.164 217.71 217.177 218.576 217.19Z" fill="black"/>
<path fill-rule="evenodd" clip-rule="evenodd" d="M196.153 237.382C197.022 237.382 197.892 237.381 198.76 237.38C197.891 237.38 197.022 237.381 196.153 237.382Z" fill="black"/>
<path fill-rule="evenodd" clip-rule="evenodd" d="M207.625 216.634C206.927 216.646 206.23 216.658 205.539 216.669C206.239 216.657 206.932 216.646 207.625 216.634Z" fill="black"/>
<path fill-rule="evenodd" clip-rule="evenodd" d="M151.305 320.303C150.608 320.299 149.91 320.295 149.219 320.292C149.919 320.296 150.612 320.299 151.305 320.303Z" fill="black"/>
<path fill-rule="evenodd" clip-rule="evenodd" d="M245.172 55.5729C246.041 55.5127 246.911 55.4524 247.78 55.3921C246.91 55.4524 246.041 55.5127 245.172 55.5729Z" fill="black"/>
<path fill-rule="evenodd" clip-rule="evenodd" d="M256.857 116.374C256.889 115.51 256.922 114.646 256.954 113.783C256.921 114.647 256.889 115.511 256.857 116.374Z" fill="black"/>
<path fill-rule="evenodd" clip-rule="evenodd" d="M235.785 124.406C235.262 124.406 234.739 124.407 234.221 124.407C234.746 124.407 235.265 124.407 235.785 124.406Z" fill="black"/>
<path fill-rule="evenodd" clip-rule="evenodd" d="M191.459 215.089C190.936 215.094 190.413 215.1 189.895 215.105C190.42 215.101 190.939 215.094 191.459 215.089Z" fill="black"/>
<path fill-rule="evenodd" clip-rule="evenodd" d="M179.465 236.26C180.161 236.316 180.856 236.373 181.551 236.429C180.855 236.373 180.161 236.316 179.465 236.26Z" fill="black"/>
<path fill-rule="evenodd" clip-rule="evenodd" d="M178.145 262.515C178.156 261.823 178.168 261.132 178.178 260.442C178.167 261.134 178.156 261.825 178.145 262.515Z" fill="black"/>
<path fill-rule="evenodd" clip-rule="evenodd" d="M237.871 234.892C238.566 234.824 239.262 234.756 239.957 234.688C239.262 234.756 238.566 234.824 237.871 234.892Z" fill="black"/>
<path fill-rule="evenodd" clip-rule="evenodd" d="M285.525 222.611C285.567 221.92 285.608 221.228 285.649 220.538C285.608 221.231 285.566 221.921 285.525 222.611Z" fill="black"/>
<path fill-rule="evenodd" clip-rule="evenodd" d="M294.713 127.079C295.409 127.025 296.103 126.971 296.799 126.918C296.103 126.971 295.409 127.025 294.713 127.079Z" fill="black"/>
<path fill-rule="evenodd" clip-rule="evenodd" d="M223.791 217.696C223.268 217.691 222.745 217.685 222.227 217.681C222.752 217.685 223.272 217.691 223.791 217.696Z" fill="black"/>
<path fill-rule="evenodd" clip-rule="evenodd" d="M178.199 301.382C178.173 300.863 178.148 300.344 178.123 299.827C178.148 300.347 178.173 300.864 178.199 301.382Z" fill="black"/>
<path fill-rule="evenodd" clip-rule="evenodd" d="M236.668 274.952C237.808 277.761 237.168 275.772 237.197 276.421C236.226 276.55 236.049 276.06 236.668 274.952Z" fill="black"/>
<path fill-rule="evenodd" clip-rule="evenodd" d="M188.852 215.125C188.329 215.106 187.805 215.088 187.287 215.068C187.814 215.087 188.332 215.106 188.852 215.125Z" fill="black"/>
<path fill-rule="evenodd" clip-rule="evenodd" d="M295.446 162.497C295.479 161.805 295.513 161.114 295.545 160.424C295.511 161.116 295.479 161.806 295.446 162.497Z" fill="black"/>
<path fill-rule="evenodd" clip-rule="evenodd" d="M178.164 296.2C178.162 295.508 178.16 294.818 178.159 294.127C178.16 294.82 178.162 295.51 178.164 296.2Z" fill="black"/>
<path fill-rule="evenodd" clip-rule="evenodd" d="M178.107 280.653C178.143 280.134 178.18 279.615 178.216 279.098C178.18 279.617 178.143 280.136 178.107 280.653Z" fill="black"/>
<path fill-rule="evenodd" clip-rule="evenodd" d="M286.557 212.765C286.606 212.246 286.655 211.727 286.703 211.21C286.655 211.729 286.606 212.248 286.557 212.765Z" fill="black"/>
<path fill-rule="evenodd" clip-rule="evenodd" d="M171.312 282.208C171.359 282.727 171.406 283.246 171.452 283.762C171.405 283.244 171.359 282.726 171.312 282.208Z" fill="black"/>
<path fill-rule="evenodd" clip-rule="evenodd" d="M170.262 278.062C170.314 278.58 170.365 279.1 170.416 279.616C170.365 279.097 170.314 278.579 170.262 278.062Z" fill="black"/>
<path fill-rule="evenodd" clip-rule="evenodd" d="M274.578 207.064C274.617 206.546 274.655 206.027 274.694 205.51C274.655 206.029 274.616 206.547 274.578 207.064Z" fill="black"/>
<path fill-rule="evenodd" clip-rule="evenodd" d="M8.41821 277.367C9.11283 277.312 9.80849 277.257 10.5042 277.203C9.80693 277.257 9.11231 277.312 8.41821 277.367Z" fill="black"/>
<path fill-rule="evenodd" clip-rule="evenodd" d="M269.973 289.981C269.952 290.5 269.932 291.021 269.912 291.536C269.933 291.015 269.953 290.498 269.973 289.981Z" fill="black"/>
<path fill-rule="evenodd" clip-rule="evenodd" d="M278.228 291.536C278.267 291.017 278.306 290.498 278.345 289.981C278.306 290.5 278.267 291.018 278.228 291.536Z" fill="black"/>
<path fill-rule="evenodd" clip-rule="evenodd" d="M275.075 204.991C275.13 204.473 275.186 203.954 275.24 203.437C275.185 203.956 275.13 204.474 275.075 204.991Z" fill="black"/>
<path fill-rule="evenodd" clip-rule="evenodd" d="M12.5901 276.869C13.2857 276.801 13.9814 276.732 14.676 276.664C13.9814 276.732 13.2847 276.801 12.5901 276.869Z" fill="black"/>
<path fill-rule="evenodd" clip-rule="evenodd" d="M233.699 217.164C233.351 217.168 233.001 217.172 232.656 217.176C233.007 217.172 233.353 217.168 233.699 217.164Z" fill="black"/>
<path fill-rule="evenodd" clip-rule="evenodd" d="M178.164 275.989C178.162 275.47 178.16 274.951 178.159 274.434C178.16 274.954 178.162 275.471 178.164 275.989Z" fill="black"/>
<path fill-rule="evenodd" clip-rule="evenodd" d="M279.37 274.952C279.185 274.417 279.094 273.888 279.451 273.398C279.424 273.917 279.397 274.435 279.37 274.952Z" fill="black"/>
<path fill-rule="evenodd" clip-rule="evenodd" d="M270.487 265.106C270.472 265.625 270.456 266.144 270.442 266.661C270.457 266.141 270.472 265.623 270.487 265.106Z" fill="black"/>
<path fill-rule="evenodd" clip-rule="evenodd" d="M270.937 316.411C270.969 316.929 271.002 317.449 271.035 317.965C271.002 317.446 270.969 316.928 270.937 316.411Z" fill="black"/>
<path fill-rule="evenodd" clip-rule="evenodd" d="M309.315 127.924C309.837 127.998 310.358 128.072 310.879 128.146C310.357 128.072 309.836 127.997 309.315 127.924Z" fill="black"/>
<path fill-rule="evenodd" clip-rule="evenodd" d="M307.229 127.972C307.929 128.014 308.697 127.679 309.315 128.17L307.229 127.972Z" fill="black"/>
<path fill-rule="evenodd" clip-rule="evenodd" d="M218.055 237.386C218.75 237.383 219.446 237.379 220.141 237.376C219.446 237.379 218.75 237.383 218.055 237.386Z" fill="black"/>
<path fill-rule="evenodd" clip-rule="evenodd" d="M233.699 127.426L235.785 127.607C235.089 127.547 234.395 127.486 233.699 127.426Z" fill="black"/>
<path fill-rule="evenodd" clip-rule="evenodd" d="M199.281 237.245C199.978 237.249 200.672 237.252 201.367 237.255C200.669 237.589 199.974 237.622 199.281 237.245Z" fill="black"/>
<path fill-rule="evenodd" clip-rule="evenodd" d="M180.307 324.184C180.268 323.664 180.228 323.146 180.188 322.629C180.228 323.149 180.268 323.666 180.307 324.184Z" fill="black"/>
<path fill-rule="evenodd" clip-rule="evenodd" d="M256.373 128.293C256.38 127.774 256.388 127.256 256.395 126.739C256.388 127.259 256.38 127.776 256.373 128.293Z" fill="black"/>
<path fill-rule="evenodd" clip-rule="evenodd" d="M212.319 237.465C213.014 237.409 213.709 237.353 214.405 237.297C213.709 237.353 213.014 237.409 212.319 237.465Z" fill="black"/>
<path fill-rule="evenodd" clip-rule="evenodd" d="M271.49 328.848C271.501 329.367 271.513 329.886 271.525 330.403C271.513 329.883 271.501 329.366 271.49 328.848Z" fill="black"/>
<path fill-rule="evenodd" clip-rule="evenodd" d="M273.332 115.178C274.027 115.112 274.723 115.046 275.418 114.98C274.723 115.046 274.027 115.112 273.332 115.178Z" fill="black"/>
<path fill-rule="evenodd" clip-rule="evenodd" d="M282.387 247.486C282.435 246.967 282.483 246.449 282.53 245.932C282.482 246.451 282.434 246.968 282.387 247.486Z" fill="black"/>
<path fill-rule="evenodd" clip-rule="evenodd" d="M306.387 109.119C306.427 108.6 306.467 108.082 306.506 107.564C306.467 108.084 306.427 108.601 306.387 109.119Z" fill="black"/>
<path fill-rule="evenodd" clip-rule="evenodd" d="M256.89 64.5513C256.9 65.07 256.91 65.5893 256.921 66.106C256.911 65.5862 256.901 65.0685 256.89 64.5513Z" fill="black"/>
<path fill-rule="evenodd" clip-rule="evenodd" d="M238.393 54.8775C239.088 54.9352 239.784 54.9934 240.479 55.0505C239.784 54.9929 239.088 54.9352 238.393 54.8775Z" fill="black"/>
<path fill-rule="evenodd" clip-rule="evenodd" d="M134.096 349.42C134.792 349.352 135.486 349.285 136.182 349.217C135.486 349.285 134.792 349.353 134.096 349.42Z" fill="black"/>
<path fill-rule="evenodd" clip-rule="evenodd" d="M239.436 49.7823C239.087 49.7818 238.737 49.7812 238.393 49.7812C238.743 49.7823 239.089 49.7823 239.436 49.7823Z" fill="black"/>
<path fill-rule="evenodd" clip-rule="evenodd" d="M111.151 356.17C111.847 355.812 112.541 355.914 113.237 356.172C112.541 356.171 111.845 356.171 111.151 356.17Z" fill="black"/>
<path fill-rule="evenodd" clip-rule="evenodd" d="M381.801 326.091C383.018 326.029 384.235 325.967 385.451 325.905C384.235 325.967 383.018 326.029 381.801 326.091Z" fill="black"/>
<path fill-rule="evenodd" clip-rule="evenodd" d="M381.801 317.164C381.103 317.18 380.407 317.196 379.715 317.212C380.414 317.196 381.107 317.18 381.801 317.164Z" fill="black"/>
<path fill-rule="evenodd" clip-rule="evenodd" d="M371.371 306.887C372.241 306.821 373.109 306.755 373.979 306.689C373.168 307.196 372.241 306.821 371.371 306.887Z" fill="black"/>
<path fill-rule="evenodd" clip-rule="evenodd" d="M361.463 307.954C362.332 307.891 363.201 307.829 364.071 307.766C363.202 307.829 362.332 307.891 361.463 307.954Z" fill="black"/>
<path fill-rule="evenodd" clip-rule="evenodd" d="M346.862 317.269C347.557 317.215 348.252 317.161 348.948 317.107C348.252 317.161 347.557 317.215 346.862 317.269Z" fill="black"/>
<path fill-rule="evenodd" clip-rule="evenodd" d="M350.512 317.271C351.207 317.216 351.903 317.161 352.598 317.106C351.903 317.161 351.207 317.216 350.512 317.271Z" fill="black"/>
<path fill-rule="evenodd" clip-rule="evenodd" d="M353.119 316.762C353.815 316.701 354.51 316.64 355.205 316.578C354.51 316.639 353.815 316.701 353.119 316.762Z" fill="black"/>
<path fill-rule="evenodd" clip-rule="evenodd" d="M356.77 299.045C356.247 299.049 355.724 299.053 355.205 299.055C355.73 299.051 356.25 299.048 356.77 299.045Z" fill="black"/>
<path fill-rule="evenodd" clip-rule="evenodd" d="M369.807 327.596C370.502 327.537 371.198 327.478 371.893 327.42C371.244 327.874 370.511 327.613 369.807 327.596Z" fill="black"/>
<path fill-rule="evenodd" clip-rule="evenodd" d="M349.99 286.194C350.686 286.128 351.381 286.061 352.076 285.995C351.381 286.061 350.686 286.128 349.99 286.194Z" fill="black"/>
<path fill-rule="evenodd" clip-rule="evenodd" d="M347.383 277.804C346.859 277.803 346.336 277.802 345.819 277.802C346.344 277.802 346.864 277.803 347.383 277.804Z" fill="black"/>
<path fill-rule="evenodd" clip-rule="evenodd" d="M342.168 278.836C341.819 278.839 341.47 278.84 341.125 278.841C341.476 278.84 341.822 278.838 342.168 278.836Z" fill="black"/>
<path fill-rule="evenodd" clip-rule="evenodd" d="M329.653 280.28C329.477 280.707 328.556 280.653 328.612 280.214C328.958 280.236 329.305 280.259 329.653 280.28Z" fill="black"/>
<path fill-rule="evenodd" clip-rule="evenodd" d="M305.372 282.208C305.393 282.726 305.414 283.245 305.435 283.762C305.414 283.243 305.393 282.725 305.372 282.208Z" fill="black"/>
<path fill-rule="evenodd" clip-rule="evenodd" d="M376.586 284.955C377.108 284.946 377.629 284.938 378.151 284.929C377.635 285.296 377.113 285.244 376.586 284.955Z" fill="black"/>
<path fill-rule="evenodd" clip-rule="evenodd" d="M356.77 277.277C356.421 277.282 356.072 277.288 355.727 277.292C356.078 277.287 356.424 277.282 356.77 277.277Z" fill="black"/>
<path fill-rule="evenodd" clip-rule="evenodd" d="M343.211 310.03C343.907 309.965 344.603 309.901 345.297 309.836C344.601 309.901 343.907 309.965 343.211 310.03Z" fill="black"/>
<path fill-rule="evenodd" clip-rule="evenodd" d="M334.867 311.06L336.953 310.879L334.867 311.06Z" fill="black"/>
<path fill-rule="evenodd" clip-rule="evenodd" d="M375.543 326.614C376.238 326.549 376.934 326.484 377.629 326.419C376.934 326.484 376.238 326.549 375.543 326.614Z" fill="black"/>
<path fill-rule="evenodd" clip-rule="evenodd" d="M350.512 329.734C351.209 329.481 351.905 329.394 352.598 329.741C351.902 329.739 351.207 329.736 350.512 329.734Z" fill="black"/>
<path fill-rule="evenodd" clip-rule="evenodd" d="M349.406 258.302L348.426 257.964C349.643 257.949 350.86 257.934 352.076 257.919C352.079 257.92 349.547 258.312 349.406 258.302Z" fill="black"/>
<path fill-rule="evenodd" clip-rule="evenodd" d="M340.082 249.301C339.211 249.301 338.34 249.299 337.475 249.299C338.347 249.3 339.215 249.301 340.082 249.301Z" fill="black"/>
<path fill-rule="evenodd" clip-rule="evenodd" d="M307.229 269.111C308.097 268.765 308.966 268.832 309.836 269.102C308.967 269.105 308.098 269.108 307.229 269.111Z" fill="black"/>
<path fill-rule="evenodd" clip-rule="evenodd" d="M359.899 260.692C359.376 260.698 358.852 260.704 358.334 260.71C358.859 260.704 359.379 260.698 359.899 260.692Z" fill="black"/>
<path fill-rule="evenodd" clip-rule="evenodd" d="M348.948 253.879C349.817 253.936 350.687 253.992 351.555 254.049C350.686 253.992 349.816 253.936 348.948 253.879Z" fill="black"/>
<path fill-rule="evenodd" clip-rule="evenodd" d="M337.996 259.239C338.866 259.177 339.735 259.116 340.604 259.055C339.735 259.116 338.866 259.177 337.996 259.239Z" fill="black"/>
<path fill-rule="evenodd" clip-rule="evenodd" d="M344.776 258.198C345.471 258.14 346.166 258.081 346.862 258.022C346.166 258.081 345.471 258.14 344.776 258.198Z" fill="black"/>
<path fill-rule="evenodd" clip-rule="evenodd" d="M339.039 253.361C339.735 253.417 340.43 253.475 341.125 253.531C340.43 253.474 339.734 253.417 339.039 253.361Z" fill="black"/>
<path fill-rule="evenodd" clip-rule="evenodd" d="M329.131 263.303C328.782 263.296 328.433 263.289 328.088 263.281C328.439 263.289 328.785 263.296 329.131 263.303Z" fill="black"/>
<path fill-rule="evenodd" clip-rule="evenodd" d="M340.082 258.142C339.733 258.121 339.384 258.099 339.039 258.078C339.39 258.099 339.736 258.121 340.082 258.142Z" fill="black"/>
<path fill-rule="evenodd" clip-rule="evenodd" d="M333.303 258.124C332.954 258.114 332.604 258.104 332.26 258.095C332.61 258.105 332.957 258.115 333.303 258.124Z" fill="black"/>
<path fill-rule="evenodd" clip-rule="evenodd" d="M352.076 257.642C352.076 257.777 353.647 257.094 353.641 257.729L352.076 257.642Z" fill="black"/>
<path fill-rule="evenodd" clip-rule="evenodd" d="M346.34 249.299C345.991 249.299 345.642 249.301 345.297 249.301C345.648 249.301 345.994 249.299 346.34 249.299Z" fill="black"/>
<path fill-rule="evenodd" clip-rule="evenodd" d="M161.213 224.724C161.778 222.433 161.624 220.641 163.635 222.105C164.739 222.909 166.559 226.983 166.421 228.363C166.251 230.065 165.469 230.744 163.857 230.202C162.004 229.578 161.268 226.437 161.213 224.724Z" fill="black"/>
<path fill-rule="evenodd" clip-rule="evenodd" d="M262.814 210.82C267.484 210.82 265.446 215.759 261.553 215.87C259.765 215.921 257.191 215.57 257.771 213.19C258.081 211.92 262.619 210.208 262.814 210.82Z" fill="black"/>
<path fill-rule="evenodd" clip-rule="evenodd" d="M212.722 220.538C216.094 222.159 211.35 229.277 208.287 227.515C204.364 225.26 211.336 221.554 212.722 220.538Z" fill="black"/>
<path fill-rule="evenodd" clip-rule="evenodd" d="M204.519 227.275C205.623 228.471 210.596 232.526 207.855 234.157C204.484 236.162 201.918 229.543 204.519 227.275Z" fill="black"/>
<path fill-rule="evenodd" clip-rule="evenodd" d="M148.008 224.166C146.911 222.058 148.421 216.543 151.77 217.551C155.139 218.566 149.862 223.606 148.008 224.166Z" fill="black"/>
<path fill-rule="evenodd" clip-rule="evenodd" d="M222.404 225.381C224.591 224.506 224.174 227.094 224.505 227.929C224.879 228.877 226.804 231.187 226.321 232.197C225.605 233.695 223.892 232.74 222.962 231.768C221.331 230.062 221.447 227.327 222.404 225.381Z" fill="black"/>
<path fill-rule="evenodd" clip-rule="evenodd" d="M189.081 227.78C187.259 227.78 182.908 222.558 185.465 221.682C188.637 220.594 191.29 228.163 189.081 227.78Z" fill="black"/>
<path fill-rule="evenodd" clip-rule="evenodd" d="M252.06 219.502C253.729 219.911 255.938 224.607 253.422 225.152C250.638 225.755 250.141 220.801 252.06 219.502Z" fill="black"/>
<path fill-rule="evenodd" clip-rule="evenodd" d="M241.94 228.312C240.631 225.807 240.309 220.444 243.505 224.748C244.197 225.681 244.912 225.303 244.556 226.842C244.245 228.184 243.005 228.312 241.94 228.312Z" fill="black"/>
<path fill-rule="evenodd" clip-rule="evenodd" d="M172.991 215.356C174.325 217.352 173.931 223.609 171.143 219.908C169.957 218.335 170.774 215.431 172.991 215.356Z" fill="black"/>
<path fill-rule="evenodd" clip-rule="evenodd" d="M240.055 27.2896C242.644 26.6254 243.265 32.6902 241.755 33.3587C239.641 34.2943 239.906 28.304 240.055 27.2896Z" fill="black"/>
<path fill-rule="evenodd" clip-rule="evenodd" d="M403.785 335.403C401.382 335.264 398.017 334.612 401.656 332.918C403.965 331.845 407.398 331.77 409.835 332.21C411.516 332.514 414.038 333.898 411.473 335.693C409.972 336.742 405.61 335.455 403.785 335.403Z" fill="black"/>
<path fill-rule="evenodd" clip-rule="evenodd" d="M401.092 339.731C400.397 339.653 399.703 339.575 399.01 339.498C399.567 338.493 401.185 338.283 401.092 339.731Z" fill="black"/>
<path fill-rule="evenodd" clip-rule="evenodd" d="M404.225 335.303C404.922 335.318 405.619 335.334 406.311 335.349C405.611 335.334 404.918 335.318 404.225 335.303Z" fill="black"/>
</svg>
