<svg width="24" height="25" viewBox="0 0 24 25" fill="none" xmlns="http://www.w3.org/2000/svg">
<circle cx="12" cy="12.6846" r="10.5" fill="#105DFB"/>
<path fill-rule="evenodd" clip-rule="evenodd" d="M5.15674 17.1542V7.99219H9.39219C10.7526 7.99219 11.8555 9.09504 11.8555 10.4555C11.8555 11.32 11.5897 11.8555 10.615 12.4048C11.7813 12.9363 12.1052 13.6728 12.1052 14.7002C12.1052 16.09 10.8706 17.1542 9.48078 17.1542H5.15674ZM6.949 9.5088V11.7119H9.04665C9.04665 11.7119 10.0662 11.7119 10.0662 10.6104C10.0662 9.5088 9.04665 9.5088 9.04665 9.5088H6.949ZM6.949 15.6026V13.2236H9.199C9.56228 13.2236 10.324 13.4111 10.324 14.5361C10.324 15.3705 9.574 15.5947 9.199 15.6026H6.949Z" fill="white"/>
<path fill-rule="evenodd" clip-rule="evenodd" d="M15.9373 10.5166C14.6482 10.5166 12.7381 11.4424 12.7381 13.9033C12.7381 15.4018 13.5584 17.3252 16.0193 17.3252C17.9881 17.3252 18.8943 15.8799 19.1013 15.1572H17.2498C17.156 15.4854 16.7927 15.8486 16.0193 15.8486C14.8943 15.8486 14.4959 14.8877 14.4373 14.4072H19.1013V13.9033C19.1013 11.4424 17.2263 10.5166 15.9373 10.5166ZM15.9373 11.9229C14.8873 11.9229 14.4998 12.7901 14.4373 13.2236H17.2498C17.2498 12.7901 16.9873 11.9229 15.9373 11.9229Z" fill="white"/>
<path d="M13.699 8.51271V9.64943H18.117V8.51271H13.699Z" fill="white"/>
</svg>
