<svg width="18" height="24" viewBox="0 0 18 24" fill="none" xmlns="http://www.w3.org/2000/svg">
<path d="M4.44575 16.5997C4.04797 16.2019 4.25533 16.3141 3.29588 16.0573C2.86056 15.9406 2.47789 15.7163 2.13183 15.4476L0.0550203 20.5396C-0.145932 21.0326 0.229423 21.5681 0.761327 21.548L3.17321 21.456L4.83209 23.2083C5.19829 23.5946 5.84097 23.4742 6.04192 22.9812L8.42451 17.1394C7.92831 17.4159 7.37763 17.5779 6.80819 17.5779C5.91558 17.5779 5.07699 17.2305 4.44575 16.5997ZM17.5227 20.5396L15.4459 15.4476C15.0999 15.7167 14.7172 15.9406 14.2819 16.0573C13.3174 16.3155 13.5289 16.2029 13.132 16.5997C12.5008 17.2305 11.6617 17.5779 10.7691 17.5779C10.1997 17.5779 9.64898 17.4154 9.15278 17.1394L11.5354 22.9812C11.7363 23.4742 12.3795 23.5946 12.7452 23.2083L14.4045 21.456L16.8164 21.548C17.3483 21.5681 17.7237 21.0321 17.5227 20.5396ZM12.0389 15.5638C12.7383 14.852 12.8184 14.9134 13.8145 14.6419C14.4503 14.4684 14.9474 13.9626 15.1177 13.3154C15.4601 12.0154 15.3713 12.1724 16.3056 11.2212C16.7711 10.7474 16.9528 10.0567 16.7825 9.4094C16.4406 8.11031 16.4402 8.29158 16.7825 6.99111C16.9528 6.34386 16.7711 5.65311 16.3056 5.17934C15.3713 4.22814 15.4601 4.38469 15.1177 3.08514C14.9474 2.43788 14.4503 1.93207 13.8145 1.75858C12.5383 1.41024 12.6921 1.50133 11.7569 0.549668C11.2914 0.0758977 10.6125 -0.109491 9.97673 0.0639962C8.70099 0.411886 8.87905 0.412343 7.60101 0.0639962C6.9652 -0.109491 6.28636 0.07544 5.82083 0.549668C4.88656 1.50087 5.04037 1.41024 3.7637 1.75858C3.12789 1.93207 2.63077 2.43788 2.46049 3.08514C2.11855 4.38469 2.2069 4.22814 1.27263 5.17934C0.807102 5.65311 0.624918 6.34386 0.795658 6.99111C1.1376 8.28929 1.13805 8.10802 0.795658 9.40894C0.625376 10.0562 0.807102 10.7469 1.27263 11.2212C2.2069 12.1724 2.1181 12.0154 2.46049 13.3154C2.63077 13.9626 3.12789 14.4684 3.7637 14.6419C4.78815 14.9212 4.86459 14.8772 5.53886 15.5638C6.14446 16.1804 7.08788 16.2907 7.8157 15.8302C8.10674 15.6455 8.44436 15.5474 8.7891 15.5474C9.13384 15.5474 9.47146 15.6455 9.76251 15.8302C10.4899 16.2907 11.4333 16.1804 12.0389 15.5638ZM4.47047 8.05492C4.47047 5.62748 6.404 3.65962 8.78887 3.65962C11.1737 3.65962 13.1073 5.62748 13.1073 8.05492C13.1073 10.4824 11.1737 12.4502 8.78887 12.4502C6.404 12.4502 4.47047 10.4824 4.47047 8.05492Z" fill="#F5B309"/>
</svg>
