<svg width="245" height="192" viewBox="0 0 245 192" fill="none" xmlns="http://www.w3.org/2000/svg">
<path fill-rule="evenodd" clip-rule="evenodd" d="M8.42763 137.013C16.663 140.231 25.4024 141.399 33.7066 144.331C41.1305 146.953 48.0256 150.476 55.3357 153.14C55.763 149.749 55.9908 144.007 54.738 140.811C52.9652 136.284 48.2994 136.174 43.705 134.562C32.5227 130.638 20.7603 129.811 9.65918 125.228C11.56 128.887 10.7116 133.731 8.42763 137.013ZM150.578 125.179C132.793 125.7 115.797 129.839 98.2692 132.399C89.7399 133.644 81.2027 134.755 72.6654 135.917C69.3803 136.364 63.3927 135.837 61.0046 138.681C59.0252 141.037 61.1944 149.079 60.3151 152.531C63.9101 152.797 70.2923 149.439 74.1936 148.883C80.2695 148.019 86.265 146.809 92.4035 146.424C102.126 145.811 111.677 145.29 121.382 144.208C131.252 143.108 140.803 141.063 150.751 140.316C155.586 139.952 157.532 140.859 157.816 135.754C157.928 133.757 158.202 130.417 157.642 128.448C158.537 126.028 157.743 124.854 155.261 124.923C153.685 124.745 152.125 124.831 150.578 125.179ZM116.18 108.885C120.99 108.434 125.819 107.787 130.64 107.516C131.618 107.461 136.577 107.76 137.387 106.85C138.534 105.565 137.256 100.861 137.046 99.4062C136.331 94.4578 135.541 91.5797 130.143 91.5691C125.587 91.5576 120.87 92.5217 116.333 92.9657C95.7328 94.9848 75.2372 95.8368 54.8643 99.6711C56.1047 104.952 57.512 110.4 56.0288 115.801C65.8021 116.305 76.5314 114.425 86.0831 112.496C95.8449 110.524 106.203 109.545 116.18 108.885ZM83.5758 59.1645C76.2154 59.1972 68.4365 62.4391 61.1741 61.716C61.0655 63.0677 63.3901 61.9464 64.0319 63.2107C65.403 63.2142 65.8806 63.661 65.4622 64.5553C65.4878 65.1645 65.1761 65.522 64.5263 65.6253C64.2058 65.6536 63.8853 65.681 63.5666 65.7083C62.162 65.7543 61.9316 66.7006 62.8771 68.552C62.471 70.8457 63.0802 73.7591 63.1685 76.0607C76.2198 74.2853 88.8994 72.4375 102.043 71.6447C108.248 71.2712 114.449 71.2721 120.646 70.7618C127.465 70.1995 134.908 71.4045 141.573 70.1279C145.138 69.4446 144.764 69.4923 144.505 64.8581C144.346 62.0427 144.405 58.7002 142.113 56.6466C138.284 53.2167 129.567 55.1988 124.989 55.3197C111.2 55.6843 97.1798 56.9653 83.5758 59.1645ZM91.1092 125.345C110.826 123.554 130.395 119.632 150.223 119.632C148.821 118.231 145.767 117.87 144.023 117.106C142.033 116.235 140.155 114.38 138.211 113.618C134.309 112.091 130.339 114.214 126.332 115.131C116.665 117.344 106.747 117.419 97.065 119.591C87.056 121.834 76.9164 123.904 66.722 125.044C61.868 125.587 56.66 126.688 51.8634 125.406C51.475 125.128 51.083 124.849 50.6946 124.572C50.2752 122.787 49.1116 122.31 47.2028 123.142C44.7785 122.68 41.692 123.276 39.2518 123.337C39.1521 124.312 48.1687 127.369 49.8876 128.127C54.03 129.951 56.8384 131.285 61.2624 130.504C71.2237 128.745 81.0217 126.644 91.1092 125.345ZM21.7509 67.7001C22.5216 70.7036 25.7573 69.3369 28.5427 69.668C32.2816 70.1112 36.0011 71.401 39.6226 72.373C46.199 74.1405 52.7772 75.8833 59.3254 77.7514C59.0676 75.1064 59.6529 69.0861 58.2553 66.7395C56.788 64.2799 49.8355 63.2019 46.5981 62.4515C38.436 60.563 29.7187 61.6375 21.4277 62.0348C21.5743 63.9214 21.6829 65.8081 21.7509 67.7001ZM100.146 86.4917C107.89 85.8358 115.642 85.3255 123.408 85.0527C132.287 84.7419 125.833 83.3231 125.646 77.9086C113.976 79.7696 102.204 80.1369 90.5707 81.7278C80.9334 83.0477 69.4518 86.4926 59.622 84.6422C54.9853 83.7699 50.2513 83.4335 45.3188 82.94C40.6652 82.4747 36.2748 80.3073 31.6786 79.7687C26.5183 79.164 21.2468 82.0642 16.1138 82.8305C13.9384 83.1554 13.4326 84.6307 12.4049 82.0121C11.3402 79.2955 14.3913 77.076 15.5929 75.4515C16.9958 73.5543 16.4131 76.6346 17.1926 73.6717C17.4107 72.8418 16.8192 70.7556 16.7106 69.8613C16.4351 67.6003 15.7244 65.1468 15.6141 62.8902C15.5117 60.8173 15.494 57.6531 17.7444 56.4436C19.1173 55.7055 20.0911 56.7817 21.2882 56.5734C30.6333 54.948 41.6249 54.8147 51.1024 56.3836C61.3763 58.0831 70.219 53.5831 80.3454 51.7582C92.2252 49.6173 104.229 49.2968 116.211 48.3919C126.456 47.6194 145.176 43.6094 149.078 56.6952C150.183 60.4032 151.793 70.6108 148.82 73.7653C144.918 77.9086 135.883 76.586 130.838 77.6631C131.593 79.8093 133.84 81.2696 133.062 83.8264C140.133 84.1601 141.383 90.8389 142.491 97.0737C143.637 103.525 141.401 106.089 147.566 109.448C156.158 114.13 165.261 118.857 165.092 130.007C165.008 135.613 164.38 144.067 158.625 146.976C152.994 149.821 143.825 149.34 137.619 150.373C125.602 152.374 113.542 154.722 101.451 155.923C88.5772 157.203 75.4888 158.253 62.5929 158.824C55.5671 159.138 49.4974 160.199 42.7117 157.835C36.04 155.51 29.5138 153.812 22.6302 152.086C15.8348 150.384 -4.96801 148.092 1.09371 136.47C2.06309 134.61 5.37907 133.131 5.91409 131.374C6.77752 128.537 3.86057 126.324 3.9824 123.761C4.20488 119.071 9.49586 118.483 13.1491 118.483C6.88701 114.567 15.2724 109.93 15.223 106.605C15.1347 100.747 7.84935 96.9448 7.43705 92.0343C6.43501 80.0839 44.3441 92.527 50.1789 95.112C45.6878 101.771 24.8523 96.009 18.6467 94.999C19.4934 97.2229 20.303 99.2217 20.5475 101.499C20.7461 103.354 20.0373 105.474 20.6862 107.341C21.7103 110.294 21.6749 109.729 25.3009 110.534C27.983 111.129 30.6351 111.817 33.3084 112.448C37.4155 113.416 43.8754 116.016 47.9445 115.874C51.5139 115.75 50.8084 116.857 51.4626 112.893C51.8149 110.762 51.2146 108.498 50.8552 106.411C50.1057 102.037 49.0092 97.8974 52.8293 94.7597C56.4711 91.7668 64.1484 90.3419 68.6157 89.2869C78.5302 86.9446 89.9739 86.3708 100.146 86.4917Z" fill="black" fill-opacity="0.4"/>
<path fill-rule="evenodd" clip-rule="evenodd" d="M147.327 11.84C136.559 10.0354 125.619 9.59137 114.724 10.1379C115.314 12.8341 115.905 15.5295 116.496 18.224C126.703 15.5957 137.057 14.0551 147.327 11.84ZM59.7678 32.7532C55.4498 32.4372 58.4542 34.368 59.5207 37.1949C60.8308 40.6672 60.55 45.0576 60.8511 48.7127C73.4857 43.8949 88.1863 41.0751 101.62 39.4532C107.991 38.6852 114.454 38.4644 120.86 38.136C122.754 38.0389 129.592 38.8317 130.978 37.5577C132.006 36.6104 131.285 31.3839 130.296 30.23C124.919 23.9626 104.135 29.3745 96.6158 29.936C84.2866 30.8568 72.1826 33.0596 59.7678 32.7532ZM77.7128 15.9577C88.9005 17.0321 99.7031 16.9297 110.892 18.6062C110.043 11.4948 111.057 9.67963 102.989 9.30177C95.8 8.96628 88.6338 8.6944 81.4783 8.69793C65.3864 8.70676 49.3324 8.39951 33.2229 8.39951V15.6266C48.122 14.101 62.7846 16.8564 77.7128 15.9577ZM23.9158 42.5344C30.976 42.5044 37.6495 45.168 44.7107 45.8584C48.9369 46.2716 47.6091 46.796 50.5411 48.9184C55.1072 52.2238 56.4227 50.4625 55.8506 45.9714C53.91 30.7774 34.6734 34.1843 23.5882 33.3403C24.3166 36.9636 22.6418 40.0359 20.1751 42.5344H23.9158ZM100.232 23.0276C90.0764 23.1918 79.9094 23.7692 69.8245 23.5582C65.3104 23.4637 59.4624 22.5694 55.0384 23.3393C51.7974 23.9025 49.087 25.5535 45.5326 26.1671C50.7538 28.979 53.4006 27.0791 58.8903 26.439C64.3746 25.8007 69.9402 25.8131 75.4474 25.4793C84.4906 24.932 94.1305 22.7654 103.04 23.3552C103.203 22.0997 102.268 21.9902 100.232 23.0276ZM19.6833 55.9336C15.0236 55.923 21.4349 50.6241 22.2763 50.0988C17.1177 50.0988 15.8685 47.0043 17.3632 42.0338C18.7713 37.352 19.8131 38.7849 16.2702 34.8862C13.6031 31.9507 13.1996 29.7877 16.3435 26.5052C19.543 23.1662 26.0232 24.1109 28.858 21.3546C33.6846 16.6631 27.456 7.31977 34.1437 3.72564C38.6648 1.29778 45.952 1.59795 50.9428 1.08501C55.7667 0.588844 60.7602 0.4935 65.6168 0.427285C76.2023 0.282496 87.1983 2.05794 97.737 3.03526C101.58 3.39017 105.899 4.94313 109.685 4.94577C113.545 4.95019 117.589 4.08938 121.575 4.18914C126.209 4.30568 130.673 3.96403 135.452 4.72417C139.113 5.30774 147.662 5.61407 150.461 8.33593C159.785 17.4064 137.672 21.5718 133.867 22.5906C137.739 26.8327 137.579 32.4406 136.995 37.7811C138.839 37.7811 142.016 36.9786 142.97 39.0462C144.155 41.6127 139.769 42.2802 138.732 42.5795C132.765 44.3028 125.783 43.8305 119.635 44.4564C107.343 45.7074 95.1988 46.4287 83.0347 48.7577C77.1063 49.8922 71.2133 51.2968 65.2893 52.4013C64.2669 52.5929 63.2383 52.7456 62.2054 52.8612C60.6198 52.7262 60.1077 53.7203 60.6666 55.8506C59.0218 56.654 52.8913 54.6525 50.9958 54.3462C40.1436 52.5858 30.4348 53.3168 19.6833 55.9336Z" fill="black" fill-opacity="0.4"/>
<path fill-rule="evenodd" clip-rule="evenodd" d="M238.826 161.316C231.827 166.825 225.32 172.023 217.74 176.809C223.098 176.642 240.918 168.096 238.826 161.316ZM236.093 152.339C232.272 149.056 228.477 149.392 223.748 148.397C219.394 147.48 215.163 145.903 210.817 144.852C207.407 144.028 204.032 142.914 200.633 142.135C195.835 141.035 195.362 142.247 190.948 144.76C175.299 153.68 157.786 159.815 141.302 167.054C146.142 171.315 157.029 171.498 163.077 172.857C167.494 173.848 171.697 175.204 175.927 176.773C179.866 178.236 186.212 181.598 190.366 181.71C193.872 181.805 196.722 178.355 199.741 176.496C203.712 174.05 207.665 171.648 211.667 169.263C220.137 164.217 228.055 158.033 236.093 152.339ZM165.367 188.466C163.559 186.728 158.122 186.804 155.857 186.273C151.395 185.23 146.998 184.147 142.476 183.364C135.138 182.095 123.547 181.527 122.75 172.007C122.086 164.096 131.645 162.219 137.236 159.538C145.644 155.506 154.221 151.786 162.843 148.23C170.925 144.898 179.126 142.079 187.356 139.199C188.961 138.638 190.264 138.715 191.574 137.43C192.608 136.416 192.289 134.448 193.422 133.389C196.016 130.963 199.382 132.239 202.5 132.862C209.579 134.274 216.93 136.128 223.68 138.747C230.694 141.469 236.968 142.037 238.652 149.989C242.239 148.307 244.936 148.062 244.507 153.006C244.382 154.459 243.327 156.04 243.073 157.538C242.701 159.747 243.353 162.075 242.984 164.29C241.642 172.342 230.785 178.307 224.057 181.47C215.76 185.367 205.056 191.128 195.793 191.889C185.922 192.7 175.166 188.824 165.367 188.466Z" fill="black" fill-opacity="0.4"/>
<path fill-rule="evenodd" clip-rule="evenodd" d="M188.187 155.493C184.119 155.255 178.421 154.146 184.583 151.259C188.491 149.43 194.303 149.303 198.43 150.053C201.276 150.571 205.544 152.929 201.203 155.986C198.662 157.774 191.277 155.58 188.187 155.493Z" fill="black" fill-opacity="0.4"/>
<path fill-rule="evenodd" clip-rule="evenodd" d="M183.629 162.866C182.452 162.733 181.277 162.6 180.104 162.469C181.046 160.757 183.786 160.398 183.629 162.866Z" fill="black" fill-opacity="0.4"/>
</svg>
