<svg width="27" height="22" viewBox="0 0 27 22" fill="none" xmlns="http://www.w3.org/2000/svg">
<path d="M24.6348 4.83181V3.68219C22.7313 1.77217 20.1447 0.545357 17.2706 0.39919C17.0867 0.379483 16.906 0.369629 16.7221 0.369629C15.2867 0.369629 14.0008 1.0167 13.1435 2.0333C12.2303 1.01999 10.9149 0.379483 9.4499 0.379483C9.30209 0.379483 9.15757 0.386052 9.01305 0.39919C6.13242 0.545357 3.54412 1.77217 1.64232 3.68219V4.83181L0 5.3245V21.7477L11.0035 19.4484L11.4962 20.1054H14.7809L15.2736 19.4484L26.2771 21.7477V5.3245L24.6348 4.83181ZM8.99991 15.6875C6.90595 15.7483 4.94831 16.2755 3.20909 17.1689L3.28464 4.37196C4.73809 3.00062 6.67767 2.13019 8.81761 2.03987C10.1413 2.12855 11.3369 2.53749 12.3634 3.19113L12.3322 16.1145C11.4207 15.8419 10.3729 15.6843 9.28731 15.6843C9.18549 15.6843 9.08366 15.6859 8.98348 15.6892L8.99991 15.6875ZM22.9925 17.1328C21.3288 16.2755 19.3711 15.7483 17.2969 15.6875C17.2049 15.6859 17.1195 15.6843 17.0325 15.6843C15.9486 15.6843 14.9024 15.8419 13.9137 16.1342L13.9909 3.15664C14.9779 2.53092 16.1621 2.12691 17.4332 2.04151C19.6076 2.13184 21.5407 3.00391 22.9941 4.37689L22.9892 17.1344L22.9925 17.1328Z" fill="#404040"/>
</svg>
