<svg width="55" height="41" viewBox="0 0 55 41" fill="none" xmlns="http://www.w3.org/2000/svg">
<path d="M0 6.83333C0 5.02102 0.719939 3.28294 2.00144 2.00144C3.28294 0.719938 5.02102 0 6.83333 0H47.8333C49.6456 0 51.3837 0.719938 52.6652 2.00144C53.9467 3.28294 54.6667 5.02102 54.6667 6.83333V34.1667C54.6667 35.979 53.9467 37.7171 52.6652 38.9986C51.3837 40.2801 49.6456 41 47.8333 41H6.83333C5.02102 41 3.28294 40.2801 2.00144 38.9986C0.719939 37.7171 0 35.979 0 34.1667V6.83333ZM8.54167 10.25C8.08859 10.25 7.65407 10.43 7.33369 10.7504C7.01332 11.0707 6.83333 11.5053 6.83333 11.9583V15.375C6.83333 15.8281 7.01332 16.2626 7.33369 16.583C7.65407 16.9033 8.08859 17.0833 8.54167 17.0833H15.375C15.8281 17.0833 16.2626 16.9033 16.583 16.583C16.9033 16.2626 17.0833 15.8281 17.0833 15.375V11.9583C17.0833 11.5053 16.9033 11.0707 16.583 10.7504C16.2626 10.43 15.8281 10.25 15.375 10.25H8.54167ZM8.54167 20.5C8.08859 20.5 7.65407 20.68 7.33369 21.0004C7.01332 21.3207 6.83333 21.7553 6.83333 22.2083C6.83333 22.6614 7.01332 23.0959 7.33369 23.4163C7.65407 23.7367 8.08859 23.9167 8.54167 23.9167H25.625C26.0781 23.9167 26.5126 23.7367 26.833 23.4163C27.1533 23.0959 27.3333 22.6614 27.3333 22.2083C27.3333 21.7553 27.1533 21.3207 26.833 21.0004C26.5126 20.68 26.0781 20.5 25.625 20.5H8.54167ZM8.54167 27.3333C8.08859 27.3333 7.65407 27.5133 7.33369 27.8337C7.01332 28.1541 6.83333 28.5886 6.83333 29.0417C6.83333 29.4947 7.01332 29.9293 7.33369 30.2496C7.65407 30.57 8.08859 30.75 8.54167 30.75H11.9583C12.4114 30.75 12.8459 30.57 13.1663 30.2496C13.4867 29.9293 13.6667 29.4947 13.6667 29.0417C13.6667 28.5886 13.4867 28.1541 13.1663 27.8337C12.8459 27.5133 12.4114 27.3333 11.9583 27.3333H8.54167ZM18.7917 27.3333C18.3386 27.3333 17.9041 27.5133 17.5837 27.8337C17.2633 28.1541 17.0833 28.5886 17.0833 29.0417C17.0833 29.4947 17.2633 29.9293 17.5837 30.2496C17.9041 30.57 18.3386 30.75 18.7917 30.75H22.2083C22.6614 30.75 23.0959 30.57 23.4163 30.2496C23.7367 29.9293 23.9167 29.4947 23.9167 29.0417C23.9167 28.5886 23.7367 28.1541 23.4163 27.8337C23.0959 27.5133 22.6614 27.3333 22.2083 27.3333H18.7917ZM29.0417 27.3333C28.5886 27.3333 28.1541 27.5133 27.8337 27.8337C27.5133 28.1541 27.3333 28.5886 27.3333 29.0417C27.3333 29.4947 27.5133 29.9293 27.8337 30.2496C28.1541 30.57 28.5886 30.75 29.0417 30.75H32.4583C32.9114 30.75 33.3459 30.57 33.6663 30.2496C33.9867 29.9293 34.1667 29.4947 34.1667 29.0417C34.1667 28.5886 33.9867 28.1541 33.6663 27.8337C33.3459 27.5133 32.9114 27.3333 32.4583 27.3333H29.0417ZM39.2917 27.3333C38.8386 27.3333 38.4041 27.5133 38.0837 27.8337C37.7633 28.1541 37.5833 28.5886 37.5833 29.0417C37.5833 29.4947 37.7633 29.9293 38.0837 30.2496C38.4041 30.57 38.8386 30.75 39.2917 30.75H42.7083C43.1614 30.75 43.5959 30.57 43.9163 30.2496C44.2367 29.9293 44.4167 29.4947 44.4167 29.0417C44.4167 28.5886 44.2367 28.1541 43.9163 27.8337C43.5959 27.5133 43.1614 27.3333 42.7083 27.3333H39.2917Z" fill="#FF5678"/>
</svg>
