<svg width="45" height="45" viewBox="0 0 45 45" fill="none" xmlns="http://www.w3.org/2000/svg">
<path d="M36 36C33.5025 36 31.5 38.0025 31.5 40.5C31.5 41.6935 31.9741 42.8381 32.818 43.682C33.6619 44.5259 34.8065 45 36 45C37.1935 45 38.3381 44.5259 39.182 43.682C40.0259 42.8381 40.5 41.6935 40.5 40.5C40.5 38.0025 38.475 36 36 36ZM0 0V4.5H4.5L12.6 21.5775L9.54 27.09C9.2025 27.72 9 28.4625 9 29.25C9 30.4435 9.47411 31.5881 10.318 32.432C11.1619 33.2759 12.3065 33.75 13.5 33.75H40.5V29.25H14.445C14.2958 29.25 14.1527 29.1907 14.0473 29.0852C13.9418 28.9798 13.8825 28.8367 13.8825 28.6875C13.8825 28.575 13.905 28.485 13.95 28.4175L15.975 24.75H32.7375C34.425 24.75 35.91 23.805 36.675 22.4325L44.73 7.875C44.8875 7.515 45 7.1325 45 6.75C45 6.15326 44.7629 5.58097 44.341 5.15901C43.919 4.73705 43.3467 4.5 42.75 4.5H9.4725L7.3575 0M13.5 36C11.0025 36 9 38.0025 9 40.5C9 41.6935 9.47411 42.8381 10.318 43.682C11.1619 44.5259 12.3065 45 13.5 45C14.6935 45 15.8381 44.5259 16.682 43.682C17.5259 42.8381 18 41.6935 18 40.5C18 38.0025 15.975 36 13.5 36Z" fill="#FF5678"/>
</svg>
