<svg width="29" height="38" viewBox="0 0 29 38" fill="none" xmlns="http://www.w3.org/2000/svg">
<path d="M13.8122 0.00657243C6.01251 0.240363 0 7.04479 0 14.8475V34.4354C0 35.4938 1.2788 36.023 2.02693 35.2749L3.87648 33.8996C4.37078 33.5322 5.06398 33.6034 5.47293 34.0636L8.66065 37.6521C9.12452 38.116 9.87637 38.116 10.3402 37.6521L13.3624 34.2491C13.8352 33.717 14.6657 33.717 15.1378 34.2491L18.16 37.6521C18.6239 38.116 19.3757 38.116 19.8396 37.6521L23.0273 34.0636C23.4362 33.6034 24.1294 33.5314 24.6237 33.8996L26.4733 35.2749C27.2214 36.023 28.5002 35.4931 28.5002 34.4354V14.25C28.5002 6.23432 21.8821 -0.235383 13.8122 0.00657243ZM9.50007 16.625C8.18862 16.625 7.12506 15.5615 7.12506 14.25C7.12506 12.9385 8.18862 11.875 9.50007 11.875C10.8115 11.875 11.8751 12.9385 11.8751 14.25C11.8751 15.5615 10.8115 16.625 9.50007 16.625ZM19.0001 16.625C17.6887 16.625 16.6251 15.5615 16.6251 14.25C16.6251 12.9385 17.6887 11.875 19.0001 11.875C20.3116 11.875 21.3752 12.9385 21.3752 14.25C21.3752 15.5615 20.3116 16.625 19.0001 16.625Z" fill="#FF5678"/>
</svg>
