<svg width="29" height="38" viewBox="0 0 29 38" fill="none" xmlns="http://www.w3.org/2000/svg">
<path d="M7.20813 26.914C6.56318 26.2691 6.89938 26.4509 5.34379 26.0345C4.63798 25.8453 4.01753 25.4816 3.45644 25.046L0.0892074 33.3019C-0.236606 34.1012 0.371975 34.9696 1.23438 34.9369L5.14489 34.7877L7.83452 37.6288C8.42826 38.2551 9.47027 38.06 9.79608 37.2606L13.6591 27.789C12.8546 28.2373 11.9617 28.5 11.0385 28.5C9.59124 28.5 8.23158 27.9367 7.20813 26.914ZM28.4105 33.3019L25.0433 25.046C24.4822 25.4824 23.8617 25.8453 23.1559 26.0345C21.5922 26.4531 21.9351 26.2705 21.2916 26.914C20.2681 27.9367 18.9077 28.5 17.4605 28.5C16.5372 28.5 15.6444 28.2366 14.8399 27.789L18.7029 37.2606C19.0287 38.06 20.0715 38.2551 20.6645 37.6288L23.3548 34.7877L27.2653 34.9369C28.1277 34.9696 28.7363 34.1005 28.4105 33.3019ZM19.5193 25.2345C20.6533 24.0804 20.7832 24.1798 22.3982 23.7397C23.4291 23.4585 24.2351 22.6384 24.5111 21.5889C25.0663 19.4811 24.9223 19.7357 26.4371 18.1935C27.1919 17.4253 27.4865 16.3054 27.2104 15.256C26.656 13.1497 26.6553 13.4436 27.2104 11.3351C27.4865 10.2856 27.1919 9.16569 26.4371 8.39754C24.9223 6.85531 25.0663 7.10913 24.5111 5.0021C24.2351 3.95267 23.4291 3.13257 22.3982 2.85128C20.329 2.28649 20.5784 2.43418 19.0621 0.891206C18.3073 0.123057 17.2067 -0.177523 16.1758 0.10376C14.1074 0.667812 14.3961 0.668554 12.3239 0.10376C11.293 -0.177523 10.1924 0.122315 9.43761 0.891206C7.92284 2.43344 8.17221 2.28649 6.10229 2.85128C5.07141 3.13257 4.26541 3.95267 3.98932 5.0021C3.43492 7.10913 3.57816 6.85531 2.06339 8.39754C1.3086 9.16569 1.01321 10.2856 1.29004 11.3351C1.84445 13.4399 1.84519 13.146 1.29004 15.2552C1.01395 16.3046 1.3086 17.4246 2.06339 18.1935C3.57816 19.7357 3.43418 19.4811 3.98932 21.5889C4.26541 22.6384 5.07141 23.4585 6.10229 23.7397C7.76327 24.1925 7.88722 24.1212 8.98044 25.2345C9.96233 26.2342 11.4919 26.413 12.672 25.6664C13.1439 25.3668 13.6913 25.2078 14.2502 25.2078C14.8092 25.2078 15.3566 25.3668 15.8285 25.6664C17.0078 26.413 18.5374 26.2342 19.5193 25.2345ZM7.24821 13.0599C7.24821 9.12413 10.3831 5.93353 14.2499 5.93353C18.1166 5.93353 21.2515 9.12413 21.2515 13.0599C21.2515 16.9956 18.1166 20.1862 14.2499 20.1862C10.3831 20.1862 7.24821 16.9956 7.24821 13.0599Z" fill="#FF5678"/>
</svg>
