<svg width="37" height="38" viewBox="0 0 37 38" fill="none" xmlns="http://www.w3.org/2000/svg">
<path d="M18.3856 0C18.0056 0 17.4356 0.19 17.0556 0.57L13.2556 3.99L8.50562 3.23C7.36562 3.04 6.41562 3.8 6.22562 4.94L5.46562 9.69L1.09562 11.97C0.145617 12.54 -0.234383 13.68 0.145617 14.63L2.42562 19L0.335617 23.37C-0.0443829 24.32 0.335617 25.46 1.09562 26.03L5.46562 28.31L6.22562 33.06C6.41562 34.2 7.36562 34.77 8.50562 34.77L13.2556 34.01L16.6756 37.43C17.4356 38.19 18.5756 38.19 19.3356 37.43L22.7556 34.01L27.5056 34.77C28.6456 34.96 29.5956 34.2 29.7856 33.06L30.5456 28.31L34.9156 26.03C35.8656 25.46 36.2456 24.32 35.6756 23.37L33.9656 19L36.0556 14.63C36.4356 13.68 36.0556 12.54 35.2956 11.97L30.9256 9.69L30.1656 4.94C29.9756 3.8 29.0256 3.23 27.8856 3.23L23.1356 3.99L19.7156 0.57C19.3356 0.19 18.7656 0 18.3856 0ZM14.2056 9.5C15.3456 9.5 16.2956 9.88 16.8656 10.64C17.6256 11.4 17.8156 12.16 17.8156 13.3V14.25C17.8156 15.39 17.4356 16.34 16.8656 16.91C16.2956 17.67 15.3456 18.05 14.2056 18.05C13.0656 18.05 12.1156 17.67 11.5456 17.1C10.9756 16.34 10.5956 15.39 10.5956 14.25V13.3C10.5956 12.16 10.9756 11.4 11.5456 10.64C12.1156 9.88 13.0656 9.5 14.2056 9.5ZM14.2056 11.4C13.8256 11.4 13.4456 11.78 13.2556 11.97C13.0656 12.35 12.8756 12.73 12.8756 13.3V14.25C12.8756 14.82 13.0656 15.2 13.2556 15.58C13.4456 15.96 13.8256 16.15 14.2056 16.15C14.5856 16.15 14.9656 15.96 15.1556 15.58C15.3456 15.2 15.5356 14.82 15.5356 14.25V13.3C15.5356 12.73 15.3456 12.35 15.1556 11.97C14.9656 11.59 14.5856 11.4 14.2056 11.4ZM21.2356 11.4L22.9456 12.35L15.1556 26.79L13.4456 25.84L21.2356 11.4ZM22.1856 19.95C23.3256 19.95 24.2756 20.33 24.8456 21.09C25.4156 21.85 25.7956 22.8 25.7956 23.75V24.7C25.7956 25.84 25.4156 26.79 24.8456 27.36C24.2756 27.93 23.3256 28.5 22.1856 28.5C21.0456 28.5 20.0956 28.12 19.5256 27.36C18.9556 26.6 18.5756 25.65 18.5756 24.7V23.75C18.5756 22.61 18.9556 21.85 19.5256 21.09C20.0956 20.33 21.0456 19.95 22.1856 19.95ZM22.1856 21.85C21.8056 21.85 21.4256 22.04 21.2356 22.42C21.0456 22.8 20.8556 23.18 20.8556 23.75V24.7C20.8556 25.27 21.0456 25.65 21.2356 26.03C21.4256 26.41 21.8056 26.6 22.1856 26.6C22.7556 26.6 22.9456 26.41 23.1356 26.03C23.3256 25.65 23.3256 25.27 23.3256 24.7V23.75C23.3256 23.18 23.1356 22.8 22.9456 22.42C22.9456 22.04 22.5656 21.85 22.1856 21.85Z" fill="#FF5678"/>
</svg>
