<svg width="24" height="25" viewBox="0 0 24 25" fill="none" xmlns="http://www.w3.org/2000/svg">
<path d="M1.5 9.65124C1.5 7.03766 1.5 5.73087 2.00864 4.73261C2.45605 3.85452 3.16995 3.14062 4.04804 2.69321C5.0463 2.18457 6.35309 2.18457 8.96667 2.18457H15.0333C17.6469 2.18457 18.9537 2.18457 19.952 2.69321C20.83 3.14062 21.544 3.85452 21.9914 4.73261C22.5 5.73087 22.5 7.03766 22.5 9.65124V15.7179C22.5 18.3315 22.5 19.6383 21.9914 20.6365C21.544 21.5146 20.83 22.2285 19.952 22.6759C18.9537 23.1846 17.6469 23.1846 15.0333 23.1846H8.96667C6.35309 23.1846 5.0463 23.1846 4.04804 22.6759C3.16995 22.2285 2.45605 21.5146 2.00864 20.6365C1.5 19.6383 1.5 18.3315 1.5 15.7179V9.65124Z" fill="white"/>
<path d="M16.5384 7.07568L12.0481 10.58L7.45508 7.07568V7.07663L7.46063 7.08137V11.9884L11.9963 15.5684L16.5384 12.1266V7.07568Z" fill="#EA4335"/>
<path d="M17.7178 6.22338L16.5386 7.07578V12.1267L20.2492 9.27782V7.56165C20.2492 7.56165 19.7988 5.11053 17.7178 6.22338Z" fill="#FBBC05"/>
<path d="M16.5386 12.1272V18.6784H19.3826C19.3826 18.6784 20.1919 18.5951 20.2501 17.6726V9.27832L16.5386 12.1272Z" fill="#34A853"/>
<path d="M7.46084 18.6838V11.9886L7.45508 11.9839L7.46084 18.6838Z" fill="#C5221F"/>
<path d="M7.4551 7.07699L6.28234 6.22933C4.20135 5.11647 3.75 7.56665 3.75 7.56665V9.28282L7.4551 11.984V7.07699Z" fill="#C5221F"/>
<path d="M7.45508 7.07666V11.9836L7.46084 11.9884V7.0814L7.45508 7.07666Z" fill="#C5221F"/>
<path d="M3.75 9.2832V17.6775C3.80734 18.6009 4.61754 18.6833 4.61754 18.6833H7.46158L7.4551 11.9834L3.75 9.2832Z" fill="#4285F4"/>
</svg>
