<svg width="11" height="11" viewBox="0 0 11 11" fill="none" xmlns="http://www.w3.org/2000/svg">
<path d="M9.06454 5.70801H10.2511" stroke="#79747E" stroke-width="0.632262"/>
<path d="M0 5.70801H6.53548" stroke="#79747E" stroke-width="0.632262"/>
<path d="M3.97488 2.33008H10.2511" stroke="#79747E" stroke-width="0.632262"/>
<path d="M0 2.33008H1.44999" stroke="#79747E" stroke-width="0.632262"/>
<path d="M5.75772 9.08643H10.251" stroke="#79747E" stroke-width="0.632262"/>
<path d="M0 9.08643H3.22875" stroke="#79747E" stroke-width="0.632262"/>
<path d="M2.71246 3.52905C3.41084 3.52905 3.97698 2.9629 3.97698 2.26452C3.97698 1.56615 3.41084 1 2.71246 1C2.01408 1 1.44794 1.56615 1.44794 2.26452C1.44794 2.9629 2.01408 3.52905 2.71246 3.52905Z" stroke="#79747E" stroke-width="0.632262"/>
<path d="M7.80005 6.97289C8.49842 6.97289 9.06457 6.40675 9.06457 5.70837C9.06457 5.00999 8.49842 4.44385 7.80005 4.44385C7.10167 4.44385 6.53552 5.00999 6.53552 5.70837C6.53552 6.40675 7.10167 6.97289 7.80005 6.97289Z" stroke="#79747E" stroke-width="0.632262"/>
<path d="M4.49319 10.3513C5.19157 10.3513 5.75772 9.78517 5.75772 9.08679C5.75772 8.38841 5.19157 7.82227 4.49319 7.82227C3.79481 7.82227 3.22867 8.38841 3.22867 9.08679C3.22867 9.78517 3.79481 10.3513 4.49319 10.3513Z" stroke="#79747E" stroke-width="0.632262"/>
</svg>
