<svg width="247" height="177" viewBox="0 0 247 177" fill="none" xmlns="http://www.w3.org/2000/svg">
<path fill-rule="evenodd" clip-rule="evenodd" d="M105.027 74.1555C102.365 76.0855 102.788 79.8832 103.59 82.6423C104.77 86.7051 107.121 90.4659 109.802 93.7077C114.56 99.4588 122.636 105.916 130.08 100.868C136.709 96.3709 140.891 87.2978 142.335 79.6553C142.781 77.2935 143.375 73.7743 141.279 71.9988C138.18 69.3742 132.714 69.8517 128.973 70.1896C126.509 70.4119 124.132 71.167 121.697 70.8127C116.041 69.9883 109.745 70.7349 105.027 74.1555Z" fill="#FF5678"/>
<path fill-rule="evenodd" clip-rule="evenodd" d="M219.718 104.251C214.324 111.092 205.155 112.173 197.011 112.106C192.121 112.066 187.221 111.698 182.427 110.701C179.842 110.164 177.275 109.452 174.778 108.597C173.128 108.032 170.672 107.75 169.97 105.982C168.119 101.319 169.481 95.4701 170.244 90.7365C170.632 88.3287 170.923 85.9066 171.3 83.4971C171.541 81.9554 171.657 80.2497 172.303 78.8074C173.059 77.1179 174.015 77.4552 175.615 77.9219C177.819 78.5655 180.083 78.8329 182.349 79.179C187.88 80.0236 192.706 81.7269 197.733 84.1411C202.704 86.5278 207.525 88.884 211.959 92.2028C214.205 93.885 216.141 95.7106 217.944 97.8541C219.337 99.5103 221.416 102.096 219.718 104.251ZM196.142 134.639C196.099 135.375 187.646 133.151 186.534 132.902C179.235 131.265 171.792 129.4 164.902 126.443C158.471 123.682 152.805 120.524 147.744 115.619C145.385 113.332 143.263 110.925 141.232 108.361C140.215 107.076 138.825 107.225 137.69 106.138C136.669 105.159 135.886 104.395 136.205 102.932C138.756 103.604 143.465 107.829 146.11 105.696C147.617 104.48 145.527 103.209 144.561 102.505C142.748 101.18 141.196 99.5454 139.754 97.8298C142.23 98.3099 144.535 99.237 146.689 100.528C147.647 101.101 150.928 103.18 151.692 101.198C152.162 99.9781 149.937 98.4448 149.243 97.7696C147.54 96.1122 145.701 94.1773 144.797 91.9488C147.033 91.4301 149.141 93.1583 150.663 94.5658C152.353 96.1286 154.425 97.7687 155.843 99.5694C156.574 100.498 156.733 101.595 157.304 102.597C157.947 103.724 158.975 104.69 159.957 105.524C161.85 107.131 164.064 108.314 166.337 109.292C171.53 111.528 177.096 113.11 182.632 114.22C185.348 114.765 187.997 115.016 190.753 115.108C192.895 115.18 193.843 115.821 194.661 117.795C196.874 123.136 196.473 129.011 196.142 134.639ZM132.575 93.9438C131.336 95.1026 129.727 95.8296 128.432 96.9437C127.293 97.924 125.979 98.9699 124.708 99.7628C123.35 100.609 122.336 100.016 121.114 99.2499C119.679 98.3518 118.03 97.9875 116.552 97.1839C111.443 94.4031 105.193 87.5897 106.147 81.3337C106.551 78.6822 107.922 76.0732 110.411 74.8699C112.672 73.7778 115.958 73.1713 118.377 74.0847C119.741 74.5999 120.718 75.737 121.592 76.8552C122.611 78.1585 123.001 77.9532 124.039 76.6961C125.897 74.4472 128.96 72.4741 131.988 72.5215C133.493 72.5455 134.988 72.8627 136.344 73.4873C136.528 73.5721 136.63 73.8284 136.814 73.9153C137.041 74.0221 137.413 73.8 137.57 73.8998C137.967 74.1511 138.364 74.936 138.592 75.3345C139.511 76.9327 141.165 80.0672 139.498 81.413C139.497 81.4135 139.572 83.2338 139.55 83.4413C139.432 84.5272 139.057 85.4236 138.573 86.4169C137.12 89.4001 134.977 91.697 132.575 93.9438ZM135.044 119.186C133.871 119.55 132.607 115.873 133.733 115.286C134.806 114.727 136.106 118.856 135.044 119.186ZM116.617 114.789C116.21 116.178 116.038 117.754 115.045 118.885C114.135 117.805 114.045 115.813 114.928 114.703C115.431 114.07 117.061 113.272 116.617 114.789ZM154.162 90.4542C154.156 90.4893 155.574 91.1677 154.882 91.9093C153.936 92.9225 154.066 90.9506 154.162 90.4542ZM160.023 79.1345C160.007 80.5388 157.034 80.1997 157.055 78.7873C157.081 77.0489 160.041 77.6457 160.023 79.1345ZM156.475 67.3974C156.769 66.1116 161.94 64.3229 161.799 66.5639C161.729 67.6873 155.851 70.131 156.475 67.3974ZM103.462 111.001C102.882 111.698 102.059 111.973 101.364 112.508C100.635 113.069 100.115 113.796 99.4782 114.454C97.7305 116.261 95.6267 117.746 93.7412 119.406C90.275 122.457 86.9544 125.737 83.1114 128.325C76.2436 132.949 68.2793 135.478 60.3732 137.692C59.7182 137.876 57.8315 138.616 57.1834 138.065C56.4845 137.47 56.84 135.377 56.8722 134.586C57.0032 131.341 57.3815 128.058 57.3405 124.818C57.3236 123.487 56.9339 121.595 57.6281 120.378C58.4034 119.018 60.568 118.62 61.9068 118.108C65.9766 116.553 69.8968 113.929 73.4918 111.499C77.9109 108.511 82.3738 105.474 86.9217 102.686C91.377 99.9535 96.2917 98.1239 101.262 96.5634C101.492 97.0473 99.1204 98.6042 98.8492 98.8225C97.5491 99.8693 96.1346 100.954 95.1694 102.336C94.486 103.314 93.7854 105.528 95.6721 105.585C96.5866 105.612 97.9388 104.727 98.7682 104.441C100.138 103.969 101.55 103.637 102.982 103.421C101.751 104.777 97.5751 107.214 98.3349 109.469C99.0719 111.658 103.335 109.104 104.803 109.104C104.562 109.867 103.958 110.406 103.462 111.001ZM53.0938 117.111C50.3633 118.071 47.5647 118.617 44.7468 119.237C42.0608 119.828 39.5782 120.273 36.827 119.927C33.0287 119.45 28.8252 117.876 28.3437 113.56C27.7726 108.446 31.3842 103.747 34.4853 100.078C38.2596 95.614 42.4976 91.6232 47.0908 88.0098C51.6787 84.3997 56.6308 81.2172 61.8187 78.5304C65.7656 76.4863 70.2233 75.2453 74.3967 73.7111C75.1907 73.4194 77.3866 72.394 78.1291 73.2439C78.7294 73.9311 77.9126 75.0759 77.6391 75.7139C77.1055 76.9579 77.032 78.2103 76.8942 79.5459C76.279 85.5105 75.5382 91.4734 75.1974 97.4639C75.1026 99.1332 74.9353 100.88 75.0327 102.55C75.0865 103.476 75.5681 104.654 75.2474 105.557C74.631 107.294 71.8081 108.444 70.312 109.219C67.6339 110.608 64.7978 111.644 62.092 112.973C59.1205 114.432 56.2271 116.009 53.0938 117.111ZM90.9601 78.3543C91.7097 78.2513 92.8322 78.0471 93.5004 78.5327C94.3716 79.1658 94.1432 80.0467 93.3383 80.506C92.7029 80.8691 91.2155 80.9683 90.5877 80.6389C89.5181 80.078 89.6992 78.5278 90.9601 78.3543ZM95.1106 92.1659C94.5051 93.1747 92.2918 93.8361 92.4846 91.9538C92.6499 90.3421 96.2262 90.3085 95.1106 92.1659ZM94.2891 63.7501C95.2628 64.1272 97.0295 64.4499 97.3183 65.7023C97.5869 66.8679 96.4824 66.7909 95.6852 66.47C95.0296 66.2067 92.109 63.7299 94.2891 63.7501ZM246.827 108.216C246.259 106.003 246.692 103.553 246.378 101.287C246.073 99.0896 245.525 97.0707 244.74 95.0002C242.999 90.4164 241.005 86.2902 238.184 82.2672C232.871 74.6914 226.706 68.0185 219.263 62.4851C211.914 57.0224 203.777 52.5828 195.156 49.4715C186.016 46.1717 176.814 45.0234 167.175 44.3909C164.296 44.2022 161.42 43.9784 158.558 43.6148C156.466 43.3491 153.843 43.0218 151.775 43.6625C150.476 44.0653 149.75 45.1984 151.165 45.9421C152.169 46.4693 153.483 46.5325 154.591 46.6726C153.252 50.9264 151.074 55.1951 147.621 58.1242C144.25 60.9839 139.739 61.9643 135.485 62.6896C133.179 63.0825 130.596 63.3867 128.253 63.217C126.772 63.1103 125.616 62.4245 125.019 63.9499C124.604 65.0098 124.408 66.1727 123.861 64.5725C123.214 62.6805 122.897 62.6925 120.886 62.155C116.772 61.0562 112.056 60.0536 108.467 57.6769C104.744 55.2112 103.449 51.2225 101.371 47.5081C100.856 46.5901 99.3059 44.7321 100.098 43.68C100.823 42.7181 103.179 42.814 104.258 42.7137C105.396 42.6078 106.542 42.6034 107.684 42.5589C108.346 42.5335 109.678 42.8047 109.411 41.8161C109.009 40.3261 104.705 40.5172 103.637 40.4929C101.649 40.4484 99.6339 40.4944 97.6562 40.7129C87.8505 41.7974 77.9565 43.8026 68.4677 46.4766C50.0576 51.6642 32.2274 61.2232 18.792 74.9945C5.89512 88.2138 1.80923 110.211 9.73758 127.09C13.858 135.862 22.7997 139.465 31.4676 142.376C36.0397 143.911 40.8809 145.112 45.7412 144.822C48.0735 144.683 50.2864 144.055 52.561 143.582C53.5531 143.375 54.6821 143.046 55.701 143.129C56.4722 143.192 57.2133 143.9 57.9368 143.524C58.4502 143.257 58.6734 142.49 59.301 142.164C60.0546 141.772 60.968 141.63 61.7819 141.433C64.0436 140.884 66.2337 139.992 68.4446 139.262C70.7309 138.506 72.8885 137.533 75.0821 136.55C76.1898 136.053 78.7529 134.033 79.4749 135.51C79.8037 136.184 79.6636 137.483 79.7438 138.19C79.8842 139.427 80.0492 140.66 80.2297 141.891C80.627 144.602 81.1027 147.301 81.5901 149.997C82.4698 154.86 83.6038 159.517 85.4995 164.092C87.0132 167.746 88.342 171.886 91.1529 174.793C92.3799 176.061 94.0539 176.632 95.8139 176.234C97.8156 175.78 98.8121 173.962 100.027 172.491C102.701 169.256 107.115 166.777 111.192 165.885C116.183 164.792 121.045 166.39 125.81 167.749C130.85 169.186 135.98 170.555 140.927 172.282C145.536 173.892 150.513 176.27 155.512 176.063C159.872 175.883 163.944 172.335 167.088 169.63C170.246 166.914 174.194 162.937 178.735 163.257C180.989 163.415 183.044 164.503 185.24 164.945C187.65 165.431 190.216 165.5 192.668 165.681C195.711 165.905 202.519 165.112 203.645 161.451C203.812 160.907 203.813 159.789 203.096 159.572C202.436 159.372 202.099 160.143 201.474 160.108C200.202 160.036 199.209 157.819 198.51 156.96C195.691 153.495 191.823 150.91 188.66 147.78C185.087 144.245 182.037 139.962 179.345 135.738C180.562 135.422 181.875 135.947 183.053 136.197C184.484 136.5 185.879 136.866 187.289 137.255C188.843 137.683 190.42 137.977 191.997 138.303C193.174 138.546 194.737 138.619 195.799 139.21C196.726 139.725 197.244 140.279 198.395 140.428C199.566 140.58 200.768 140.452 201.945 140.444C205.126 140.423 208.301 140.364 211.467 140.028C222.656 138.839 234.516 134.106 241.244 124.714C243.073 122.16 244.547 119.33 245.479 116.327C246.206 113.982 247.46 110.678 246.827 108.216Z" fill="#404040"/>
<path fill-rule="evenodd" clip-rule="evenodd" d="M117.347 26.985C115.356 27.6028 113.002 26.8758 111.858 25.0985C110.694 23.2914 109.898 21.2002 109.737 19.0476C109.584 16.985 110.052 14.8968 111.269 13.2034C112.563 11.4022 115.201 9.38322 117.566 10.0087C118.065 10.1406 118.515 10.4581 118.962 10.7732C119.436 11.1073 119.906 11.4387 120.425 11.5423C120.558 11.5689 120.652 11.5941 120.721 11.6125C120.815 11.6377 120.865 11.6511 120.91 11.6409C120.961 11.6292 121.005 11.5868 121.099 11.4958C121.153 11.4437 121.223 11.3758 121.32 11.2889C121.52 11.1102 121.713 10.841 121.902 10.5777C122.029 10.4007 122.155 10.2261 122.279 10.0836C122.518 9.80948 122.757 9.53242 122.996 9.25479C124.534 7.47018 126.102 5.65135 127.982 4.23985C131.877 1.31515 137.055 -0.066226 141.887 0.00243732C144.828 0.0440683 147.583 0.915949 150.323 1.90716C150.553 1.99034 150.785 2.0729 151.017 2.15575L151.018 2.15604C153.218 2.9413 155.487 3.75124 157.249 5.32456C160.754 8.45405 161.666 13.6355 162.24 18.0684C162.861 22.869 161.15 26.999 159.377 31.2777L159.377 31.2791C159.107 31.9304 158.836 32.5851 158.571 33.2457C156.698 37.9263 153.259 41.7182 149.171 44.6075C147.029 46.1209 144.663 47.0345 142.186 47.8356C141.673 48.0017 141.162 48.1796 140.652 48.3572C138.665 49.0488 136.685 49.7381 134.544 49.7348C130.457 49.729 125.224 47.7879 123.483 43.7614C122.691 41.9279 123.463 41.5988 125.049 42.5953C125.326 42.7693 125.602 42.9452 125.878 43.1207L125.879 43.1219C127.892 44.4039 129.892 45.6782 132.257 46.242C137.471 47.486 143.717 45.5589 148.289 43.016C152.86 40.4739 155.928 36.6549 157.979 31.8999C160.048 27.1026 160.852 22.3754 160.054 17.2039C159.378 12.8211 158.033 8.8177 154.084 6.43862C145.558 1.30336 134.07 1.71712 126.488 8.39086C125.448 9.30569 124.42 10.1959 123.349 11.0698C122.668 11.6251 121.866 12.2912 121.965 13.2514C121.986 13.4632 122.119 13.831 122.268 14.2432C122.696 15.4321 123.259 16.9935 121.691 16.2706C121.045 15.9725 120.51 15.5667 119.983 15.1668C119.114 14.508 118.267 13.8649 116.976 13.7461C114.77 13.5425 112.137 15.2376 111.477 17.3712C110.848 19.4071 111.97 22.1926 113.729 23.3602C114.718 24.0173 115.798 23.9851 116.915 23.9517C117.027 23.9485 117.14 23.945 117.253 23.9424C117.339 23.9403 117.447 23.9348 117.569 23.9283C118.32 23.8885 119.633 23.8195 119.982 24.3774C120.701 25.5251 118.165 26.7313 117.347 26.985ZM143.91 36.0668C144.284 35.3322 144.654 34.6058 145.072 33.9493C145.266 33.6447 145.583 33.4344 145.886 33.2328C145.973 33.1749 146.06 33.1176 146.141 33.059C147.164 34.6523 146.154 36.3591 145.284 37.8289C145.183 37.9995 145.084 38.1668 144.99 38.3304C144.715 38.8102 144.446 39.3098 144.175 39.8139C143.596 40.8908 143.006 41.987 142.322 42.9507C140.655 45.2994 137.029 42.7585 136.921 40.3446C136.838 38.4968 138.147 39.3011 138.988 39.9912C139.852 40.7021 140.262 40.8791 141.169 40.1027C142.387 39.0588 143.157 37.546 143.91 36.0668ZM134.093 29.5583C134.46 27.1348 132.801 29.0168 132.446 30.1314C132.007 31.5067 131.645 33.4493 132.308 34.8141C133.524 37.3193 136.955 36.1254 138.605 34.7945C139.379 34.1705 140.464 32.8706 140.427 31.7873C140.363 29.9023 138.911 31.0325 138.018 31.7276C137.904 31.8163 137.799 31.8979 137.707 31.9652C137.67 31.9924 137.631 32.0213 137.589 32.0518C136.761 32.6638 135.114 33.88 134.15 33.2782C133.263 32.7255 133.618 31.4128 133.898 30.3801C133.982 30.072 134.058 29.7888 134.093 29.5583ZM139.001 19.7842C140.959 19.3943 143.482 19.5952 145.186 20.7058C147.382 22.1364 144.495 23.1665 143.244 23.2946C141.73 23.4491 139.795 23.5515 138.404 22.8087C136.433 21.7558 137.09 20.1651 139.001 19.7842ZM116.637 16.1515C115.139 15.8604 113.049 16.6164 114.08 18.3975C114.85 19.7269 116.746 20.1742 118.229 20.5244C118.409 20.5668 118.584 20.6081 118.749 20.649C120.398 21.0586 121.214 20.4548 120.647 18.6354C120.097 16.8745 118.252 16.4657 116.637 16.1515ZM147.91 34.7813C148.047 34.2059 148.851 32.0427 149.394 33.6307C149.478 33.8747 149.488 34.2328 149.499 34.6152C149.526 35.5815 149.558 36.7046 150.787 36.5414C151.421 36.4574 151.722 35.8208 152 35.231C152.138 34.9387 152.271 34.6579 152.436 34.4613C154.112 32.4652 153.598 36.2406 153.16 37.1856C152.195 39.268 149.493 40.703 148.153 38.0609C147.654 37.0782 147.656 35.8378 147.91 34.7813ZM154.22 26.3861C154.998 27.2892 156.294 28.795 157.145 27.7044C157.974 26.6397 156.547 24.99 155.835 24.1676C155.804 24.1319 155.774 24.0977 155.746 24.0652C155.726 24.0415 155.704 24.0164 155.681 23.9898C155.038 23.2391 153.388 21.3143 152.55 22.756C152.026 23.6586 153.255 25.3598 153.839 25.9572C153.943 26.0634 154.072 26.2138 154.22 26.3861ZM131.379 44.1019C130.577 43.1804 130.661 41.4724 131.115 40.4061C131.486 39.5377 132.105 40.6126 132.464 41.2349C132.552 41.3867 132.624 41.5113 132.673 41.5745C132.833 41.7814 133.064 41.973 133.301 42.1699C133.796 42.5801 134.317 43.0125 134.283 43.6476C134.2 45.1993 132.085 44.9114 131.379 44.1019Z" fill="#404040"/>
<path fill-rule="evenodd" clip-rule="evenodd" d="M201.297 32.6333C200.416 32.3943 199.536 32.1553 198.661 31.9092C196.624 31.3364 198.548 30.0474 199.758 30.1381C200.694 30.208 201.609 30.5363 202.509 30.859C202.906 31.0014 203.301 31.143 203.693 31.2609C207.607 32.4361 211.235 33.7213 214.891 35.5454C215.437 35.8178 217.839 37.1089 216.25 37.6805C215.415 37.9807 213.736 37.0773 212.56 36.4448C212.184 36.2426 211.86 36.0682 211.631 35.9694C208.312 34.5382 204.795 33.5833 201.297 32.6333ZM234.534 61.6387C221.442 53.5164 208.405 45.5609 193.597 40.9077C192.825 40.6655 192.585 39.9771 192.99 39.2952C193.417 38.5763 194.237 38.6027 194.964 38.6261L195.026 38.6281C196.942 38.6887 198.813 39.2937 200.625 39.8797L200.855 39.9543C204.998 41.2922 208.944 43.1481 212.835 45.0881C219.657 48.4882 226.222 52.6022 232.239 57.2799C233.497 58.2573 234.787 59.0495 236.155 59.8488C236.239 59.8985 236.328 59.9492 236.418 60.0012C237.263 60.486 238.311 61.0869 238.615 62.0295C239.472 64.6824 235.148 62.0196 234.534 61.6387ZM23.1244 59.2245C18.3399 62.9467 13.6646 66.8222 9.3391 71.0702C7.79907 72.5827 6.51562 74.3126 5.23334 76.0416C4.64618 76.8333 4.05901 77.6246 3.44757 78.3946C3.38203 78.4771 3.30977 78.5737 3.23108 78.6787C2.73893 79.3346 2.00268 80.3162 1.19941 80.2076C0.177211 80.0701 -0.0294238 78.3095 0.00316718 77.5407C0.114807 74.9188 2.50937 72.3867 4.217 70.5813C6.13793 68.5512 8.19169 66.573 10.289 64.7246C12.5982 62.6895 15.1042 60.9403 17.658 59.228C18.5912 58.6022 19.5099 57.9402 20.4306 57.2769C21.9832 56.1585 23.5401 55.0368 25.1776 54.0804C26.406 53.3631 28.4458 53.0901 27.7773 55.2495C27.3867 56.511 25.8528 57.4662 24.5144 58.2997C23.9957 58.6227 23.5065 58.9273 23.1244 59.2245ZM5.98756 54.0641C8.68085 53.2256 11.1781 51.924 13.6754 50.6224C15.3026 49.7743 16.9301 48.9262 18.6114 48.2065C19.8206 47.6886 21.0473 47.215 22.2737 46.7413C23.3769 46.3151 24.4798 45.8891 25.5702 45.4313C25.6729 45.388 25.7841 45.347 25.8985 45.3046C26.4695 45.0934 27.1175 44.8535 27.1948 44.1806C27.3007 43.2491 26.7568 43.2769 26.0924 43.3108H26.0921C26.0494 43.3129 26.0061 43.3152 25.9622 43.3169C24.448 43.3851 22.8468 44.0562 21.3337 44.6905C20.7091 44.9526 20.0991 45.2083 19.5166 45.4125C18.9979 45.5945 18.4786 45.7721 17.9596 45.9494C16.3342 46.5052 14.7134 47.0596 13.128 47.7393C11.0187 48.6433 8.86457 49.5786 6.96499 50.8799C6.8977 50.9261 6.82749 50.9732 6.75552 51.0217C6.12652 51.4451 5.36528 51.9576 5.09321 52.6569C4.82083 53.3549 4.97092 54.3809 5.98756 54.0641Z" fill="#404040"/>
<path fill-rule="evenodd" clip-rule="evenodd" d="M117.494 36.0814C117.748 35.3348 120.896 27.1719 119.664 26.9258C118.359 26.6646 116.614 31.4008 116.236 32.2565C114.837 35.4167 114.01 38.8075 113.361 42.1973C112.909 44.5577 112.512 46.9757 112.67 49.3887C112.792 51.2432 113.558 51.5241 114.82 52.6604C114.82 47.0275 115.676 41.413 117.494 36.0814Z" fill="#404040"/>
</svg>
