<svg width="24" height="25" viewBox="0 0 24 25" fill="none" xmlns="http://www.w3.org/2000/svg">
<path fill-rule="evenodd" clip-rule="evenodd" d="M12.1212 1.50684C6.20636 1.50684 1.4248 6.32364 1.4248 12.2827C1.4248 17.0461 4.48851 21.0782 8.73869 22.5053C9.27007 22.6126 9.46471 22.2734 9.46471 21.9881C9.46471 21.7383 9.4472 20.882 9.4472 19.9898C6.47172 20.6322 5.85211 18.7052 5.85211 18.7052C5.37393 17.4564 4.66542 17.1354 4.66542 17.1354C3.69155 16.4753 4.73636 16.4753 4.73636 16.4753C5.81664 16.5467 6.38349 17.5814 6.38349 17.5814C7.33963 19.2226 8.88035 18.7589 9.50018 18.4734C9.58864 17.7776 9.87217 17.2959 10.1732 17.0283C7.80007 16.7785 5.30321 15.8509 5.30321 11.7117C5.30321 10.5342 5.72797 9.57083 6.401 8.8216C6.29482 8.55404 5.92283 7.44771 6.50741 5.96698C6.50741 5.96698 7.41056 5.68148 9.44698 7.07309C10.3188 6.83722 11.218 6.71722 12.1212 6.71621C13.0243 6.71621 13.945 6.84123 14.7952 7.07309C16.8318 5.68148 17.735 5.96698 17.735 5.96698C18.3195 7.44771 17.9473 8.55404 17.8411 8.8216C18.5319 9.57083 18.9392 10.5342 18.9392 11.7117C18.9392 15.8509 16.4423 16.7606 14.0514 17.0283C14.4411 17.3673 14.7774 18.0094 14.7774 19.0264C14.7774 20.4715 14.7599 21.6312 14.7599 21.9879C14.7599 22.2734 14.9548 22.6126 15.4859 22.5055C19.7361 21.078 22.7998 17.0461 22.7998 12.2827C22.8173 6.32364 18.0183 1.50684 12.1212 1.50684Z" fill="#24292F"/>
</svg>
