<svg width="45" height="45" viewBox="0 0 45 45" fill="none" xmlns="http://www.w3.org/2000/svg">
<path fill-rule="evenodd" clip-rule="evenodd" d="M45 22.5C45 34.9264 34.9264 45 22.5 45C10.0736 45 0 34.9264 0 22.5C0 10.0736 10.0736 0 22.5 0C34.9264 0 45 10.0736 45 22.5ZM16.7297 18.5716C15.1755 17.8428 13.3317 17.9643 11.874 18.9361C11.3571 19.2807 10.6586 19.141 10.3139 18.624C9.9693 18.1071 10.109 17.4086 10.626 17.0639L10.629 17.062C10.6658 17.0375 10.7028 17.0133 10.74 16.9894C11.0073 16.8184 11.2832 16.6666 11.5656 16.5342C13.8248 15.4747 16.5051 15.6513 18.624 17.0639C18.6886 17.107 18.7473 17.1557 18.8 17.2087C19.1683 17.5804 19.2376 18.1717 18.9361 18.624C18.5914 19.141 17.8929 19.2807 17.376 18.9361C17.1677 18.7973 16.9516 18.6758 16.7297 18.5716ZM32.5212 18.5914C32.7286 18.691 32.9308 18.806 33.126 18.9361C33.6429 19.2807 34.3414 19.141 34.6861 18.624C35.0307 18.1071 34.891 17.4086 34.374 17.0639C34.0713 16.8622 33.7572 16.6855 33.4344 16.5342C31.1752 15.4747 28.4949 15.6513 26.376 17.0639C25.859 17.4086 25.7193 18.1071 26.0639 18.624C26.4086 19.141 27.1071 19.2807 27.624 18.9361C29.0817 17.9643 30.9255 17.8428 32.4796 18.5716C32.4935 18.5781 32.5073 18.5848 32.5212 18.5914ZM12.0846 29.25C14.0195 33.2569 17.9571 36 22.5 36C27.0429 36 30.9805 33.2569 32.9154 29.25C33.2596 28.5372 33.5404 27.7845 33.75 27H11.25C11.4596 27.7845 11.7404 28.5372 12.0846 29.25Z" fill="#658F73"/>
</svg>
