<svg width="40" height="40" viewBox="0 0 40 40" fill="none" xmlns="http://www.w3.org/2000/svg">
<path d="M20 0C16.0444 0 12.1776 1.17298 8.88861 3.37061C5.59963 5.56824 3.03617 8.69182 1.52242 12.3463C0.0086657 16.0009 -0.387401 20.0222 0.384304 23.9018C1.15601 27.7815 3.06083 31.3451 5.85788 34.1422C8.65493 36.9392 12.2186 38.844 16.0982 39.6157C19.9778 40.3874 23.9992 39.9914 27.6537 38.4776C31.3082 36.9639 34.4318 34.4004 36.6294 31.1114C38.8271 27.8224 40 23.9556 40 20C39.995 14.6972 37.8862 9.61312 34.1366 5.86349C30.3869 2.11387 25.3028 0.00509148 20 0ZM19.6154 9.23078C20.0718 9.23078 20.518 9.36612 20.8975 9.61969C21.277 9.87327 21.5728 10.2337 21.7474 10.6554C21.9221 11.077 21.9678 11.541 21.8788 11.9887C21.7897 12.4363 21.5699 12.8475 21.2472 13.1703C20.9245 13.493 20.5133 13.7128 20.0656 13.8018C19.618 13.8909 19.154 13.8452 18.7323 13.6705C18.3106 13.4958 17.9502 13.2001 17.6966 12.8206C17.4431 12.4411 17.3077 11.9949 17.3077 11.5385C17.3077 10.9264 17.5508 10.3395 17.9836 9.90669C18.4164 9.47391 19.0034 9.23078 19.6154 9.23078ZM21.5385 30.7693H20C19.592 30.7693 19.2007 30.6072 18.9122 30.3187C18.6237 30.0301 18.4616 29.6388 18.4616 29.2308V20C18.0535 20 17.6622 19.8379 17.3737 19.5494C17.0852 19.2609 16.9231 18.8696 16.9231 18.4616C16.9231 18.0535 17.0852 17.6622 17.3737 17.3737C17.6622 17.0852 18.0535 16.9231 18.4616 16.9231H20C20.4081 16.9231 20.7994 17.0852 21.0879 17.3737C21.3764 17.6622 21.5385 18.0535 21.5385 18.4616V27.6923C21.9465 27.6923 22.3378 27.8544 22.6264 28.1429C22.9149 28.4315 23.077 28.8228 23.077 29.2308C23.077 29.6388 22.9149 30.0301 22.6264 30.3187C22.3378 30.6072 21.9465 30.7693 21.5385 30.7693Z" fill="#FF5678"/>
</svg>
