<svg width="24" height="25" viewBox="0 0 24 25" fill="none" xmlns="http://www.w3.org/2000/svg">
<rect x="1.5" y="1.60547" width="21" height="21" rx="10.5" fill="#1275B1"/>
<path d="M9.46392 7.37458C9.46392 8.07549 8.85639 8.64369 8.10696 8.64369C7.35753 8.64369 6.75 8.07549 6.75 7.37458C6.75 6.67367 7.35753 6.10547 8.10696 6.10547C8.85639 6.10547 9.46392 6.67367 9.46392 7.37458Z" fill="white"/>
<path d="M6.93557 9.57654H9.25515V16.6055H6.93557V9.57654Z" fill="white"/>
<path d="M12.9897 9.57654H10.6701V16.6055H12.9897C12.9897 16.6055 12.9897 14.3927 12.9897 13.0091C12.9897 12.1787 13.2732 11.3446 14.4046 11.3446C15.6833 11.3446 15.6756 12.4314 15.6696 13.2733C15.6618 14.3738 15.6804 15.4969 15.6804 16.6055H18V12.8958C17.9804 10.527 17.3631 9.43553 15.3325 9.43553C14.1265 9.43553 13.379 9.98301 12.9897 10.4783V9.57654Z" fill="white"/>
</svg>
