<svg width="145" height="154" viewBox="0 0 145 154" fill="none" xmlns="http://www.w3.org/2000/svg">
<path d="M73.5294 128.885L79.8982 122.516L123.6 109.199L90.5735 97.8477M83.1584 98.3966C86.7977 108.101 91.9352 130.513 91.9352 130.513C91.9352 130.513 90.7221 142.948 89.509 152.349" fill="white"/>
<path d="M73.5294 128.885L79.8982 122.516L123.6 109.199L90.5735 97.8477M83.1584 98.3966C86.7977 108.101 91.9352 130.513 91.9352 130.513C91.9352 130.513 90.7221 142.948 89.509 152.349" stroke="black" stroke-width="2.99312" stroke-miterlimit="10" stroke-linecap="round" stroke-linejoin="round"/>
<path d="M28.9177 37.9632C27.4013 41.6025 21.7422 58.2249 25.3815 68.233C26.2913 71.2658 29.0784 81.0555 41.8159 84.6948C49.3129 90.8998 57.7318 93.1743 68.0492 91.9734C71.5369 95.6127 88.5202 98.3421 96.1021 98.0389C109.749 97.4323 118.229 89.6442 143.413 91.658C124.234 71.7692 117.571 64.994 105.14 56.6904C91.7956 47.8954 69.141 41.3204 55.4936 51.935C49.1248 56.7874 49.9801 65.3094 44.879 67.7053C43.3626 68.3119 41.2397 68.6151 39.4201 67.402C37.9037 66.4922 36.084 63.7627 36.9939 54.6645C38.5102 39.1975 43.9692 36.7713 43.0594 26.7632C42.1495 19.4846 38.8135 14.6322 36.9939 12.206C33.9611 8.26346 29.412 1.59142 22.7399 2.19797C17.5843 2.50124 14.2483 6.74709 13.3384 8.26346C7.87948 8.26346 3.63364 11.5995 2.11726 15.8453C-0.00566185 22.2141 5.75656 28.8861 7.27293 28.5829C8.18276 28.5829 12.4286 18.8781 14.8548 19.1814C17.8875 19.1814 19.4039 23.1239 22.4367 23.4272C26.3792 23.7305 28.1989 21.3043 28.1989 21.3043" fill="white"/>
<path d="M28.9177 37.9632C27.4013 41.6025 21.7422 58.2249 25.3815 68.233C26.2913 71.2658 29.0784 81.0555 41.8159 84.6948C49.3129 90.8998 57.7318 93.1743 68.0492 91.9734C71.5369 95.6127 88.5202 98.3421 96.1021 98.0389C109.749 97.4323 118.229 89.6442 143.413 91.658C124.234 71.7692 117.571 64.994 105.14 56.6904C91.7956 47.8954 69.141 41.3204 55.4936 51.935C49.1248 56.7874 49.9801 65.3094 44.879 67.7053C43.3626 68.3119 41.2397 68.6151 39.4201 67.402C37.9037 66.4922 36.084 63.7627 36.9939 54.6645C38.5102 39.1975 43.9692 36.7713 43.0594 26.7632C42.1495 19.4846 38.8135 14.6322 36.9939 12.206C33.9611 8.26346 29.412 1.59142 22.7399 2.19797C17.5843 2.50124 14.2483 6.74709 13.3384 8.26346C7.87948 8.26346 3.63364 11.5995 2.11726 15.8453C-0.00566181 22.2141 5.75656 28.8861 7.27293 28.5829C8.18276 28.5829 12.4286 18.8781 14.8548 19.1814C17.8875 19.1814 19.4039 23.1239 22.4367 23.4272C26.3792 23.7305 28.1989 21.3043 28.1989 21.3043" stroke="black" stroke-width="2.99312" stroke-miterlimit="10" stroke-linecap="round" stroke-linejoin="round"/>
</svg>
