<svg width="362" height="316" viewBox="0 0 362 316" fill="none" xmlns="http://www.w3.org/2000/svg">
<path fill-rule="evenodd" clip-rule="evenodd" d="M281.096 257.172C283.144 264.108 281.838 272.201 277.147 277.906C274.117 281.591 266.912 284.887 262.868 281.05C261.06 279.334 260.295 273.461 259.522 270.721C258.812 268.2 257.623 263.533 258.151 261.419C258.92 258.337 265.061 259.049 267.932 258.78C272.337 258.365 276.711 257.736 281.096 257.172ZM339.05 260.695C340.015 262.818 341.553 264.224 342.209 266.58C342.638 268.118 342.896 269.66 343.066 271.239C343.271 273.152 343.412 273.078 342.092 273.973C340.079 275.337 334.928 275.232 332.479 275.628C329.281 276.144 326.099 276.752 322.9 277.267C323.675 274.289 323.269 271.084 324.071 268.047C324.85 265.097 326.206 262.184 328.12 259.76C329.544 257.956 331.616 255.795 334.176 255.784C337.478 255.77 337.999 258.383 339.05 260.695ZM136.033 196.898C136.523 203.281 135.614 210.079 131.983 215.565C130.446 217.888 128.206 219.138 126.389 221.138C124.286 223.453 123.145 226.314 119.822 227.304C117.678 227.944 115.162 227.503 112.933 227.791C109.233 228.269 108.14 227.75 105.02 225.835C102.779 224.459 100.196 224.717 97.8324 223.208C94.9987 221.399 92.5312 218.82 89.847 216.771C104.91 209.392 120.44 203.108 136.033 196.898ZM176.525 200.683C182.29 203.396 185.338 208.023 186.986 213.995C171.084 217.63 155.607 222.077 139.987 227.091C144.349 215.997 149.247 205.838 161.179 200.677C163.559 199.648 166.005 198.009 168.714 198.048C171.413 198.086 174.159 199.57 176.525 200.683ZM321.565 217.13C329.76 221.444 325.595 235.229 322.731 241.349C319.086 238.668 315.265 236.057 311.706 233.446C307.816 230.593 304.319 226.92 300.77 223.67C302.649 222.69 303.87 221.131 305.617 220.012C307.346 218.904 309.061 218.824 310.998 218.391C314.708 217.562 317.71 215.1 321.565 217.13ZM257.612 186.069C258.266 186.908 259.048 187.699 259.664 188.561C261.161 190.655 262.456 192.784 264.192 194.727C267.266 198.169 271.743 202.706 276.78 203.02L276.926 204.489C275.441 204.452 274.562 203.172 273.273 203.042C272.261 202.941 270.845 203.714 269.604 203.604C265.768 203.266 261.999 203.073 258.104 203.177C250.417 203.381 242.86 204.606 235.304 205.583C236.748 200.438 239.442 195.168 243.735 191.726C245.219 190.536 246.641 188.9 248.317 187.951C249.326 187.38 250.393 187.337 251.432 186.891C252.633 186.375 254.175 184.652 255.416 184.487C256.713 184.314 256.718 184.921 257.612 186.069ZM319.213 186.537C323.245 189.775 326.344 193.882 329.66 197.769C332.661 201.288 336.728 206.309 337.796 210.839C332.473 213.343 323.344 211.051 319.911 206.419C315.677 200.707 317.752 192.756 319.213 186.537ZM226.906 168.08C226.112 173.448 223.531 179.429 219.659 183.437C217.989 185.165 216.526 187.419 214.629 188.93C212.152 190.904 210.158 189.893 207.283 190.199C204.195 190.527 202.194 192.542 198.903 191.996C196.559 191.606 194.399 190.308 192.196 189.914C189.79 189.483 187.689 189.738 185.296 188.547C182.337 187.074 179.976 184.175 177.675 181.974C178.886 181.015 181.332 180.946 182.882 180.427C184.929 179.742 186.973 179.064 189.032 178.407C193.283 177.052 197.522 175.668 201.782 174.335C209.895 171.798 218.461 169.387 226.906 168.08Z" fill="#FF5678"/>
<path fill-rule="evenodd" clip-rule="evenodd" d="M354.186 35.5477L353.921 37.3274C356.511 37.7739 356.588 36.2096 354.186 35.5477ZM342.914 32.4793C341.526 31.995 339.254 32.705 340.346 34.3636C341.888 36.7056 342.589 33.6482 342.914 32.4793ZM230.918 97.3361C231.127 97.1275 228.666 92.4244 228.348 91.6354C226.76 92.542 226.652 92.3227 227.299 93.8387C227.858 95.1461 229.803 96.4738 230.918 97.3361ZM85.783 98.6262C85.0242 98.5599 83.5133 98.1078 82.8691 98.3716C81.9689 98.7404 82.2111 99.5945 82.1021 100.841C84.7346 100.718 85.103 101.067 85.783 98.6262ZM82.3692 96.0442C83.6564 96.2751 84.9427 96.5061 86.2295 96.7371C86.5044 95.2633 87.2318 92.826 84.5187 93.7159C84.2636 93.7995 82.6954 95.5645 82.3692 96.0442ZM233.961 99.0744C232.592 100.434 238.945 103.313 239.6 102.391C241.029 100.379 234.885 99.3756 233.961 99.0744ZM265.384 83.001C266.153 82.9256 266.921 82.8497 267.689 82.7743C267.424 81.6535 266.615 77.5222 264.934 77.7441C263.264 77.9639 265.147 82.1271 265.384 83.001ZM268.188 89.7454C268.209 88.8146 268.59 86.75 268.226 85.8537C267.979 85.2444 266.96 83.3935 265.496 84.5963C265.184 84.8522 265.042 88.5797 265.137 88.7004C265.536 89.2076 267.619 89.5506 268.188 89.7454ZM260.245 101.7C258.668 100.495 255.238 98.7159 253.72 101.442C251.603 105.242 258.876 102.702 260.245 101.7ZM251.229 102.017C249.158 102.405 247.066 102.355 244.969 102.208C242.62 102.043 242.064 101.326 241.38 103.576C243.899 104.489 249.264 105.122 251.813 104.254C251.619 103.508 251.424 102.762 251.229 102.017ZM264.291 91.6927C263.566 93.1785 261.995 95.1246 261.572 96.6746C261.261 97.8174 261.139 97.2464 261.399 98.1333C261.492 98.4496 262.767 99.7742 262.991 100.094C264.539 98.9223 266.406 97.7248 267.199 95.9192C268.469 93.0281 266.836 92.7963 264.291 91.6927ZM229.062 85.6085C223.796 87.2469 217.328 88.8512 211.754 88.3634C211.681 88.8404 221.208 91.6169 222.347 91.4165C223.511 91.2118 223.603 89.5898 224.998 88.7241C226.535 87.7696 227.805 88.3375 229.505 88.1889C229.357 87.3287 229.21 86.4686 229.062 85.6085ZM246.396 107.676C241.549 107.366 237.219 106.208 232.931 104.002C230.469 102.736 228.7 100.899 227.054 98.7797C225.779 97.1378 226.04 97.2727 224.038 96.716C222.559 96.3053 220.74 96.4716 219.222 96.2812C214.138 95.6417 209.071 94.1007 204.235 92.4968C198.808 90.6973 194.133 88.1591 188.173 88.3074C177.937 88.562 169.635 96.3083 158.958 93.0548C154.722 91.7642 150.334 90.0509 146.908 87.2839C142.453 83.6848 139.747 81.5526 133.469 82.8277C128.413 83.8538 124.535 86.5324 120.204 89.0011C115.268 91.8151 109.882 93.5008 104.378 94.9871C102.222 95.5688 100.225 95.9076 97.9656 96.0209C96.6216 96.0885 90.2526 95.1194 89.4657 95.8037C88.7047 96.4656 88.3586 101.033 88.4397 101.866C88.575 103.257 87.9609 103.4 89.4472 103.986C90.4792 104.393 93.6659 103.982 94.9449 104.127C105.236 105.303 115.779 105.655 125.905 107.428C135.422 109.095 144.973 110.443 154.383 112.397C166.624 114.94 179.09 116.1 191.338 118.562C197.258 119.752 203.228 121.429 209.079 122.696C214.406 123.85 219.759 124.921 225.117 125.966C224.921 125.23 223.807 122.548 225.585 122.795C226.711 122.952 228.602 126.842 229.196 127.717C231.931 131.746 234.843 134.805 238.564 138.011C242.313 141.243 246.089 144.442 249.895 147.614C253.004 150.205 259.683 154.07 259.511 158.595C257.617 158.955 253.857 155.6 252.439 154.691C249.57 152.851 246.819 150.847 244.144 148.754C241.627 152.436 247.592 156.705 248.27 160.187C246.736 160.194 244.174 155.972 243.243 154.854C240.77 157.159 237.994 159.191 236.214 162.087C256.169 161.235 259.44 185.984 273.845 194.374C277.036 196.232 281.035 197 284.683 196.184C288.484 195.334 292.137 194.134 295.481 191.987C302.949 187.191 308.422 177.972 311.344 170.054C312.958 165.682 314.481 161.447 315.211 156.846C316.02 151.751 315.259 146.572 314.601 141.496C313.429 132.45 308.621 123.318 301.811 116.847C298.759 113.948 295.425 111.41 292.63 108.244C291.655 107.139 289.43 102.908 288.206 102.643C285.951 102.155 284.787 105.319 283.226 102.729C281.698 100.194 284.613 99.2041 286.388 98.023C288.302 96.7478 290.159 95.4068 292.03 94.0757C295.73 91.4432 299.392 88.8546 302.945 86.0519C320.272 72.3865 335.588 57.1512 351.105 41.6229C348.2 40.9356 344.068 38.9593 341.115 39.4864C338.16 40.0142 335.536 42.1047 332.421 42.4511C329.386 42.7885 326.439 42.1335 323.625 41.1795C320.309 40.0547 318.063 38.6077 315.28 41.4139C310.809 45.9231 308.348 52.1883 303.655 56.4548C298.911 60.7666 292.271 63.285 286.095 64.5855C280.376 65.7895 272.446 65.2207 268.255 69.7225C267.312 70.7352 266.471 71.4561 266.417 72.9699C266.323 75.6619 266.933 73.7327 267.798 75.3999C269.208 78.1139 269.759 81.5001 270.077 84.4993C270.72 90.5701 269.908 97.2197 265.044 101.404C259.805 105.91 253.325 107.807 246.396 107.676ZM246.119 97.8437C249.667 99.6536 256.84 97.2947 259.675 95.0879C263.532 92.0848 263.837 86.8577 263.219 82.4882C261.425 82.9225 259.631 83.3565 257.836 83.7909C257.072 83.9757 256.307 84.161 255.542 84.3463C255.612 84.9793 255.508 85.5701 255.23 86.1187C253.54 88.2845 252.721 87.2085 250.886 85.3301C246.957 81.3092 243.472 76.7763 241.87 71.4311C240.075 73.5276 238.048 74.8794 235.172 74.5881C233.912 74.4609 229.08 72.9566 230.328 70.7516C230.724 70.0504 234.654 70.9334 235.97 70.867C238.719 70.7279 240.013 70.7809 241.018 68.1958C241.856 66.0433 241.56 65.1586 238.976 64.7643C235.695 64.2632 235.601 66.2113 233.263 67.1249C227.327 69.4454 231.38 60.206 230.533 57.6037C233.451 56.7401 236.531 56.1403 239.111 54.4946C236.253 54.8225 233.534 55.7774 230.765 56.4725C231.001 53.0652 237.761 52.3399 240.29 51.2695C237.558 50.9063 234.962 52.7045 232.22 52.5912C229.658 52.4856 226.065 51.4091 223.593 50.5895C221.052 49.7471 219.058 47.399 216.606 49.4428C214.999 50.7826 212.842 54.4329 212.327 56.3755C213.926 56.145 217.694 55.8339 218.138 57.6493C218.709 59.9811 214.002 58.6241 212.551 59.0059C210.349 59.5859 211.024 60.2258 210.225 62.402C209.438 64.545 208.026 66.2596 205.791 67.1482C208.275 68.4845 208.959 68.4603 208.458 70.9325C207.966 73.3634 208.291 76.0941 208.531 78.7995C210.01 78.1945 211.602 77.9992 213.188 77.8407C213.497 79.8031 210.414 80.6335 208.825 80.7481C209.659 83.3311 209.69 83.2496 212.543 83.2419C214.141 83.2371 215.744 83.1453 217.338 83.0682C220.583 82.9105 223.733 82.3313 226.934 81.8172C228.155 81.6203 229.886 80.9532 231.102 81.0872C233.331 81.332 232.898 81.5729 232.53 83.4724C232.031 86.0476 232.593 87.9967 233.24 90.7916C229.424 89.4911 232.489 93.4707 234.289 94.2899C237.835 95.9024 242.175 97.6287 246.119 97.8437ZM37.4459 253.48C40.147 254.827 42.6985 256.097 45.159 257.821C47.6075 259.536 50.2189 262.421 53.3181 262.975C57.0254 263.638 57.9178 261.714 58.8352 258.874C59.866 255.679 60.8097 254.229 63.74 252.476C68.9257 249.375 75 247.332 80.6671 245.1C82.8351 244.246 82.998 244.41 82.3567 242.213C81.9693 240.887 81.4966 239.585 80.989 238.297C80.0509 235.92 79.0231 233.403 77.4533 231.329C68.4668 237.229 57.7489 244.068 46.6862 245.487C42.1943 246.063 37.7674 247.074 33.3617 247.457C31.1803 247.646 29.3928 248.199 27.4714 249.136C25.3198 250.186 21.7608 250.556 20.2112 252.283C26.0282 252.243 31.6944 252.986 37.4459 253.48ZM257.839 261.213C256.037 261.954 258.47 266.21 258.989 267.982C259.77 270.643 260.508 273.316 261.295 275.977C262.962 281.608 264.533 287.263 266.114 292.917C276.538 287.261 287.69 284.024 299.266 281.317C310.799 278.621 322.579 276.702 334.363 274.857C340.802 273.847 347.557 272.47 353.519 269.847C357.227 268.216 356.502 266.71 356.441 263.098C356.384 259.708 355.851 256.252 355.331 252.895C354.35 246.552 353.313 239.636 350.751 233.677C348.254 227.87 344.914 222.287 341.703 216.817C337.892 210.327 334.646 203.338 329.673 197.577C324.491 191.572 318.93 186.126 313.309 180.536C309.944 186.916 305.144 194.655 298.938 198.671C292.11 203.089 281.37 205.361 273.606 201.663C265.786 197.938 261.164 190.299 256.295 183.642C251.601 177.226 247.524 170.285 239.207 167.996C230.411 165.575 221.15 168.871 212.574 170.936C202.796 173.29 193.229 176.667 183.725 179.858C167.225 185.398 150.856 190.468 134.773 197.071C114.978 205.197 95.1569 213.259 76.0248 222.772C80.1638 228.69 83.3724 234.083 85.7102 240.89C87.5308 246.19 88.6431 251.803 89.0688 257.534C91.2958 255.318 92.9971 252.683 95.2448 250.441C97.7872 247.904 100.772 245.951 103.763 243.962C109.178 240.362 114.727 237.102 120.699 234.364C134.255 228.148 148.66 223.866 162.993 219.436C166.24 218.432 170.062 217.266 173.427 216.71C176.287 216.239 178.827 215.409 181.738 214.721C188.339 213.162 195.014 211.731 201.673 210.601C214.466 208.43 227.521 206.117 240.492 204.617C249.287 203.599 258.466 201.949 267.502 202.83C269.029 202.979 270.524 203.281 272.062 203.233C272.491 203.22 273.001 202.586 273.445 202.629C274.299 202.714 275.212 203.668 276.083 203.953C278.05 204.595 280.906 204.196 281.977 205.815C282.835 207.112 282.521 208.139 281.243 208.993C282.78 210.946 285.789 212.745 287.85 214.28C289.702 215.661 291.449 217.146 293.317 218.476C295.324 219.906 297.755 221.255 299.857 222.714C302.599 224.616 304.941 227.053 307.53 229.188C312.177 233.019 316.841 236.355 321.739 239.946C324.376 241.88 326.89 243.701 329.755 245.284C331.322 246.149 334.873 248.519 333.02 250.671C331.17 252.818 327.461 249.643 325.441 249.415C323.116 249.151 319.98 250.603 317.661 250.944C311.523 251.846 305.367 252.639 299.227 253.613C292.22 254.725 285.285 256.226 278.245 257.15C274.609 257.627 270.973 258.088 267.318 258.416C265.432 258.586 262.767 258.332 260.995 258.933C259.655 258.544 259.071 258.924 259.245 260.075C258.917 260.613 258.448 260.992 257.839 261.213ZM63.6521 100.855C67.4865 100.83 71.2898 101.051 75.1284 101.018C76.6061 101.005 77.8782 101.304 78.4763 100.283C79.2071 99.036 78.8701 95.7787 78.9951 94.3511C74.5126 94.71 70.3995 94.8212 65.9248 94.4295C61.1321 94.0102 56.4802 92.6429 51.6694 92.3468C52.6946 92.7355 53.868 94.8522 53.1996 95.8821C52.5338 96.9073 51.4466 95.9817 50.3926 95.5176C46.323 93.7254 42.9333 91.0773 38.3617 92.2352C42.5705 94.4058 46.5647 97.8868 50.9601 99.183C55.1052 100.405 59.2864 100.822 63.6521 100.855ZM348.422 30.2805C350.288 30.629 353.929 32.4913 355.603 31.5531C357.647 30.407 357.218 25.76 357.292 23.9512C357.521 18.3922 357.944 10.7429 353.571 6.23673C352.778 11.5783 354.492 17.1639 354.37 22.565C354.277 26.6179 352.746 24.4047 352.205 21.536C351.709 18.9117 351.763 16.3229 351.088 13.712C349.848 15.8263 349.559 18.6956 348.684 21.0299C347.58 23.9735 346.02 26.6436 344.447 29.3723C345.776 29.6612 347.099 29.9662 348.422 30.2805ZM81.8582 103.325C81.8353 104.882 81.6134 106.345 83.562 106.488C86.142 106.677 85.2956 104.049 85.1319 102.39C84.2045 102.515 82.0784 102.257 81.8582 103.325ZM347.343 32.8205C345.726 32.6206 345.48 32.255 344.454 33.3856C343.803 34.103 343.74 35.4047 344.305 35.8563C346.756 37.817 347.143 33.921 347.343 32.8205ZM348.856 36.4298C350.115 36.6772 351.347 37.3473 352.054 36.0993C353.091 34.2692 350.612 34.1161 349.254 33.5728C349.121 34.5249 348.989 35.4775 348.856 36.4298ZM269.748 208.627C255.829 208.298 242.116 210.479 228.453 212.879C216.368 215.003 204.371 216.772 192.552 219.436C168.731 224.807 144.871 230.816 122.761 241.152C117.39 243.663 112.026 246.173 107.074 249.227C104.414 250.869 101.703 252.492 99.1834 254.343C97.7976 255.361 96.3635 256.365 95.0642 257.481C93.874 258.503 93.1988 259.913 92.1296 260.913C91.6263 261.384 89.4579 263.123 88.815 263.319C87.4334 263.739 87.9807 263.773 86.5841 262.818C83.665 260.823 83.0798 258.163 82.1999 254.964C81.5807 252.712 82.056 251.965 80.0216 252.042C78.9865 252.081 77.4283 253.133 76.469 253.531C73.3703 254.818 70.022 255.842 67.0482 257.377C64.6441 258.617 62.7204 260.212 61.6905 262.669C60.4745 265.569 59.7678 267.937 56.0782 268.262C49.4971 268.842 45.7158 262.281 40.0884 260.074C34.0697 257.712 26.3884 258.177 20.0336 258.101C17.7191 258.073 15.1987 258.296 12.9911 258.608C9.87173 259.049 6.18126 260.743 2.94365 259.666C-0.782414 258.427 -0.726351 253.134 1.74249 250.83C4.32394 248.422 8.15424 248.092 11.456 247.293C18.1307 245.677 24.2015 241.994 31.0148 240.863C37.792 239.738 44.9729 239.493 51.5798 237.443C54.9466 236.398 58.2177 235.582 61.4169 234.112C65.4025 232.28 69.6954 231.088 73.6323 229.287C72.2775 226.907 71.9107 224.699 71.828 222.033C71.7733 220.253 71.4837 220.252 72.7191 219.507C72.9639 219.633 73.2082 219.76 73.4534 219.888C74.2295 220.439 74.7824 220.187 75.1134 219.132C80.5775 215.818 85.6279 212.257 91.4583 209.379C101.237 204.55 111.589 200.65 121.365 196.051C139.938 187.313 160.625 182.272 180.164 175.871C191.984 171.999 204.087 168.827 216.198 165.971C218.321 165.47 220.437 165.056 222.595 164.723C226.251 164.161 225.386 164.127 227.23 161.315C229.596 157.707 233.351 153.858 237.163 151.622C239.514 150.243 240.516 150.45 240.443 147.433C240.387 145.128 239.754 145.151 237.869 143.608C235.737 141.862 233.756 139.925 231.956 137.866C229.9 135.517 228.98 132.854 227.261 130.439C225.182 127.52 218.753 128.015 215.154 127.507C209.518 126.711 203.788 126.142 198.236 124.913C187.024 122.432 175.753 121.564 164.401 119.829C152.99 118.085 141.582 116.495 130.17 114.915C126.073 114.348 121.924 113.861 117.849 113.158C112.146 112.173 106.143 112.074 100.356 111.153C97.377 110.679 93.7279 108.996 90.7309 109.139C87.514 109.294 90.3904 109.258 88.2746 110.364C87.3249 110.861 86.2264 111.305 85.1319 111.362C83.4082 111.453 81.6707 110.715 80.6162 109.398C78.8581 107.205 79.7057 105.524 76.1234 105.248C73.765 105.066 71.0127 105.976 68.6163 106.095C66.2682 106.213 63.8266 106.554 61.4777 106.485C56.7802 106.346 51.1816 105.933 46.9159 103.925C42.3951 101.798 38.3608 98.9598 33.6051 97.1508C31.2187 96.2424 27.8234 95.8571 26.2238 93.6616C24.888 91.8289 24.4751 88.101 26.5229 86.5979C29.6643 84.2924 35.755 87.7812 39.2308 86.9099C41.0079 86.4643 39.5411 85.9278 40.8851 85.3068C41.7177 84.922 41.5927 84.8643 42.5808 84.7251C45.0168 84.3799 49.0067 86.086 51.4833 86.4915C56.3704 87.29 61.2148 88.509 66.0976 89.2558C68.8857 89.6824 71.7203 89.7893 74.5144 90.2426C76.9478 90.6378 78.9477 91.591 80.7136 89.6368C81.4583 88.8124 81.2307 87.9626 82.4244 87.5326C83.4948 87.1478 86.5695 87.7002 87.6037 88.0966C88.7331 88.5297 88.9856 89.1541 89.8945 89.6475C89.9173 90.5818 90.3099 90.8614 91.073 90.4857C91.7832 90.4322 92.4912 90.4702 93.1957 90.599C99.3985 90.6249 105.572 88.7004 111.213 86.4277C120.562 82.6623 132.169 72.0021 142.892 77.8006C145.53 79.227 147.261 81.6061 149.83 83.1518C152.112 84.5239 155.03 85.7533 157.595 86.5272C162.723 88.0738 167.819 87.8803 172.898 86.279C179.091 84.3256 184.078 82.28 190.752 82.5046C196.936 82.7123 201.871 86.981 207.928 87.1512C206.448 84.7747 206.174 82.0448 206.018 79.3489C205.916 77.5856 206.9 72.9704 205.833 71.5432C204.656 69.9668 195.458 69.3295 200.588 64.7023C202.267 63.1867 205.366 63.7357 207.102 62.0624C208.855 60.3741 208.889 57.7334 209.824 55.6253C210.881 53.2401 212.625 51.27 214.412 49.3666C215.169 48.5607 215.68 48.0492 216.111 47.0805C216.611 45.9562 216.278 45.0065 217.077 43.8219C219.776 39.8238 224.482 41.2157 228.579 41.7483C231.062 42.0715 234.07 41.7634 236.48 42.4412C238.417 42.9859 240.936 44.6372 242.512 45.8494C245.984 48.5189 246.791 53.4457 247.059 57.4826C247.215 59.8458 246.755 62.0728 246.717 64.4278C246.677 66.8926 245.607 68.0096 243.683 69.6445C243.647 69.1895 243.425 68.8844 243.015 68.7288C242.177 69.76 242.392 70.1625 243.66 69.9367C243.708 70.5533 243.928 71.1071 244.32 71.5992C245.368 72.7635 246.271 74.0503 247.292 75.2375C249.526 77.8333 252.132 80.0862 253.851 83.0324C255.653 80.9356 257.947 80.5917 260.097 79.1455C262.188 77.7385 260.626 77.3197 261.402 75.2862C261.713 74.4713 262.53 74.3274 262.817 73.6965C263.089 73.0984 262.758 72.7209 262.926 72.0637C263.762 68.8008 263.415 66.7793 266.021 64.2213C269.507 60.8002 273.803 59.8957 278.595 59.2463C283.376 58.5978 286.771 58.3668 291.021 56.4781C292.496 55.8227 293.89 55.5236 295.291 54.7803C297.184 53.7745 298.947 52.714 300.592 51.357C304.416 48.2035 306.794 43.8098 309.885 40.0203C312.36 36.9879 315.344 33.1053 319.812 33.9061C324.892 34.8173 329.369 37.9049 334.778 36.2402C336.784 35.6227 336.567 36.0023 337.363 34.0571C337.628 33.4093 337.799 32.7566 338.056 32.1198C339.021 29.7362 340.867 29.4378 342.013 27.497C344.716 22.9156 346.198 17.2022 347.737 12.1741C348.453 9.83911 349.838 7.8139 350.683 5.57496C351.036 4.63873 350.876 0.468992 351.972 0.103267C355.509 -1.07526 358.371 8.18631 359.016 9.93801C360.701 14.5156 362.186 19.6815 361.52 24.5826C361.247 26.6021 361.029 28.9417 360.488 30.9191C359.997 32.7145 359.891 32.5963 360.172 34.2235C360.457 35.8782 360.797 36.8707 360.552 38.6051C360.484 39.0895 360.263 40.8795 360.054 41.1273C359.085 42.28 358.954 41.4742 357.748 41.9349C355.797 42.6804 355.315 43.3207 353.934 45.0685C350.481 49.4377 346.877 53.8202 343.146 57.9682C336.6 65.2448 329.716 71.7677 322.369 78.2393C315.157 84.5911 307.618 91.0351 299.432 96.2234C297.443 97.4847 294.173 98.5909 292.572 100.245C290.818 102.057 293.477 102.843 295.274 104.129C298.846 106.681 302.519 109.295 305.634 112.272C312.274 118.618 316.066 127.967 318.392 136.457C319.603 140.876 319.851 145.941 320.31 150.517C320.847 155.884 320.182 161.758 318.489 166.864C317.847 168.801 317.091 170.698 316.468 172.642C316.181 173.538 314.773 176.319 315.155 177.352C315.786 179.059 319.936 181.133 321.385 182.32C323.366 183.943 325.393 185.621 327.053 187.555C334.114 195.782 339.888 204.417 345.075 213.882C350.35 223.509 355.33 232.196 357.411 243.016C357.955 245.843 358.439 248.674 359.011 251.497C359.625 254.534 359.031 258.916 360.261 261.691C361.021 263.408 362.444 263.949 361.865 266.322C361.363 268.374 358.816 272.018 357.432 273.634C354.28 277.314 348.525 278.763 343.981 280.097C338.466 281.716 332.568 282.462 326.89 283.383C306.435 286.7 286.388 290.323 267.455 298.824C268.091 299.753 268.606 301.759 267.313 302.398C265.596 303.247 264.753 300.725 264.162 299.611C262.443 296.367 261.93 292.171 260.903 288.617C258.397 279.946 256.495 271.184 254.454 262.418C247.492 263.884 240.442 264.663 233.515 266.022C230.32 266.649 227.083 266.707 223.865 267.103C220.411 267.527 220.19 268.615 220.462 271.912C221.064 279.181 223.966 286.155 225.621 293.224C226.425 296.652 227.831 299.917 228.595 303.329C228.844 304.44 228.574 307.431 229.358 308.26C229.324 308.225 231.996 308.755 232.417 308.861C232.19 304.567 232.693 300.354 232.478 296.068C232.258 291.64 231.652 285.833 232.642 281.544C233.542 277.645 236.977 273.522 240.768 271.876C244.07 270.442 250.624 268.142 254.189 270.268C254.816 270.642 256.325 271.8 255.973 272.698C255.497 273.911 250.22 274.841 249.148 275.216C244.953 276.686 240.516 279.262 238.166 282.997C236.051 286.358 236.897 291.552 236.967 295.406C237.007 297.596 237.29 299.63 237.025 301.812C236.65 304.901 236.454 306.019 237.717 308.685C239.197 311.809 238.283 316.374 233.85 315.25C231.198 314.579 231.092 313.132 229.496 311.558C228.892 310.963 228.213 311.226 227.621 310.475C226.828 309.468 226.832 307.24 226.431 305.969C225.147 301.9 223.329 297.945 221.971 293.852C220.144 288.348 218.65 282.777 217.34 277.143C216.323 272.762 215.22 268.326 217.335 264.063C219.212 260.278 223.81 260.56 227.622 260.424C236.451 260.109 245.576 258.195 254.585 257.733C255.233 257.699 256.585 257.921 257.166 257.651C257.969 257.278 258.272 256.194 259.311 255.501C261.297 254.176 265.224 253.715 267.518 253.308C272.722 252.384 277.898 251.634 283.07 250.671C289.017 249.563 294.909 248.239 300.862 247.232C306.561 246.268 312.318 246.086 318.085 245.431C308.936 239.529 300.877 232.336 292.074 225.942C287.992 222.977 284.209 220.061 280.545 216.633C279.019 215.206 277.51 213.818 276.125 212.262C275.39 211.437 274.742 209.861 273.808 209.286C272.634 208.562 271.296 208.756 269.748 208.627Z" fill="black"/>
<path fill-rule="evenodd" clip-rule="evenodd" d="M236.164 42.4838C233.137 42.2201 229.669 42.2011 226.731 41.5276C229.326 41.7517 233.788 41.606 236.164 42.4838Z" fill="black"/>
<path fill-rule="evenodd" clip-rule="evenodd" d="M69.8125 89.7769C68.5245 89.6636 67.2365 89.5498 65.9493 89.4365C67.264 89.2452 68.549 89.3895 69.8125 89.7769Z" fill="black"/>
<path fill-rule="evenodd" clip-rule="evenodd" d="M149.117 117.802C149.977 117.876 150.837 117.95 151.692 118.025C150.83 117.951 149.973 117.877 149.117 117.802Z" fill="black"/>
<path fill-rule="evenodd" clip-rule="evenodd" d="M236.797 295.688C236.834 294.681 236.872 293.674 236.91 292.67C236.872 293.677 236.834 294.682 236.797 295.688Z" fill="black"/>
<path fill-rule="evenodd" clip-rule="evenodd" d="M232.073 303.494C232.058 304.214 232.043 304.935 232.028 305.653C232.043 304.931 232.058 304.212 232.073 303.494Z" fill="black"/>
<path fill-rule="evenodd" clip-rule="evenodd" d="M128.197 114.639C128.769 114.712 129.341 114.784 129.909 114.857C129.335 114.784 128.766 114.712 128.197 114.639Z" fill="black"/>
<path fill-rule="evenodd" clip-rule="evenodd" d="M225.013 41.3837C224.297 41.3238 223.581 41.2639 222.866 41.2044C223.582 41.2639 224.298 41.3238 225.013 41.3837Z" fill="black"/>
<path fill-rule="evenodd" clip-rule="evenodd" d="M232.199 292.258C232.179 292.978 232.158 293.698 232.138 294.415C232.158 293.695 232.179 292.976 232.199 292.258Z" fill="black"/>
<path fill-rule="evenodd" clip-rule="evenodd" d="M124.761 114.361C125.334 114.419 125.908 114.477 126.476 114.534C125.901 114.476 125.331 114.418 124.761 114.361Z" fill="black"/>
<path fill-rule="evenodd" clip-rule="evenodd" d="M133.738 115.586C134.312 115.639 134.886 115.692 135.454 115.745C134.878 115.692 134.308 115.639 133.738 115.586Z" fill="black"/>
<path fill-rule="evenodd" clip-rule="evenodd" d="M227.482 260.382C226.76 260.387 226.039 260.391 225.318 260.395C226.039 260.391 226.761 260.386 227.482 260.382Z" fill="black"/>
<path fill-rule="evenodd" clip-rule="evenodd" d="M202.476 125.933C202.907 125.968 203.338 126.003 203.765 126.039C203.332 126.005 202.904 125.969 202.476 125.933Z" fill="black"/>
<path fill-rule="evenodd" clip-rule="evenodd" d="M232.482 299.636C232.433 300.209 232.382 300.783 232.333 301.354C232.383 300.78 232.433 300.208 232.482 299.636Z" fill="black"/>
<path fill-rule="evenodd" clip-rule="evenodd" d="M269.628 208.804C270.059 208.841 270.49 208.876 270.916 208.913C270.484 208.878 270.056 208.841 269.628 208.804Z" fill="black"/>
<path fill-rule="evenodd" clip-rule="evenodd" d="M52.3646 86.4959C51.797 86.389 51.2299 86.2826 50.6624 86.1757C51.2295 86.2826 51.797 86.389 52.3646 86.4959Z" fill="black"/>
<path fill-rule="evenodd" clip-rule="evenodd" d="M263.582 208.688C263.868 208.725 264.155 208.763 264.438 208.799C264.15 208.762 263.866 208.725 263.582 208.688Z" fill="black"/>
<path fill-rule="evenodd" clip-rule="evenodd" d="M204.244 71.1196C204.529 71.1636 204.816 71.2075 205.097 71.2519C204.81 71.2071 204.527 71.1636 204.244 71.1196Z" fill="black"/>
<path fill-rule="evenodd" clip-rule="evenodd" d="M319.873 161.074C319.91 160.644 319.947 160.214 319.985 159.786C319.948 160.216 319.91 160.645 319.873 161.074Z" fill="black"/>
<path fill-rule="evenodd" clip-rule="evenodd" d="M217.464 127.675C217.751 127.699 218.039 127.723 218.322 127.748C218.033 127.723 217.749 127.699 217.464 127.675Z" fill="black"/>
<path fill-rule="evenodd" clip-rule="evenodd" d="M100.365 111.382C100.654 111.401 100.941 111.42 101.225 111.44C100.936 111.421 100.651 111.401 100.365 111.382Z" fill="black"/>
<path fill-rule="evenodd" clip-rule="evenodd" d="M55.5142 99.9392C56.8436 100.056 58.0825 100.103 59.3576 100.508C58.1083 100.413 56.6303 100.558 55.5142 99.9392Z" fill="black"/>
<path fill-rule="evenodd" clip-rule="evenodd" d="M69.3007 100.575C70.2294 100.306 71.7807 100.42 72.7391 100.827C71.5932 100.743 70.4466 100.659 69.3007 100.575Z" fill="black"/>
<path fill-rule="evenodd" clip-rule="evenodd" d="M246.012 98.0263C247.014 98.1103 248.016 98.1952 249.018 98.2793C247.988 98.5245 246.979 98.5313 246.012 98.0263Z" fill="black"/>
<path fill-rule="evenodd" clip-rule="evenodd" d="M347.328 32.666C346.613 32.5753 345.898 32.4847 345.189 32.3936C345.905 32.4844 346.616 32.5752 347.328 32.666Z" fill="black"/>
<path fill-rule="evenodd" clip-rule="evenodd" d="M34.744 253.287C35.6459 252.866 36.4853 253.159 37.32 253.509C36.4608 253.434 35.6028 253.361 34.744 253.287Z" fill="black"/>
<path fill-rule="evenodd" clip-rule="evenodd" d="M88.4739 100.6C88.4601 101.321 88.4471 102.041 88.4329 102.759C88.4467 102.038 88.4605 101.319 88.4739 100.6Z" fill="black"/>
<path fill-rule="evenodd" clip-rule="evenodd" d="M61.5017 100.717C62.2227 100.715 62.9445 100.713 63.6654 100.711C62.944 100.713 62.2227 100.715 61.5017 100.717Z" fill="black"/>
<path fill-rule="evenodd" clip-rule="evenodd" d="M246.463 107.698C245.888 107.661 245.312 107.624 244.743 107.586C245.32 107.623 245.892 107.66 246.463 107.698Z" fill="black"/>
<path fill-rule="evenodd" clip-rule="evenodd" d="M87.1098 244.526C87.109 245.248 87.1072 245.969 87.1064 246.689C87.1072 245.967 87.1085 245.247 87.1098 244.526Z" fill="black"/>
<path fill-rule="evenodd" clip-rule="evenodd" d="M211.372 123.144C212.081 123.276 212.791 123.406 213.5 123.538C212.79 123.406 212.081 123.275 211.372 123.144Z" fill="black"/>
<path fill-rule="evenodd" clip-rule="evenodd" d="M64.6523 94.3769C64.0766 94.3455 63.5004 94.3145 62.9299 94.2852C63.5073 94.317 64.08 94.3468 64.6523 94.3769Z" fill="black"/>
<path fill-rule="evenodd" clip-rule="evenodd" d="M206.692 122.249C207.402 122.379 208.11 122.509 208.821 122.639C208.094 122.605 207.324 122.834 206.692 122.249Z" fill="black"/>
<path fill-rule="evenodd" clip-rule="evenodd" d="M71.5198 94.9858C71.0876 94.9625 70.6558 94.9392 70.2284 94.9155C70.6614 94.9388 71.0911 94.9621 71.5198 94.9858Z" fill="black"/>
<path fill-rule="evenodd" clip-rule="evenodd" d="M195.247 119.567C195.956 119.7 196.665 119.834 197.375 119.967C196.665 119.834 195.956 119.7 195.247 119.567Z" fill="black"/>
<path fill-rule="evenodd" clip-rule="evenodd" d="M348.72 36.5277C349.43 36.6635 350.139 36.7992 350.848 36.9349C350.138 36.7992 349.43 36.6635 348.72 36.5277Z" fill="black"/>
<path fill-rule="evenodd" clip-rule="evenodd" d="M169.24 115.224C169.955 115.294 170.67 115.365 171.385 115.436C170.67 115.365 169.955 115.294 169.24 115.224Z" fill="black"/>
<path fill-rule="evenodd" clip-rule="evenodd" d="M348.387 30.4489C349.096 30.5806 349.806 30.7119 350.515 30.8436C349.806 30.7119 349.096 30.5806 348.387 30.4489Z" fill="black"/>
<path fill-rule="evenodd" clip-rule="evenodd" d="M88.4905 103.725C89.2075 103.773 89.9246 103.822 90.6408 103.87C89.8974 104.248 89.183 104.159 88.4905 103.725Z" fill="black"/>
<path fill-rule="evenodd" clip-rule="evenodd" d="M230.495 60.2516C230.549 59.6789 230.602 59.1058 230.655 58.5353C230.602 59.1093 230.548 59.6807 230.495 60.2516Z" fill="black"/>
<path fill-rule="evenodd" clip-rule="evenodd" d="M230.308 62.3981C230.361 61.8249 230.413 61.2522 230.467 60.6817C230.414 61.2557 230.361 61.8267 230.308 62.3981Z" fill="black"/>
<path fill-rule="evenodd" clip-rule="evenodd" d="M232.619 167.051C232.187 167.023 231.756 166.995 231.329 166.968C231.762 166.996 232.191 167.023 232.619 167.051Z" fill="black"/>
<path fill-rule="evenodd" clip-rule="evenodd" d="M270.136 87.0785C270.07 87.6503 270.004 88.2217 269.938 88.7914C270.004 88.2191 270.07 87.6486 270.136 87.0785Z" fill="black"/>
<path fill-rule="evenodd" clip-rule="evenodd" d="M279.369 196.351C280.09 196.344 280.812 196.335 281.534 196.328C280.811 196.335 280.09 196.344 279.369 196.351Z" fill="black"/>
<path fill-rule="evenodd" clip-rule="evenodd" d="M231.065 80.9885C231.669 80.677 232.242 80.7093 232.782 81.1368C232.209 81.0876 231.637 81.0381 231.065 80.9885Z" fill="black"/>
<path fill-rule="evenodd" clip-rule="evenodd" d="M235.93 74.8157C235.645 74.7709 235.359 74.7256 235.077 74.6812C235.364 74.7265 235.647 74.7709 235.93 74.8157Z" fill="black"/>
<path fill-rule="evenodd" clip-rule="evenodd" d="M238.696 161.875C239.262 161.991 239.829 162.106 240.396 162.222C239.829 162.106 239.262 161.991 238.696 161.875Z" fill="black"/>
<path fill-rule="evenodd" clip-rule="evenodd" d="M219.131 207.508C219.708 207.495 220.286 207.482 220.864 207.468C220.286 207.481 219.709 207.495 219.131 207.508Z" fill="black"/>
<path fill-rule="evenodd" clip-rule="evenodd" d="M206.81 209.895C207.388 209.879 207.966 209.862 208.544 209.846C207.966 209.862 207.389 209.879 206.81 209.895Z" fill="black"/>
<path fill-rule="evenodd" clip-rule="evenodd" d="M201.544 210.751C202.123 210.722 202.703 210.694 203.282 210.665L201.544 210.751Z" fill="black"/>
<path fill-rule="evenodd" clip-rule="evenodd" d="M196.281 211.582L198.017 211.508C197.438 211.533 196.859 211.557 196.281 211.582Z" fill="black"/>
<path fill-rule="evenodd" clip-rule="evenodd" d="M307.311 252.734C306.878 252.714 306.445 252.694 306.019 252.673C306.453 252.694 306.882 252.714 307.311 252.734Z" fill="black"/>
<path fill-rule="evenodd" clip-rule="evenodd" d="M325.751 41.9689C325.462 41.9525 325.174 41.9366 324.89 41.9207C325.179 41.9375 325.465 41.953 325.751 41.9689Z" fill="black"/>
<path fill-rule="evenodd" clip-rule="evenodd" d="M69.3704 94.8307C69.0839 94.7975 68.7969 94.7652 68.5142 94.7328C68.8021 94.7652 69.086 94.7979 69.3704 94.8307Z" fill="black"/>
<path fill-rule="evenodd" clip-rule="evenodd" d="M190.6 118.302C191.166 118.419 191.733 118.535 192.299 118.652C191.732 118.535 191.166 118.419 190.6 118.302Z" fill="black"/>
<path fill-rule="evenodd" clip-rule="evenodd" d="M125.798 107.459C126.365 107.564 126.933 107.669 127.5 107.774C126.933 107.669 126.365 107.564 125.798 107.459Z" fill="black"/>
<path fill-rule="evenodd" clip-rule="evenodd" d="M81.7538 103.472C81.7521 103.905 81.7504 104.338 81.7482 104.769C81.7504 104.336 81.7521 103.904 81.7538 103.472Z" fill="black"/>
<path fill-rule="evenodd" clip-rule="evenodd" d="M75.743 101.102C76.3213 101.085 76.8992 101.067 77.4779 101.05C76.8996 101.068 76.3213 101.085 75.743 101.102Z" fill="black"/>
<path fill-rule="evenodd" clip-rule="evenodd" d="M91.5104 103.82C92.106 103.576 92.6907 103.472 93.2285 103.956C92.6558 103.911 92.0827 103.865 91.5104 103.82Z" fill="black"/>
<path fill-rule="evenodd" clip-rule="evenodd" d="M289.985 138.616C292.06 138.936 293.041 139.404 293.602 141.416C293.863 142.349 293.112 144.103 293.365 144.692C293.702 145.473 294.204 145.059 294.791 145.8C296.935 148.509 298.054 153.901 293.868 155.77C292.299 153.861 292.845 151.644 293.92 149.671C291.659 149.149 290.487 149.07 289.789 146.807C289.706 146.536 289.536 143.212 289.467 143.14C288.999 142.652 287.107 143.145 286.458 142.781C285.025 141.976 284.349 139.283 284.71 137.768C285.206 135.678 287.415 134.611 289.094 133.439C283.707 133.571 278.755 137.639 273.368 137.911C271.871 137.986 271.494 138.653 270.974 136.963C270.513 135.462 271.012 135.657 272.028 134.911C274.042 133.433 277.132 132.459 279.51 131.616C282.965 130.392 288.922 127.523 292.662 129.127C294.529 129.927 295.854 132.381 295.281 134.298C294.723 136.169 291.5 137.491 289.985 138.616Z" fill="black"/>
<path fill-rule="evenodd" clip-rule="evenodd" d="M292.141 110.768C293.683 113.17 294.36 115.708 292.692 118.244C295.063 118.05 297.702 117.617 299.247 119.762C301.48 122.863 299.172 123.879 296.569 124.056C294.479 124.198 290.331 125.547 288.499 124.138C285.489 121.822 288.485 117.438 289.645 115.219C287.732 115.28 282.904 115.845 283.736 112.264C284.337 109.683 290.263 110.337 292.141 110.768Z" fill="black"/>
<path fill-rule="evenodd" clip-rule="evenodd" d="M267.463 126.33L265.597 128.527C266.541 128.738 267.825 127.937 268.658 127.599C268.259 127.176 267.861 126.753 267.463 126.33ZM264.628 123.37C262.41 123.059 260.016 125.957 259.506 122.719C259.208 120.821 260.984 118.391 263.073 118.099C266.717 117.59 271.812 125.853 272.722 128.701C273.562 131.326 272.667 130.963 270.739 131.935C269.071 132.777 266.901 134.731 264.735 134.139C262.754 133.598 262.143 130.425 262.152 128.772C262.166 126.223 263.698 125.403 264.628 123.37Z" fill="black"/>
<path fill-rule="evenodd" clip-rule="evenodd" d="M275.916 123.36C276.251 124.385 278.671 129.174 276.524 129.163C275.33 129.157 273.079 122.245 272.757 121.454C272.315 120.369 271.386 118.873 271.55 117.644C271.833 115.518 271.714 116.189 273.155 116.42C275.963 116.872 278.284 121.145 280.937 122.229C279.838 118.149 278.19 113.676 279.318 109.51C282.479 112.431 282.616 118.449 283.482 122.446C283.746 123.663 284.373 126.155 283.042 126.979C281.535 127.912 276.933 124.008 275.916 123.36Z" fill="black"/>
<path fill-rule="evenodd" clip-rule="evenodd" d="M255.744 132.159C256.792 129.96 257.918 127.387 254.049 128.201C254.614 129.521 255.179 130.84 255.744 132.159ZM254.491 122.96C257.81 122.697 259.698 127.052 260.042 129.584C260.316 131.603 258.215 138.649 255.382 136.522C254.326 135.73 253.733 133.563 253.042 132.468C252.096 130.968 250.771 129.538 250.053 127.925C248.533 124.509 251.259 122.969 254.491 122.96Z" fill="black"/>
<path fill-rule="evenodd" clip-rule="evenodd" d="M254.638 123.031C253.916 123.04 253.194 123.05 252.473 123.06C253.195 123.05 253.917 123.04 254.638 123.031Z" fill="black"/>
<path fill-rule="evenodd" clip-rule="evenodd" d="M292.46 110.996C291.894 110.867 291.329 110.737 290.763 110.608C291.329 110.737 291.894 110.867 292.46 110.996Z" fill="black"/>
<path fill-rule="evenodd" clip-rule="evenodd" d="M297.009 118.333C296.436 118.282 295.864 118.23 295.292 118.178C295.897 117.866 296.469 117.923 297.009 118.333Z" fill="black"/>
<path fill-rule="evenodd" clip-rule="evenodd" d="M217.587 62.1504C220.383 64.1573 214.194 71.6739 211.742 65.5797C211.058 63.8789 211.271 61.7665 213.076 62.2078C213.889 62.406 214.001 63.6315 215.129 63.6776C216.248 63.7233 216.797 62.7619 217.587 62.1504Z" fill="black"/>
<path fill-rule="evenodd" clip-rule="evenodd" d="M233.829 69.1947C233.873 67.6917 236.76 64.7062 238.405 66.6794C240.056 68.6591 235.078 69.1482 233.829 69.1947Z" fill="black"/>
</svg>
