<svg width="352" height="284" viewBox="0 0 352 284" fill="none" xmlns="http://www.w3.org/2000/svg">
<path fill-rule="evenodd" clip-rule="evenodd" d="M160.866 31.4118L160.781 31.3688L160.687 31.3825L160.73 31.6807C160.687 31.3825 160.686 31.3825 160.686 31.3825H160.686L160.685 31.3829L160.68 31.3837L160.661 31.3865C160.644 31.3889 160.619 31.3929 160.588 31.3978C160.524 31.4078 160.43 31.4231 160.311 31.4436C160.074 31.4842 159.733 31.5461 159.319 31.6309C158.493 31.8 157.373 32.0613 156.203 32.4274C155.035 32.7935 153.806 33.2677 152.767 33.8665C151.735 34.4612 150.852 35.2011 150.429 36.1162C149.631 37.8398 149.251 40.7582 149.457 43.2381C149.56 44.4799 149.812 45.6438 150.253 46.507C150.694 47.3714 151.361 47.9923 152.299 47.9923C153.219 47.9923 154.089 47.3139 154.879 46.4266C155.684 45.5232 156.478 44.3196 157.237 43.1168C157.403 42.8548 157.567 42.5923 157.729 42.3331C158.317 41.3935 158.882 40.4893 159.424 39.7435C159.769 39.2688 160.098 38.869 160.407 38.5712C160.721 38.2694 160.993 38.0954 161.222 38.0351C162.447 37.7128 164.157 37.1052 165.553 36.5819C166.254 36.3195 166.878 36.0772 167.327 35.9004C167.551 35.8119 167.732 35.74 167.857 35.6898C167.919 35.6649 167.968 35.6456 168.001 35.6323L168.038 35.617L168.048 35.613L168.05 35.6122L168.051 35.6118H168.051C168.051 35.6118 168.051 35.6118 167.938 35.3325L168.051 35.6118L168.665 35.363L168.074 35.0637L160.866 31.4118ZM160.413 32.0376C160.529 32.0179 160.619 32.003 160.68 31.9933L167.206 35.3L167.106 35.3393C166.659 35.5154 166.038 35.7565 165.342 36.0173C163.946 36.5405 162.261 37.1385 161.068 37.4524C160.693 37.5508 160.332 37.8072 159.99 38.1364C159.643 38.4695 159.291 38.9015 158.937 39.389C158.381 40.1538 157.8 41.0821 157.211 42.0245V42.0249C157.05 42.2817 156.889 42.5393 156.728 42.7949C155.967 43.9997 155.196 45.1635 154.429 46.0259C153.647 46.904 152.935 47.3895 152.299 47.3895C151.682 47.3895 151.179 46.9953 150.789 46.2325C150.399 45.4685 150.158 44.3935 150.058 43.1887C149.858 40.7755 150.235 37.9696 150.976 36.3693C151.322 35.6219 152.076 34.9604 153.068 34.3885C154.054 33.8203 155.237 33.3617 156.383 33.0029C157.528 32.6444 158.627 32.388 159.44 32.2216C159.846 32.138 160.181 32.0773 160.413 32.0376ZM284.853 84.6511C283.685 87.5305 282.465 90.5374 282.115 93.3665C286.506 96.0575 288.948 99.991 291.556 104.191V104.192L291.557 104.193C291.858 104.678 292.161 105.166 292.47 105.656C294.221 108.439 295.621 111.301 297.032 114.185V114.185C297.932 116.025 298.836 117.874 299.839 119.716C304.846 128.921 313.69 157.247 315.013 161.814C316.058 165.424 317.551 168.997 319.021 172.513C319.37 173.35 319.719 174.183 320.059 175.013C320.296 175.589 320.303 176.305 320.31 176.995C320.321 178.128 320.332 179.191 321.356 179.446C322.298 179.682 324.762 178.5 326.841 177.503H326.841C328.058 176.919 329.143 176.398 329.715 176.262C334.433 175.136 339.555 175.707 344.382 176.246L344.522 176.262C344.822 174.5 344.144 170.168 343.513 168.452C343.183 167.554 342.86 166.561 342.526 165.535C341.731 163.097 340.876 160.474 339.735 158.507C338.721 156.763 335.977 151.381 332.707 144.97L332.706 144.969C327.599 134.955 321.209 122.426 318.131 117.315C316.148 114.022 314.128 110.997 312.159 108.048C307.701 101.371 303.504 95.0837 300.586 86.9707C298.335 80.7132 296.602 74.0083 294.958 67.5599C294.342 65.1454 293.85 62.7603 293.36 60.3832V60.3828C292.661 56.993 291.966 53.6201 290.92 50.2018C290.638 50.3907 290.151 50.4984 289.649 50.6093C288.993 50.7544 288.309 50.9055 288.02 51.2527C287.378 52.0247 287.38 52.0255 287.549 52.1067C287.667 52.1641 287.869 52.261 287.987 52.693C288.203 53.4823 288.579 54.1884 288.96 54.9029C289.456 55.8361 289.961 56.7833 290.127 57.9491C290.504 60.591 289.971 63.163 289.437 65.7366C289.172 67.0174 288.906 68.2985 288.753 69.5885C288.267 73.6764 287.642 77.0256 286.317 80.8615C285.896 82.0799 285.38 83.3527 284.853 84.6511ZM181.314 114.213V114.214C178.305 115.32 175.337 116.411 172.451 117.514C172.451 117.514 180.764 126.284 186.213 128.989C186.738 129.251 187.33 129.56 187.963 129.891C190.415 131.174 193.495 132.784 195.8 133.187C198.71 133.695 209.429 134.857 212.18 133.629C213.364 133.101 216.438 130.701 217.449 129.892C217.988 129.461 218.307 128.624 218.624 127.793C218.896 127.08 219.167 126.37 219.574 125.924C223.188 121.962 227.184 118.802 231.925 116.411L232.161 116.292C234.201 115.265 236.794 113.958 238.243 112.199C239.927 110.156 240.364 107.159 240.529 104.621C240.703 101.94 240.719 99.2379 240.734 96.5345V96.5341C240.758 92.3534 240.782 88.1679 241.393 84.0475C242.304 77.9005 244.134 71.3065 246.897 65.7334C248.318 62.8664 250.07 60.1598 252.067 57.6622C252.554 57.0533 253.129 56.5546 253.701 56.0595C254.175 55.6488 254.647 55.2405 255.063 54.7735C256.011 53.7097 256.005 53.3227 255.989 52.0307C255.987 51.8434 255.984 51.6373 255.984 51.4074C251.683 54.4066 246.887 55.6673 241.887 56.9818C241.519 57.0786 241.15 57.1759 240.78 57.274C239.938 57.497 239.087 57.7072 238.235 57.9177C233.528 59.0804 228.774 60.255 225.164 63.6882C222.882 65.8592 221.707 66.519 218.62 66.8301C217.614 66.9314 216.603 67.0161 215.593 67.1013H215.593C213.429 67.283 211.262 67.4646 209.117 67.8098C203.465 68.7189 198.038 70.4719 192.609 72.2252L192.266 72.3357C181.065 75.953 171.273 82.0004 161.562 88.3881C157.892 90.8026 154.572 93.6635 151.256 96.522L151.255 96.5224C150.64 97.0529 150.024 97.5834 149.407 98.1111C148.805 98.6246 148.156 99.1672 147.478 99.735L147.477 99.7354C142.765 103.677 136.588 108.844 134.511 114.074C135.214 114.011 135.939 113.94 136.679 113.867C142.822 113.263 150.046 112.553 155.715 115.108C156.195 109.802 159.462 103.518 162.976 99.7065C166.141 96.2737 170.026 92.8003 173.928 90.08C181.053 85.1133 189.928 83.4728 198.505 81.8874C200.938 81.4378 203.347 80.9925 205.685 80.4773C206.515 80.294 207.343 80.1156 208.169 79.9376C213.059 78.883 217.874 77.8442 222.539 75.9968C224.003 75.4173 227.637 75.9984 227.327 76.7547C226.712 78.2513 226.37 79.8407 226.03 81.4261L226.021 81.4687C225.387 84.4225 224.853 87.3959 224.318 90.3698C223.763 93.4602 223.207 96.5514 222.539 99.6217C222.335 100.564 220.342 97.4042 220.262 96.2612C208.827 104.097 194.666 109.304 181.314 114.213ZM263.462 156.886C260.015 150.899 254.966 145.716 249.965 140.949C251.268 140.439 252.511 137.904 253.222 136.451C253.277 136.339 253.328 136.234 253.377 136.137C254.31 134.251 255.396 132.34 256.466 130.531C257.637 128.552 260.081 123.054 262.218 118.246C263.658 115.008 264.959 112.082 265.638 110.754C267.635 106.851 280.959 67.4357 280.662 63.3507C280.656 63.261 280.649 63.1738 280.643 63.0895C280.521 61.4562 280.471 60.7807 281.394 59.4666C282.17 58.3606 283.486 56.9336 284.724 55.5909C285.511 54.7365 286.268 53.9159 286.833 53.2343C287.438 56.52 286.189 60.6923 285.06 64.4622C284.608 65.9733 284.175 67.4196 283.888 68.7185C283.239 71.661 282.512 74.5609 281.783 77.4636C281.335 79.2516 280.886 81.0399 280.455 82.8399C280.133 84.1862 279.64 85.4392 279.147 86.6918V86.6922C278.783 87.619 278.418 88.5457 278.122 89.5102C277.741 90.7576 277.46 92.0311 277.179 93.3071C276.886 94.6348 276.592 95.9647 276.185 97.2679C275.893 98.2007 275.581 99.1266 275.27 100.05L275.27 100.051C273.883 104.17 272.512 108.24 273.021 112.668C273.564 117.383 274.213 122.465 275.76 126.943C277.594 132.256 279.32 137.274 279.733 142.936C280.125 148.322 278.817 153.928 277.404 159.089C276.904 160.917 273.129 174.167 271.984 173.977C271.324 169.422 268.487 164.939 265.847 160.768L265.847 160.767C265.007 159.439 264.186 158.143 263.462 156.886Z" fill="#FF5678"/>
<path fill-rule="evenodd" clip-rule="evenodd" d="M134.414 148.725C134.867 148.88 135.035 148.587 134.915 147.846C134.462 147.644 134.295 147.937 134.414 148.725ZM291.547 35.8686C290.83 35.9345 291.235 36.643 291.661 36.9083C291.623 36.5618 291.585 36.2154 291.547 35.8686ZM249.734 140.062C250.162 139.735 250.009 139.457 249.278 139.231C248.862 139.57 249.014 139.848 249.734 140.062ZM87.6613 138.282C85.3365 137.909 83.5353 134.385 81.618 135.127C79.2184 136.055 77.0218 140.248 75.3825 142.135C76.6464 143.151 78.0453 144.064 79.3836 144.979C80.764 145.923 80.4095 146.256 81.8012 145.135C82.8144 144.319 83.6257 142.849 84.4661 141.847C85.4748 140.641 86.7571 139.569 87.6613 138.282ZM141.239 271.788C141.651 271.823 141.929 262.533 142.263 261.255C143.005 258.417 144.298 255.56 145.729 253.009C146.34 251.92 147.431 250.515 147.895 249.397C148.609 247.675 147.454 246.499 147.128 244.522C146.434 240.306 147.354 236.581 148.831 232.672C146.112 232.054 143.49 231.036 140.726 230.612C140.726 234.342 140.357 237.469 138.819 240.89C138.434 241.748 137.659 242.443 137.991 243.492C138.099 243.833 139.048 244.055 139.277 244.369C140.557 246.138 140.763 247.544 140.833 249.749C141.064 257.158 140.254 264.431 141.239 271.788ZM121.986 143.627C123.488 144.897 128.285 135.933 129.935 135.984C133.442 136.094 128.459 144.907 128.154 145.985C129.557 145.485 130.884 142.308 131.634 141.077C132.277 140.022 134.641 134.841 135.992 134.521C138.626 133.898 137.458 138.688 137.089 139.812C136.26 142.339 135.45 144.84 134.726 147.401C136.265 146.561 137.407 141.533 138.098 139.891C139.052 137.62 139.816 135.131 141.305 133.145C142.321 131.79 143.993 129.879 145.826 129.783C148.055 129.667 148.893 132.043 150.902 132.488C151.17 127.424 150.671 122.335 151.263 117.287C147.299 117.37 143.313 117.554 139.399 118.229C137.195 118.609 135.731 118.594 134.645 120.656C133.804 122.254 133.147 123.924 132.352 125.546C129.297 131.779 126.03 137.969 121.986 143.627ZM71.8316 124.731C68.9373 127.701 66.3203 130.774 63.5936 133.89C60.8592 137.014 57.0571 139.017 54.4743 142.243C52.1145 145.191 50.343 148.584 48.0934 151.628C45.603 154.997 43.5418 158.771 41.4211 162.387C43.6069 162.787 44.1458 162.832 45.5616 161.208C46.7338 159.864 47.6935 158.245 48.8766 156.89C51.6274 153.737 54.2794 151.169 57.7166 148.699C61.0763 146.286 65.404 144.173 69.4223 142.944C70.9893 142.466 71.5651 142.587 72.4328 141.154C73.0553 140.126 73.2823 138.84 73.9141 137.789C75.2776 135.519 77.4325 134.243 79.5741 132.804C77.154 129.954 74.2533 127.625 71.8316 124.731ZM265.13 38.2316C264.337 38.826 264.23 41.0572 263.865 41.9839C263.196 43.6862 262.247 45.2837 261.414 46.9093C259.954 49.7634 258.741 52.9583 258.794 56.2319C258.849 59.5972 261.458 61.5294 264.592 62.1394C268.037 62.8102 270.68 61.4558 273.708 60.0075C276.712 58.5696 279.191 56.2978 281.58 54.0035C283.471 52.1879 284.677 49.2309 286.82 48.2121C288.855 47.2448 291.354 46.3892 291.966 43.5187C292.385 41.5575 291.588 41.7878 289.868 42.2061C288.038 42.6502 286.714 43.8265 285.016 44.4582C285.961 42.3042 286.188 40.536 285.024 38.4253C284.354 37.2097 283.098 35.1979 281.575 35.1493C280.572 35.1175 279.373 36.2146 278.448 36.5675C277.316 36.9987 276.062 37.1976 274.897 37.5187C271.444 38.4727 268.676 38.656 265.13 38.2316ZM271.934 173.901C273.092 174.094 276.822 160.886 277.335 159.012C278.745 153.851 280.046 148.24 279.655 142.858C279.243 137.18 277.492 132.195 275.696 126.861C274.18 122.361 273.519 117.313 272.968 112.586C272.335 107.157 274.529 102.28 276.12 97.1839C276.855 94.8298 277.242 92.4205 277.888 90.0527C278.567 87.5615 279.767 85.3022 280.375 82.7543C281.502 78.0291 282.748 73.3858 283.796 68.6313C284.793 64.1086 287.516 58.7251 286.674 54.1317C285.256 55.8465 283.542 57.3419 282.141 59.0265C280.713 60.7453 281.209 60.88 281.382 63.2631C281.667 67.1982 280.84 71.7691 279.924 75.5917C278.013 83.5621 274.635 90.8006 272.169 98.533C270.902 102.509 270.398 106.992 268.605 110.744C266.998 114.109 264.774 117.1 263.07 120.351C261.201 123.915 259.013 127.279 256.97 130.746C256.003 132.388 254.996 133.995 254.137 135.699C253.413 137.134 252.612 140.596 251.194 141.152C256.184 145.926 260.004 150.815 263.443 156.809C266.436 162.026 271.065 167.882 271.934 173.901ZM282.316 93.3203C287.026 96.2082 289.386 100.451 292.276 105.004C295.16 109.547 297.86 114.197 300.426 118.925C305.532 128.331 309.288 137.674 312.11 148.018C313.382 152.683 315.235 157.213 316.557 161.781C317.778 166.001 318.176 170.295 319.934 174.339C320.419 175.456 320.795 177.926 322.082 178.32C323.599 178.785 327.669 176.703 329.204 176.32C334.187 175.076 339.383 174.826 344.493 175.397C344.791 173.637 342.771 170.165 342.141 168.449C341.1 165.615 340.165 162.592 338.77 159.911C336.366 155.296 333.588 150.807 330.808 146.458C327.861 141.85 325.439 136.907 322.426 132.413C321.036 130.339 319.048 127.541 318.134 125.235C317.682 124.096 317.541 123.656 316.996 122.69C316.521 121.846 315.965 121.013 315.463 120.178C309.129 109.654 304.45 98.9719 300.378 87.4992C298.149 81.2195 296.286 74.8981 294.522 68.4705C292.864 62.4308 292.55 56.2018 290.708 50.1821C289.624 50.9079 287.807 50.8062 287.841 52.2453C287.847 52.5278 289.366 54.5428 289.533 54.9343C289.869 55.7288 290.076 56.5679 290.23 57.4142C290.978 61.5274 289.476 65.5176 288.946 69.5572C288.433 73.4666 287.97 76.6671 286.637 80.3354C285.194 84.3067 282.831 89.1569 282.316 93.3203ZM173.863 117.624C178.466 121.627 182.731 126.119 188.18 128.823C190.739 130.092 192.774 131.892 195.674 132.398C198.586 132.907 201.59 132.619 204.512 132.411C207.499 132.199 210.202 132.164 212.953 130.936C214.137 130.409 215.937 129.898 216.948 129.09C217.949 128.289 218.579 126.992 219.461 126.027C223.074 122.069 227.071 118.911 231.811 116.522C237.094 113.859 240.018 110.836 240.414 104.743C240.858 97.921 240.273 90.9666 241.278 84.1874C242.192 78.0363 244.017 71.4617 246.782 65.8893C248.204 63.0252 249.956 60.321 251.952 57.8253C252.843 56.7121 254.031 55.9683 254.948 54.9391C256.033 53.7222 255.869 53.3923 255.869 51.5762C251.252 54.7924 246.064 56.0081 240.665 57.4371C235.19 58.8867 229.298 59.8086 225.05 63.8462C222.769 66.0151 221.593 66.6746 218.507 66.9848C215.344 67.3035 212.15 67.4582 209.004 67.9638C203.231 68.8921 197.699 70.6973 192.153 72.4856C180.953 76.0997 171.161 82.1418 161.45 88.5236C157.096 91.3857 153.243 94.8699 149.295 98.238C144.519 102.313 138.098 107.772 135.722 113.75C142.266 113.159 148.91 111.27 155.26 114.129C155.743 108.815 159.347 103.644 162.864 99.8323C165.983 96.4529 169.796 93.0752 173.612 90.3565C182.743 83.8502 194.921 82.1639 205.551 79.8226C211.297 78.5567 216.653 77.5697 222.11 75.4109C223.492 74.8643 227.523 72.4181 228.284 73.8753C228.77 74.8069 227.523 76.1447 227.212 76.901C226.676 78.2063 226.37 79.5638 226.059 80.9435C224.657 87.1665 223.783 93.5084 222.426 99.7479C222.226 100.667 221.96 104.822 220.309 104.258C219.208 103.882 220.228 97.536 220.149 96.3894C206.134 105.986 189.557 111.633 173.863 117.624ZM189.615 224.745C186.501 224.879 183.329 226.555 180.309 227.317C176.24 228.346 171.968 229.392 168.201 231.235C166.196 232.217 166.177 232.791 166.726 235.027C167.157 236.786 167.655 238.488 168.018 240.278C168.918 244.719 169.925 249.105 171.046 253.494C182.646 243.816 197.452 238.342 211.922 234.613C213.969 234.085 216.054 233.923 218.13 233.562C219.948 233.246 222.019 233.471 223.742 233.114C224.85 232.884 225.851 232.138 226.983 231.876C229.431 231.308 232.348 231.263 234.705 230.392C237.857 229.227 241.384 227.686 244.503 226.099C247.908 224.364 250.648 223.097 251.341 219.367C251.891 216.409 253.27 213.645 253.699 210.741C254.256 206.955 253.564 203.59 253.331 199.805C252.79 191.046 251.516 182.192 249.288 173.649C247.152 165.457 245.628 157.071 244.156 148.767C243.869 147.149 243.296 145.658 242.92 144.067C242.295 141.421 241.051 142.1 238.649 142.255C234.155 142.545 229.403 140.753 225.672 138.334C223.909 137.192 221.682 134.581 219.667 134.02C217.873 133.52 216.04 135.944 214.327 136.756C210.233 138.697 205.212 139.222 200.743 139.528C190.995 140.196 183.607 133.852 176.965 127.4C172.505 132.386 167.673 137.127 162.496 141.363C158.229 144.854 154.603 149.388 151.052 153.545C147.715 157.452 145.017 163.527 140.486 166.263C137.844 167.86 135.874 166.85 133.323 165.245C131.297 163.97 129.065 163.276 127.026 162.1C117.613 156.668 108.723 150.534 99.5262 144.776C97.5149 143.517 94.3533 140.554 91.9863 140.341C90.2325 140.184 90.3708 140.622 89.3564 142.074C88.3735 143.481 87.3772 144.878 86.4015 146.29C82.5773 151.825 78.5011 157.538 75.4022 163.514C82.1489 161.906 88.5274 161.658 95.1671 162.608C101.275 163.483 109.073 164.539 114.48 167.84C116.79 169.251 119.058 170.834 121.362 172.437C124.254 174.45 126.5 177.263 129.701 178.781C132.462 180.09 135.45 180.682 138.32 181.658C141.545 182.752 146.12 184.793 149.545 183.907C152.463 183.151 154.907 180.563 157.104 178.781C159.962 176.462 163.436 174.876 166.328 172.714C171.454 168.883 176.804 165.61 182.317 162.186C188.9 158.098 195.215 153.398 202.048 149.799C203.391 149.091 204.72 148.6 205.97 147.754C207.146 146.959 207.992 145.504 209.407 146.541C210.665 147.462 210.115 149.16 209.735 150.342C209.378 151.45 209.048 151.804 209.278 152.771C209.492 153.67 210.876 155.05 211.352 155.93C213.597 160.082 215.201 164.54 217.353 168.74C219.447 172.824 221.809 176.754 223.756 180.917C227.599 189.131 232.965 196.411 236.368 204.89C234.801 205.532 234.605 204.21 233.39 204.085C232.061 203.948 232.542 204.201 231.222 205.152C229.452 206.429 227.554 207.235 225.656 208.231C221.428 210.447 217.099 213.056 212.536 214.587C204.7 217.219 197.478 221.87 189.615 224.745ZM324.452 186.39C324.181 188.335 323.833 190.264 323.55 192.205C323.35 193.577 322.582 195.565 322.756 196.922C324.775 195.969 326.948 192.774 328.506 196.269C329.435 198.35 328.271 202.482 327.996 204.722C330.278 204.259 329.763 198.655 333.408 200.464C336.212 201.854 334.25 208.921 336.442 209.61C337.956 207.223 337.706 201.807 338.202 198.966C338.434 197.634 338.101 195.845 339.66 195.758C341.011 195.683 342.08 197.64 342.719 198.535C343.328 195.287 344.97 192.406 344.253 189.416C343.81 187.567 343.356 185.716 342.882 183.874C342.603 182.79 342.306 179.461 341.363 178.716C339.608 177.329 333.196 179.798 331.256 180.356C329.487 180.864 327.232 181.346 325.604 182.203C323.894 183.104 324.419 184.4 324.452 186.39ZM267.63 74.6284C270.256 74.3411 272.532 72.7501 274.547 71.0907C277.85 68.3721 278.351 66.2426 278.979 62.0534C274.743 64.1179 271.614 65.8254 266.835 65.9114C261.364 66.0099 258.675 62.8025 256.16 58.3892C255.485 59.4175 254.522 60.5086 254.029 61.6359C253.407 63.0597 253.486 62.7639 253.666 64.2091C253.945 66.4403 255.056 69.2992 256.186 71.2571C258.624 75.4844 263.418 76.0567 267.63 74.6284ZM159.498 244.458H164.465C164.18 242.638 163.896 240.819 163.611 238.999C163.363 237.411 163.775 235.177 162.214 234.901C160.922 234.672 159.639 236.104 158.324 235.976C156.823 235.83 155.96 234.753 154.22 235.186C151.744 235.803 152.239 238.515 152.202 240.791C152.188 241.684 151.844 243.029 152.123 243.898C152.61 245.413 152.204 244.809 153.711 244.956C155.48 245.13 157.676 244.556 159.498 244.458ZM282.629 25.3063C284.448 25.5957 289.161 29.4676 290.491 28.5441C292.297 27.2908 287.105 23.8282 286.041 23.2832C280.843 20.6191 271.119 22.7241 267.625 27.588C269.915 27.8107 272.714 25.7131 275.063 25.3684C277.58 24.9991 280.1 25.3125 282.629 25.3063ZM281.36 125.512C282.842 131.481 285.502 137.877 285.486 144.082C285.469 150.531 284.045 156.384 281.435 162.289C280.129 165.244 278.96 168.231 277.476 171.103C276.79 172.433 276.158 174.063 275.208 175.224C274.036 176.655 273.673 176.549 272.279 175.412C271.656 177.005 271.003 178.647 268.886 177.577C267.361 176.805 267.394 174.894 266.895 173.473C265.557 169.664 262.697 166.379 260.678 162.909C258.608 159.352 256.861 155.525 254.57 152.105C253.468 150.459 252.154 148.926 250.976 147.327C250.083 146.116 248.72 143.313 247.479 142.602C247.315 144.2 249.019 146.526 249.649 148.086C250.474 150.135 251.184 152.24 251.78 154.367C252.939 158.496 253.639 162.813 254.521 167.011C256.098 174.515 257.958 181.972 259.013 189.589C259.995 196.676 260.256 203.998 259.51 211.116C259.19 214.173 257.398 216.759 256.189 219.543C254.547 223.329 252.551 225.689 249.251 228.374C243.259 233.25 236.626 236.168 229.328 238.345C227.967 238.75 226.702 238.574 225.425 238.849C223.992 239.158 222.852 239.888 221.294 240.131C217.274 240.76 213.185 241.499 209.304 242.639C206.245 243.537 203.224 244.473 200.198 245.406C197.891 246.118 195.05 246.779 192.83 247.828C187.354 250.414 182.217 253.449 177.135 256.664C175.645 257.608 174.547 258.179 173.448 259.574C172.259 261.084 172.431 262.151 171.783 263.872C171.179 265.479 170.123 266.384 168.69 265.048C167.35 263.8 167.879 261.165 167.77 259.62C167.606 257.291 166.226 248.384 164.622 247.639C163.465 247.101 160.079 248.258 158.675 248.412C156.856 248.612 155.217 248.607 153.404 248.358C154.004 250.852 151.816 254.225 150.898 256.417C149.331 260.157 148.112 263.799 147.462 267.779C147.02 270.492 147.162 273.217 146.745 275.962C146.315 278.795 146.967 283.238 143.119 283.663C137.011 284.338 135.452 272.117 134.758 268.019C133.668 261.592 134.531 255.259 135.174 248.797C135.226 248.274 135.492 245.972 135.255 245.554C135.062 245.214 133.345 244.626 133.123 244.469C131.187 243.093 131.975 242.361 132.552 240.311C133.653 236.395 133.334 231.5 135.98 228.075C138.004 225.455 142.548 227.047 145.166 227.754C147.117 228.281 149.045 228.991 150.941 229.693C152.252 230.179 153.715 231.631 154.863 231.866C157.153 232.333 158.84 229.409 160.548 228.374C163.629 226.506 166.843 224.789 170.163 223.536C176.264 221.235 182.578 219.913 188.836 217.976C192.669 216.791 196.453 215.495 200.094 213.782C202.783 212.517 205.496 210.735 208.406 209.877C212.071 208.797 215.792 207.296 219.369 205.803C223.175 204.216 227.339 203.198 231.244 201.912C223.113 190.009 216.165 177.277 210.581 163.978C209.937 162.444 209.319 160.902 208.749 159.34C208.458 158.544 207.745 154.978 206.989 154.475C205.615 153.561 200.094 157.702 198.556 158.71C192.982 162.362 187.637 166.353 181.83 169.671C176.802 172.545 172.057 175.878 167.248 178.961C164.6 180.658 162.137 182.823 159.444 184.537C156.758 186.246 153.598 189.43 150.416 190.168C149.229 190.444 147.217 190.107 146.018 190.01C144.326 189.872 142.438 189.72 140.793 189.25C137.568 188.33 134.16 187.284 131.009 186.138C125.343 184.078 120.952 178.995 115.845 175.857C109.689 172.075 102.716 171.132 95.8358 169.041C88.3084 166.754 79.9595 166.505 72.0144 167.099C72.0144 159.85 75.5135 154.413 79.3321 148.464C76.5817 146.658 75.4215 145.533 72.3432 147.203C70.0597 148.443 67.9543 149.557 65.836 150.942C63.5353 152.448 61.0863 153.602 58.7948 155.253C56.3044 157.047 54.1259 158.95 51.826 160.958C50.0963 162.468 48.1267 163.841 46.3175 165.205C44.5308 166.554 42.7115 166.358 40.4268 165.44C39.7529 165.168 37.6487 164.222 37.2926 163.766C36.5749 162.848 37.1058 162.207 37.7021 160.995C39.081 158.191 40.8428 155.345 42.6424 152.781C44.2486 150.492 46.3336 148.581 48.0158 146.35C49.6128 144.233 50.7546 141.774 52.6044 139.855C54.6732 137.708 57.1267 135.986 59.0802 133.698C60.0539 132.558 61.1639 131.341 61.241 129.996C61.3001 128.963 60.1503 127.963 60.1395 127.222C60.115 125.482 63.0953 123.713 64.3395 122.434C66.166 120.554 67.9704 118.93 70.7919 119.737C72.8632 120.328 75.9797 122.939 77.5229 124.456C79.4647 126.366 81.0743 128.577 83.0772 130.466C84.2032 131.528 85.4036 132.498 86.567 133.516C87.2551 134.118 88.3457 135.845 89.1069 136.197C89.7873 136.513 90.4515 136.215 91.4028 136.189C90.9744 136.2 93.1429 136.565 93.0275 136.534C94.0539 136.809 95.0671 137.106 96.0786 137.433C100.237 138.777 104.068 141.044 107.82 143.301C117.349 149.034 126.292 155.143 135.625 161.254C138.39 163.063 139.15 162.934 141.272 160.344C143.253 157.927 144.896 155.241 146.756 152.736C149.823 148.607 153.28 144.592 156.9 140.923C160.627 137.147 164.922 133.987 168.905 130.493C170.011 129.523 174.57 126.247 174.282 125.019C174.12 124.325 172.646 123.155 172.179 122.444C171.483 121.386 170.761 120.191 170.247 119.023C167.221 112.148 175.073 111.677 179.668 109.552C185.277 106.958 190.831 104.093 196.564 101.777C199.442 100.614 202.325 99.5522 205.231 98.4743C207.906 97.4817 210.343 95.8726 212.976 94.7775C214.915 93.9706 219.128 93.6631 220.42 91.9467C221.183 90.9344 220.855 87.7367 220.989 86.5572C221.21 84.6001 221.536 82.6534 222.048 80.7502C221.087 80.577 219.283 81.6323 218.409 82.0382C216.726 82.8194 215.26 83.5886 213.393 84.0801C209.397 85.1306 205.214 85.2503 201.277 86.3904C195.286 88.1269 188.897 89.1312 183.037 91.6228C176.29 94.4906 170.48 99.5357 165.74 104.981C163.293 107.792 161.348 110.494 159.679 113.83C159.246 114.694 158.733 117.59 158.068 118.193C157.222 118.961 154.987 118.153 154.025 117.994C154.025 120.549 154.079 123.108 153.987 125.659C153.89 128.352 154.375 132.483 153.443 134.967C152.569 137.299 150.937 136.816 149.209 135.656C146.912 134.116 145.734 133.232 143.676 135.619C140.094 139.772 138.739 146.224 136.282 151.086C135.477 152.678 133.493 156.011 132.409 152.739C131.618 150.354 132.929 147.312 132.317 144.955C131.48 146.425 128.976 150.799 126.996 150.787C124.272 150.77 125.16 146.54 125.251 144.815C123.645 146.53 118.929 152.133 117.788 147.641C116.912 144.194 119.359 140.773 121.096 138.059C123.118 134.9 125.106 131.694 127.204 128.589C129.257 125.551 130.631 122.109 132.712 119.052C131.126 119.272 128.055 118.753 129.031 116.297C129.541 115.013 131.156 115.553 131.944 114.755C132.765 113.925 133.207 111.568 133.666 110.48C135.93 105.119 139.176 100.712 142.93 96.3525C149.563 88.6494 158.032 82.4991 166.571 77.3403C176.744 71.1936 187.232 67.4558 198.624 64.451C204.022 63.0276 209.497 62.3733 214.953 61.3477C217.219 60.9222 219.516 60.6822 221.309 59.2472C223.981 57.1068 225.743 55.5222 228.964 54.1562C231.567 53.0527 234.037 52.5435 236.876 52.0721C239.918 51.5662 243.41 52.2389 246.334 51.3801C248.763 50.6656 251.595 49.1143 253.802 47.8729C254.914 47.2484 256.882 46.8964 257.481 46.3647C258.64 45.3395 259.407 42.7828 260.147 41.406C258.317 41.885 257.619 40.585 257.129 39.01C256.315 36.3906 256.306 37.2611 253.764 36.1644C252.258 35.5146 251.77 33.7805 250.577 33.1648C249.297 32.5041 247.266 33.9292 245.754 33.4658C244.528 33.0901 243.33 31.7723 243.397 30.3698C243.424 29.7847 244.041 29.2654 244.052 28.7888C244.079 27.6716 243.166 27.0545 243.299 25.8299C243.506 23.9346 244.469 24.2549 243.651 22.201C242.837 20.1565 243.155 19.7534 243.399 17.6343C243.467 17.0486 243.166 16.1051 243.576 15.607C243.814 15.316 244.687 15.2712 244.776 15.1241C245.109 14.5749 245.119 14.1238 245.187 13.1167C245.225 12.543 245.048 11.3956 245.645 10.971C246.163 10.6023 246.899 11.2876 247.353 11.0706C247.747 10.8823 248.088 9.94409 248.735 9.83092C251.125 9.41261 250.396 11.8446 251.617 8.8092C252.324 7.05105 252.867 6.33133 254.135 5.33151C254.686 5.58602 255.03 5.4833 255.167 5.02223C255.352 4.68896 255.539 4.35621 255.724 4.02346C256.714 3.78929 256.856 4.53042 257.622 3.80235C258.907 2.58033 257.585 -0.125959 260.181 0.598457C262.064 1.12366 262.522 3.53844 264.492 4.11838C264.763 3.33191 264.728 1.03292 265.872 0.800318C267.037 0.563535 267.923 2.68623 268.347 3.37938C268.623 2.78324 269.078 0.997959 269.532 0.561445C270.837 -0.69288 270.442 0.522302 271.596 0.6892C271.777 0.901469 271.959 1.11426 272.14 1.32705C272.744 1.0324 273.338 0.721551 273.923 0.392457C275.188 0.153062 274.738 0.283952 275.841 0.730432C276.724 1.08766 276.196 1.49604 277.268 1.72085C278.047 1.88304 278.706 1.07464 279.573 1.32239C279.825 1.43242 280.078 1.54298 280.33 1.65305C280.687 2.44526 281.235 2.58556 281.974 2.07341C282.846 2.43276 284.022 3.87694 284.949 3.82947C286.723 3.73712 286.305 1.29579 288.25 1.41522C288.971 1.45903 290.835 3.39814 291.35 3.97391C292.071 4.78179 291.867 5.47964 292.77 6.38816C294.079 7.70405 293.311 6.9984 294.56 7.59398C296.422 8.48219 297.109 8.14631 297.875 10.2842C298.542 12.1435 298.917 14.4565 298.924 16.4264C298.928 17.6557 298.044 20.3667 299.75 19.7721C300.947 19.3549 300.746 16.3867 302.031 17.3177C303.008 18.0249 301.08 21.8067 301.058 22.6939C300.993 25.2463 301.401 25.4507 299.819 27.3582C299.069 28.2616 297.352 29.9261 296.971 31.0964C296.521 32.4808 297.716 34.8784 297.992 36.115C298.589 38.7987 298.085 39.3657 296.312 41.4747C296.122 41.5885 295.932 41.7026 295.741 41.8163C294.795 41.8143 294.532 42.2865 294.953 43.2313C294.576 44.2854 294.622 45.3014 294.088 46.3607C293.797 46.9394 292.51 48.1117 292.444 48.6843C292.328 49.7055 292.835 49.8843 293.695 50.9429C297.16 55.2111 298.748 60.7425 300.463 65.8764C303.482 74.9194 307.204 83.7401 310.81 92.5905C312.215 96.0406 313.638 99.354 315.096 102.843C316.911 107.186 319.462 111.151 321.619 115.36C323.11 118.269 324.631 121.463 326.495 123.973C328.839 127.131 330.156 131.189 332.211 134.608C334.407 138.259 336.971 141.856 339.089 145.613C341.114 149.207 343.616 152.496 345.539 156.186C347.94 160.794 350.735 166.331 351.396 171.552C351.629 173.403 352.357 176.455 351.209 178.038C350.02 179.678 346.746 180.363 345.085 179.139C346.746 183.007 347.779 187.34 348.524 191.476C348.846 193.262 349.295 194.84 348.901 196.665C348.549 198.298 349.133 197.347 347.815 198.302C346.712 199.101 347.222 196.848 346.354 199.145C346.172 199.629 346.53 200.972 346.518 201.535C346.467 203.791 346.299 206.089 346.211 208.359C346.145 210.081 346.422 211.534 344.306 211.352C342.611 211.206 341.771 209.405 341.018 208.134C340.735 210.158 340.573 212.177 340.34 214.207C340.133 216.007 340.547 217.786 338.241 217.592C334.461 217.273 332.972 210.423 332.014 207.561C330.292 209.829 329.454 214.334 328.697 217.109C327.976 219.75 327.135 225.371 323.45 221.913C320.995 219.608 321.946 215.076 322.387 212.127C322.532 211.154 324.605 202.608 323.635 202.115C322.25 203.597 320.636 206.019 318.354 204.713C316.303 203.538 316.971 200.928 317.134 199.044C317.598 193.684 319.437 188.547 320.801 183.353C320.025 183.18 318.139 183.026 317.5 182.448C316.681 181.708 317.186 181.349 316.826 180.403C316.34 179.123 315.466 177.822 314.777 176.606C312.53 172.642 311.837 168.692 310.676 164.379C309.555 160.214 307.442 156.547 306.321 152.328C305.08 147.654 303.757 143.061 302.291 138.406C299.092 128.236 294.483 118.554 289.185 109.33C288.489 108.119 282.789 95.0379 281.931 95.4241C281.318 95.7002 280.967 99.0848 280.734 99.9999C280.192 102.118 280.086 104.345 279.959 106.528C277.87 111.62 280.093 120.407 281.36 125.512Z" fill="black"/>
<path fill-rule="evenodd" clip-rule="evenodd" d="M88.7275 108.274C90.855 108.781 91.6161 103.821 91.8544 102.286C92.2398 99.7961 92.6819 97.6553 94.0229 95.4784C94.6752 94.4194 95.4544 93.3311 96.3004 92.4181C96.7939 91.8868 98.0308 91.194 98.2892 90.6237C99.0034 89.0468 98.1735 85.0827 98.1831 83.3084C98.1892 82.1691 97.4441 76.8672 98.7815 76.4975C100.519 76.0161 100.972 80.8514 101.164 81.9397C101.384 83.1863 101.347 84.3879 101.481 85.6208C101.603 86.7722 102.23 87.4847 102.47 88.2519C103.156 90.4437 101.527 92.2847 100.359 94.2595C99.0592 96.4573 97.6527 98.5925 96.7404 100.992C95.7502 103.595 95.8137 106.337 95.0397 108.972C93.7814 113.255 88.504 115.59 84.2293 114.334C81.9571 113.666 82.4349 112.13 81.7148 110.361C81.4423 109.689 80.6764 109.316 80.4485 108.424C80.207 107.48 80.428 106.251 80.6133 105.297C81.5122 100.681 82.971 95.8477 84.3804 91.3563C76.7099 95.5812 68.5864 98.365 59.7537 98.2063C55.3632 98.1271 52.1647 97.1851 48.9847 100.937C46.52 103.844 46.5232 108.958 45.5173 112.573C44.4258 116.498 43.4412 121.526 40.9561 124.81C37.9577 128.774 33.8642 128.121 33.5588 122.836C33.298 118.33 35.5392 114.059 35.1631 109.485C34.9742 107.184 34.068 105.155 34.1234 102.825C34.1716 100.822 34.5647 98.9401 34.9352 96.9677C30.548 97.4998 27.1501 99.3034 24.0332 102.328C21.1148 105.16 19.8979 108.657 17.4879 111.896C15.2889 114.851 13.343 118.918 9.0022 118.817C3.46146 118.688 3.11267 111.866 5.1904 108.219C6.25238 106.355 7.72778 104.897 9.07767 103.255C10.5725 101.438 10.7489 99.9785 11.0571 97.6573C11.2914 95.8871 11.3557 93.5486 12.9483 92.3815C14.3806 91.3306 16.1786 91.8418 17.5036 90.4489C18.7711 89.1179 19.7717 87.1025 20.9102 85.6305C22.3321 83.7927 23.8037 81.8938 25.0684 79.9432C27.7891 75.7436 31.3646 72.8216 35.1329 69.5359C33.7666 68.6843 30.1634 69.6255 28.4711 69.3558C25.6905 68.9126 22.0922 67.5884 19.9377 65.6847C15.4661 61.7311 13.3169 56.5887 13.0966 50.6458C12.8849 44.9376 13.7802 38.0532 18.0216 33.811C20.1829 31.6489 22.9506 29.7565 25.6817 28.3777C27.5002 27.4602 31.2452 25.4587 33.3478 26.2851C38.2024 28.1948 27.2229 35.7894 25.7753 37.0047C21.1626 40.8759 18.4765 44.6125 18.5838 50.805C18.6875 56.8262 24.4885 59.6888 29.3403 61.6809C31.8569 62.7141 34.8966 63.5431 37.7077 63.4676C40.8934 63.3828 43.0603 61.5527 45.9618 60.4793C51.6732 58.367 57.5329 56.9468 63.4199 55.5238C69.2174 54.1216 75.5239 54.4383 81.4608 53.5228C87.042 52.662 92.2571 51.6007 97.5329 49.5708C102.996 47.4686 107.21 41.1994 113.168 40.5399C116.863 40.1312 115.057 42.7474 113.46 44.0893C111.55 45.6948 109.475 47.0933 107.564 48.7036C102.694 52.8055 97.5928 55.2183 91.4208 56.782C86.9375 57.9173 82.1038 58.9795 77.3392 59.6566C71.3244 60.5122 65.2702 60.245 59.3614 61.803C55.8631 62.7249 52.4657 63.8996 49.1651 65.3982C47.8132 66.0118 45.017 66.9952 44.7666 68.0867C44.4419 69.4997 45.5724 69.4716 44.2096 70.7732C41.9137 72.9662 38.9278 74.5171 36.609 76.7925C34.0262 79.3271 31.5695 81.7857 29.4774 84.758C27.4021 87.7069 25.7452 90.5647 22.6721 92.5985C21.6533 93.2725 19.9237 94.4548 18.7659 94.765C17.7005 95.0504 17.2134 94.6131 16.3016 95.2063C13.8755 96.7824 15.329 101.705 14.6889 104.142C13.8698 107.263 11.7729 109.606 10.4672 112.501C12.2941 112.105 13.5692 109.08 14.5084 107.653C15.5613 106.052 16.8943 104.974 18.2338 103.591C21.0505 100.683 21.796 96.7057 25.144 93.9677C31.2086 89.0082 40.6362 89.4362 45.6966 82.788C46.516 81.711 47.286 78.5985 48.2693 77.9209C50.0705 76.6804 49.9178 80.3876 49.7326 81.488C49.0992 85.2447 46.7824 89.6846 43.7535 92.056C42.3827 93.1298 40.4654 93.6213 39.2758 95.015C38.9845 95.1303 38.6939 95.2465 38.4022 95.3618C38.5762 95.9811 38.671 96.6104 38.6851 97.2498C38.7128 98.367 38.4419 99.4565 38.3965 100.583C38.2836 103.419 38.9109 105.843 39.4788 108.56C39.8855 110.5 38.7916 114.546 39.6632 116.127C41.3853 110.348 43.4103 103.673 46.6731 98.5362C47.4439 97.3213 48.973 96.3183 49.5802 95.0672C49.8684 94.7465 50.1569 94.4258 50.4455 94.1052C49.9399 93.637 49.4995 93.1145 49.1241 92.5382C47.1678 88.4267 51.4542 90.9689 53.1646 91.3182C55.9138 91.8792 59.3397 90.7262 62.1946 90.6398C64.9768 90.5554 67.7204 90.4626 70.4399 90.0306C73.3767 89.5648 76.4237 88.8603 79.2967 88.0903C82.1814 87.3159 84.847 85.7237 87.6508 85.024C84.8478 83.1079 83.9609 80.6139 82.9907 77.499C82.3538 75.4506 80.0896 70.4811 81.5147 68.4026C83.0591 66.1481 83.6104 69.615 84.1112 70.8432C84.9587 72.9192 86.2415 76.4621 87.8116 78.0198C88.658 78.8597 89.8013 78.7677 90.5576 79.8881C91.1138 80.7123 91.1894 81.8512 91.2762 82.8069C91.5338 85.6284 90.4182 87.887 89.4235 90.4557C87.1031 96.4448 86.1655 102.85 83.1306 108.548C84.9764 108.725 86.8869 108.46 88.7275 108.274Z" fill="black"/>
<path fill-rule="evenodd" clip-rule="evenodd" d="M127.554 61.0865C129.035 60.7381 133.696 60.2297 132.344 57.5143C130.976 54.7679 127.334 59.2094 127.554 61.0865ZM171.676 39.4634C170.806 39.1933 169.426 38.5644 168.495 38.6311C167.392 38.7102 166.571 39.51 165.452 39.6157C163.167 39.8315 161.401 38.8565 159.908 41.2963C163.084 41.2963 169.437 42.3729 171.676 39.4634ZM111.754 96.3597C114.776 96.7812 116.278 83.431 116.438 81.6821C115.082 81.5434 111.428 84.2058 111.109 85.4324C110.759 86.7798 111.965 88.9415 112.111 90.342C112.328 92.4153 112.098 94.3182 111.754 96.3597ZM128.597 20.1548C124.958 20.5092 120.886 21.6872 117.546 19.6632C114.838 18.0228 113.834 14.5618 111.554 12.5299C111.554 18.3898 116.823 23.007 122.185 24.8663C124.915 25.8129 129.098 24.3852 131.51 25.9281C132.21 26.3754 133.701 28.4131 133.756 29.2546C133.943 32.1235 131.897 29.556 130.739 29.6448C129.129 29.7678 126.889 34.0107 125.547 35.3008C124.538 36.2713 123.399 37.0589 122.259 37.8928C121.883 38.1681 119.952 39.1451 119.855 39.6173C119.771 40.0364 120.829 41.5764 121.053 41.9739C122.588 44.7094 124.437 46.6697 126.864 48.5995C128.059 49.5504 129.305 50.0796 130.503 50.8693C130.894 51.1281 132.485 53.2938 132.022 53.2026C132.691 51.1735 134.593 48.823 135.859 47.029C137.157 45.1892 138.867 43.2623 141.042 42.5176C141.998 42.1901 143.58 41.9091 144.575 41.8288C145.273 41.8043 145.965 41.8617 146.65 42.0008C147.648 42.4408 148.038 42.0868 147.82 40.9374C148.868 38.7617 148.251 36.0225 149.583 33.8126C151.146 31.2177 153.704 30.0422 156.634 30.3348C157.95 30.4662 159.369 31.0313 160.673 30.8006C161.965 30.5723 163.429 29.5299 164.693 29.0806C169.604 27.3344 175.665 25.2125 179.515 21.5746C180.099 21.0231 181.749 19.4928 181.879 18.7C181.536 17.9264 181.192 17.1539 180.849 16.3809C180.759 15.2477 180.208 14.9386 179.195 15.4541C178.003 15.4291 175.741 16.7974 174.548 17.1888C173.032 17.6861 171.508 18.1234 170.017 18.6848C167.43 19.6591 164.91 20.6598 162.194 21.2395C159.38 21.8389 158.041 22.2043 156.561 19.5391C155.113 16.934 155.319 15.4103 151.948 15.7914C148.945 16.1302 146.428 17.2634 143.658 18.4591C141.819 19.253 139.424 20.7151 137.553 21.0284C136.167 21.2608 134.671 20.7209 133.336 20.4425C131.649 20.0917 130.312 20.1532 128.597 20.1548ZM163.487 35.2851H165C163.827 34.5959 162.654 33.9063 161.481 33.2174C159.83 35.8819 155.704 34.7233 153.202 36.3111C151.148 37.6151 149.219 43.1726 151.191 45.1969C153.933 48.01 155.282 41.7677 156.061 40.3298C157.645 37.4029 160.03 35.2111 163.487 35.2851ZM115.539 41.2509C114.312 38.9345 115.116 36.7202 116.938 35.4908C119.566 33.7182 122.211 31.7759 124.788 29.812C120.408 29.1248 117.269 27.6764 113.698 25.005C109.577 21.9223 108.405 19.0737 108.52 13.8669C108.578 11.2534 108.213 3.82504 112.432 5.98145C115.917 7.76307 116.397 12.7452 120.147 14.434C123.851 16.102 128.214 14.372 132.11 15.671C133.218 16.041 136.184 18.6442 137.085 18.6322C138.282 18.6155 141.288 15.9707 142.42 15.3426C145.259 13.7674 148.931 12.2312 152.094 11.7772C154.081 11.4921 154.727 11.2878 156.167 12.752C157.779 14.3913 158.285 16.4179 158.86 18.5477C164.976 16.0296 171.154 13.6793 177.443 11.6261C179.44 10.974 180.811 10.14 182.515 9.08913C184.955 7.5848 186.312 8.2812 186.756 11.3915C187.537 16.8709 184.189 20.3752 181.279 24.4764C179.674 26.7381 178.578 28.3359 175.969 29.4909C173.254 30.6929 169.985 30.3055 167.036 31.2089C167.792 32.1304 168.192 34.2764 168.858 34.9242C169.401 35.4507 171.995 35.3634 172.87 35.8232C175.491 37.2012 175.18 39.5015 173.555 41.7761C171.722 44.3417 169.013 44.8147 166.052 45.0381C164.727 45.1378 163.546 45.1559 162.219 45.0622C161.361 45.0016 158.373 44.0744 157.726 44.3493C156.96 44.674 156.782 46.3643 156.433 47.1363C155.879 48.3632 155.262 49.605 153.958 50.1721C152.829 50.6619 151.556 50.5297 150.53 49.8566C149.154 48.9556 149.531 47.8914 148.665 46.7344C148.584 45.5155 148.064 45.2849 147.106 46.0404C146.375 46.2964 145.645 46.5552 144.915 46.816C143.407 47.3658 141.998 47.8958 140.67 48.8189C138.127 50.5864 136.587 53.5683 133.752 54.8113C135.602 57.972 134.447 62.2724 131.335 63.9137C130.633 64.2834 129.774 64.7379 129.028 64.9774C128.473 65.1563 127.02 65.0116 126.645 65.3214C126.101 65.7715 125.802 70.0294 125.422 70.9782C124.113 74.2402 121.335 75.8634 119.69 78.822C118.085 81.7094 118.43 86.1903 117.963 89.4426C117.385 93.4706 117.018 97.6991 115.292 101.437C114.139 103.938 110.677 106.903 107.62 106.41C103.126 105.685 105.08 99.9432 106.458 97.4688C108.584 93.6523 108.582 90.7644 108.042 86.5427C106.268 86.8064 101.872 88.5424 102.083 85.1611C102.228 82.8548 107.206 80.7409 108.951 79.5827C112.896 76.9649 116.932 73.9187 120.263 70.5643C121.64 69.1778 123.61 66.6175 124.311 64.721C124.821 63.3374 124.712 61.9915 124.822 60.5444C124.925 59.2126 126.093 57.3837 126.035 56.2194C125.95 54.493 121.404 51.7345 120.104 49.9068C118.252 47.3027 116.695 44.2231 115.539 41.2509Z" fill="black"/>
<path fill-rule="evenodd" clip-rule="evenodd" d="M206.588 47.0479C207.982 46.8658 213.336 45.3821 214.256 46.771C215.933 49.3044 211.002 49.7762 209.762 50.0061C204.282 51.0192 198.92 52.3671 193.606 53.8769C183.035 56.8793 172.258 60.6476 162.412 65.5392C160.87 66.3052 156.339 69.4225 154.796 67.8476C152.802 65.8137 157.639 63.5568 158.747 62.9231C163.658 60.1136 168.847 57.5934 174.118 55.5246C184.5 51.45 195.469 48.274 206.588 47.0479Z" fill="black"/>
<path fill-rule="evenodd" clip-rule="evenodd" d="M74.459 180.785C82.3228 179.612 90.8666 181.343 98.4982 183.73C100.944 184.495 103.492 185.384 105.73 186.63C106.936 187.301 109.803 188.496 110.486 189.751C111.624 191.845 110.35 192.737 108.518 192.393C106.776 192.065 104.636 191.064 102.818 190.606C94.4943 188.511 86.2198 186.939 77.7889 186.101C75.7719 185.9 74.3071 186.134 72.3628 186.488C70.9096 186.753 67.073 188.332 65.9807 187.406C62.0327 184.06 72.5798 180.993 74.459 180.785Z" fill="black"/>
<path fill-rule="evenodd" clip-rule="evenodd" d="M196.812 196.885C197.344 199.868 195.827 200.147 193.292 201.541C190.703 202.965 188.117 204.135 185.383 205.284C182.437 206.523 179.349 207.793 176.28 208.697C173.68 209.463 169.671 211.18 166.972 210.925C165.882 210.823 165.178 210.965 165.17 209.615C165.162 208.151 166.539 208.239 167.675 207.915C171.152 206.926 174.518 205.44 177.938 204.261C184.377 202.043 190.827 200.17 196.812 196.885Z" fill="black"/>
<path fill-rule="evenodd" clip-rule="evenodd" d="M1.74787 50.9971C-0.268806 47.668 -0.228255 43.2301 0.329785 39.4686C0.517822 38.2007 3.57704 28.827 5.42541 30.7757C6.52168 31.9315 2.78993 39.293 2.39915 40.9752C1.92779 43.0034 1.68554 45.0096 1.99623 47.0829C2.08086 47.6431 3.33627 51.2 1.74787 50.9971Z" fill="black"/>
<path fill-rule="evenodd" clip-rule="evenodd" d="M107.435 69.8936C105.958 67.8737 107.935 63.3547 108.533 61.2075C108.902 59.8845 110.028 54.9146 111.814 55.9755C113.548 57.0051 111.607 61.6632 111.26 62.9496C110.745 64.8577 109.996 69.8453 107.435 69.8936Z" fill="black"/>
<path fill-rule="evenodd" clip-rule="evenodd" d="M271.264 177.524C271.535 176.878 271.807 176.232 272.078 175.586C272.768 176.11 273.731 176.368 273.029 177.163C272.597 177.652 271.87 177.651 271.264 177.524Z" fill="black"/>
<path fill-rule="evenodd" clip-rule="evenodd" d="M246.348 51.5187C245.139 51.7039 244.331 51.714 243.133 51.6859C244.205 51.63 245.277 51.5745 246.348 51.5187Z" fill="black"/>
<path fill-rule="evenodd" clip-rule="evenodd" d="M285.535 145.446C285.532 144.642 285.529 143.838 285.526 143.034C285.529 143.839 285.532 144.642 285.535 145.446Z" fill="black"/>
<path fill-rule="evenodd" clip-rule="evenodd" d="M91.0281 85.1647C91.0249 84.3602 91.0229 83.5564 91.0205 82.7535C91.0233 83.558 91.0257 84.3614 91.0281 85.1647Z" fill="black"/>
<path fill-rule="evenodd" clip-rule="evenodd" d="M128.599 14.7382C127.796 14.733 126.991 14.7285 126.188 14.7233C126.996 14.3966 127.798 14.5537 128.599 14.7382Z" fill="black"/>
<path fill-rule="evenodd" clip-rule="evenodd" d="M134.04 262.391C134.031 262.927 134.02 263.463 134.009 263.998C134.019 263.461 134.029 262.925 134.04 262.391Z" fill="black"/>
<path fill-rule="evenodd" clip-rule="evenodd" d="M32.5517 69.6858C32.9552 69.6902 33.3579 69.6942 33.7573 69.6995C33.353 69.6954 32.9524 69.6906 32.5517 69.6858Z" fill="black"/>
<path fill-rule="evenodd" clip-rule="evenodd" d="M259.419 211.755C259.412 211.218 259.406 210.681 259.399 210.147C259.405 210.684 259.412 211.22 259.419 211.755Z" fill="black"/>
<path fill-rule="evenodd" clip-rule="evenodd" d="M279.867 106.464C279.891 105.927 279.917 105.391 279.942 104.856C279.917 105.394 279.891 105.929 279.867 106.464Z" fill="black"/>
<path fill-rule="evenodd" clip-rule="evenodd" d="M243.378 25.2857C243.349 25.822 243.32 26.3588 243.29 26.8932C243.319 26.3564 243.348 25.8215 243.378 25.2857Z" fill="black"/>
<path fill-rule="evenodd" clip-rule="evenodd" d="M346.608 201.708C346.613 201.171 346.618 200.635 346.623 200.1C346.618 200.637 346.613 201.172 346.608 201.708Z" fill="black"/>
<path fill-rule="evenodd" clip-rule="evenodd" d="M186.693 16.4445C186.678 15.9077 186.663 15.3709 186.647 14.837C186.662 15.3744 186.678 15.9094 186.693 16.4445Z" fill="black"/>
<path fill-rule="evenodd" clip-rule="evenodd" d="M18.6529 51.0056C18.6758 50.4691 18.6983 49.9326 18.7212 49.3981C18.6979 49.9354 18.6758 50.4707 18.6529 51.0056Z" fill="black"/>
<path fill-rule="evenodd" clip-rule="evenodd" d="M163.562 45.1812C163.966 45.1792 164.368 45.1775 164.768 45.1755C164.363 45.1775 163.963 45.1792 163.562 45.1812Z" fill="black"/>
<path fill-rule="evenodd" clip-rule="evenodd" d="M298.832 18.052C298.806 17.5153 298.779 16.9796 298.753 16.4445C298.779 16.9813 298.806 17.5164 298.832 18.052Z" fill="black"/>
<path fill-rule="evenodd" clip-rule="evenodd" d="M33.9575 101.24C33.9583 101.777 33.9591 102.313 33.9591 102.847C33.9583 102.31 33.9579 101.775 33.9575 101.24Z" fill="black"/>
<path fill-rule="evenodd" clip-rule="evenodd" d="M349.075 194.474C349.042 193.938 349.01 193.402 348.977 192.867C349.01 193.403 349.043 193.938 349.075 194.474Z" fill="black"/>
<path fill-rule="evenodd" clip-rule="evenodd" d="M149.095 190.274C149.498 190.261 149.901 190.248 150.3 190.235C149.896 190.248 149.495 190.262 149.095 190.274Z" fill="black"/>
<path fill-rule="evenodd" clip-rule="evenodd" d="M279.952 117.315C279.92 116.778 279.889 116.242 279.857 115.707C279.889 116.244 279.92 116.779 279.952 117.315Z" fill="black"/>
<path fill-rule="evenodd" clip-rule="evenodd" d="M87.2064 180.604C86.6703 180.608 86.1346 180.611 85.5989 180.615C86.135 180.611 86.6703 180.608 87.2064 180.604Z" fill="black"/>
<path fill-rule="evenodd" clip-rule="evenodd" d="M74.3464 180.534C73.8103 180.584 73.2746 180.635 72.739 180.685C73.2751 180.634 73.8107 180.584 74.3464 180.534Z" fill="black"/>
<path fill-rule="evenodd" clip-rule="evenodd" d="M279.52 113.698C279.509 113.295 279.496 112.893 279.485 112.492C279.497 112.894 279.509 113.296 279.52 113.698Z" fill="black"/>
<path fill-rule="evenodd" clip-rule="evenodd" d="M297.62 35.3325C297.598 34.9298 297.575 34.528 297.553 34.1269C297.576 34.5296 297.598 34.931 297.62 35.3325Z" fill="black"/>
<path fill-rule="evenodd" clip-rule="evenodd" d="M174.609 38.9493C174.612 38.5471 174.615 38.1456 174.619 37.7437C174.616 38.1464 174.613 38.5475 174.609 38.9493Z" fill="black"/>
<path fill-rule="evenodd" clip-rule="evenodd" d="M118.692 149.553C118.913 149.566 119.134 149.579 119.356 149.591C118.861 150.019 118.281 149.579 118.692 149.553Z" fill="black"/>
<path fill-rule="evenodd" clip-rule="evenodd" d="M143.067 189.859C143.336 189.854 143.604 189.85 143.87 189.845C143.6 189.85 143.333 189.854 143.067 189.859Z" fill="black"/>
<path fill-rule="evenodd" clip-rule="evenodd" d="M348.67 191.259C348.64 190.857 348.609 190.455 348.579 190.053C348.61 190.456 348.64 190.857 348.67 191.259Z" fill="black"/>
<path fill-rule="evenodd" clip-rule="evenodd" d="M35.2149 112.09C35.1807 112.492 35.1466 112.895 35.1128 113.296C35.147 112.893 35.1811 112.491 35.2149 112.09Z" fill="black"/>
<path fill-rule="evenodd" clip-rule="evenodd" d="M219.422 60.3434C218.941 60.7015 218.361 60.5014 217.815 60.4889C218.351 60.4403 218.887 60.3921 219.422 60.3434Z" fill="black"/>
<path fill-rule="evenodd" clip-rule="evenodd" d="M346.204 206.932C346.211 206.53 346.217 206.127 346.223 205.727C346.217 206.13 346.211 206.531 346.204 206.932Z" fill="black"/>
<path fill-rule="evenodd" clip-rule="evenodd" d="M255.343 221.801C255.374 221.399 255.406 220.996 255.438 220.596C255.406 220.999 255.374 221.4 255.343 221.801Z" fill="black"/>
<path fill-rule="evenodd" clip-rule="evenodd" d="M28.131 69.2675C28.4003 69.2831 28.6691 69.298 28.9348 69.3141C28.6651 69.2992 28.3979 69.2831 28.131 69.2675Z" fill="black"/>
<path fill-rule="evenodd" clip-rule="evenodd" d="M167.836 260.381C167.8 260.783 167.764 261.186 167.728 261.587C167.764 261.183 167.8 260.782 167.836 260.381Z" fill="black"/>
<path fill-rule="evenodd" clip-rule="evenodd" d="M156.328 244.571C157.4 244.529 158.471 244.486 159.543 244.444C158.472 244.486 157.4 244.529 156.328 244.571Z" fill="black"/>
<path fill-rule="evenodd" clip-rule="evenodd" d="M254.145 206.932C254.171 206.262 254.198 205.591 254.224 204.923C254.198 205.593 254.171 206.263 254.145 206.932Z" fill="black"/>
<path fill-rule="evenodd" clip-rule="evenodd" d="M275.685 25.5596C276.354 25.511 277.024 25.4623 277.694 25.4137C277.025 25.4623 276.354 25.511 275.685 25.5596Z" fill="black"/>
<path fill-rule="evenodd" clip-rule="evenodd" d="M84.3932 162.059C85.0632 162.102 85.7331 162.145 86.4026 162.188C85.7327 162.145 85.0628 162.102 84.3932 162.059Z" fill="black"/>
<path fill-rule="evenodd" clip-rule="evenodd" d="M132.035 146.651C131.752 146.048 131.768 145.513 132.081 145.044C132.249 145.591 132.234 146.126 132.035 146.651Z" fill="black"/>
<path fill-rule="evenodd" clip-rule="evenodd" d="M324.503 184.829C324.509 185.366 324.515 185.903 324.521 186.437C324.516 185.899 324.51 185.364 324.503 184.829Z" fill="black"/>
<path fill-rule="evenodd" clip-rule="evenodd" d="M163.371 237.474C163.364 236.938 163.358 236.401 163.352 235.867C163.358 236.405 163.364 236.94 163.371 237.474Z" fill="black"/>
<path fill-rule="evenodd" clip-rule="evenodd" d="M144.272 183.757C144.808 183.802 145.344 183.847 145.88 183.892C145.344 183.847 144.808 183.802 144.272 183.757Z" fill="black"/>
<path fill-rule="evenodd" clip-rule="evenodd" d="M134.252 148.628C134.168 147.982 134.285 147.742 134.601 147.907C134.685 148.514 134.568 148.755 134.252 148.628Z" fill="black"/>
<path fill-rule="evenodd" clip-rule="evenodd" d="M154.126 121.333C154.121 121.736 154.116 122.138 154.111 122.539C154.116 122.136 154.121 121.735 154.126 121.333Z" fill="black"/>
<path fill-rule="evenodd" clip-rule="evenodd" d="M338.583 197.689C338.579 197.287 338.576 196.885 338.573 196.484C338.576 196.886 338.579 197.287 338.583 197.689Z" fill="black"/>
<path fill-rule="evenodd" clip-rule="evenodd" d="M280.909 25.488C281.445 25.4872 281.981 25.4864 282.517 25.4852C281.98 25.486 281.445 25.4872 280.909 25.488Z" fill="black"/>
<path fill-rule="evenodd" clip-rule="evenodd" d="M242.329 142.036C242.06 142.032 241.791 142.027 241.526 142.023C241.796 142.028 242.062 142.032 242.329 142.036Z" fill="black"/>
<path fill-rule="evenodd" clip-rule="evenodd" d="M251.736 218.586C251.761 218.185 251.785 217.782 251.81 217.381C251.785 217.784 251.761 218.185 251.736 218.586Z" fill="black"/>
<path fill-rule="evenodd" clip-rule="evenodd" d="M189.684 224.8C189.415 224.81 189.146 224.821 188.88 224.831C189.15 224.82 189.417 224.81 189.684 224.8Z" fill="black"/>
<path fill-rule="evenodd" clip-rule="evenodd" d="M154.114 122.941C154.117 123.343 154.119 123.747 154.123 124.146C154.121 123.743 154.117 123.342 154.114 122.941Z" fill="black"/>
<path fill-rule="evenodd" clip-rule="evenodd" d="M129.805 19.86C129.402 19.8604 128.999 19.8608 128.599 19.8608C129.004 19.8608 129.405 19.8604 129.805 19.86Z" fill="black"/>
<path fill-rule="evenodd" clip-rule="evenodd" d="M131.716 51.8093C132.284 52.1786 132.368 52.5809 131.968 53.0149C131.323 52.9643 131.24 52.5628 131.716 51.8093Z" fill="black"/>
<path fill-rule="evenodd" clip-rule="evenodd" d="M150.503 41.7625C150.502 42.1647 150.501 42.567 150.499 42.9681C150.501 42.5646 150.502 42.1639 150.503 41.7625Z" fill="black"/>
<path fill-rule="evenodd" clip-rule="evenodd" d="M213.329 116.272C209.392 116.705 204.384 116.328 200.827 114.412C198.362 113.083 197.219 108.728 200.8 108.115C202.81 107.772 205.223 109.542 207.001 110.227C209.116 111.041 211.324 111.424 213.503 111.994C214.982 112.381 217.13 113.359 215.78 115.472C215.536 115.854 213.357 117.004 213.329 116.272Z" fill="black"/>
<path fill-rule="evenodd" clip-rule="evenodd" d="M268.853 135.643C268.467 138.171 268.409 140.963 267.196 143.274C265.448 146.604 265.103 143.036 265.379 141.206C265.785 138.508 266.005 135.746 265.803 133.019C265.637 130.784 264.133 128.167 265.234 126.156C268.238 128.102 268.3 132.454 268.853 135.643Z" fill="black"/>
<path fill-rule="evenodd" clip-rule="evenodd" d="M268.99 57.024C267.328 56.6434 264.609 55.5447 266.952 53.9947C267.904 53.3645 269.779 53.6667 270.842 53.0768C271.485 52.7195 271.85 51.9544 272.496 51.6771C274.634 50.7572 274.853 52.3277 274.049 54.3254C273.197 56.4381 271.153 57.1265 268.99 57.024Z" fill="black"/>
<path fill-rule="evenodd" clip-rule="evenodd" d="M268.028 43.7232C270.759 41.6817 270.388 44.2324 268.945 46.0292C268.408 46.6348 267.87 47.24 267.332 47.8444L267.804 48.4223C267.722 49.2442 268.491 49.8522 267.549 50.3903C265.995 51.2792 264.827 49.1783 264.834 48.0148C264.845 46.0846 266.747 44.8742 268.028 43.7232Z" fill="black"/>
<path fill-rule="evenodd" clip-rule="evenodd" d="M267.677 43.8875C265.127 46.3872 265.222 41.3545 266.577 40.2695C269.179 38.1869 267.503 43.0183 267.677 43.8875Z" fill="black"/>
<path fill-rule="evenodd" clip-rule="evenodd" d="M272.551 45.7784C272.369 44.8919 272.346 40.6927 274.112 40.972C276.032 41.2758 273.917 45.9106 272.551 45.7784Z" fill="black"/>
<path fill-rule="evenodd" clip-rule="evenodd" d="M269.255 57.2177C269.524 57.229 269.793 57.2406 270.058 57.2515C269.788 57.2406 269.522 57.229 269.255 57.2177Z" fill="black"/>
<path fill-rule="evenodd" clip-rule="evenodd" d="M146.819 25.6875C144.644 21.9827 149.608 15.6566 152.093 20.7767C152.43 21.4702 153.193 23.3392 152.275 23.9141C151.289 24.5312 151.5 23.6344 150.689 23.4993C149.723 23.3381 150.038 22.887 148.915 23.3771C148.117 23.7251 147.371 25.0485 146.819 25.6875Z" fill="black"/>
</svg>
