<svg width="166" height="121" viewBox="0 0 166 121" fill="none" xmlns="http://www.w3.org/2000/svg">
<path d="M118.98 1.92343L7.94633 27.7822C3.5577 28.8043 0.828556 33.1905 1.85063 37.5791L17.0633 102.9C18.0854 107.289 22.4717 110.018 26.8603 108.996L137.894 83.1372C142.282 82.1151 145.012 77.7288 143.99 73.3402L128.777 8.01913C127.755 3.6305 123.369 0.901359 118.98 1.92343Z" fill="#F56132"/>
<path d="M25.0111 109.995C22.9929 109.992 21.0348 109.308 19.4539 108.053C17.873 106.798 16.7619 105.047 16.3003 103.082L1.08601 37.7549C0.548925 35.4471 0.948394 33.0204 2.19693 31.0065C3.44546 28.9926 5.44128 27.5556 7.74721 27.0103L118.804 1.14595C121.115 0.609562 123.545 1.01225 125.559 2.26559C127.574 3.51894 129.008 5.5205 129.549 7.83079L144.763 73.1578C145.031 74.3012 145.07 75.4863 144.879 76.6451C144.689 77.8038 144.271 78.9136 143.651 79.9109C143.031 80.9082 142.22 81.7734 141.265 82.4569C140.31 83.1405 139.23 83.629 138.086 83.8945L27.045 109.767C26.3779 109.92 25.6956 109.997 25.0111 109.995ZM120.838 2.48607C120.275 2.4859 119.714 2.55205 119.167 2.68315L8.1256 28.5475C7.18193 28.7649 6.29042 29.1663 5.50211 29.7287C4.7138 30.2911 4.04418 31.0035 3.5316 31.8251C3.01902 32.6467 2.67355 33.5613 2.51497 34.5166C2.35638 35.472 2.38781 36.4492 2.60745 37.3923L17.8375 102.735C18.2805 104.635 19.4582 106.283 21.1128 107.317C22.7674 108.351 24.7643 108.688 26.6666 108.253L137.7 82.3888C138.643 82.1705 139.534 81.7685 140.321 81.2059C141.109 80.6432 141.778 79.9308 142.291 79.1095C142.803 78.2881 143.149 77.3739 143.308 76.419C143.467 75.464 143.436 74.4871 143.218 73.544L128.011 8.18553C127.633 6.5661 126.718 5.12202 125.416 4.08748C124.114 3.05295 122.501 2.48863 120.838 2.48607Z" fill="#093F68"/>
<path d="M4.7168 49.8882L131.643 20.3282L135.403 36.4742L8.47706 66.0342L4.7168 49.8882Z" fill="#093F68"/>
<path d="M8.48046 66.8195C8.29823 66.8239 8.1201 66.7651 7.97637 66.653C7.83264 66.5409 7.7322 66.3824 7.69215 66.2046L3.93193 50.0601C3.88448 49.8582 3.91847 49.6458 4.02653 49.4688C4.08068 49.3805 4.15172 49.3037 4.23558 49.2428C4.31945 49.1819 4.41449 49.1382 4.51528 49.1141L131.433 19.5447C131.534 19.5214 131.638 19.5181 131.74 19.5352C131.843 19.5523 131.94 19.5893 132.028 19.6442C132.116 19.6991 132.192 19.7708 132.252 19.8552C132.312 19.9396 132.355 20.035 132.379 20.1359L136.147 36.2805C136.17 36.3821 136.173 36.4875 136.156 36.5903C136.138 36.6931 136.1 36.7915 136.044 36.8796C135.933 37.055 135.758 37.1797 135.556 37.2264L8.63812 66.7958C8.58661 66.8095 8.53373 66.8175 8.48046 66.8195ZM5.66621 50.47L9.07169 65.0773L134.46 35.91L131.054 21.3026L5.66621 50.47Z" fill="#093F68"/>
<path d="M157.053 36.8169H43.0478C38.5417 36.8169 34.8888 40.4698 34.8888 44.9759V112.045C34.8888 116.551 38.5417 120.204 43.0478 120.204H157.053C161.559 120.204 165.212 116.551 165.212 112.045V44.9759C165.212 40.4698 161.559 36.8169 157.053 36.8169Z" fill="#68E1FD"/>
<path d="M157.053 121H43.04C40.669 120.996 38.3965 120.051 36.7207 118.374C35.0449 116.697 34.1027 114.424 34.1006 112.053V44.9756C34.1027 42.6046 35.0449 40.3313 36.7207 38.654C38.3965 36.9767 40.669 36.0325 43.04 36.0283H157.053C159.425 36.0304 161.7 36.9737 163.377 38.6512C165.055 40.3287 165.998 42.6033 166 44.9756V112.053C165.998 114.425 165.055 116.7 163.377 118.377C161.7 120.055 159.425 120.998 157.053 121ZM43.04 37.6049C41.0872 37.6091 39.2157 38.3872 37.8355 39.7688C36.4554 41.1504 35.6793 43.0228 35.6772 44.9756V112.053C35.6772 114.006 36.4527 115.88 37.8332 117.262C39.2138 118.644 41.0865 119.421 43.04 119.423H157.053C159.008 119.423 160.882 118.647 162.265 117.264C163.647 115.882 164.423 114.007 164.423 112.053V44.9756C164.421 43.0214 163.644 41.1479 162.262 39.7661C160.881 38.3842 159.007 37.607 157.053 37.6049H43.04Z" fill="#093F68"/>
<path d="M125.442 73.4098C130.505 73.4098 134.61 69.3051 134.61 64.2417C134.61 59.1784 130.505 55.0737 125.442 55.0737C120.378 55.0737 116.274 59.1784 116.274 64.2417C116.274 69.3051 120.378 73.4098 125.442 73.4098Z" fill="#FFBC0E"/>
<path d="M125.442 74.1983C123.472 74.1998 121.546 73.6172 119.908 72.5242C118.27 71.4311 116.992 69.8767 116.237 68.0575C115.483 66.2384 115.284 64.2363 115.668 62.3044C116.051 60.3726 116.999 58.5978 118.391 57.2046C119.783 55.8114 121.557 54.8623 123.488 54.4775C125.42 54.0927 127.422 54.2894 129.242 55.0428C131.062 55.7961 132.617 57.0722 133.711 58.7097C134.806 60.3472 135.39 62.2725 135.39 64.242C135.386 66.8799 134.337 69.4087 132.472 71.2748C130.607 73.1408 128.079 74.192 125.442 74.1983ZM125.442 55.8701C123.783 55.8686 122.162 56.3589 120.783 57.2791C119.404 58.1993 118.329 59.5079 117.693 61.0394C117.058 62.5709 116.891 64.2565 117.215 65.8827C117.538 67.5089 118.336 69.0028 119.508 70.1752C120.681 71.3476 122.175 72.1458 123.801 72.4689C125.427 72.792 127.113 72.6254 128.644 71.9902C130.176 71.3549 131.484 70.2797 132.404 68.9004C133.325 67.5212 133.815 65.9 133.813 64.242C133.809 62.0229 132.926 59.8959 131.357 58.3268C129.788 56.7577 127.661 55.8743 125.442 55.8701Z" fill="#093F68"/>
<path d="M139.757 73.4098C144.82 73.4098 148.925 69.3051 148.925 64.2417C148.925 59.1784 144.82 55.0737 139.757 55.0737C134.694 55.0737 130.589 59.1784 130.589 64.2417C130.589 69.3051 134.694 73.4098 139.757 73.4098Z" fill="#F56132"/>
<path d="M139.757 74.1983C137.788 74.1998 135.862 73.6172 134.224 72.5242C132.585 71.4311 131.308 69.8767 130.553 68.0575C129.798 66.2384 129.6 64.2363 129.983 62.3044C130.367 60.3726 131.314 58.5978 132.706 57.2046C134.099 55.8114 135.873 54.8623 137.804 54.4775C139.736 54.0927 141.738 54.2894 143.558 55.0428C145.377 55.7961 146.933 57.0722 148.027 58.7097C149.122 60.3472 149.706 62.2725 149.706 64.242C149.702 66.8799 148.652 69.4087 146.788 71.2748C144.923 73.1408 142.395 74.192 139.757 74.1983ZM139.757 55.8701C138.099 55.8686 136.478 56.3589 135.099 57.2791C133.72 58.1993 132.644 59.5079 132.009 61.0394C131.374 62.5709 131.207 64.2565 131.53 65.8827C131.853 67.5089 132.652 69.0028 133.824 70.1752C134.996 71.3476 136.49 72.1458 138.117 72.4689C139.743 72.792 141.428 72.6254 142.96 71.9902C144.491 71.3549 145.8 70.2797 146.72 68.9004C147.64 67.5212 148.131 65.9 148.129 64.242C148.125 62.0229 147.242 59.8959 145.672 58.3268C144.103 56.7577 141.976 55.8743 139.757 55.8701Z" fill="#093F68"/>
<path d="M62.4399 74.1508H53.6818C52.2147 74.1508 50.807 73.5707 49.7659 72.537C48.7248 71.5032 48.1347 70.0997 48.1243 68.6326V59.843C48.1242 59.115 48.2683 58.3942 48.548 57.7221C48.8278 57.0501 49.2378 56.44 49.7544 55.9271C50.271 55.4142 50.884 55.0085 51.558 54.7335C52.2321 54.4585 52.9539 54.3196 53.6818 54.3248H62.4399C63.9034 54.3248 65.307 54.9062 66.3418 55.9411C67.3767 56.9759 67.9581 58.3795 67.9581 59.843V68.6011C67.956 70.0669 67.375 71.4725 66.3415 72.5119C65.308 73.5513 63.9057 74.1404 62.4399 74.1508ZM53.6818 55.8699C53.1609 55.8647 52.6441 55.9628 52.1614 56.1586C51.6786 56.3543 51.2394 56.6438 50.8692 57.0104C50.499 57.3769 50.2052 57.8132 50.0046 58.294C49.8041 58.7747 49.7009 59.2905 49.7009 59.8115V68.6011C49.7009 69.122 49.8041 69.6378 50.0046 70.1186C50.2052 70.5994 50.499 71.0357 50.8692 71.4022C51.2394 71.7687 51.6786 72.0582 52.1614 72.254C52.6441 72.4497 53.1609 72.5478 53.6818 72.5426H62.4399C63.4853 72.5426 64.4878 72.1274 65.227 71.3882C65.9662 70.649 66.3815 69.6464 66.3815 68.6011V59.843C66.3815 58.7976 65.9662 57.7951 65.227 57.0559C64.4878 56.3167 63.4853 55.9015 62.4399 55.9015L53.6818 55.8699Z" fill="#093F68"/>
<path d="M70.5674 102.735H48.9126C48.7035 102.735 48.503 102.652 48.3552 102.504C48.2073 102.356 48.1243 102.156 48.1243 101.947V92.7156C48.1243 92.5065 48.2073 92.306 48.3552 92.1581C48.503 92.0103 48.7035 91.9272 48.9126 91.9272H70.5674C70.7764 91.9272 70.9769 92.0103 71.1248 92.1581C71.2726 92.306 71.3557 92.5065 71.3557 92.7156V101.947C71.3557 102.156 71.2726 102.356 71.1248 102.504C70.9769 102.652 70.7764 102.735 70.5674 102.735ZM49.7009 101.158H69.7791V93.5039H49.7009V101.158Z" fill="#093F68"/>
<path d="M97.441 102.735H75.7862C75.5772 102.735 75.3767 102.652 75.2288 102.504C75.081 102.356 74.9979 102.156 74.9979 101.947V92.7156C74.9979 92.5065 75.081 92.306 75.2288 92.1581C75.3767 92.0103 75.5772 91.9272 75.7862 91.9272H97.441C97.6501 91.9272 97.8506 92.0103 97.9984 92.1581C98.1463 92.306 98.2293 92.5065 98.2293 92.7156V101.947C98.2293 102.156 98.1463 102.356 97.9984 102.504C97.8506 102.652 97.6501 102.735 97.441 102.735ZM76.5745 101.158H96.6527V93.5039H76.5745V101.158Z" fill="#093F68"/>
<path d="M124.306 102.735H102.659C102.45 102.735 102.25 102.652 102.102 102.504C101.954 102.356 101.871 102.156 101.871 101.947V92.7156C101.871 92.5065 101.954 92.306 102.102 92.1581C102.25 92.0103 102.45 91.9272 102.659 91.9272H124.306C124.515 91.9272 124.716 92.0103 124.864 92.1581C125.012 92.306 125.095 92.5065 125.095 92.7156V101.947C125.095 102.156 125.012 102.356 124.864 102.504C124.716 102.652 124.515 102.735 124.306 102.735ZM103.448 101.158H123.518V93.5039H103.448V101.158Z" fill="#093F68"/>
<path d="M151.219 102.735H129.533C129.324 102.735 129.123 102.652 128.976 102.504C128.828 102.356 128.745 102.156 128.745 101.947V92.7156C128.745 92.5065 128.828 92.306 128.976 92.1581C129.123 92.0103 129.324 91.9272 129.533 91.9272H151.219C151.428 91.9272 151.629 92.0103 151.777 92.1581C151.925 92.306 152.008 92.5065 152.008 92.7156V101.947C152.008 102.156 151.925 102.356 151.777 102.504C151.629 102.652 151.428 102.735 151.219 102.735ZM130.361 101.158H150.431V93.5039H130.321L130.361 101.158Z" fill="#093F68"/>
</svg>
