<svg width="45" height="45" viewBox="0 0 45 45" fill="none" xmlns="http://www.w3.org/2000/svg">
<path d="M0 22.5C0 10.0736 10.0736 0 22.5 0C34.9265 0 45 10.0736 45 22.5C45 34.9265 34.9265 45 22.5 45C10.0736 45 0 34.9265 0 22.5ZM15.4688 21.0938C17.022 21.0938 18.2812 19.8345 18.2812 18.2812C18.2812 16.728 17.022 15.4688 15.4688 15.4688C13.9155 15.4688 12.6562 16.728 12.6562 18.2812C12.6562 19.8345 13.9155 21.0938 15.4688 21.0938ZM32.3438 18.2812C32.3438 16.728 31.0846 15.4688 29.5312 15.4688C27.9779 15.4688 26.7188 16.728 26.7188 18.2812C26.7188 19.8345 27.9779 21.0938 29.5312 21.0938C31.0846 21.0938 32.3438 19.8345 32.3438 18.2812ZM32.5192 32.0355C33.1256 31.5503 33.2238 30.6653 32.7386 30.0589L31.6406 30.9375C32.7386 30.0589 32.7369 30.0569 32.7367 30.0563L32.7344 30.0535L32.7288 30.0468L32.7147 30.0299L32.6737 29.981C32.6402 29.9422 32.5949 29.891 32.5378 29.8294C32.4236 29.7065 32.2608 29.5408 32.0482 29.3476C31.6235 28.9614 30.9971 28.4619 30.157 27.9678C28.4687 26.9741 25.9411 26.0156 22.5053 26.0156C19.0697 26.0156 16.5396 26.9741 14.8492 27.9672C14.008 28.4611 13.3805 28.9603 12.9548 29.3465C12.7418 29.5394 12.5787 29.7048 12.4641 29.8277C12.4068 29.8893 12.3615 29.9405 12.328 29.979L12.2867 30.0279L12.2727 30.0448L12.2673 30.0516L12.265 30.0544L12.2629 30.0569C12.2624 30.0575 12.2629 30.0569 13.3593 30.9375L12.2629 30.0569C11.7766 30.6624 11.8732 31.5475 12.4787 32.0338C13.0814 32.5178 13.9613 32.4245 14.449 31.8263L14.4571 31.8167C14.4681 31.804 14.4897 31.7796 14.5219 31.745C14.5864 31.6758 14.6934 31.5664 14.8439 31.43C15.1451 31.1569 15.6187 30.7769 16.2737 30.3922C17.5758 29.6274 19.6187 28.8281 22.5053 28.8281C25.3918 28.8281 27.4317 29.6272 28.7305 30.3916C29.3842 30.7761 29.8561 31.1557 30.1562 31.4286C30.3061 31.565 30.4127 31.6741 30.4768 31.7433C30.5089 31.7779 30.5303 31.8023 30.5412 31.815L30.5494 31.8243C31.0359 32.4233 31.9154 32.5184 32.5192 32.0355Z" fill="#FF5678"/>
</svg>
