<svg width="8" height="8" viewBox="0 0 8 8" fill="none" xmlns="http://www.w3.org/2000/svg">
<path d="M0.77832 3.44564C0.673904 3.34907 0.730623 3.17451 0.871855 3.15776L2.87305 2.9205C2.93061 2.91367 2.9806 2.87741 3.00488 2.82477L3.84896 0.994816C3.90853 0.865671 4.09212 0.865655 4.15169 0.9948L4.99577 2.8248C5.02005 2.87743 5.06972 2.91368 5.12728 2.9205L7.12858 3.15776C7.26981 3.17451 7.3265 3.34908 7.22208 3.44565L5.74264 4.81389C5.70008 4.85325 5.68109 4.91191 5.69238 4.96876L6.08505 6.94536C6.11276 7.08486 5.96432 7.19273 5.84021 7.12326L4.08176 6.13896C4.03118 6.11065 3.96957 6.11061 3.91899 6.13892L2.16036 7.12328C2.03626 7.19274 1.88765 7.08487 1.91536 6.94538L2.30812 4.96874C2.31942 4.91188 2.30045 4.85326 2.25789 4.81391L0.77832 3.44564Z" fill="black" stroke="black" stroke-width="0.666667" stroke-linecap="round" stroke-linejoin="round"/>
</svg>
