<svg width="164" height="164" viewBox="0 0 164 164" fill="none" xmlns="http://www.w3.org/2000/svg">
<path d="M82 164C127.287 164 164 127.287 164 82C164 36.7126 127.287 0 82 0C36.7126 0 0 36.7126 0 82C0 127.287 36.7126 164 82 164Z" fill="#7EDBA3"/>
<path opacity="0.2" d="M122.487 43.5625C122.231 43.5625 122.231 43.5625 122.231 43.5625H82.5125C81.4874 43.5625 79.4375 45.1 79.1812 45.3563L32.5437 91.9938C29.9812 94.5563 29.9812 98.4 32.5437 100.963L68.1625 136.581C69.4437 137.862 70.9812 138.375 72.5187 138.375C74.0562 138.375 75.8499 137.862 76.875 136.581L123.256 90.2C123.512 89.9438 125.05 87.8938 125.05 86.8688V46.6375C125.562 44.8438 124.281 43.5625 122.487 43.5625ZM112.75 61.5C109.931 61.5 107.625 59.1938 107.625 56.375C107.625 53.5562 109.931 51.25 112.75 51.25C115.569 51.25 117.875 53.5562 117.875 56.375C117.875 59.1938 115.569 61.5 112.75 61.5Z" fill="#231F20"/>
<path d="M122.487 38.4375C122.231 38.4375 122.231 38.4375 122.231 38.4375H82.5125C81.4875 38.4375 79.4375 39.975 79.1812 40.2312L32.5437 86.8688C29.9812 89.4313 29.9812 93.275 32.5437 95.8375L68.1625 131.456C69.4437 132.737 70.9812 133.25 72.5187 133.25C74.0562 133.25 75.8499 132.737 76.8749 131.456L123.256 85.075C123.512 84.8188 125.05 82.7687 125.05 81.7437V41.5125C125.562 39.7188 124.281 38.4375 122.487 38.4375V38.4375ZM112.75 56.375C109.931 56.375 107.625 54.0688 107.625 51.25C107.625 48.4312 109.931 46.125 112.75 46.125C115.569 46.125 117.875 48.4312 117.875 51.25C117.875 54.0688 115.569 56.375 112.75 56.375Z" fill="#FF5678"/>
</svg>
